%TF.GenerationSoftware,KiCad,Pcbnew,5.1.9+dfsg1-1*%
%TF.CreationDate,2022-03-08T22:31:31+00:00*%
%TF.ProjectId,guante metaversal,6775616e-7465-4206-9d65-746176657273,rev?*%
%TF.SameCoordinates,Original*%
%TF.FileFunction,OtherDrawing,Comment*%
%FSLAX46Y46*%
G04 Gerber Fmt 4.6, Leading zero omitted, Abs format (unit mm)*
G04 Created by KiCad (PCBNEW 5.1.9+dfsg1-1) date 2022-03-08 22:31:31*
%MOMM*%
%LPD*%
G01*
G04 APERTURE LIST*
%ADD10C,0.150000*%
G04 APERTURE END LIST*
D10*
X203952285Y-111204833D02*
X203285619Y-111204833D01*
X204333238Y-110966738D02*
X203618952Y-110728642D01*
X203618952Y-111347690D01*
X204190380Y-111681023D02*
X204238000Y-111728642D01*
X204285619Y-111823880D01*
X204285619Y-112061976D01*
X204238000Y-112157214D01*
X204190380Y-112204833D01*
X204095142Y-112252452D01*
X203999904Y-112252452D01*
X203857047Y-112204833D01*
X203285619Y-111633404D01*
X203285619Y-112252452D01*
X203380857Y-112681023D02*
X203333238Y-112728642D01*
X203285619Y-112681023D01*
X203333238Y-112633404D01*
X203380857Y-112681023D01*
X203285619Y-112681023D01*
X204285619Y-113061976D02*
X204285619Y-113728642D01*
X203285619Y-113300071D01*
X203285619Y-114157214D02*
X203285619Y-114347690D01*
X203333238Y-114442928D01*
X203380857Y-114490547D01*
X203523714Y-114585785D01*
X203714190Y-114633404D01*
X204095142Y-114633404D01*
X204190380Y-114585785D01*
X204238000Y-114538166D01*
X204285619Y-114442928D01*
X204285619Y-114252452D01*
X204238000Y-114157214D01*
X204190380Y-114109595D01*
X204095142Y-114061976D01*
X203857047Y-114061976D01*
X203761809Y-114109595D01*
X203714190Y-114157214D01*
X203666571Y-114252452D01*
X203666571Y-114442928D01*
X203714190Y-114538166D01*
X203761809Y-114585785D01*
X203857047Y-114633404D01*
X203285619Y-115109595D02*
X203285619Y-115300071D01*
X203333238Y-115395309D01*
X203380857Y-115442928D01*
X203523714Y-115538166D01*
X203714190Y-115585785D01*
X204095142Y-115585785D01*
X204190380Y-115538166D01*
X204238000Y-115490547D01*
X204285619Y-115395309D01*
X204285619Y-115204833D01*
X204238000Y-115109595D01*
X204190380Y-115061976D01*
X204095142Y-115014357D01*
X203857047Y-115014357D01*
X203761809Y-115061976D01*
X203714190Y-115109595D01*
X203666571Y-115204833D01*
X203666571Y-115395309D01*
X203714190Y-115490547D01*
X203761809Y-115538166D01*
X203857047Y-115585785D01*
X203285619Y-116776261D02*
X203952285Y-116776261D01*
X203857047Y-116776261D02*
X203904666Y-116823880D01*
X203952285Y-116919119D01*
X203952285Y-117061976D01*
X203904666Y-117157214D01*
X203809428Y-117204833D01*
X203285619Y-117204833D01*
X203809428Y-117204833D02*
X203904666Y-117252452D01*
X203952285Y-117347690D01*
X203952285Y-117490547D01*
X203904666Y-117585785D01*
X203809428Y-117633404D01*
X203285619Y-117633404D01*
X203285619Y-118109595D02*
X203952285Y-118109595D01*
X203857047Y-118109595D02*
X203904666Y-118157214D01*
X203952285Y-118252452D01*
X203952285Y-118395309D01*
X203904666Y-118490547D01*
X203809428Y-118538166D01*
X203285619Y-118538166D01*
X203809428Y-118538166D02*
X203904666Y-118585785D01*
X203952285Y-118681023D01*
X203952285Y-118823880D01*
X203904666Y-118919119D01*
X203809428Y-118966738D01*
X203285619Y-118966738D01*
X202438000Y-93472000D02*
X202438000Y-136271000D01*
X183134000Y-93472000D02*
X203024421Y-93472000D01*
X183134000Y-136271000D02*
X203024421Y-136271000D01*
X202438000Y-136271000D02*
X201851579Y-135144496D01*
X202438000Y-136271000D02*
X203024421Y-135144496D01*
X202438000Y-93472000D02*
X201851579Y-94598504D01*
X202438000Y-93472000D02*
X203024421Y-94598504D01*
M02*
