%TF.GenerationSoftware,KiCad,Pcbnew,5.1.9+dfsg1-1*%
%TF.CreationDate,2022-03-08T22:31:30+00:00*%
%TF.ProjectId,guante metaversal,6775616e-7465-4206-9d65-746176657273,rev?*%
%TF.SameCoordinates,Original*%
%TF.FileFunction,Copper,L2,Bot*%
%TF.FilePolarity,Positive*%
%FSLAX46Y46*%
G04 Gerber Fmt 4.6, Leading zero omitted, Abs format (unit mm)*
G04 Created by KiCad (PCBNEW 5.1.9+dfsg1-1) date 2022-03-08 22:31:30*
%MOMM*%
%LPD*%
G01*
G04 APERTURE LIST*
%TA.AperFunction,ComponentPad*%
%ADD10R,1.700000X1.700000*%
%TD*%
%TA.AperFunction,ComponentPad*%
%ADD11O,1.700000X1.700000*%
%TD*%
%TA.AperFunction,ComponentPad*%
%ADD12C,1.600000*%
%TD*%
%TA.AperFunction,ComponentPad*%
%ADD13O,1.600000X1.600000*%
%TD*%
%TA.AperFunction,ComponentPad*%
%ADD14C,1.524000*%
%TD*%
%TA.AperFunction,ComponentPad*%
%ADD15C,1.800000*%
%TD*%
%TA.AperFunction,ComponentPad*%
%ADD16R,1.800000X1.800000*%
%TD*%
%TA.AperFunction,ComponentPad*%
%ADD17C,0.200000*%
%TD*%
%TA.AperFunction,ComponentPad*%
%ADD18C,2.000000*%
%TD*%
%TA.AperFunction,ComponentPad*%
%ADD19R,1.600000X1.600000*%
%TD*%
%TA.AperFunction,Conductor*%
%ADD20C,0.250000*%
%TD*%
%TA.AperFunction,Conductor*%
%ADD21C,1.000000*%
%TD*%
%TA.AperFunction,Conductor*%
%ADD22C,0.254000*%
%TD*%
%TA.AperFunction,Conductor*%
%ADD23C,0.200000*%
%TD*%
G04 APERTURE END LIST*
D10*
%TO.P,U7,13*%
%TO.N,+3V3*%
X173228000Y-125730000D03*
D11*
%TO.P,U7,18*%
%TO.N,GND*%
X173228000Y-123190000D03*
%TO.P,U7,23*%
%TO.N,SCL*%
X173228000Y-120650000D03*
%TO.P,U7,24*%
%TO.N,SDA*%
X173228000Y-118110000D03*
%TO.P,U7,21*%
%TO.N,Net-(U7-Pad21)*%
X173228000Y-115570000D03*
%TO.P,U7,7*%
%TO.N,Net-(U7-Pad7)*%
X173228000Y-113030000D03*
%TO.P,U7,9*%
%TO.N,Net-(U7-Pad9)*%
X173228000Y-110490000D03*
%TO.P,U7,12*%
%TO.N,+3V3*%
X173228000Y-107950000D03*
%TO.P,U7,22*%
%TO.N,Net-(U7-Pad22)*%
X173228000Y-105410000D03*
%TO.P,U7,11*%
%TO.N,Net-(U7-Pad11)*%
X173228000Y-102870000D03*
%TD*%
D12*
%TO.P,R16,1*%
%TO.N,+3V3*%
X130556000Y-118516000D03*
D13*
%TO.P,R16,2*%
%TO.N,Net-(D1-Pad2)*%
X130556000Y-126136000D03*
%TD*%
D12*
%TO.P,R16,1*%
%TO.N,+3V3*%
X130556000Y-108356000D03*
D13*
%TO.P,R16,2*%
%TO.N,Net-(D1-Pad2)*%
X130556000Y-115976000D03*
%TD*%
D12*
%TO.P,R16,1*%
%TO.N,+3V3*%
X130556000Y-98196000D03*
D13*
%TO.P,R16,2*%
%TO.N,Net-(D1-Pad2)*%
X130556000Y-105816000D03*
%TD*%
D12*
%TO.P,R16,1*%
%TO.N,+3V3*%
X130556000Y-88036000D03*
D13*
%TO.P,R16,2*%
%TO.N,Net-(D1-Pad2)*%
X130556000Y-95656000D03*
%TD*%
D11*
%TO.P,J1,16*%
%TO.N,GND*%
X183311800Y-105841800D03*
%TO.P,J1,15*%
%TO.N,+3V3*%
X180771800Y-105841800D03*
%TO.P,J1,14*%
%TO.N,SCL*%
X183311800Y-108381800D03*
%TO.P,J1,13*%
%TO.N,SDA*%
X180771800Y-108381800D03*
%TO.P,J1,12*%
%TO.N,Net-(D21-Pad4)*%
X183311800Y-110921800D03*
%TO.P,J1,11*%
%TO.N,Net-(J1-Pad11)*%
X180771800Y-110921800D03*
%TO.P,J1,10*%
%TO.N,s10*%
X183311800Y-113461800D03*
%TO.P,J1,9*%
%TO.N,s9*%
X180771800Y-113461800D03*
%TO.P,J1,8*%
%TO.N,s8*%
X183311800Y-116001800D03*
%TO.P,J1,7*%
%TO.N,s7*%
X180771800Y-116001800D03*
%TO.P,J1,6*%
%TO.N,s6*%
X183311800Y-118541800D03*
%TO.P,J1,5*%
%TO.N,s5*%
X180771800Y-118541800D03*
%TO.P,J1,4*%
%TO.N,s4*%
X183311800Y-121081800D03*
%TO.P,J1,3*%
%TO.N,s3*%
X180771800Y-121081800D03*
%TO.P,J1,2*%
%TO.N,s2*%
X183311800Y-123621800D03*
D10*
%TO.P,J1,1*%
%TO.N,s1*%
X180771800Y-123621800D03*
%TD*%
D14*
%TO.P,U2,2*%
%TO.N,s1*%
X140716000Y-108839000D03*
%TO.P,U2,3*%
%TO.N,s2*%
X140716000Y-111379000D03*
%TO.P,U2,4*%
%TO.N,s3*%
X140716000Y-113919000D03*
%TO.P,U2,5*%
%TO.N,s4*%
X140716000Y-116459000D03*
%TO.P,U2,6*%
%TO.N,s5*%
X140716000Y-118999000D03*
%TO.P,U2,7*%
%TO.N,s6*%
X140716000Y-121539000D03*
%TO.P,U2,8*%
%TO.N,s7*%
X140716000Y-124079000D03*
%TO.P,U2,9*%
%TO.N,s8*%
X140716000Y-126619000D03*
%TO.P,U2,10*%
%TO.N,s9*%
X140716000Y-129159000D03*
%TO.P,U2,11*%
%TO.N,s10*%
X140716000Y-131699000D03*
%TO.P,U2,12*%
%TO.N,Net-(J1-Pad11)*%
X140716000Y-134239000D03*
%TO.P,U2,13*%
%TO.N,Net-(D21-Pad4)*%
X140716000Y-136779000D03*
%TO.P,U2,14*%
%TO.N,GND*%
X140716000Y-139319000D03*
%TO.P,U2,15*%
%TO.N,vin*%
X140716000Y-141859000D03*
%TO.P,U2,16*%
%TO.N,+3V3*%
X166116000Y-141859000D03*
%TO.P,U2,17*%
%TO.N,GND*%
X166116000Y-139319000D03*
%TO.P,U2,18*%
%TO.N,Net-(U2-Pad18)*%
X166116000Y-136779000D03*
%TO.P,U2,19*%
%TO.N,Net-(U2-Pad19)*%
X166116000Y-134239000D03*
%TO.P,U2,20*%
%TO.N,Net-(U2-Pad20)*%
X166116000Y-131699000D03*
%TO.P,U2,21*%
%TO.N,Net-(U2-Pad21)*%
X166116000Y-129159000D03*
%TO.P,U2,22*%
%TO.N,Net-(U2-Pad22)*%
X166116000Y-126619000D03*
%TO.P,U2,23*%
%TO.N,Net-(U2-Pad23)*%
X166116000Y-124079000D03*
%TO.P,U2,24*%
%TO.N,Net-(U2-Pad24)*%
X166116000Y-121539000D03*
%TO.P,U2,25*%
%TO.N,Net-(R11-Pad1)*%
X166116000Y-118999000D03*
%TO.P,U2,26*%
%TO.N,SDA*%
X166116000Y-116459000D03*
%TO.P,U2,27*%
%TO.N,Net-(U2-Pad27)*%
X166116000Y-113919000D03*
%TO.P,U2,28*%
%TO.N,Net-(U2-Pad28)*%
X166116000Y-111379000D03*
%TO.P,U2,29*%
%TO.N,SCL*%
X166116000Y-108839000D03*
%TO.P,U2,1*%
%TO.N,Net-(U2-Pad1)*%
X140716000Y-106299000D03*
%TO.P,U2,30*%
%TO.N,Net-(BZ1-Pad1)*%
X166116000Y-106299000D03*
%TD*%
D10*
%TO.P,TP2,1*%
%TO.N,GND*%
X132842000Y-95250000D03*
%TD*%
D15*
%TO.P,D3,2*%
%TO.N,Net-(D1-Pad2)*%
X137287000Y-95250000D03*
D16*
%TO.P,D3,1*%
%TO.N,GND*%
X134747000Y-95250000D03*
%TD*%
%TO.P,D1,1*%
%TO.N,GND*%
X124587000Y-95250000D03*
D15*
%TO.P,D1,2*%
%TO.N,Net-(D1-Pad2)*%
X127127000Y-95250000D03*
%TD*%
D10*
%TO.P,TP2,1*%
%TO.N,GND*%
X132842000Y-105410000D03*
%TD*%
D16*
%TO.P,D3,1*%
%TO.N,GND*%
X134747000Y-105410000D03*
D15*
%TO.P,D3,2*%
%TO.N,Net-(D1-Pad2)*%
X137287000Y-105410000D03*
%TD*%
%TO.P,D1,2*%
%TO.N,Net-(D1-Pad2)*%
X127127000Y-105410000D03*
D16*
%TO.P,D1,1*%
%TO.N,GND*%
X124587000Y-105410000D03*
%TD*%
D15*
%TO.P,D2,2*%
%TO.N,+3V3*%
X124587000Y-88265000D03*
D16*
%TO.P,D2,1*%
%TO.N,s10*%
X127127000Y-88265000D03*
%TD*%
%TO.P,D4,1*%
%TO.N,s9*%
X137287000Y-88265000D03*
D15*
%TO.P,D4,2*%
%TO.N,+3V3*%
X134747000Y-88265000D03*
%TD*%
D16*
%TO.P,D2,1*%
%TO.N,s10*%
X127127000Y-98425000D03*
D15*
%TO.P,D2,2*%
%TO.N,+3V3*%
X124587000Y-98425000D03*
%TD*%
%TO.P,D4,2*%
%TO.N,+3V3*%
X134747000Y-98425000D03*
D16*
%TO.P,D4,1*%
%TO.N,s9*%
X137287000Y-98425000D03*
%TD*%
D15*
%TO.P,D4,2*%
%TO.N,+3V3*%
X134747000Y-108585000D03*
D16*
%TO.P,D4,1*%
%TO.N,s9*%
X137287000Y-108585000D03*
%TD*%
%TO.P,D2,1*%
%TO.N,s10*%
X127127000Y-108585000D03*
D15*
%TO.P,D2,2*%
%TO.N,+3V3*%
X124587000Y-108585000D03*
%TD*%
D10*
%TO.P,TP2,1*%
%TO.N,GND*%
X132842000Y-125730000D03*
%TD*%
D15*
%TO.P,D3,2*%
%TO.N,Net-(D1-Pad2)*%
X137287000Y-125730000D03*
D16*
%TO.P,D3,1*%
%TO.N,GND*%
X134747000Y-125730000D03*
%TD*%
%TO.P,D1,1*%
%TO.N,GND*%
X124587000Y-125730000D03*
D15*
%TO.P,D1,2*%
%TO.N,Net-(D1-Pad2)*%
X127127000Y-125730000D03*
%TD*%
%TO.P,D2,2*%
%TO.N,+3V3*%
X124587000Y-118745000D03*
D16*
%TO.P,D2,1*%
%TO.N,s10*%
X127127000Y-118745000D03*
%TD*%
%TO.P,D4,1*%
%TO.N,s9*%
X137287000Y-118745000D03*
D15*
%TO.P,D4,2*%
%TO.N,+3V3*%
X134747000Y-118745000D03*
%TD*%
D16*
%TO.P,D3,1*%
%TO.N,GND*%
X134747000Y-115570000D03*
D15*
%TO.P,D3,2*%
%TO.N,Net-(D1-Pad2)*%
X137287000Y-115570000D03*
%TD*%
D10*
%TO.P,TP2,1*%
%TO.N,GND*%
X132842000Y-115570000D03*
%TD*%
D15*
%TO.P,D1,2*%
%TO.N,Net-(D1-Pad2)*%
X127127000Y-115570000D03*
D16*
%TO.P,D1,1*%
%TO.N,GND*%
X124587000Y-115570000D03*
%TD*%
%TO.P,D2,1*%
%TO.N,s10*%
X127127000Y-78105000D03*
D15*
%TO.P,D2,2*%
%TO.N,+3V3*%
X124587000Y-78105000D03*
%TD*%
%TO.P,D1,2*%
%TO.N,Net-(D1-Pad2)*%
X127127000Y-85090000D03*
D16*
%TO.P,D1,1*%
%TO.N,GND*%
X124587000Y-85090000D03*
%TD*%
%TO.P,D3,1*%
%TO.N,GND*%
X134747000Y-85090000D03*
D15*
%TO.P,D3,2*%
%TO.N,Net-(D1-Pad2)*%
X137287000Y-85090000D03*
%TD*%
%TO.P,D4,2*%
%TO.N,+3V3*%
X134747000Y-78105000D03*
D16*
%TO.P,D4,1*%
%TO.N,s9*%
X137287000Y-78105000D03*
%TD*%
D10*
%TO.P,TP2,1*%
%TO.N,GND*%
X132842000Y-85090000D03*
%TD*%
%TO.P,J3,1*%
%TO.N,+3V3*%
X166116000Y-144399000D03*
D11*
%TO.P,J3,2*%
%TO.N,GND*%
X166116000Y-146939000D03*
%TD*%
%TO.P,J4,2*%
%TO.N,GND*%
X140843000Y-146875500D03*
D10*
%TO.P,J4,1*%
%TO.N,vin*%
X140843000Y-144335500D03*
%TD*%
%TA.AperFunction,ComponentPad*%
D17*
%TO.P,BZ1,1*%
%TO.N,Net-(BZ1-Pad1)*%
G36*
X165263942Y-96996928D02*
G01*
X163849728Y-98411142D01*
X162435514Y-96996928D01*
X163849728Y-95582714D01*
X165263942Y-96996928D01*
G37*
%TD.AperFunction*%
D18*
%TO.P,BZ1,2*%
%TO.N,GND*%
X159359600Y-92506800D03*
%TD*%
D19*
%TO.P,C1,1*%
%TO.N,+3V3*%
X165862000Y-102412800D03*
D12*
%TO.P,C1,2*%
%TO.N,GND*%
X163362000Y-102412800D03*
%TD*%
D10*
%TO.P,J1,1*%
%TO.N,s1*%
X144018000Y-78740000D03*
D11*
%TO.P,J1,2*%
%TO.N,s2*%
X144018000Y-81280000D03*
%TO.P,J1,3*%
%TO.N,s3*%
X146558000Y-78740000D03*
%TO.P,J1,4*%
%TO.N,s4*%
X146558000Y-81280000D03*
%TO.P,J1,5*%
%TO.N,s5*%
X149098000Y-78740000D03*
%TO.P,J1,6*%
%TO.N,s6*%
X149098000Y-81280000D03*
%TO.P,J1,7*%
%TO.N,s7*%
X151638000Y-78740000D03*
%TO.P,J1,8*%
%TO.N,s8*%
X151638000Y-81280000D03*
%TO.P,J1,9*%
%TO.N,s9*%
X154178000Y-78740000D03*
%TO.P,J1,10*%
%TO.N,s10*%
X154178000Y-81280000D03*
%TO.P,J1,11*%
%TO.N,Net-(J1-Pad11)*%
X156718000Y-78740000D03*
%TO.P,J1,12*%
%TO.N,Net-(D21-Pad4)*%
X156718000Y-81280000D03*
%TO.P,J1,13*%
%TO.N,SDA*%
X159258000Y-78740000D03*
%TO.P,J1,14*%
%TO.N,SCL*%
X159258000Y-81280000D03*
%TO.P,J1,15*%
%TO.N,+3V3*%
X161798000Y-78740000D03*
%TO.P,J1,16*%
%TO.N,GND*%
X161798000Y-81280000D03*
%TD*%
D10*
%TO.P,U6,13*%
%TO.N,+3V3*%
X164211000Y-85344000D03*
D11*
%TO.P,U6,18*%
%TO.N,GND*%
X161671000Y-85344000D03*
%TO.P,U6,23*%
%TO.N,SCL*%
X159131000Y-85344000D03*
%TO.P,U6,24*%
%TO.N,SDA*%
X156591000Y-85344000D03*
%TO.P,U6,21*%
%TO.N,Net-(U6-Pad21)*%
X154051000Y-85344000D03*
%TO.P,U6,7*%
%TO.N,Net-(U6-Pad7)*%
X151511000Y-85344000D03*
%TO.P,U6,9*%
%TO.N,Net-(U6-Pad9)*%
X148971000Y-85344000D03*
%TO.P,U6,12*%
%TO.N,Net-(U6-Pad12)*%
X146431000Y-85344000D03*
%TO.P,U6,22*%
%TO.N,Net-(U6-Pad22)*%
X143891000Y-85344000D03*
%TO.P,U6,11*%
%TO.N,Net-(U6-Pad11)*%
X141351000Y-85344000D03*
%TD*%
D10*
%TO.P,J5,1*%
%TO.N,+3V3*%
X176530000Y-95631000D03*
D11*
%TO.P,J5,2*%
%TO.N,GND*%
X176530000Y-98171000D03*
%TO.P,J5,3*%
%TO.N,SDA*%
X176530000Y-100711000D03*
%TO.P,J5,4*%
%TO.N,SCL*%
X176530000Y-103251000D03*
%TO.P,J5,5*%
%TO.N,s1*%
X176530000Y-105791000D03*
%TO.P,J5,6*%
%TO.N,s2*%
X176530000Y-108331000D03*
%TO.P,J5,7*%
%TO.N,s3*%
X176530000Y-110871000D03*
%TO.P,J5,8*%
%TO.N,s4*%
X176530000Y-113411000D03*
%TO.P,J5,9*%
%TO.N,s5*%
X176530000Y-115951000D03*
%TO.P,J5,10*%
%TO.N,s6*%
X176530000Y-118491000D03*
%TO.P,J5,11*%
%TO.N,s7*%
X176530000Y-121031000D03*
%TO.P,J5,12*%
%TO.N,s8*%
X176530000Y-123571000D03*
%TO.P,J5,13*%
%TO.N,s9*%
X176530000Y-126111000D03*
%TO.P,J5,14*%
%TO.N,s10*%
X176530000Y-128651000D03*
%TO.P,J5,15*%
%TO.N,Net-(J1-Pad11)*%
X176530000Y-131191000D03*
%TO.P,J5,16*%
%TO.N,Net-(D21-Pad4)*%
X176530000Y-133731000D03*
%TD*%
D13*
%TO.P,R1,2*%
%TO.N,s1*%
X145542000Y-108826300D03*
D12*
%TO.P,R1,1*%
%TO.N,GND*%
X153162000Y-108826300D03*
%TD*%
%TO.P,R2,1*%
%TO.N,s2*%
X145542000Y-111379000D03*
D13*
%TO.P,R2,2*%
%TO.N,GND*%
X153162000Y-111379000D03*
%TD*%
%TO.P,R3,2*%
%TO.N,GND*%
X153162000Y-113919000D03*
D12*
%TO.P,R3,1*%
%TO.N,s3*%
X145542000Y-113919000D03*
%TD*%
%TO.P,R4,1*%
%TO.N,s4*%
X145542000Y-116459000D03*
D13*
%TO.P,R4,2*%
%TO.N,GND*%
X153162000Y-116459000D03*
%TD*%
D12*
%TO.P,R5,1*%
%TO.N,s5*%
X145542000Y-118999000D03*
D13*
%TO.P,R5,2*%
%TO.N,GND*%
X153162000Y-118999000D03*
%TD*%
%TO.P,R6,2*%
%TO.N,GND*%
X153162000Y-121539000D03*
D12*
%TO.P,R6,1*%
%TO.N,s6*%
X145542000Y-121539000D03*
%TD*%
%TO.P,R7,1*%
%TO.N,s7*%
X145542000Y-124079000D03*
D13*
%TO.P,R7,2*%
%TO.N,GND*%
X153162000Y-124079000D03*
%TD*%
%TO.P,R8,2*%
%TO.N,GND*%
X153162000Y-126619000D03*
D12*
%TO.P,R8,1*%
%TO.N,s8*%
X145542000Y-126619000D03*
%TD*%
%TO.P,R9,1*%
%TO.N,s9*%
X145542000Y-129159000D03*
D13*
%TO.P,R9,2*%
%TO.N,GND*%
X153162000Y-129159000D03*
%TD*%
%TO.P,R10,2*%
%TO.N,GND*%
X153162000Y-131699000D03*
D12*
%TO.P,R10,1*%
%TO.N,s10*%
X145542000Y-131699000D03*
%TD*%
%TO.P,R11,1*%
%TO.N,Net-(R11-Pad1)*%
X158953200Y-123456700D03*
D13*
%TO.P,R11,2*%
%TO.N,Net-(Q1-Pad2)*%
X158953200Y-131076700D03*
%TD*%
%TO.P,R16,2*%
%TO.N,Net-(D1-Pad2)*%
X130556000Y-85344000D03*
D12*
%TO.P,R16,1*%
%TO.N,+3V3*%
X130556000Y-77724000D03*
%TD*%
D19*
%TO.P,C2,1*%
%TO.N,+3V3*%
X182880000Y-99314000D03*
D12*
%TO.P,C2,2*%
%TO.N,GND*%
X185380000Y-99314000D03*
%TD*%
D10*
%TO.P,J6,1*%
%TO.N,SCL*%
X157480000Y-149860000D03*
D11*
%TO.P,J6,2*%
%TO.N,SDA*%
X154940000Y-149860000D03*
%TO.P,J6,3*%
%TO.N,+3V3*%
X152400000Y-149860000D03*
%TO.P,J6,4*%
%TO.N,GND*%
X149860000Y-149860000D03*
%TD*%
D10*
%TO.P,M6,1*%
%TO.N,Net-(M6-Pad1)*%
X149860000Y-136652000D03*
D11*
%TO.P,M6,2*%
%TO.N,GND*%
X149860000Y-139192000D03*
%TD*%
D10*
%TO.P,Q1,1*%
%TO.N,+3V3*%
X159016700Y-134378700D03*
D11*
%TO.P,Q1,2*%
%TO.N,Net-(Q1-Pad2)*%
X159016700Y-136918700D03*
%TO.P,Q1,3*%
%TO.N,Net-(M6-Pad1)*%
X159016700Y-139458700D03*
%TD*%
D20*
%TO.N,Net-(D21-Pad4)*%
X142367000Y-136779000D02*
X149098000Y-130048000D01*
X140716000Y-136779000D02*
X142367000Y-136779000D01*
X149098000Y-130048000D02*
X149098000Y-107569000D01*
X157766001Y-98900999D02*
X157035500Y-99631500D01*
X157766001Y-82328001D02*
X157766001Y-98900999D01*
X156718000Y-81280000D02*
X157766001Y-82328001D01*
X157035500Y-99631500D02*
X149098000Y-107569000D01*
X157772100Y-98894900D02*
X157035500Y-99631500D01*
%TO.N,Net-(Q1-Pad2)*%
X160191701Y-132315201D02*
X158953200Y-131076700D01*
X160191701Y-135743699D02*
X160191701Y-132315201D01*
X159016700Y-136918700D02*
X160191701Y-135743699D01*
%TO.N,Net-(BZ1-Pad1)*%
X164736999Y-97884199D02*
X163849728Y-96996928D01*
X164736999Y-104919999D02*
X164736999Y-97884199D01*
X166116000Y-106299000D02*
X164736999Y-104919999D01*
%TO.N,Net-(R11-Pad1)*%
X161658300Y-123456700D02*
X166116000Y-118999000D01*
X158953200Y-123456700D02*
X161658300Y-123456700D01*
D21*
%TO.N,Net-(M6-Pad1)*%
X159016700Y-139458700D02*
X156730700Y-139458700D01*
X156730700Y-139458700D02*
X153924000Y-136652000D01*
X149860000Y-136652000D02*
X153924000Y-136652000D01*
D20*
%TO.N,SDA*%
X158082999Y-79915001D02*
X159258000Y-78740000D01*
X156343997Y-79915001D02*
X158082999Y-79915001D01*
X155542999Y-80715999D02*
X156343997Y-79915001D01*
X155542999Y-84295999D02*
X155542999Y-80715999D01*
X156591000Y-85344000D02*
X155542999Y-84295999D01*
%TO.N,SCL*%
X160560001Y-80104999D02*
X164969639Y-80104999D01*
X159385000Y-81280000D02*
X160560001Y-80104999D01*
X167203001Y-82338361D02*
X164969639Y-80104999D01*
X167203001Y-107751999D02*
X167203001Y-82338361D01*
X166116000Y-108839000D02*
X167203001Y-107751999D01*
X167291001Y-149923671D02*
X165449672Y-151765000D01*
X167291001Y-110014001D02*
X167291001Y-149923671D01*
X166116000Y-108839000D02*
X167291001Y-110014001D01*
X159385000Y-151765000D02*
X157480000Y-149860000D01*
X165449672Y-151765000D02*
X159385000Y-151765000D01*
X159131000Y-81407000D02*
X159258000Y-81280000D01*
X159131000Y-85344000D02*
X159131000Y-81407000D01*
%TO.N,s10*%
X148621041Y-128873959D02*
X145796000Y-131699000D01*
X148621041Y-105085961D02*
X148621041Y-128873959D01*
X154539501Y-99167501D02*
X148621041Y-105085961D01*
X155415999Y-98291003D02*
X155047501Y-98659501D01*
X155415999Y-84969997D02*
X155415999Y-98291003D01*
X154178000Y-83731998D02*
X155415999Y-84969997D01*
X154178000Y-81280000D02*
X154178000Y-83731998D01*
X155047501Y-98659501D02*
X154539501Y-99167501D01*
X155353001Y-98354001D02*
X155047501Y-98659501D01*
%TO.N,s1*%
X177755801Y-107016801D02*
X176530000Y-105791000D01*
X183875801Y-107016801D02*
X177755801Y-107016801D01*
X184936811Y-108077811D02*
X183875801Y-107016801D01*
X184936811Y-123735791D02*
X184936811Y-108077811D01*
X181946801Y-124796801D02*
X183875801Y-124796801D01*
X183875801Y-124796801D02*
X184936811Y-123735791D01*
X180771800Y-123621800D02*
X181946801Y-124796801D01*
%TO.N,s2*%
X145382999Y-99408999D02*
X145382999Y-86035001D01*
X146821001Y-100847001D02*
X145382999Y-99408999D01*
X146821001Y-110353999D02*
X146821001Y-100847001D01*
X145796000Y-111379000D02*
X146821001Y-110353999D01*
X184486801Y-110167801D02*
X183875801Y-109556801D01*
X184486801Y-122446799D02*
X184486801Y-110167801D01*
X177755801Y-109556801D02*
X176530000Y-108331000D01*
X183875801Y-109556801D02*
X177755801Y-109556801D01*
X183311800Y-123621800D02*
X184486801Y-122446799D01*
X145255999Y-82517999D02*
X144018000Y-81280000D01*
X145255999Y-85908001D02*
X145255999Y-82517999D01*
X145382999Y-86035001D02*
X145255999Y-85908001D01*
%TO.N,s3*%
X179070000Y-110871000D02*
X176530000Y-110871000D01*
X179596799Y-119906799D02*
X179596799Y-111397799D01*
X179596799Y-111397799D02*
X179070000Y-110871000D01*
X180771800Y-121081800D02*
X179596799Y-119906799D01*
%TO.N,s4*%
X145796000Y-116459000D02*
X147271011Y-114983989D01*
X147733001Y-100043999D02*
X147271011Y-100505989D01*
X147271011Y-114983989D02*
X147271011Y-100505989D01*
X147733001Y-95852999D02*
X147733001Y-100043999D01*
X147733001Y-95409001D02*
X147733001Y-95852999D01*
X180207799Y-122256801D02*
X179146789Y-121195791D01*
X182136799Y-122256801D02*
X180207799Y-122256801D01*
X183311800Y-121081800D02*
X182136799Y-122256801D01*
X179146789Y-121195791D02*
X179146789Y-113868789D01*
X178689000Y-113411000D02*
X176530000Y-113411000D01*
X179146789Y-113868789D02*
X178689000Y-113411000D01*
X147733001Y-82455001D02*
X146558000Y-81280000D01*
X147733001Y-95852999D02*
X147733001Y-82455001D01*
%TO.N,s6*%
X150335999Y-82517999D02*
X149098000Y-81280000D01*
X150335999Y-98584001D02*
X150335999Y-82517999D01*
X147721021Y-101198979D02*
X150335999Y-98584001D01*
X147721021Y-119613979D02*
X147721021Y-101198979D01*
X145796000Y-121539000D02*
X147721021Y-119613979D01*
%TO.N,s8*%
X151765000Y-81280000D02*
X151765000Y-82042000D01*
X151765000Y-81280000D02*
X151765000Y-81788000D01*
X148171031Y-124243969D02*
X145796000Y-126619000D01*
X152813001Y-98354001D02*
X148171031Y-102995971D01*
X148171031Y-102995971D02*
X148171031Y-124243969D01*
X152813001Y-82328001D02*
X151765000Y-81280000D01*
X152813001Y-98354001D02*
X152813001Y-82328001D01*
%TD*%
D22*
%TO.N,GND*%
X166443002Y-82653164D02*
X166443001Y-100974728D01*
X165496999Y-100974728D01*
X165496999Y-97921524D01*
X165500675Y-97884199D01*
X165496999Y-97846874D01*
X165496999Y-97846866D01*
X165486002Y-97735213D01*
X165472509Y-97690731D01*
X165715127Y-97448113D01*
X165794479Y-97351422D01*
X165853444Y-97241108D01*
X165889754Y-97121410D01*
X165902014Y-96996928D01*
X165889754Y-96872446D01*
X165853444Y-96752748D01*
X165794479Y-96642434D01*
X165715127Y-96545743D01*
X164300913Y-95131529D01*
X164204222Y-95052177D01*
X164093908Y-94993212D01*
X163974210Y-94956902D01*
X163849728Y-94944642D01*
X163725246Y-94956902D01*
X163605548Y-94993212D01*
X163495234Y-95052177D01*
X163398543Y-95131529D01*
X161984329Y-96545743D01*
X161904977Y-96642434D01*
X161846012Y-96752748D01*
X161809702Y-96872446D01*
X161797442Y-96996928D01*
X161809702Y-97121410D01*
X161846012Y-97241108D01*
X161904977Y-97351422D01*
X161984329Y-97448113D01*
X163398543Y-98862327D01*
X163495234Y-98941679D01*
X163605548Y-99000644D01*
X163725246Y-99036954D01*
X163849728Y-99049214D01*
X163974210Y-99036954D01*
X163977000Y-99036108D01*
X163976999Y-104882676D01*
X163973323Y-104919999D01*
X163976999Y-104957321D01*
X163976999Y-104957331D01*
X163987996Y-105068984D01*
X164029027Y-105204246D01*
X164031453Y-105212245D01*
X164102025Y-105344275D01*
X164120449Y-105366724D01*
X164196998Y-105460000D01*
X164226002Y-105483803D01*
X164749628Y-106007430D01*
X164719000Y-106161408D01*
X164719000Y-106436592D01*
X164772686Y-106706490D01*
X164877995Y-106960727D01*
X165030880Y-107189535D01*
X165225465Y-107384120D01*
X165454273Y-107537005D01*
X165531515Y-107569000D01*
X165454273Y-107600995D01*
X165225465Y-107753880D01*
X165030880Y-107948465D01*
X164877995Y-108177273D01*
X164772686Y-108431510D01*
X164719000Y-108701408D01*
X164719000Y-108976592D01*
X164772686Y-109246490D01*
X164877995Y-109500727D01*
X165030880Y-109729535D01*
X165225465Y-109924120D01*
X165454273Y-110077005D01*
X165531515Y-110109000D01*
X165454273Y-110140995D01*
X165225465Y-110293880D01*
X165030880Y-110488465D01*
X164877995Y-110717273D01*
X164772686Y-110971510D01*
X164719000Y-111241408D01*
X164719000Y-111516592D01*
X164772686Y-111786490D01*
X164877995Y-112040727D01*
X165030880Y-112269535D01*
X165225465Y-112464120D01*
X165454273Y-112617005D01*
X165531515Y-112649000D01*
X165454273Y-112680995D01*
X165225465Y-112833880D01*
X165030880Y-113028465D01*
X164877995Y-113257273D01*
X164772686Y-113511510D01*
X164719000Y-113781408D01*
X164719000Y-114056592D01*
X164772686Y-114326490D01*
X164877995Y-114580727D01*
X165030880Y-114809535D01*
X165225465Y-115004120D01*
X165454273Y-115157005D01*
X165531515Y-115189000D01*
X165454273Y-115220995D01*
X165225465Y-115373880D01*
X165030880Y-115568465D01*
X164877995Y-115797273D01*
X164772686Y-116051510D01*
X164719000Y-116321408D01*
X164719000Y-116596592D01*
X164772686Y-116866490D01*
X164877995Y-117120727D01*
X165030880Y-117349535D01*
X165225465Y-117544120D01*
X165454273Y-117697005D01*
X165531515Y-117729000D01*
X165454273Y-117760995D01*
X165225465Y-117913880D01*
X165030880Y-118108465D01*
X164877995Y-118337273D01*
X164772686Y-118591510D01*
X164719000Y-118861408D01*
X164719000Y-119136592D01*
X164749628Y-119290570D01*
X161343499Y-122696700D01*
X160171243Y-122696700D01*
X160067837Y-122541941D01*
X159867959Y-122342063D01*
X159632927Y-122185020D01*
X159371774Y-122076847D01*
X159094535Y-122021700D01*
X158811865Y-122021700D01*
X158534626Y-122076847D01*
X158273473Y-122185020D01*
X158038441Y-122342063D01*
X157838563Y-122541941D01*
X157681520Y-122776973D01*
X157573347Y-123038126D01*
X157518200Y-123315365D01*
X157518200Y-123598035D01*
X157573347Y-123875274D01*
X157681520Y-124136427D01*
X157838563Y-124371459D01*
X158038441Y-124571337D01*
X158273473Y-124728380D01*
X158534626Y-124836553D01*
X158811865Y-124891700D01*
X159094535Y-124891700D01*
X159371774Y-124836553D01*
X159632927Y-124728380D01*
X159867959Y-124571337D01*
X160067837Y-124371459D01*
X160171243Y-124216700D01*
X161620978Y-124216700D01*
X161658300Y-124220376D01*
X161695622Y-124216700D01*
X161695633Y-124216700D01*
X161807286Y-124205703D01*
X161950547Y-124162246D01*
X162082576Y-124091674D01*
X162198301Y-123996701D01*
X162222104Y-123967697D01*
X164719000Y-121470802D01*
X164719000Y-121676592D01*
X164772686Y-121946490D01*
X164877995Y-122200727D01*
X165030880Y-122429535D01*
X165225465Y-122624120D01*
X165454273Y-122777005D01*
X165531515Y-122809000D01*
X165454273Y-122840995D01*
X165225465Y-122993880D01*
X165030880Y-123188465D01*
X164877995Y-123417273D01*
X164772686Y-123671510D01*
X164719000Y-123941408D01*
X164719000Y-124216592D01*
X164772686Y-124486490D01*
X164877995Y-124740727D01*
X165030880Y-124969535D01*
X165225465Y-125164120D01*
X165454273Y-125317005D01*
X165531515Y-125349000D01*
X165454273Y-125380995D01*
X165225465Y-125533880D01*
X165030880Y-125728465D01*
X164877995Y-125957273D01*
X164772686Y-126211510D01*
X164719000Y-126481408D01*
X164719000Y-126756592D01*
X164772686Y-127026490D01*
X164877995Y-127280727D01*
X165030880Y-127509535D01*
X165225465Y-127704120D01*
X165454273Y-127857005D01*
X165531515Y-127889000D01*
X165454273Y-127920995D01*
X165225465Y-128073880D01*
X165030880Y-128268465D01*
X164877995Y-128497273D01*
X164772686Y-128751510D01*
X164719000Y-129021408D01*
X164719000Y-129296592D01*
X164772686Y-129566490D01*
X164877995Y-129820727D01*
X165030880Y-130049535D01*
X165225465Y-130244120D01*
X165454273Y-130397005D01*
X165531515Y-130429000D01*
X165454273Y-130460995D01*
X165225465Y-130613880D01*
X165030880Y-130808465D01*
X164877995Y-131037273D01*
X164772686Y-131291510D01*
X164719000Y-131561408D01*
X164719000Y-131836592D01*
X164772686Y-132106490D01*
X164877995Y-132360727D01*
X165030880Y-132589535D01*
X165225465Y-132784120D01*
X165454273Y-132937005D01*
X165531515Y-132969000D01*
X165454273Y-133000995D01*
X165225465Y-133153880D01*
X165030880Y-133348465D01*
X164877995Y-133577273D01*
X164772686Y-133831510D01*
X164719000Y-134101408D01*
X164719000Y-134376592D01*
X164772686Y-134646490D01*
X164877995Y-134900727D01*
X165030880Y-135129535D01*
X165225465Y-135324120D01*
X165454273Y-135477005D01*
X165531515Y-135509000D01*
X165454273Y-135540995D01*
X165225465Y-135693880D01*
X165030880Y-135888465D01*
X164877995Y-136117273D01*
X164772686Y-136371510D01*
X164719000Y-136641408D01*
X164719000Y-136916592D01*
X164772686Y-137186490D01*
X164877995Y-137440727D01*
X165030880Y-137669535D01*
X165225465Y-137864120D01*
X165454273Y-138017005D01*
X165708510Y-138122314D01*
X165978408Y-138176000D01*
X166253592Y-138176000D01*
X166523490Y-138122314D01*
X166531002Y-138119203D01*
X166531002Y-140518797D01*
X166523490Y-140515686D01*
X166253592Y-140462000D01*
X165978408Y-140462000D01*
X165708510Y-140515686D01*
X165454273Y-140620995D01*
X165225465Y-140773880D01*
X165030880Y-140968465D01*
X164877995Y-141197273D01*
X164772686Y-141451510D01*
X164719000Y-141721408D01*
X164719000Y-141996592D01*
X164772686Y-142266490D01*
X164877995Y-142520727D01*
X165030880Y-142749535D01*
X165198883Y-142917538D01*
X165141518Y-142923188D01*
X165021820Y-142959498D01*
X164911506Y-143018463D01*
X164814815Y-143097815D01*
X164735463Y-143194506D01*
X164676498Y-143304820D01*
X164640188Y-143424518D01*
X164627928Y-143549000D01*
X164627928Y-145249000D01*
X164640188Y-145373482D01*
X164676498Y-145493180D01*
X164735463Y-145603494D01*
X164814815Y-145700185D01*
X164911506Y-145779537D01*
X165021820Y-145838502D01*
X165141518Y-145874812D01*
X165266000Y-145887072D01*
X166531002Y-145887072D01*
X166531002Y-147834789D01*
X166346657Y-147650444D01*
X165961089Y-147392815D01*
X165532668Y-147215358D01*
X165077860Y-147124891D01*
X164614140Y-147124891D01*
X164159332Y-147215358D01*
X163730911Y-147392815D01*
X163345343Y-147650444D01*
X163017444Y-147978343D01*
X162759815Y-148363911D01*
X162582358Y-148792332D01*
X162491891Y-149247140D01*
X162491891Y-149710860D01*
X162582358Y-150165668D01*
X162759815Y-150594089D01*
X163017444Y-150979657D01*
X163042787Y-151005000D01*
X159699802Y-151005000D01*
X158968072Y-150273271D01*
X158968072Y-149010000D01*
X158955812Y-148885518D01*
X158919502Y-148765820D01*
X158860537Y-148655506D01*
X158781185Y-148558815D01*
X158684494Y-148479463D01*
X158574180Y-148420498D01*
X158454482Y-148384188D01*
X158330000Y-148371928D01*
X156630000Y-148371928D01*
X156505518Y-148384188D01*
X156385820Y-148420498D01*
X156275506Y-148479463D01*
X156178815Y-148558815D01*
X156099463Y-148655506D01*
X156040498Y-148765820D01*
X156018487Y-148838380D01*
X155886632Y-148706525D01*
X155643411Y-148544010D01*
X155373158Y-148432068D01*
X155086260Y-148375000D01*
X154793740Y-148375000D01*
X154506842Y-148432068D01*
X154236589Y-148544010D01*
X153993368Y-148706525D01*
X153786525Y-148913368D01*
X153670000Y-149087760D01*
X153553475Y-148913368D01*
X153346632Y-148706525D01*
X153103411Y-148544010D01*
X152833158Y-148432068D01*
X152546260Y-148375000D01*
X152253740Y-148375000D01*
X151966842Y-148432068D01*
X151696589Y-148544010D01*
X151453368Y-148706525D01*
X151246525Y-148913368D01*
X151084010Y-149156589D01*
X150972068Y-149426842D01*
X150915000Y-149713740D01*
X150915000Y-150006260D01*
X150972068Y-150293158D01*
X151084010Y-150563411D01*
X151246525Y-150806632D01*
X151453368Y-151013475D01*
X151696589Y-151175990D01*
X151966842Y-151287932D01*
X152253740Y-151345000D01*
X152546260Y-151345000D01*
X152833158Y-151287932D01*
X153103411Y-151175990D01*
X153346632Y-151013475D01*
X153553475Y-150806632D01*
X153670000Y-150632240D01*
X153786525Y-150806632D01*
X153993368Y-151013475D01*
X154236589Y-151175990D01*
X154506842Y-151287932D01*
X154793740Y-151345000D01*
X155086260Y-151345000D01*
X155373158Y-151287932D01*
X155643411Y-151175990D01*
X155886632Y-151013475D01*
X156018487Y-150881620D01*
X156040498Y-150954180D01*
X156099463Y-151064494D01*
X156178815Y-151161185D01*
X156275506Y-151240537D01*
X156385820Y-151299502D01*
X156505518Y-151335812D01*
X156630000Y-151348072D01*
X157893271Y-151348072D01*
X158060198Y-151515000D01*
X143176196Y-151515000D01*
X143486657Y-151307556D01*
X143814556Y-150979657D01*
X144072185Y-150594089D01*
X144249642Y-150165668D01*
X144340109Y-149710860D01*
X144340109Y-149247140D01*
X144249642Y-148792332D01*
X144072185Y-148363911D01*
X143814556Y-147978343D01*
X143486657Y-147650444D01*
X143101089Y-147392815D01*
X142672668Y-147215358D01*
X142217860Y-147124891D01*
X141754140Y-147124891D01*
X141299332Y-147215358D01*
X140870911Y-147392815D01*
X140485343Y-147650444D01*
X140157444Y-147978343D01*
X139963012Y-148269330D01*
X139974137Y-145821714D01*
X139993000Y-145823572D01*
X141693000Y-145823572D01*
X141817482Y-145811312D01*
X141937180Y-145775002D01*
X142047494Y-145716037D01*
X142144185Y-145636685D01*
X142223537Y-145539994D01*
X142282502Y-145429680D01*
X142318812Y-145309982D01*
X142331072Y-145185500D01*
X142331072Y-143485500D01*
X142318812Y-143361018D01*
X142282502Y-143241320D01*
X142223537Y-143131006D01*
X142144185Y-143034315D01*
X142047494Y-142954963D01*
X141937180Y-142895998D01*
X141817482Y-142859688D01*
X141702310Y-142848345D01*
X141801120Y-142749535D01*
X141954005Y-142520727D01*
X142059314Y-142266490D01*
X142113000Y-141996592D01*
X142113000Y-141721408D01*
X142059314Y-141451510D01*
X141954005Y-141197273D01*
X141801120Y-140968465D01*
X141606535Y-140773880D01*
X141377727Y-140620995D01*
X141123490Y-140515686D01*
X140853592Y-140462000D01*
X140578408Y-140462000D01*
X140308510Y-140515686D01*
X140054273Y-140620995D01*
X139997605Y-140658860D01*
X140009749Y-137987255D01*
X140054273Y-138017005D01*
X140308510Y-138122314D01*
X140578408Y-138176000D01*
X140853592Y-138176000D01*
X141123490Y-138122314D01*
X141377727Y-138017005D01*
X141606535Y-137864120D01*
X141801120Y-137669535D01*
X141888341Y-137539000D01*
X142329678Y-137539000D01*
X142367000Y-137542676D01*
X142404322Y-137539000D01*
X142404333Y-137539000D01*
X142515986Y-137528003D01*
X142659247Y-137484546D01*
X142791276Y-137413974D01*
X142907001Y-137319001D01*
X142930804Y-137289997D01*
X144418801Y-135802000D01*
X148371928Y-135802000D01*
X148371928Y-137502000D01*
X148384188Y-137626482D01*
X148420498Y-137746180D01*
X148479463Y-137856494D01*
X148558815Y-137953185D01*
X148655506Y-138032537D01*
X148765820Y-138091502D01*
X148885518Y-138127812D01*
X149010000Y-138140072D01*
X150710000Y-138140072D01*
X150834482Y-138127812D01*
X150954180Y-138091502D01*
X151064494Y-138032537D01*
X151161185Y-137953185D01*
X151240537Y-137856494D01*
X151277683Y-137787000D01*
X153453869Y-137787000D01*
X155888709Y-140221841D01*
X155924251Y-140265149D01*
X156097077Y-140406984D01*
X156294253Y-140512376D01*
X156458405Y-140562171D01*
X156508200Y-140577277D01*
X156529193Y-140579344D01*
X156674948Y-140593700D01*
X156674955Y-140593700D01*
X156730699Y-140599190D01*
X156786443Y-140593700D01*
X158051593Y-140593700D01*
X158070068Y-140612175D01*
X158313289Y-140774690D01*
X158583542Y-140886632D01*
X158870440Y-140943700D01*
X159162960Y-140943700D01*
X159449858Y-140886632D01*
X159720111Y-140774690D01*
X159963332Y-140612175D01*
X160170175Y-140405332D01*
X160332690Y-140162111D01*
X160444632Y-139891858D01*
X160501700Y-139604960D01*
X160501700Y-139312440D01*
X160444632Y-139025542D01*
X160332690Y-138755289D01*
X160170175Y-138512068D01*
X159963332Y-138305225D01*
X159788940Y-138188700D01*
X159963332Y-138072175D01*
X160170175Y-137865332D01*
X160332690Y-137622111D01*
X160444632Y-137351858D01*
X160501700Y-137064960D01*
X160501700Y-136772440D01*
X160457910Y-136552292D01*
X160702705Y-136307497D01*
X160731702Y-136283700D01*
X160826675Y-136167975D01*
X160897247Y-136035946D01*
X160940704Y-135892685D01*
X160951701Y-135781032D01*
X160951701Y-135781023D01*
X160955377Y-135743700D01*
X160951701Y-135706377D01*
X160951701Y-132352524D01*
X160955377Y-132315201D01*
X160951701Y-132277878D01*
X160951701Y-132277868D01*
X160940704Y-132166215D01*
X160897247Y-132022954D01*
X160880412Y-131991459D01*
X160826675Y-131890924D01*
X160755500Y-131804198D01*
X160731702Y-131775200D01*
X160702704Y-131751402D01*
X160351888Y-131400586D01*
X160388200Y-131218035D01*
X160388200Y-130935365D01*
X160333053Y-130658126D01*
X160224880Y-130396973D01*
X160067837Y-130161941D01*
X159867959Y-129962063D01*
X159632927Y-129805020D01*
X159371774Y-129696847D01*
X159094535Y-129641700D01*
X158811865Y-129641700D01*
X158534626Y-129696847D01*
X158273473Y-129805020D01*
X158038441Y-129962063D01*
X157838563Y-130161941D01*
X157681520Y-130396973D01*
X157573347Y-130658126D01*
X157518200Y-130935365D01*
X157518200Y-131218035D01*
X157573347Y-131495274D01*
X157681520Y-131756427D01*
X157838563Y-131991459D01*
X158038441Y-132191337D01*
X158273473Y-132348380D01*
X158534626Y-132456553D01*
X158811865Y-132511700D01*
X159094535Y-132511700D01*
X159277086Y-132475388D01*
X159431702Y-132630004D01*
X159431702Y-132890628D01*
X158166700Y-132890628D01*
X158042218Y-132902888D01*
X157922520Y-132939198D01*
X157812206Y-132998163D01*
X157715515Y-133077515D01*
X157636163Y-133174206D01*
X157577198Y-133284520D01*
X157540888Y-133404218D01*
X157528628Y-133528700D01*
X157528628Y-135228700D01*
X157540888Y-135353182D01*
X157577198Y-135472880D01*
X157636163Y-135583194D01*
X157715515Y-135679885D01*
X157812206Y-135759237D01*
X157922520Y-135818202D01*
X157995080Y-135840213D01*
X157863225Y-135972068D01*
X157700710Y-136215289D01*
X157588768Y-136485542D01*
X157531700Y-136772440D01*
X157531700Y-137064960D01*
X157588768Y-137351858D01*
X157700710Y-137622111D01*
X157863225Y-137865332D01*
X158070068Y-138072175D01*
X158244460Y-138188700D01*
X158070068Y-138305225D01*
X158051593Y-138323700D01*
X157200832Y-138323700D01*
X154765996Y-135888865D01*
X154730449Y-135845551D01*
X154557623Y-135703716D01*
X154360447Y-135598324D01*
X154146499Y-135533423D01*
X153979752Y-135517000D01*
X153979751Y-135517000D01*
X153924000Y-135511509D01*
X153868249Y-135517000D01*
X151277683Y-135517000D01*
X151240537Y-135447506D01*
X151161185Y-135350815D01*
X151064494Y-135271463D01*
X150954180Y-135212498D01*
X150834482Y-135176188D01*
X150710000Y-135163928D01*
X149010000Y-135163928D01*
X148885518Y-135176188D01*
X148765820Y-135212498D01*
X148655506Y-135271463D01*
X148558815Y-135350815D01*
X148479463Y-135447506D01*
X148420498Y-135557820D01*
X148384188Y-135677518D01*
X148371928Y-135802000D01*
X144418801Y-135802000D01*
X149609009Y-130611794D01*
X149638001Y-130588001D01*
X149661795Y-130559008D01*
X149661799Y-130559004D01*
X149732973Y-130472277D01*
X149732974Y-130472276D01*
X149803546Y-130340247D01*
X149847003Y-130196986D01*
X149858000Y-130085333D01*
X149858000Y-130085324D01*
X149861676Y-130048001D01*
X149858000Y-130010678D01*
X149858000Y-107883801D01*
X157599299Y-100142503D01*
X157599303Y-100142498D01*
X157734212Y-100007589D01*
X158277009Y-99464794D01*
X158306002Y-99441000D01*
X158329796Y-99412007D01*
X158329800Y-99412003D01*
X158329805Y-99411997D01*
X158335899Y-99405903D01*
X158407074Y-99319176D01*
X158477646Y-99187147D01*
X158521103Y-99043886D01*
X158535776Y-98894900D01*
X158526001Y-98795647D01*
X158526001Y-86700753D01*
X158697842Y-86771932D01*
X158984740Y-86829000D01*
X159277260Y-86829000D01*
X159564158Y-86771932D01*
X159834411Y-86659990D01*
X160077632Y-86497475D01*
X160284475Y-86290632D01*
X160446990Y-86047411D01*
X160558932Y-85777158D01*
X160616000Y-85490260D01*
X160616000Y-85197740D01*
X160558932Y-84910842D01*
X160446990Y-84640589D01*
X160349043Y-84494000D01*
X162722928Y-84494000D01*
X162722928Y-86194000D01*
X162735188Y-86318482D01*
X162771498Y-86438180D01*
X162830463Y-86548494D01*
X162909815Y-86645185D01*
X163006506Y-86724537D01*
X163116820Y-86783502D01*
X163236518Y-86819812D01*
X163361000Y-86832072D01*
X165061000Y-86832072D01*
X165185482Y-86819812D01*
X165305180Y-86783502D01*
X165415494Y-86724537D01*
X165512185Y-86645185D01*
X165591537Y-86548494D01*
X165650502Y-86438180D01*
X165686812Y-86318482D01*
X165699072Y-86194000D01*
X165699072Y-84494000D01*
X165686812Y-84369518D01*
X165650502Y-84249820D01*
X165591537Y-84139506D01*
X165512185Y-84042815D01*
X165415494Y-83963463D01*
X165305180Y-83904498D01*
X165185482Y-83868188D01*
X165061000Y-83855928D01*
X163361000Y-83855928D01*
X163236518Y-83868188D01*
X163116820Y-83904498D01*
X163006506Y-83963463D01*
X162909815Y-84042815D01*
X162830463Y-84139506D01*
X162771498Y-84249820D01*
X162735188Y-84369518D01*
X162722928Y-84494000D01*
X160349043Y-84494000D01*
X160284475Y-84397368D01*
X160077632Y-84190525D01*
X159891000Y-84065822D01*
X159891000Y-82625155D01*
X159961411Y-82595990D01*
X160204632Y-82433475D01*
X160411475Y-82226632D01*
X160573990Y-81983411D01*
X160685932Y-81713158D01*
X160743000Y-81426260D01*
X160743000Y-81133740D01*
X160720280Y-81019521D01*
X160874803Y-80864999D01*
X164654838Y-80864999D01*
X166443002Y-82653164D01*
%TA.AperFunction,Conductor*%
D23*
G36*
X166443002Y-82653164D02*
G01*
X166443001Y-100974728D01*
X165496999Y-100974728D01*
X165496999Y-97921524D01*
X165500675Y-97884199D01*
X165496999Y-97846874D01*
X165496999Y-97846866D01*
X165486002Y-97735213D01*
X165472509Y-97690731D01*
X165715127Y-97448113D01*
X165794479Y-97351422D01*
X165853444Y-97241108D01*
X165889754Y-97121410D01*
X165902014Y-96996928D01*
X165889754Y-96872446D01*
X165853444Y-96752748D01*
X165794479Y-96642434D01*
X165715127Y-96545743D01*
X164300913Y-95131529D01*
X164204222Y-95052177D01*
X164093908Y-94993212D01*
X163974210Y-94956902D01*
X163849728Y-94944642D01*
X163725246Y-94956902D01*
X163605548Y-94993212D01*
X163495234Y-95052177D01*
X163398543Y-95131529D01*
X161984329Y-96545743D01*
X161904977Y-96642434D01*
X161846012Y-96752748D01*
X161809702Y-96872446D01*
X161797442Y-96996928D01*
X161809702Y-97121410D01*
X161846012Y-97241108D01*
X161904977Y-97351422D01*
X161984329Y-97448113D01*
X163398543Y-98862327D01*
X163495234Y-98941679D01*
X163605548Y-99000644D01*
X163725246Y-99036954D01*
X163849728Y-99049214D01*
X163974210Y-99036954D01*
X163977000Y-99036108D01*
X163976999Y-104882676D01*
X163973323Y-104919999D01*
X163976999Y-104957321D01*
X163976999Y-104957331D01*
X163987996Y-105068984D01*
X164029027Y-105204246D01*
X164031453Y-105212245D01*
X164102025Y-105344275D01*
X164120449Y-105366724D01*
X164196998Y-105460000D01*
X164226002Y-105483803D01*
X164749628Y-106007430D01*
X164719000Y-106161408D01*
X164719000Y-106436592D01*
X164772686Y-106706490D01*
X164877995Y-106960727D01*
X165030880Y-107189535D01*
X165225465Y-107384120D01*
X165454273Y-107537005D01*
X165531515Y-107569000D01*
X165454273Y-107600995D01*
X165225465Y-107753880D01*
X165030880Y-107948465D01*
X164877995Y-108177273D01*
X164772686Y-108431510D01*
X164719000Y-108701408D01*
X164719000Y-108976592D01*
X164772686Y-109246490D01*
X164877995Y-109500727D01*
X165030880Y-109729535D01*
X165225465Y-109924120D01*
X165454273Y-110077005D01*
X165531515Y-110109000D01*
X165454273Y-110140995D01*
X165225465Y-110293880D01*
X165030880Y-110488465D01*
X164877995Y-110717273D01*
X164772686Y-110971510D01*
X164719000Y-111241408D01*
X164719000Y-111516592D01*
X164772686Y-111786490D01*
X164877995Y-112040727D01*
X165030880Y-112269535D01*
X165225465Y-112464120D01*
X165454273Y-112617005D01*
X165531515Y-112649000D01*
X165454273Y-112680995D01*
X165225465Y-112833880D01*
X165030880Y-113028465D01*
X164877995Y-113257273D01*
X164772686Y-113511510D01*
X164719000Y-113781408D01*
X164719000Y-114056592D01*
X164772686Y-114326490D01*
X164877995Y-114580727D01*
X165030880Y-114809535D01*
X165225465Y-115004120D01*
X165454273Y-115157005D01*
X165531515Y-115189000D01*
X165454273Y-115220995D01*
X165225465Y-115373880D01*
X165030880Y-115568465D01*
X164877995Y-115797273D01*
X164772686Y-116051510D01*
X164719000Y-116321408D01*
X164719000Y-116596592D01*
X164772686Y-116866490D01*
X164877995Y-117120727D01*
X165030880Y-117349535D01*
X165225465Y-117544120D01*
X165454273Y-117697005D01*
X165531515Y-117729000D01*
X165454273Y-117760995D01*
X165225465Y-117913880D01*
X165030880Y-118108465D01*
X164877995Y-118337273D01*
X164772686Y-118591510D01*
X164719000Y-118861408D01*
X164719000Y-119136592D01*
X164749628Y-119290570D01*
X161343499Y-122696700D01*
X160171243Y-122696700D01*
X160067837Y-122541941D01*
X159867959Y-122342063D01*
X159632927Y-122185020D01*
X159371774Y-122076847D01*
X159094535Y-122021700D01*
X158811865Y-122021700D01*
X158534626Y-122076847D01*
X158273473Y-122185020D01*
X158038441Y-122342063D01*
X157838563Y-122541941D01*
X157681520Y-122776973D01*
X157573347Y-123038126D01*
X157518200Y-123315365D01*
X157518200Y-123598035D01*
X157573347Y-123875274D01*
X157681520Y-124136427D01*
X157838563Y-124371459D01*
X158038441Y-124571337D01*
X158273473Y-124728380D01*
X158534626Y-124836553D01*
X158811865Y-124891700D01*
X159094535Y-124891700D01*
X159371774Y-124836553D01*
X159632927Y-124728380D01*
X159867959Y-124571337D01*
X160067837Y-124371459D01*
X160171243Y-124216700D01*
X161620978Y-124216700D01*
X161658300Y-124220376D01*
X161695622Y-124216700D01*
X161695633Y-124216700D01*
X161807286Y-124205703D01*
X161950547Y-124162246D01*
X162082576Y-124091674D01*
X162198301Y-123996701D01*
X162222104Y-123967697D01*
X164719000Y-121470802D01*
X164719000Y-121676592D01*
X164772686Y-121946490D01*
X164877995Y-122200727D01*
X165030880Y-122429535D01*
X165225465Y-122624120D01*
X165454273Y-122777005D01*
X165531515Y-122809000D01*
X165454273Y-122840995D01*
X165225465Y-122993880D01*
X165030880Y-123188465D01*
X164877995Y-123417273D01*
X164772686Y-123671510D01*
X164719000Y-123941408D01*
X164719000Y-124216592D01*
X164772686Y-124486490D01*
X164877995Y-124740727D01*
X165030880Y-124969535D01*
X165225465Y-125164120D01*
X165454273Y-125317005D01*
X165531515Y-125349000D01*
X165454273Y-125380995D01*
X165225465Y-125533880D01*
X165030880Y-125728465D01*
X164877995Y-125957273D01*
X164772686Y-126211510D01*
X164719000Y-126481408D01*
X164719000Y-126756592D01*
X164772686Y-127026490D01*
X164877995Y-127280727D01*
X165030880Y-127509535D01*
X165225465Y-127704120D01*
X165454273Y-127857005D01*
X165531515Y-127889000D01*
X165454273Y-127920995D01*
X165225465Y-128073880D01*
X165030880Y-128268465D01*
X164877995Y-128497273D01*
X164772686Y-128751510D01*
X164719000Y-129021408D01*
X164719000Y-129296592D01*
X164772686Y-129566490D01*
X164877995Y-129820727D01*
X165030880Y-130049535D01*
X165225465Y-130244120D01*
X165454273Y-130397005D01*
X165531515Y-130429000D01*
X165454273Y-130460995D01*
X165225465Y-130613880D01*
X165030880Y-130808465D01*
X164877995Y-131037273D01*
X164772686Y-131291510D01*
X164719000Y-131561408D01*
X164719000Y-131836592D01*
X164772686Y-132106490D01*
X164877995Y-132360727D01*
X165030880Y-132589535D01*
X165225465Y-132784120D01*
X165454273Y-132937005D01*
X165531515Y-132969000D01*
X165454273Y-133000995D01*
X165225465Y-133153880D01*
X165030880Y-133348465D01*
X164877995Y-133577273D01*
X164772686Y-133831510D01*
X164719000Y-134101408D01*
X164719000Y-134376592D01*
X164772686Y-134646490D01*
X164877995Y-134900727D01*
X165030880Y-135129535D01*
X165225465Y-135324120D01*
X165454273Y-135477005D01*
X165531515Y-135509000D01*
X165454273Y-135540995D01*
X165225465Y-135693880D01*
X165030880Y-135888465D01*
X164877995Y-136117273D01*
X164772686Y-136371510D01*
X164719000Y-136641408D01*
X164719000Y-136916592D01*
X164772686Y-137186490D01*
X164877995Y-137440727D01*
X165030880Y-137669535D01*
X165225465Y-137864120D01*
X165454273Y-138017005D01*
X165708510Y-138122314D01*
X165978408Y-138176000D01*
X166253592Y-138176000D01*
X166523490Y-138122314D01*
X166531002Y-138119203D01*
X166531002Y-140518797D01*
X166523490Y-140515686D01*
X166253592Y-140462000D01*
X165978408Y-140462000D01*
X165708510Y-140515686D01*
X165454273Y-140620995D01*
X165225465Y-140773880D01*
X165030880Y-140968465D01*
X164877995Y-141197273D01*
X164772686Y-141451510D01*
X164719000Y-141721408D01*
X164719000Y-141996592D01*
X164772686Y-142266490D01*
X164877995Y-142520727D01*
X165030880Y-142749535D01*
X165198883Y-142917538D01*
X165141518Y-142923188D01*
X165021820Y-142959498D01*
X164911506Y-143018463D01*
X164814815Y-143097815D01*
X164735463Y-143194506D01*
X164676498Y-143304820D01*
X164640188Y-143424518D01*
X164627928Y-143549000D01*
X164627928Y-145249000D01*
X164640188Y-145373482D01*
X164676498Y-145493180D01*
X164735463Y-145603494D01*
X164814815Y-145700185D01*
X164911506Y-145779537D01*
X165021820Y-145838502D01*
X165141518Y-145874812D01*
X165266000Y-145887072D01*
X166531002Y-145887072D01*
X166531002Y-147834789D01*
X166346657Y-147650444D01*
X165961089Y-147392815D01*
X165532668Y-147215358D01*
X165077860Y-147124891D01*
X164614140Y-147124891D01*
X164159332Y-147215358D01*
X163730911Y-147392815D01*
X163345343Y-147650444D01*
X163017444Y-147978343D01*
X162759815Y-148363911D01*
X162582358Y-148792332D01*
X162491891Y-149247140D01*
X162491891Y-149710860D01*
X162582358Y-150165668D01*
X162759815Y-150594089D01*
X163017444Y-150979657D01*
X163042787Y-151005000D01*
X159699802Y-151005000D01*
X158968072Y-150273271D01*
X158968072Y-149010000D01*
X158955812Y-148885518D01*
X158919502Y-148765820D01*
X158860537Y-148655506D01*
X158781185Y-148558815D01*
X158684494Y-148479463D01*
X158574180Y-148420498D01*
X158454482Y-148384188D01*
X158330000Y-148371928D01*
X156630000Y-148371928D01*
X156505518Y-148384188D01*
X156385820Y-148420498D01*
X156275506Y-148479463D01*
X156178815Y-148558815D01*
X156099463Y-148655506D01*
X156040498Y-148765820D01*
X156018487Y-148838380D01*
X155886632Y-148706525D01*
X155643411Y-148544010D01*
X155373158Y-148432068D01*
X155086260Y-148375000D01*
X154793740Y-148375000D01*
X154506842Y-148432068D01*
X154236589Y-148544010D01*
X153993368Y-148706525D01*
X153786525Y-148913368D01*
X153670000Y-149087760D01*
X153553475Y-148913368D01*
X153346632Y-148706525D01*
X153103411Y-148544010D01*
X152833158Y-148432068D01*
X152546260Y-148375000D01*
X152253740Y-148375000D01*
X151966842Y-148432068D01*
X151696589Y-148544010D01*
X151453368Y-148706525D01*
X151246525Y-148913368D01*
X151084010Y-149156589D01*
X150972068Y-149426842D01*
X150915000Y-149713740D01*
X150915000Y-150006260D01*
X150972068Y-150293158D01*
X151084010Y-150563411D01*
X151246525Y-150806632D01*
X151453368Y-151013475D01*
X151696589Y-151175990D01*
X151966842Y-151287932D01*
X152253740Y-151345000D01*
X152546260Y-151345000D01*
X152833158Y-151287932D01*
X153103411Y-151175990D01*
X153346632Y-151013475D01*
X153553475Y-150806632D01*
X153670000Y-150632240D01*
X153786525Y-150806632D01*
X153993368Y-151013475D01*
X154236589Y-151175990D01*
X154506842Y-151287932D01*
X154793740Y-151345000D01*
X155086260Y-151345000D01*
X155373158Y-151287932D01*
X155643411Y-151175990D01*
X155886632Y-151013475D01*
X156018487Y-150881620D01*
X156040498Y-150954180D01*
X156099463Y-151064494D01*
X156178815Y-151161185D01*
X156275506Y-151240537D01*
X156385820Y-151299502D01*
X156505518Y-151335812D01*
X156630000Y-151348072D01*
X157893271Y-151348072D01*
X158060198Y-151515000D01*
X143176196Y-151515000D01*
X143486657Y-151307556D01*
X143814556Y-150979657D01*
X144072185Y-150594089D01*
X144249642Y-150165668D01*
X144340109Y-149710860D01*
X144340109Y-149247140D01*
X144249642Y-148792332D01*
X144072185Y-148363911D01*
X143814556Y-147978343D01*
X143486657Y-147650444D01*
X143101089Y-147392815D01*
X142672668Y-147215358D01*
X142217860Y-147124891D01*
X141754140Y-147124891D01*
X141299332Y-147215358D01*
X140870911Y-147392815D01*
X140485343Y-147650444D01*
X140157444Y-147978343D01*
X139963012Y-148269330D01*
X139974137Y-145821714D01*
X139993000Y-145823572D01*
X141693000Y-145823572D01*
X141817482Y-145811312D01*
X141937180Y-145775002D01*
X142047494Y-145716037D01*
X142144185Y-145636685D01*
X142223537Y-145539994D01*
X142282502Y-145429680D01*
X142318812Y-145309982D01*
X142331072Y-145185500D01*
X142331072Y-143485500D01*
X142318812Y-143361018D01*
X142282502Y-143241320D01*
X142223537Y-143131006D01*
X142144185Y-143034315D01*
X142047494Y-142954963D01*
X141937180Y-142895998D01*
X141817482Y-142859688D01*
X141702310Y-142848345D01*
X141801120Y-142749535D01*
X141954005Y-142520727D01*
X142059314Y-142266490D01*
X142113000Y-141996592D01*
X142113000Y-141721408D01*
X142059314Y-141451510D01*
X141954005Y-141197273D01*
X141801120Y-140968465D01*
X141606535Y-140773880D01*
X141377727Y-140620995D01*
X141123490Y-140515686D01*
X140853592Y-140462000D01*
X140578408Y-140462000D01*
X140308510Y-140515686D01*
X140054273Y-140620995D01*
X139997605Y-140658860D01*
X140009749Y-137987255D01*
X140054273Y-138017005D01*
X140308510Y-138122314D01*
X140578408Y-138176000D01*
X140853592Y-138176000D01*
X141123490Y-138122314D01*
X141377727Y-138017005D01*
X141606535Y-137864120D01*
X141801120Y-137669535D01*
X141888341Y-137539000D01*
X142329678Y-137539000D01*
X142367000Y-137542676D01*
X142404322Y-137539000D01*
X142404333Y-137539000D01*
X142515986Y-137528003D01*
X142659247Y-137484546D01*
X142791276Y-137413974D01*
X142907001Y-137319001D01*
X142930804Y-137289997D01*
X144418801Y-135802000D01*
X148371928Y-135802000D01*
X148371928Y-137502000D01*
X148384188Y-137626482D01*
X148420498Y-137746180D01*
X148479463Y-137856494D01*
X148558815Y-137953185D01*
X148655506Y-138032537D01*
X148765820Y-138091502D01*
X148885518Y-138127812D01*
X149010000Y-138140072D01*
X150710000Y-138140072D01*
X150834482Y-138127812D01*
X150954180Y-138091502D01*
X151064494Y-138032537D01*
X151161185Y-137953185D01*
X151240537Y-137856494D01*
X151277683Y-137787000D01*
X153453869Y-137787000D01*
X155888709Y-140221841D01*
X155924251Y-140265149D01*
X156097077Y-140406984D01*
X156294253Y-140512376D01*
X156458405Y-140562171D01*
X156508200Y-140577277D01*
X156529193Y-140579344D01*
X156674948Y-140593700D01*
X156674955Y-140593700D01*
X156730699Y-140599190D01*
X156786443Y-140593700D01*
X158051593Y-140593700D01*
X158070068Y-140612175D01*
X158313289Y-140774690D01*
X158583542Y-140886632D01*
X158870440Y-140943700D01*
X159162960Y-140943700D01*
X159449858Y-140886632D01*
X159720111Y-140774690D01*
X159963332Y-140612175D01*
X160170175Y-140405332D01*
X160332690Y-140162111D01*
X160444632Y-139891858D01*
X160501700Y-139604960D01*
X160501700Y-139312440D01*
X160444632Y-139025542D01*
X160332690Y-138755289D01*
X160170175Y-138512068D01*
X159963332Y-138305225D01*
X159788940Y-138188700D01*
X159963332Y-138072175D01*
X160170175Y-137865332D01*
X160332690Y-137622111D01*
X160444632Y-137351858D01*
X160501700Y-137064960D01*
X160501700Y-136772440D01*
X160457910Y-136552292D01*
X160702705Y-136307497D01*
X160731702Y-136283700D01*
X160826675Y-136167975D01*
X160897247Y-136035946D01*
X160940704Y-135892685D01*
X160951701Y-135781032D01*
X160951701Y-135781023D01*
X160955377Y-135743700D01*
X160951701Y-135706377D01*
X160951701Y-132352524D01*
X160955377Y-132315201D01*
X160951701Y-132277878D01*
X160951701Y-132277868D01*
X160940704Y-132166215D01*
X160897247Y-132022954D01*
X160880412Y-131991459D01*
X160826675Y-131890924D01*
X160755500Y-131804198D01*
X160731702Y-131775200D01*
X160702704Y-131751402D01*
X160351888Y-131400586D01*
X160388200Y-131218035D01*
X160388200Y-130935365D01*
X160333053Y-130658126D01*
X160224880Y-130396973D01*
X160067837Y-130161941D01*
X159867959Y-129962063D01*
X159632927Y-129805020D01*
X159371774Y-129696847D01*
X159094535Y-129641700D01*
X158811865Y-129641700D01*
X158534626Y-129696847D01*
X158273473Y-129805020D01*
X158038441Y-129962063D01*
X157838563Y-130161941D01*
X157681520Y-130396973D01*
X157573347Y-130658126D01*
X157518200Y-130935365D01*
X157518200Y-131218035D01*
X157573347Y-131495274D01*
X157681520Y-131756427D01*
X157838563Y-131991459D01*
X158038441Y-132191337D01*
X158273473Y-132348380D01*
X158534626Y-132456553D01*
X158811865Y-132511700D01*
X159094535Y-132511700D01*
X159277086Y-132475388D01*
X159431702Y-132630004D01*
X159431702Y-132890628D01*
X158166700Y-132890628D01*
X158042218Y-132902888D01*
X157922520Y-132939198D01*
X157812206Y-132998163D01*
X157715515Y-133077515D01*
X157636163Y-133174206D01*
X157577198Y-133284520D01*
X157540888Y-133404218D01*
X157528628Y-133528700D01*
X157528628Y-135228700D01*
X157540888Y-135353182D01*
X157577198Y-135472880D01*
X157636163Y-135583194D01*
X157715515Y-135679885D01*
X157812206Y-135759237D01*
X157922520Y-135818202D01*
X157995080Y-135840213D01*
X157863225Y-135972068D01*
X157700710Y-136215289D01*
X157588768Y-136485542D01*
X157531700Y-136772440D01*
X157531700Y-137064960D01*
X157588768Y-137351858D01*
X157700710Y-137622111D01*
X157863225Y-137865332D01*
X158070068Y-138072175D01*
X158244460Y-138188700D01*
X158070068Y-138305225D01*
X158051593Y-138323700D01*
X157200832Y-138323700D01*
X154765996Y-135888865D01*
X154730449Y-135845551D01*
X154557623Y-135703716D01*
X154360447Y-135598324D01*
X154146499Y-135533423D01*
X153979752Y-135517000D01*
X153979751Y-135517000D01*
X153924000Y-135511509D01*
X153868249Y-135517000D01*
X151277683Y-135517000D01*
X151240537Y-135447506D01*
X151161185Y-135350815D01*
X151064494Y-135271463D01*
X150954180Y-135212498D01*
X150834482Y-135176188D01*
X150710000Y-135163928D01*
X149010000Y-135163928D01*
X148885518Y-135176188D01*
X148765820Y-135212498D01*
X148655506Y-135271463D01*
X148558815Y-135350815D01*
X148479463Y-135447506D01*
X148420498Y-135557820D01*
X148384188Y-135677518D01*
X148371928Y-135802000D01*
X144418801Y-135802000D01*
X149609009Y-130611794D01*
X149638001Y-130588001D01*
X149661795Y-130559008D01*
X149661799Y-130559004D01*
X149732973Y-130472277D01*
X149732974Y-130472276D01*
X149803546Y-130340247D01*
X149847003Y-130196986D01*
X149858000Y-130085333D01*
X149858000Y-130085324D01*
X149861676Y-130048001D01*
X149858000Y-130010678D01*
X149858000Y-107883801D01*
X157599299Y-100142503D01*
X157599303Y-100142498D01*
X157734212Y-100007589D01*
X158277009Y-99464794D01*
X158306002Y-99441000D01*
X158329796Y-99412007D01*
X158329800Y-99412003D01*
X158329805Y-99411997D01*
X158335899Y-99405903D01*
X158407074Y-99319176D01*
X158477646Y-99187147D01*
X158521103Y-99043886D01*
X158535776Y-98894900D01*
X158526001Y-98795647D01*
X158526001Y-86700753D01*
X158697842Y-86771932D01*
X158984740Y-86829000D01*
X159277260Y-86829000D01*
X159564158Y-86771932D01*
X159834411Y-86659990D01*
X160077632Y-86497475D01*
X160284475Y-86290632D01*
X160446990Y-86047411D01*
X160558932Y-85777158D01*
X160616000Y-85490260D01*
X160616000Y-85197740D01*
X160558932Y-84910842D01*
X160446990Y-84640589D01*
X160349043Y-84494000D01*
X162722928Y-84494000D01*
X162722928Y-86194000D01*
X162735188Y-86318482D01*
X162771498Y-86438180D01*
X162830463Y-86548494D01*
X162909815Y-86645185D01*
X163006506Y-86724537D01*
X163116820Y-86783502D01*
X163236518Y-86819812D01*
X163361000Y-86832072D01*
X165061000Y-86832072D01*
X165185482Y-86819812D01*
X165305180Y-86783502D01*
X165415494Y-86724537D01*
X165512185Y-86645185D01*
X165591537Y-86548494D01*
X165650502Y-86438180D01*
X165686812Y-86318482D01*
X165699072Y-86194000D01*
X165699072Y-84494000D01*
X165686812Y-84369518D01*
X165650502Y-84249820D01*
X165591537Y-84139506D01*
X165512185Y-84042815D01*
X165415494Y-83963463D01*
X165305180Y-83904498D01*
X165185482Y-83868188D01*
X165061000Y-83855928D01*
X163361000Y-83855928D01*
X163236518Y-83868188D01*
X163116820Y-83904498D01*
X163006506Y-83963463D01*
X162909815Y-84042815D01*
X162830463Y-84139506D01*
X162771498Y-84249820D01*
X162735188Y-84369518D01*
X162722928Y-84494000D01*
X160349043Y-84494000D01*
X160284475Y-84397368D01*
X160077632Y-84190525D01*
X159891000Y-84065822D01*
X159891000Y-82625155D01*
X159961411Y-82595990D01*
X160204632Y-82433475D01*
X160411475Y-82226632D01*
X160573990Y-81983411D01*
X160685932Y-81713158D01*
X160743000Y-81426260D01*
X160743000Y-81133740D01*
X160720280Y-81019521D01*
X160874803Y-80864999D01*
X164654838Y-80864999D01*
X166443002Y-82653164D01*
G37*
%TD.AperFunction*%
D22*
X179615575Y-91209545D02*
X179540151Y-91240787D01*
X179131845Y-91513609D01*
X178784609Y-91860845D01*
X178511787Y-92269151D01*
X178323864Y-92722837D01*
X178228062Y-93204467D01*
X178228062Y-93695533D01*
X178323864Y-94177163D01*
X178511787Y-94630849D01*
X178784609Y-95039155D01*
X179131845Y-95386391D01*
X179540151Y-95659213D01*
X179993837Y-95847136D01*
X180475467Y-95942938D01*
X180966533Y-95942938D01*
X181448163Y-95847136D01*
X181901849Y-95659213D01*
X182310155Y-95386391D01*
X182657391Y-95039155D01*
X182930213Y-94630849D01*
X183118136Y-94177163D01*
X183213938Y-93695533D01*
X183213938Y-93204467D01*
X183118136Y-92722837D01*
X182930213Y-92269151D01*
X182748376Y-91997014D01*
X182946767Y-92075562D01*
X183981583Y-92644458D01*
X184936945Y-93338569D01*
X185797774Y-94146940D01*
X186550497Y-95056826D01*
X187183248Y-96053883D01*
X187686047Y-97122385D01*
X188050960Y-98245473D01*
X188272236Y-99405438D01*
X188347791Y-100606355D01*
X188345535Y-100789139D01*
X188344996Y-100794620D01*
X188348132Y-129512227D01*
X188272236Y-130718563D01*
X188050960Y-131878526D01*
X187686046Y-133001616D01*
X187183250Y-134070115D01*
X186550500Y-135067169D01*
X185797772Y-135977061D01*
X184936944Y-136785432D01*
X183981583Y-137479543D01*
X182946760Y-138048440D01*
X182366276Y-138278270D01*
X182657391Y-137987155D01*
X182930213Y-137578849D01*
X183118136Y-137125163D01*
X183213938Y-136643533D01*
X183213938Y-136152467D01*
X183118136Y-135670837D01*
X182930213Y-135217151D01*
X182657391Y-134808845D01*
X182310155Y-134461609D01*
X181901849Y-134188787D01*
X181448163Y-134000864D01*
X180966533Y-133905062D01*
X180475467Y-133905062D01*
X179993837Y-134000864D01*
X179540151Y-134188787D01*
X179131845Y-134461609D01*
X178784609Y-134808845D01*
X178511787Y-135217151D01*
X178323864Y-135670837D01*
X178228062Y-136152467D01*
X178228062Y-136643533D01*
X178323864Y-137125163D01*
X178511787Y-137578849D01*
X178784609Y-137987155D01*
X179131845Y-138334391D01*
X179540151Y-138607213D01*
X179993837Y-138795136D01*
X180213773Y-138838884D01*
X179533439Y-138924830D01*
X178352553Y-138924830D01*
X177180982Y-138776826D01*
X176037193Y-138483151D01*
X174939236Y-138048438D01*
X173904410Y-137479538D01*
X172949058Y-136785435D01*
X172088223Y-135977055D01*
X171335501Y-135067170D01*
X170702749Y-134070113D01*
X170199954Y-133001617D01*
X169835038Y-131878524D01*
X169613764Y-130718561D01*
X169538209Y-129517644D01*
X169540627Y-129321690D01*
X169541903Y-129303050D01*
X169415298Y-125061798D01*
X169418282Y-125031500D01*
X169412702Y-124974848D01*
X169412308Y-124961637D01*
X169408446Y-124931636D01*
X169403361Y-124880000D01*
X171739928Y-124880000D01*
X171739928Y-126580000D01*
X171752188Y-126704482D01*
X171788498Y-126824180D01*
X171847463Y-126934494D01*
X171926815Y-127031185D01*
X172023506Y-127110537D01*
X172133820Y-127169502D01*
X172253518Y-127205812D01*
X172378000Y-127218072D01*
X174078000Y-127218072D01*
X174202482Y-127205812D01*
X174322180Y-127169502D01*
X174432494Y-127110537D01*
X174529185Y-127031185D01*
X174608537Y-126934494D01*
X174667502Y-126824180D01*
X174703812Y-126704482D01*
X174716072Y-126580000D01*
X174716072Y-124880000D01*
X174703812Y-124755518D01*
X174667502Y-124635820D01*
X174608537Y-124525506D01*
X174529185Y-124428815D01*
X174432494Y-124349463D01*
X174322180Y-124290498D01*
X174202482Y-124254188D01*
X174078000Y-124241928D01*
X172378000Y-124241928D01*
X172253518Y-124254188D01*
X172133820Y-124290498D01*
X172023506Y-124349463D01*
X171926815Y-124428815D01*
X171847463Y-124525506D01*
X171788498Y-124635820D01*
X171752188Y-124755518D01*
X171739928Y-124880000D01*
X169403361Y-124880000D01*
X169401195Y-124858010D01*
X169397329Y-124845267D01*
X169395630Y-124832064D01*
X169372061Y-124761969D01*
X169350589Y-124691187D01*
X169344312Y-124679443D01*
X169340069Y-124666825D01*
X169303283Y-124602683D01*
X169268411Y-124537441D01*
X169259963Y-124527147D01*
X169253340Y-124515599D01*
X169204745Y-124459865D01*
X169157817Y-124402683D01*
X169147521Y-124394233D01*
X169138774Y-124384201D01*
X169080251Y-124339026D01*
X169023059Y-124292089D01*
X169011313Y-124285811D01*
X169000776Y-124277677D01*
X168934551Y-124244781D01*
X168869313Y-124209911D01*
X168856569Y-124206045D01*
X168844647Y-124200123D01*
X168773279Y-124180779D01*
X168702490Y-124159305D01*
X168689237Y-124158000D01*
X168676388Y-124154517D01*
X168602607Y-124149467D01*
X168572477Y-124146500D01*
X168559247Y-124146500D01*
X168502467Y-124142614D01*
X168472277Y-124146500D01*
X168051001Y-124146500D01*
X168051001Y-123821000D01*
X168612524Y-123821000D01*
X168656000Y-123825282D01*
X168721642Y-123818817D01*
X168829490Y-123808195D01*
X168996313Y-123757589D01*
X169150059Y-123675411D01*
X169284817Y-123564817D01*
X169395411Y-123430059D01*
X169477589Y-123276313D01*
X169528195Y-123109490D01*
X169537324Y-123016801D01*
X169541000Y-122979477D01*
X169541000Y-122979476D01*
X169545282Y-122936000D01*
X169541000Y-122892523D01*
X169541000Y-114660977D01*
X169545282Y-114617500D01*
X169528195Y-114444010D01*
X169477589Y-114277187D01*
X169395411Y-114123441D01*
X169284817Y-113988683D01*
X169150059Y-113878089D01*
X168996313Y-113795911D01*
X168829490Y-113745305D01*
X168699477Y-113732500D01*
X168699476Y-113732500D01*
X168656000Y-113728218D01*
X168612523Y-113732500D01*
X168051001Y-113732500D01*
X168051001Y-113470500D01*
X168612524Y-113470500D01*
X168656000Y-113474782D01*
X168774023Y-113463158D01*
X168829490Y-113457695D01*
X168996313Y-113407089D01*
X169150059Y-113324911D01*
X169284817Y-113214317D01*
X169395411Y-113079559D01*
X169477589Y-112925813D01*
X169528195Y-112758990D01*
X169545282Y-112585500D01*
X169541000Y-112542023D01*
X169541000Y-105707477D01*
X169545282Y-105664000D01*
X169528195Y-105490510D01*
X169477589Y-105323687D01*
X169395411Y-105169941D01*
X169284817Y-105035183D01*
X169150059Y-104924589D01*
X168996313Y-104842411D01*
X168829490Y-104791805D01*
X168699477Y-104779000D01*
X168699476Y-104779000D01*
X168656000Y-104774718D01*
X168612523Y-104779000D01*
X167963001Y-104779000D01*
X167963001Y-104517000D01*
X168554628Y-104517000D01*
X168590974Y-104521168D01*
X168641578Y-104517000D01*
X168648677Y-104517000D01*
X168684934Y-104513429D01*
X168764714Y-104506858D01*
X168771576Y-104504896D01*
X168778690Y-104504195D01*
X168855369Y-104480934D01*
X168932325Y-104458928D01*
X168938675Y-104455663D01*
X168945513Y-104453589D01*
X169016168Y-104415823D01*
X169087366Y-104379220D01*
X169092956Y-104374780D01*
X169099259Y-104371411D01*
X169161202Y-104320575D01*
X169223876Y-104270796D01*
X169228492Y-104265351D01*
X169234017Y-104260817D01*
X169284853Y-104198873D01*
X169336612Y-104137824D01*
X169340077Y-104131584D01*
X169344611Y-104126059D01*
X169382385Y-104055389D01*
X169421239Y-103985413D01*
X169423420Y-103978615D01*
X169426789Y-103972313D01*
X169450049Y-103895635D01*
X169474507Y-103819421D01*
X169475320Y-103812330D01*
X169477395Y-103805490D01*
X169485247Y-103725763D01*
X169489391Y-103689629D01*
X169489504Y-103682539D01*
X169494482Y-103632000D01*
X169490896Y-103595587D01*
X169504845Y-102723740D01*
X171743000Y-102723740D01*
X171743000Y-103016260D01*
X171800068Y-103303158D01*
X171912010Y-103573411D01*
X172074525Y-103816632D01*
X172281368Y-104023475D01*
X172455760Y-104140000D01*
X172281368Y-104256525D01*
X172074525Y-104463368D01*
X171912010Y-104706589D01*
X171800068Y-104976842D01*
X171743000Y-105263740D01*
X171743000Y-105556260D01*
X171800068Y-105843158D01*
X171912010Y-106113411D01*
X172074525Y-106356632D01*
X172281368Y-106563475D01*
X172455760Y-106680000D01*
X172281368Y-106796525D01*
X172074525Y-107003368D01*
X171912010Y-107246589D01*
X171800068Y-107516842D01*
X171743000Y-107803740D01*
X171743000Y-108096260D01*
X171800068Y-108383158D01*
X171912010Y-108653411D01*
X172074525Y-108896632D01*
X172281368Y-109103475D01*
X172455760Y-109220000D01*
X172281368Y-109336525D01*
X172074525Y-109543368D01*
X171912010Y-109786589D01*
X171800068Y-110056842D01*
X171743000Y-110343740D01*
X171743000Y-110636260D01*
X171800068Y-110923158D01*
X171912010Y-111193411D01*
X172074525Y-111436632D01*
X172281368Y-111643475D01*
X172455760Y-111760000D01*
X172281368Y-111876525D01*
X172074525Y-112083368D01*
X171912010Y-112326589D01*
X171800068Y-112596842D01*
X171743000Y-112883740D01*
X171743000Y-113176260D01*
X171800068Y-113463158D01*
X171912010Y-113733411D01*
X172074525Y-113976632D01*
X172281368Y-114183475D01*
X172455760Y-114300000D01*
X172281368Y-114416525D01*
X172074525Y-114623368D01*
X171912010Y-114866589D01*
X171800068Y-115136842D01*
X171743000Y-115423740D01*
X171743000Y-115716260D01*
X171800068Y-116003158D01*
X171912010Y-116273411D01*
X172074525Y-116516632D01*
X172281368Y-116723475D01*
X172455760Y-116840000D01*
X172281368Y-116956525D01*
X172074525Y-117163368D01*
X171912010Y-117406589D01*
X171800068Y-117676842D01*
X171743000Y-117963740D01*
X171743000Y-118256260D01*
X171800068Y-118543158D01*
X171912010Y-118813411D01*
X172074525Y-119056632D01*
X172281368Y-119263475D01*
X172455760Y-119380000D01*
X172281368Y-119496525D01*
X172074525Y-119703368D01*
X171912010Y-119946589D01*
X171800068Y-120216842D01*
X171743000Y-120503740D01*
X171743000Y-120796260D01*
X171800068Y-121083158D01*
X171912010Y-121353411D01*
X172074525Y-121596632D01*
X172281368Y-121803475D01*
X172524589Y-121965990D01*
X172794842Y-122077932D01*
X173081740Y-122135000D01*
X173374260Y-122135000D01*
X173661158Y-122077932D01*
X173931411Y-121965990D01*
X174174632Y-121803475D01*
X174381475Y-121596632D01*
X174543990Y-121353411D01*
X174655932Y-121083158D01*
X174713000Y-120796260D01*
X174713000Y-120503740D01*
X174655932Y-120216842D01*
X174543990Y-119946589D01*
X174381475Y-119703368D01*
X174174632Y-119496525D01*
X174000240Y-119380000D01*
X174174632Y-119263475D01*
X174381475Y-119056632D01*
X174543990Y-118813411D01*
X174655932Y-118543158D01*
X174713000Y-118256260D01*
X174713000Y-117963740D01*
X174655932Y-117676842D01*
X174543990Y-117406589D01*
X174381475Y-117163368D01*
X174174632Y-116956525D01*
X174000240Y-116840000D01*
X174174632Y-116723475D01*
X174381475Y-116516632D01*
X174543990Y-116273411D01*
X174655932Y-116003158D01*
X174713000Y-115716260D01*
X174713000Y-115423740D01*
X174655932Y-115136842D01*
X174543990Y-114866589D01*
X174381475Y-114623368D01*
X174174632Y-114416525D01*
X174000240Y-114300000D01*
X174174632Y-114183475D01*
X174381475Y-113976632D01*
X174543990Y-113733411D01*
X174655932Y-113463158D01*
X174713000Y-113176260D01*
X174713000Y-112883740D01*
X174655932Y-112596842D01*
X174543990Y-112326589D01*
X174381475Y-112083368D01*
X174174632Y-111876525D01*
X174000240Y-111760000D01*
X174174632Y-111643475D01*
X174381475Y-111436632D01*
X174543990Y-111193411D01*
X174655932Y-110923158D01*
X174713000Y-110636260D01*
X174713000Y-110343740D01*
X174655932Y-110056842D01*
X174543990Y-109786589D01*
X174381475Y-109543368D01*
X174174632Y-109336525D01*
X174000240Y-109220000D01*
X174174632Y-109103475D01*
X174381475Y-108896632D01*
X174543990Y-108653411D01*
X174655932Y-108383158D01*
X174713000Y-108096260D01*
X174713000Y-107803740D01*
X174655932Y-107516842D01*
X174543990Y-107246589D01*
X174381475Y-107003368D01*
X174174632Y-106796525D01*
X174000240Y-106680000D01*
X174174632Y-106563475D01*
X174381475Y-106356632D01*
X174543990Y-106113411D01*
X174655932Y-105843158D01*
X174713000Y-105556260D01*
X174713000Y-105263740D01*
X174655932Y-104976842D01*
X174543990Y-104706589D01*
X174381475Y-104463368D01*
X174174632Y-104256525D01*
X174000240Y-104140000D01*
X174174632Y-104023475D01*
X174381475Y-103816632D01*
X174543990Y-103573411D01*
X174655932Y-103303158D01*
X174713000Y-103016260D01*
X174713000Y-102723740D01*
X174655932Y-102436842D01*
X174543990Y-102166589D01*
X174381475Y-101923368D01*
X174174632Y-101716525D01*
X173931411Y-101554010D01*
X173661158Y-101442068D01*
X173374260Y-101385000D01*
X173081740Y-101385000D01*
X172794842Y-101442068D01*
X172524589Y-101554010D01*
X172281368Y-101716525D01*
X172074525Y-101923368D01*
X171912010Y-102166589D01*
X171800068Y-102436842D01*
X171743000Y-102723740D01*
X169504845Y-102723740D01*
X169538899Y-100595386D01*
X169540827Y-100564740D01*
X175045000Y-100564740D01*
X175045000Y-100857260D01*
X175102068Y-101144158D01*
X175214010Y-101414411D01*
X175376525Y-101657632D01*
X175583368Y-101864475D01*
X175757760Y-101981000D01*
X175583368Y-102097525D01*
X175376525Y-102304368D01*
X175214010Y-102547589D01*
X175102068Y-102817842D01*
X175045000Y-103104740D01*
X175045000Y-103397260D01*
X175102068Y-103684158D01*
X175214010Y-103954411D01*
X175376525Y-104197632D01*
X175583368Y-104404475D01*
X175757760Y-104521000D01*
X175583368Y-104637525D01*
X175376525Y-104844368D01*
X175214010Y-105087589D01*
X175102068Y-105357842D01*
X175045000Y-105644740D01*
X175045000Y-105937260D01*
X175102068Y-106224158D01*
X175214010Y-106494411D01*
X175376525Y-106737632D01*
X175583368Y-106944475D01*
X175757760Y-107061000D01*
X175583368Y-107177525D01*
X175376525Y-107384368D01*
X175214010Y-107627589D01*
X175102068Y-107897842D01*
X175045000Y-108184740D01*
X175045000Y-108477260D01*
X175102068Y-108764158D01*
X175214010Y-109034411D01*
X175376525Y-109277632D01*
X175583368Y-109484475D01*
X175757760Y-109601000D01*
X175583368Y-109717525D01*
X175376525Y-109924368D01*
X175214010Y-110167589D01*
X175102068Y-110437842D01*
X175045000Y-110724740D01*
X175045000Y-111017260D01*
X175102068Y-111304158D01*
X175214010Y-111574411D01*
X175376525Y-111817632D01*
X175583368Y-112024475D01*
X175757760Y-112141000D01*
X175583368Y-112257525D01*
X175376525Y-112464368D01*
X175214010Y-112707589D01*
X175102068Y-112977842D01*
X175045000Y-113264740D01*
X175045000Y-113557260D01*
X175102068Y-113844158D01*
X175214010Y-114114411D01*
X175376525Y-114357632D01*
X175583368Y-114564475D01*
X175757760Y-114681000D01*
X175583368Y-114797525D01*
X175376525Y-115004368D01*
X175214010Y-115247589D01*
X175102068Y-115517842D01*
X175045000Y-115804740D01*
X175045000Y-116097260D01*
X175102068Y-116384158D01*
X175214010Y-116654411D01*
X175376525Y-116897632D01*
X175583368Y-117104475D01*
X175757760Y-117221000D01*
X175583368Y-117337525D01*
X175376525Y-117544368D01*
X175214010Y-117787589D01*
X175102068Y-118057842D01*
X175045000Y-118344740D01*
X175045000Y-118637260D01*
X175102068Y-118924158D01*
X175214010Y-119194411D01*
X175376525Y-119437632D01*
X175583368Y-119644475D01*
X175757760Y-119761000D01*
X175583368Y-119877525D01*
X175376525Y-120084368D01*
X175214010Y-120327589D01*
X175102068Y-120597842D01*
X175045000Y-120884740D01*
X175045000Y-121177260D01*
X175102068Y-121464158D01*
X175214010Y-121734411D01*
X175376525Y-121977632D01*
X175583368Y-122184475D01*
X175757760Y-122301000D01*
X175583368Y-122417525D01*
X175376525Y-122624368D01*
X175214010Y-122867589D01*
X175102068Y-123137842D01*
X175045000Y-123424740D01*
X175045000Y-123717260D01*
X175102068Y-124004158D01*
X175214010Y-124274411D01*
X175376525Y-124517632D01*
X175583368Y-124724475D01*
X175757760Y-124841000D01*
X175583368Y-124957525D01*
X175376525Y-125164368D01*
X175214010Y-125407589D01*
X175102068Y-125677842D01*
X175045000Y-125964740D01*
X175045000Y-126257260D01*
X175102068Y-126544158D01*
X175214010Y-126814411D01*
X175376525Y-127057632D01*
X175583368Y-127264475D01*
X175757760Y-127381000D01*
X175583368Y-127497525D01*
X175376525Y-127704368D01*
X175214010Y-127947589D01*
X175102068Y-128217842D01*
X175045000Y-128504740D01*
X175045000Y-128797260D01*
X175102068Y-129084158D01*
X175214010Y-129354411D01*
X175376525Y-129597632D01*
X175583368Y-129804475D01*
X175757760Y-129921000D01*
X175583368Y-130037525D01*
X175376525Y-130244368D01*
X175214010Y-130487589D01*
X175102068Y-130757842D01*
X175045000Y-131044740D01*
X175045000Y-131337260D01*
X175102068Y-131624158D01*
X175214010Y-131894411D01*
X175376525Y-132137632D01*
X175583368Y-132344475D01*
X175757760Y-132461000D01*
X175583368Y-132577525D01*
X175376525Y-132784368D01*
X175214010Y-133027589D01*
X175102068Y-133297842D01*
X175045000Y-133584740D01*
X175045000Y-133877260D01*
X175102068Y-134164158D01*
X175214010Y-134434411D01*
X175376525Y-134677632D01*
X175583368Y-134884475D01*
X175826589Y-135046990D01*
X176096842Y-135158932D01*
X176383740Y-135216000D01*
X176676260Y-135216000D01*
X176963158Y-135158932D01*
X177233411Y-135046990D01*
X177476632Y-134884475D01*
X177683475Y-134677632D01*
X177845990Y-134434411D01*
X177957932Y-134164158D01*
X178015000Y-133877260D01*
X178015000Y-133584740D01*
X177957932Y-133297842D01*
X177845990Y-133027589D01*
X177683475Y-132784368D01*
X177476632Y-132577525D01*
X177302240Y-132461000D01*
X177476632Y-132344475D01*
X177683475Y-132137632D01*
X177845990Y-131894411D01*
X177957932Y-131624158D01*
X178015000Y-131337260D01*
X178015000Y-131044740D01*
X177957932Y-130757842D01*
X177845990Y-130487589D01*
X177683475Y-130244368D01*
X177476632Y-130037525D01*
X177302240Y-129921000D01*
X177476632Y-129804475D01*
X177683475Y-129597632D01*
X177845990Y-129354411D01*
X177957932Y-129084158D01*
X178015000Y-128797260D01*
X178015000Y-128504740D01*
X177957932Y-128217842D01*
X177845990Y-127947589D01*
X177683475Y-127704368D01*
X177476632Y-127497525D01*
X177302240Y-127381000D01*
X177476632Y-127264475D01*
X177683475Y-127057632D01*
X177845990Y-126814411D01*
X177957932Y-126544158D01*
X178015000Y-126257260D01*
X178015000Y-125964740D01*
X177957932Y-125677842D01*
X177845990Y-125407589D01*
X177683475Y-125164368D01*
X177476632Y-124957525D01*
X177302240Y-124841000D01*
X177476632Y-124724475D01*
X177683475Y-124517632D01*
X177845990Y-124274411D01*
X177957932Y-124004158D01*
X178015000Y-123717260D01*
X178015000Y-123424740D01*
X177957932Y-123137842D01*
X177845990Y-122867589D01*
X177683475Y-122624368D01*
X177476632Y-122417525D01*
X177302240Y-122301000D01*
X177476632Y-122184475D01*
X177683475Y-121977632D01*
X177845990Y-121734411D01*
X177957932Y-121464158D01*
X178015000Y-121177260D01*
X178015000Y-120884740D01*
X177957932Y-120597842D01*
X177845990Y-120327589D01*
X177683475Y-120084368D01*
X177476632Y-119877525D01*
X177302240Y-119761000D01*
X177476632Y-119644475D01*
X177683475Y-119437632D01*
X177845990Y-119194411D01*
X177957932Y-118924158D01*
X178015000Y-118637260D01*
X178015000Y-118344740D01*
X177957932Y-118057842D01*
X177845990Y-117787589D01*
X177683475Y-117544368D01*
X177476632Y-117337525D01*
X177302240Y-117221000D01*
X177476632Y-117104475D01*
X177683475Y-116897632D01*
X177845990Y-116654411D01*
X177957932Y-116384158D01*
X178015000Y-116097260D01*
X178015000Y-115804740D01*
X177957932Y-115517842D01*
X177845990Y-115247589D01*
X177683475Y-115004368D01*
X177476632Y-114797525D01*
X177302240Y-114681000D01*
X177476632Y-114564475D01*
X177683475Y-114357632D01*
X177808178Y-114171000D01*
X178374199Y-114171000D01*
X178386790Y-114183591D01*
X178386789Y-121158469D01*
X178383113Y-121195791D01*
X178386789Y-121233113D01*
X178386789Y-121233123D01*
X178397786Y-121344776D01*
X178414965Y-121401408D01*
X178441243Y-121488037D01*
X178511815Y-121620067D01*
X178532769Y-121645599D01*
X178606788Y-121735792D01*
X178635791Y-121759595D01*
X179357210Y-122481014D01*
X179332298Y-122527620D01*
X179295988Y-122647318D01*
X179283728Y-122771800D01*
X179283728Y-124471800D01*
X179295988Y-124596282D01*
X179332298Y-124715980D01*
X179391263Y-124826294D01*
X179470615Y-124922985D01*
X179567306Y-125002337D01*
X179677620Y-125061302D01*
X179797318Y-125097612D01*
X179921800Y-125109872D01*
X181185070Y-125109872D01*
X181383002Y-125307804D01*
X181406800Y-125336802D01*
X181522525Y-125431775D01*
X181654554Y-125502347D01*
X181797815Y-125545804D01*
X181909468Y-125556801D01*
X181909477Y-125556801D01*
X181946800Y-125560477D01*
X181984123Y-125556801D01*
X183838479Y-125556801D01*
X183875801Y-125560477D01*
X183913123Y-125556801D01*
X183913134Y-125556801D01*
X184024787Y-125545804D01*
X184168048Y-125502347D01*
X184300077Y-125431775D01*
X184415802Y-125336802D01*
X184439605Y-125307799D01*
X185447815Y-124299589D01*
X185476812Y-124275792D01*
X185571785Y-124160067D01*
X185642357Y-124028038D01*
X185685814Y-123884777D01*
X185696811Y-123773124D01*
X185696811Y-123773116D01*
X185700487Y-123735791D01*
X185696811Y-123698466D01*
X185696811Y-108115136D01*
X185700487Y-108077811D01*
X185696811Y-108040486D01*
X185696811Y-108040478D01*
X185685814Y-107928825D01*
X185642357Y-107785564D01*
X185571785Y-107653535D01*
X185476812Y-107537810D01*
X185447814Y-107514012D01*
X184439605Y-106505803D01*
X184415802Y-106476800D01*
X184300077Y-106381827D01*
X184168048Y-106311255D01*
X184024787Y-106267798D01*
X183913134Y-106256801D01*
X183913123Y-106256801D01*
X183875801Y-106253125D01*
X183838479Y-106256801D01*
X182203344Y-106256801D01*
X182256800Y-105988060D01*
X182256800Y-105695540D01*
X182199732Y-105408642D01*
X182087790Y-105138389D01*
X181925275Y-104895168D01*
X181718432Y-104688325D01*
X181475211Y-104525810D01*
X181204958Y-104413868D01*
X180918060Y-104356800D01*
X180625540Y-104356800D01*
X180338642Y-104413868D01*
X180068389Y-104525810D01*
X179825168Y-104688325D01*
X179618325Y-104895168D01*
X179455810Y-105138389D01*
X179343868Y-105408642D01*
X179286800Y-105695540D01*
X179286800Y-105988060D01*
X179340256Y-106256801D01*
X178070604Y-106256801D01*
X177971210Y-106157407D01*
X178015000Y-105937260D01*
X178015000Y-105644740D01*
X177957932Y-105357842D01*
X177845990Y-105087589D01*
X177683475Y-104844368D01*
X177476632Y-104637525D01*
X177302240Y-104521000D01*
X177476632Y-104404475D01*
X177683475Y-104197632D01*
X177845990Y-103954411D01*
X177957932Y-103684158D01*
X178015000Y-103397260D01*
X178015000Y-103104740D01*
X177957932Y-102817842D01*
X177845990Y-102547589D01*
X177683475Y-102304368D01*
X177476632Y-102097525D01*
X177302240Y-101981000D01*
X177476632Y-101864475D01*
X177683475Y-101657632D01*
X177845990Y-101414411D01*
X177957932Y-101144158D01*
X178015000Y-100857260D01*
X178015000Y-100564740D01*
X177957932Y-100277842D01*
X177845990Y-100007589D01*
X177683475Y-99764368D01*
X177476632Y-99557525D01*
X177233411Y-99395010D01*
X176963158Y-99283068D01*
X176676260Y-99226000D01*
X176383740Y-99226000D01*
X176096842Y-99283068D01*
X175826589Y-99395010D01*
X175583368Y-99557525D01*
X175376525Y-99764368D01*
X175214010Y-100007589D01*
X175102068Y-100277842D01*
X175045000Y-100564740D01*
X169540827Y-100564740D01*
X169613764Y-99405440D01*
X169783815Y-98514000D01*
X181441928Y-98514000D01*
X181441928Y-100114000D01*
X181454188Y-100238482D01*
X181490498Y-100358180D01*
X181549463Y-100468494D01*
X181628815Y-100565185D01*
X181725506Y-100644537D01*
X181835820Y-100703502D01*
X181955518Y-100739812D01*
X182080000Y-100752072D01*
X183680000Y-100752072D01*
X183804482Y-100739812D01*
X183924180Y-100703502D01*
X184034494Y-100644537D01*
X184131185Y-100565185D01*
X184210537Y-100468494D01*
X184269502Y-100358180D01*
X184305812Y-100238482D01*
X184318072Y-100114000D01*
X184318072Y-98514000D01*
X184305812Y-98389518D01*
X184269502Y-98269820D01*
X184210537Y-98159506D01*
X184131185Y-98062815D01*
X184034494Y-97983463D01*
X183924180Y-97924498D01*
X183804482Y-97888188D01*
X183680000Y-97875928D01*
X182080000Y-97875928D01*
X181955518Y-97888188D01*
X181835820Y-97924498D01*
X181725506Y-97983463D01*
X181628815Y-98062815D01*
X181549463Y-98159506D01*
X181490498Y-98269820D01*
X181454188Y-98389518D01*
X181441928Y-98514000D01*
X169783815Y-98514000D01*
X169835040Y-98245473D01*
X170199952Y-97122387D01*
X170702752Y-96053884D01*
X171335504Y-95056825D01*
X171563686Y-94781000D01*
X175041928Y-94781000D01*
X175041928Y-96481000D01*
X175054188Y-96605482D01*
X175090498Y-96725180D01*
X175149463Y-96835494D01*
X175228815Y-96932185D01*
X175325506Y-97011537D01*
X175435820Y-97070502D01*
X175555518Y-97106812D01*
X175680000Y-97119072D01*
X177380000Y-97119072D01*
X177504482Y-97106812D01*
X177624180Y-97070502D01*
X177734494Y-97011537D01*
X177831185Y-96932185D01*
X177910537Y-96835494D01*
X177969502Y-96725180D01*
X178005812Y-96605482D01*
X178018072Y-96481000D01*
X178018072Y-94781000D01*
X178005812Y-94656518D01*
X177969502Y-94536820D01*
X177910537Y-94426506D01*
X177831185Y-94329815D01*
X177734494Y-94250463D01*
X177624180Y-94191498D01*
X177504482Y-94155188D01*
X177380000Y-94142928D01*
X175680000Y-94142928D01*
X175555518Y-94155188D01*
X175435820Y-94191498D01*
X175325506Y-94250463D01*
X175228815Y-94329815D01*
X175149463Y-94426506D01*
X175090498Y-94536820D01*
X175054188Y-94656518D01*
X175041928Y-94781000D01*
X171563686Y-94781000D01*
X172088226Y-94146940D01*
X172949055Y-93338569D01*
X173904417Y-92644458D01*
X174939236Y-92075561D01*
X176037193Y-91640849D01*
X177180983Y-91347174D01*
X178352554Y-91199170D01*
X179533447Y-91199170D01*
X179615575Y-91209545D01*
%TA.AperFunction,Conductor*%
D23*
G36*
X179615575Y-91209545D02*
G01*
X179540151Y-91240787D01*
X179131845Y-91513609D01*
X178784609Y-91860845D01*
X178511787Y-92269151D01*
X178323864Y-92722837D01*
X178228062Y-93204467D01*
X178228062Y-93695533D01*
X178323864Y-94177163D01*
X178511787Y-94630849D01*
X178784609Y-95039155D01*
X179131845Y-95386391D01*
X179540151Y-95659213D01*
X179993837Y-95847136D01*
X180475467Y-95942938D01*
X180966533Y-95942938D01*
X181448163Y-95847136D01*
X181901849Y-95659213D01*
X182310155Y-95386391D01*
X182657391Y-95039155D01*
X182930213Y-94630849D01*
X183118136Y-94177163D01*
X183213938Y-93695533D01*
X183213938Y-93204467D01*
X183118136Y-92722837D01*
X182930213Y-92269151D01*
X182748376Y-91997014D01*
X182946767Y-92075562D01*
X183981583Y-92644458D01*
X184936945Y-93338569D01*
X185797774Y-94146940D01*
X186550497Y-95056826D01*
X187183248Y-96053883D01*
X187686047Y-97122385D01*
X188050960Y-98245473D01*
X188272236Y-99405438D01*
X188347791Y-100606355D01*
X188345535Y-100789139D01*
X188344996Y-100794620D01*
X188348132Y-129512227D01*
X188272236Y-130718563D01*
X188050960Y-131878526D01*
X187686046Y-133001616D01*
X187183250Y-134070115D01*
X186550500Y-135067169D01*
X185797772Y-135977061D01*
X184936944Y-136785432D01*
X183981583Y-137479543D01*
X182946760Y-138048440D01*
X182366276Y-138278270D01*
X182657391Y-137987155D01*
X182930213Y-137578849D01*
X183118136Y-137125163D01*
X183213938Y-136643533D01*
X183213938Y-136152467D01*
X183118136Y-135670837D01*
X182930213Y-135217151D01*
X182657391Y-134808845D01*
X182310155Y-134461609D01*
X181901849Y-134188787D01*
X181448163Y-134000864D01*
X180966533Y-133905062D01*
X180475467Y-133905062D01*
X179993837Y-134000864D01*
X179540151Y-134188787D01*
X179131845Y-134461609D01*
X178784609Y-134808845D01*
X178511787Y-135217151D01*
X178323864Y-135670837D01*
X178228062Y-136152467D01*
X178228062Y-136643533D01*
X178323864Y-137125163D01*
X178511787Y-137578849D01*
X178784609Y-137987155D01*
X179131845Y-138334391D01*
X179540151Y-138607213D01*
X179993837Y-138795136D01*
X180213773Y-138838884D01*
X179533439Y-138924830D01*
X178352553Y-138924830D01*
X177180982Y-138776826D01*
X176037193Y-138483151D01*
X174939236Y-138048438D01*
X173904410Y-137479538D01*
X172949058Y-136785435D01*
X172088223Y-135977055D01*
X171335501Y-135067170D01*
X170702749Y-134070113D01*
X170199954Y-133001617D01*
X169835038Y-131878524D01*
X169613764Y-130718561D01*
X169538209Y-129517644D01*
X169540627Y-129321690D01*
X169541903Y-129303050D01*
X169415298Y-125061798D01*
X169418282Y-125031500D01*
X169412702Y-124974848D01*
X169412308Y-124961637D01*
X169408446Y-124931636D01*
X169403361Y-124880000D01*
X171739928Y-124880000D01*
X171739928Y-126580000D01*
X171752188Y-126704482D01*
X171788498Y-126824180D01*
X171847463Y-126934494D01*
X171926815Y-127031185D01*
X172023506Y-127110537D01*
X172133820Y-127169502D01*
X172253518Y-127205812D01*
X172378000Y-127218072D01*
X174078000Y-127218072D01*
X174202482Y-127205812D01*
X174322180Y-127169502D01*
X174432494Y-127110537D01*
X174529185Y-127031185D01*
X174608537Y-126934494D01*
X174667502Y-126824180D01*
X174703812Y-126704482D01*
X174716072Y-126580000D01*
X174716072Y-124880000D01*
X174703812Y-124755518D01*
X174667502Y-124635820D01*
X174608537Y-124525506D01*
X174529185Y-124428815D01*
X174432494Y-124349463D01*
X174322180Y-124290498D01*
X174202482Y-124254188D01*
X174078000Y-124241928D01*
X172378000Y-124241928D01*
X172253518Y-124254188D01*
X172133820Y-124290498D01*
X172023506Y-124349463D01*
X171926815Y-124428815D01*
X171847463Y-124525506D01*
X171788498Y-124635820D01*
X171752188Y-124755518D01*
X171739928Y-124880000D01*
X169403361Y-124880000D01*
X169401195Y-124858010D01*
X169397329Y-124845267D01*
X169395630Y-124832064D01*
X169372061Y-124761969D01*
X169350589Y-124691187D01*
X169344312Y-124679443D01*
X169340069Y-124666825D01*
X169303283Y-124602683D01*
X169268411Y-124537441D01*
X169259963Y-124527147D01*
X169253340Y-124515599D01*
X169204745Y-124459865D01*
X169157817Y-124402683D01*
X169147521Y-124394233D01*
X169138774Y-124384201D01*
X169080251Y-124339026D01*
X169023059Y-124292089D01*
X169011313Y-124285811D01*
X169000776Y-124277677D01*
X168934551Y-124244781D01*
X168869313Y-124209911D01*
X168856569Y-124206045D01*
X168844647Y-124200123D01*
X168773279Y-124180779D01*
X168702490Y-124159305D01*
X168689237Y-124158000D01*
X168676388Y-124154517D01*
X168602607Y-124149467D01*
X168572477Y-124146500D01*
X168559247Y-124146500D01*
X168502467Y-124142614D01*
X168472277Y-124146500D01*
X168051001Y-124146500D01*
X168051001Y-123821000D01*
X168612524Y-123821000D01*
X168656000Y-123825282D01*
X168721642Y-123818817D01*
X168829490Y-123808195D01*
X168996313Y-123757589D01*
X169150059Y-123675411D01*
X169284817Y-123564817D01*
X169395411Y-123430059D01*
X169477589Y-123276313D01*
X169528195Y-123109490D01*
X169537324Y-123016801D01*
X169541000Y-122979477D01*
X169541000Y-122979476D01*
X169545282Y-122936000D01*
X169541000Y-122892523D01*
X169541000Y-114660977D01*
X169545282Y-114617500D01*
X169528195Y-114444010D01*
X169477589Y-114277187D01*
X169395411Y-114123441D01*
X169284817Y-113988683D01*
X169150059Y-113878089D01*
X168996313Y-113795911D01*
X168829490Y-113745305D01*
X168699477Y-113732500D01*
X168699476Y-113732500D01*
X168656000Y-113728218D01*
X168612523Y-113732500D01*
X168051001Y-113732500D01*
X168051001Y-113470500D01*
X168612524Y-113470500D01*
X168656000Y-113474782D01*
X168774023Y-113463158D01*
X168829490Y-113457695D01*
X168996313Y-113407089D01*
X169150059Y-113324911D01*
X169284817Y-113214317D01*
X169395411Y-113079559D01*
X169477589Y-112925813D01*
X169528195Y-112758990D01*
X169545282Y-112585500D01*
X169541000Y-112542023D01*
X169541000Y-105707477D01*
X169545282Y-105664000D01*
X169528195Y-105490510D01*
X169477589Y-105323687D01*
X169395411Y-105169941D01*
X169284817Y-105035183D01*
X169150059Y-104924589D01*
X168996313Y-104842411D01*
X168829490Y-104791805D01*
X168699477Y-104779000D01*
X168699476Y-104779000D01*
X168656000Y-104774718D01*
X168612523Y-104779000D01*
X167963001Y-104779000D01*
X167963001Y-104517000D01*
X168554628Y-104517000D01*
X168590974Y-104521168D01*
X168641578Y-104517000D01*
X168648677Y-104517000D01*
X168684934Y-104513429D01*
X168764714Y-104506858D01*
X168771576Y-104504896D01*
X168778690Y-104504195D01*
X168855369Y-104480934D01*
X168932325Y-104458928D01*
X168938675Y-104455663D01*
X168945513Y-104453589D01*
X169016168Y-104415823D01*
X169087366Y-104379220D01*
X169092956Y-104374780D01*
X169099259Y-104371411D01*
X169161202Y-104320575D01*
X169223876Y-104270796D01*
X169228492Y-104265351D01*
X169234017Y-104260817D01*
X169284853Y-104198873D01*
X169336612Y-104137824D01*
X169340077Y-104131584D01*
X169344611Y-104126059D01*
X169382385Y-104055389D01*
X169421239Y-103985413D01*
X169423420Y-103978615D01*
X169426789Y-103972313D01*
X169450049Y-103895635D01*
X169474507Y-103819421D01*
X169475320Y-103812330D01*
X169477395Y-103805490D01*
X169485247Y-103725763D01*
X169489391Y-103689629D01*
X169489504Y-103682539D01*
X169494482Y-103632000D01*
X169490896Y-103595587D01*
X169504845Y-102723740D01*
X171743000Y-102723740D01*
X171743000Y-103016260D01*
X171800068Y-103303158D01*
X171912010Y-103573411D01*
X172074525Y-103816632D01*
X172281368Y-104023475D01*
X172455760Y-104140000D01*
X172281368Y-104256525D01*
X172074525Y-104463368D01*
X171912010Y-104706589D01*
X171800068Y-104976842D01*
X171743000Y-105263740D01*
X171743000Y-105556260D01*
X171800068Y-105843158D01*
X171912010Y-106113411D01*
X172074525Y-106356632D01*
X172281368Y-106563475D01*
X172455760Y-106680000D01*
X172281368Y-106796525D01*
X172074525Y-107003368D01*
X171912010Y-107246589D01*
X171800068Y-107516842D01*
X171743000Y-107803740D01*
X171743000Y-108096260D01*
X171800068Y-108383158D01*
X171912010Y-108653411D01*
X172074525Y-108896632D01*
X172281368Y-109103475D01*
X172455760Y-109220000D01*
X172281368Y-109336525D01*
X172074525Y-109543368D01*
X171912010Y-109786589D01*
X171800068Y-110056842D01*
X171743000Y-110343740D01*
X171743000Y-110636260D01*
X171800068Y-110923158D01*
X171912010Y-111193411D01*
X172074525Y-111436632D01*
X172281368Y-111643475D01*
X172455760Y-111760000D01*
X172281368Y-111876525D01*
X172074525Y-112083368D01*
X171912010Y-112326589D01*
X171800068Y-112596842D01*
X171743000Y-112883740D01*
X171743000Y-113176260D01*
X171800068Y-113463158D01*
X171912010Y-113733411D01*
X172074525Y-113976632D01*
X172281368Y-114183475D01*
X172455760Y-114300000D01*
X172281368Y-114416525D01*
X172074525Y-114623368D01*
X171912010Y-114866589D01*
X171800068Y-115136842D01*
X171743000Y-115423740D01*
X171743000Y-115716260D01*
X171800068Y-116003158D01*
X171912010Y-116273411D01*
X172074525Y-116516632D01*
X172281368Y-116723475D01*
X172455760Y-116840000D01*
X172281368Y-116956525D01*
X172074525Y-117163368D01*
X171912010Y-117406589D01*
X171800068Y-117676842D01*
X171743000Y-117963740D01*
X171743000Y-118256260D01*
X171800068Y-118543158D01*
X171912010Y-118813411D01*
X172074525Y-119056632D01*
X172281368Y-119263475D01*
X172455760Y-119380000D01*
X172281368Y-119496525D01*
X172074525Y-119703368D01*
X171912010Y-119946589D01*
X171800068Y-120216842D01*
X171743000Y-120503740D01*
X171743000Y-120796260D01*
X171800068Y-121083158D01*
X171912010Y-121353411D01*
X172074525Y-121596632D01*
X172281368Y-121803475D01*
X172524589Y-121965990D01*
X172794842Y-122077932D01*
X173081740Y-122135000D01*
X173374260Y-122135000D01*
X173661158Y-122077932D01*
X173931411Y-121965990D01*
X174174632Y-121803475D01*
X174381475Y-121596632D01*
X174543990Y-121353411D01*
X174655932Y-121083158D01*
X174713000Y-120796260D01*
X174713000Y-120503740D01*
X174655932Y-120216842D01*
X174543990Y-119946589D01*
X174381475Y-119703368D01*
X174174632Y-119496525D01*
X174000240Y-119380000D01*
X174174632Y-119263475D01*
X174381475Y-119056632D01*
X174543990Y-118813411D01*
X174655932Y-118543158D01*
X174713000Y-118256260D01*
X174713000Y-117963740D01*
X174655932Y-117676842D01*
X174543990Y-117406589D01*
X174381475Y-117163368D01*
X174174632Y-116956525D01*
X174000240Y-116840000D01*
X174174632Y-116723475D01*
X174381475Y-116516632D01*
X174543990Y-116273411D01*
X174655932Y-116003158D01*
X174713000Y-115716260D01*
X174713000Y-115423740D01*
X174655932Y-115136842D01*
X174543990Y-114866589D01*
X174381475Y-114623368D01*
X174174632Y-114416525D01*
X174000240Y-114300000D01*
X174174632Y-114183475D01*
X174381475Y-113976632D01*
X174543990Y-113733411D01*
X174655932Y-113463158D01*
X174713000Y-113176260D01*
X174713000Y-112883740D01*
X174655932Y-112596842D01*
X174543990Y-112326589D01*
X174381475Y-112083368D01*
X174174632Y-111876525D01*
X174000240Y-111760000D01*
X174174632Y-111643475D01*
X174381475Y-111436632D01*
X174543990Y-111193411D01*
X174655932Y-110923158D01*
X174713000Y-110636260D01*
X174713000Y-110343740D01*
X174655932Y-110056842D01*
X174543990Y-109786589D01*
X174381475Y-109543368D01*
X174174632Y-109336525D01*
X174000240Y-109220000D01*
X174174632Y-109103475D01*
X174381475Y-108896632D01*
X174543990Y-108653411D01*
X174655932Y-108383158D01*
X174713000Y-108096260D01*
X174713000Y-107803740D01*
X174655932Y-107516842D01*
X174543990Y-107246589D01*
X174381475Y-107003368D01*
X174174632Y-106796525D01*
X174000240Y-106680000D01*
X174174632Y-106563475D01*
X174381475Y-106356632D01*
X174543990Y-106113411D01*
X174655932Y-105843158D01*
X174713000Y-105556260D01*
X174713000Y-105263740D01*
X174655932Y-104976842D01*
X174543990Y-104706589D01*
X174381475Y-104463368D01*
X174174632Y-104256525D01*
X174000240Y-104140000D01*
X174174632Y-104023475D01*
X174381475Y-103816632D01*
X174543990Y-103573411D01*
X174655932Y-103303158D01*
X174713000Y-103016260D01*
X174713000Y-102723740D01*
X174655932Y-102436842D01*
X174543990Y-102166589D01*
X174381475Y-101923368D01*
X174174632Y-101716525D01*
X173931411Y-101554010D01*
X173661158Y-101442068D01*
X173374260Y-101385000D01*
X173081740Y-101385000D01*
X172794842Y-101442068D01*
X172524589Y-101554010D01*
X172281368Y-101716525D01*
X172074525Y-101923368D01*
X171912010Y-102166589D01*
X171800068Y-102436842D01*
X171743000Y-102723740D01*
X169504845Y-102723740D01*
X169538899Y-100595386D01*
X169540827Y-100564740D01*
X175045000Y-100564740D01*
X175045000Y-100857260D01*
X175102068Y-101144158D01*
X175214010Y-101414411D01*
X175376525Y-101657632D01*
X175583368Y-101864475D01*
X175757760Y-101981000D01*
X175583368Y-102097525D01*
X175376525Y-102304368D01*
X175214010Y-102547589D01*
X175102068Y-102817842D01*
X175045000Y-103104740D01*
X175045000Y-103397260D01*
X175102068Y-103684158D01*
X175214010Y-103954411D01*
X175376525Y-104197632D01*
X175583368Y-104404475D01*
X175757760Y-104521000D01*
X175583368Y-104637525D01*
X175376525Y-104844368D01*
X175214010Y-105087589D01*
X175102068Y-105357842D01*
X175045000Y-105644740D01*
X175045000Y-105937260D01*
X175102068Y-106224158D01*
X175214010Y-106494411D01*
X175376525Y-106737632D01*
X175583368Y-106944475D01*
X175757760Y-107061000D01*
X175583368Y-107177525D01*
X175376525Y-107384368D01*
X175214010Y-107627589D01*
X175102068Y-107897842D01*
X175045000Y-108184740D01*
X175045000Y-108477260D01*
X175102068Y-108764158D01*
X175214010Y-109034411D01*
X175376525Y-109277632D01*
X175583368Y-109484475D01*
X175757760Y-109601000D01*
X175583368Y-109717525D01*
X175376525Y-109924368D01*
X175214010Y-110167589D01*
X175102068Y-110437842D01*
X175045000Y-110724740D01*
X175045000Y-111017260D01*
X175102068Y-111304158D01*
X175214010Y-111574411D01*
X175376525Y-111817632D01*
X175583368Y-112024475D01*
X175757760Y-112141000D01*
X175583368Y-112257525D01*
X175376525Y-112464368D01*
X175214010Y-112707589D01*
X175102068Y-112977842D01*
X175045000Y-113264740D01*
X175045000Y-113557260D01*
X175102068Y-113844158D01*
X175214010Y-114114411D01*
X175376525Y-114357632D01*
X175583368Y-114564475D01*
X175757760Y-114681000D01*
X175583368Y-114797525D01*
X175376525Y-115004368D01*
X175214010Y-115247589D01*
X175102068Y-115517842D01*
X175045000Y-115804740D01*
X175045000Y-116097260D01*
X175102068Y-116384158D01*
X175214010Y-116654411D01*
X175376525Y-116897632D01*
X175583368Y-117104475D01*
X175757760Y-117221000D01*
X175583368Y-117337525D01*
X175376525Y-117544368D01*
X175214010Y-117787589D01*
X175102068Y-118057842D01*
X175045000Y-118344740D01*
X175045000Y-118637260D01*
X175102068Y-118924158D01*
X175214010Y-119194411D01*
X175376525Y-119437632D01*
X175583368Y-119644475D01*
X175757760Y-119761000D01*
X175583368Y-119877525D01*
X175376525Y-120084368D01*
X175214010Y-120327589D01*
X175102068Y-120597842D01*
X175045000Y-120884740D01*
X175045000Y-121177260D01*
X175102068Y-121464158D01*
X175214010Y-121734411D01*
X175376525Y-121977632D01*
X175583368Y-122184475D01*
X175757760Y-122301000D01*
X175583368Y-122417525D01*
X175376525Y-122624368D01*
X175214010Y-122867589D01*
X175102068Y-123137842D01*
X175045000Y-123424740D01*
X175045000Y-123717260D01*
X175102068Y-124004158D01*
X175214010Y-124274411D01*
X175376525Y-124517632D01*
X175583368Y-124724475D01*
X175757760Y-124841000D01*
X175583368Y-124957525D01*
X175376525Y-125164368D01*
X175214010Y-125407589D01*
X175102068Y-125677842D01*
X175045000Y-125964740D01*
X175045000Y-126257260D01*
X175102068Y-126544158D01*
X175214010Y-126814411D01*
X175376525Y-127057632D01*
X175583368Y-127264475D01*
X175757760Y-127381000D01*
X175583368Y-127497525D01*
X175376525Y-127704368D01*
X175214010Y-127947589D01*
X175102068Y-128217842D01*
X175045000Y-128504740D01*
X175045000Y-128797260D01*
X175102068Y-129084158D01*
X175214010Y-129354411D01*
X175376525Y-129597632D01*
X175583368Y-129804475D01*
X175757760Y-129921000D01*
X175583368Y-130037525D01*
X175376525Y-130244368D01*
X175214010Y-130487589D01*
X175102068Y-130757842D01*
X175045000Y-131044740D01*
X175045000Y-131337260D01*
X175102068Y-131624158D01*
X175214010Y-131894411D01*
X175376525Y-132137632D01*
X175583368Y-132344475D01*
X175757760Y-132461000D01*
X175583368Y-132577525D01*
X175376525Y-132784368D01*
X175214010Y-133027589D01*
X175102068Y-133297842D01*
X175045000Y-133584740D01*
X175045000Y-133877260D01*
X175102068Y-134164158D01*
X175214010Y-134434411D01*
X175376525Y-134677632D01*
X175583368Y-134884475D01*
X175826589Y-135046990D01*
X176096842Y-135158932D01*
X176383740Y-135216000D01*
X176676260Y-135216000D01*
X176963158Y-135158932D01*
X177233411Y-135046990D01*
X177476632Y-134884475D01*
X177683475Y-134677632D01*
X177845990Y-134434411D01*
X177957932Y-134164158D01*
X178015000Y-133877260D01*
X178015000Y-133584740D01*
X177957932Y-133297842D01*
X177845990Y-133027589D01*
X177683475Y-132784368D01*
X177476632Y-132577525D01*
X177302240Y-132461000D01*
X177476632Y-132344475D01*
X177683475Y-132137632D01*
X177845990Y-131894411D01*
X177957932Y-131624158D01*
X178015000Y-131337260D01*
X178015000Y-131044740D01*
X177957932Y-130757842D01*
X177845990Y-130487589D01*
X177683475Y-130244368D01*
X177476632Y-130037525D01*
X177302240Y-129921000D01*
X177476632Y-129804475D01*
X177683475Y-129597632D01*
X177845990Y-129354411D01*
X177957932Y-129084158D01*
X178015000Y-128797260D01*
X178015000Y-128504740D01*
X177957932Y-128217842D01*
X177845990Y-127947589D01*
X177683475Y-127704368D01*
X177476632Y-127497525D01*
X177302240Y-127381000D01*
X177476632Y-127264475D01*
X177683475Y-127057632D01*
X177845990Y-126814411D01*
X177957932Y-126544158D01*
X178015000Y-126257260D01*
X178015000Y-125964740D01*
X177957932Y-125677842D01*
X177845990Y-125407589D01*
X177683475Y-125164368D01*
X177476632Y-124957525D01*
X177302240Y-124841000D01*
X177476632Y-124724475D01*
X177683475Y-124517632D01*
X177845990Y-124274411D01*
X177957932Y-124004158D01*
X178015000Y-123717260D01*
X178015000Y-123424740D01*
X177957932Y-123137842D01*
X177845990Y-122867589D01*
X177683475Y-122624368D01*
X177476632Y-122417525D01*
X177302240Y-122301000D01*
X177476632Y-122184475D01*
X177683475Y-121977632D01*
X177845990Y-121734411D01*
X177957932Y-121464158D01*
X178015000Y-121177260D01*
X178015000Y-120884740D01*
X177957932Y-120597842D01*
X177845990Y-120327589D01*
X177683475Y-120084368D01*
X177476632Y-119877525D01*
X177302240Y-119761000D01*
X177476632Y-119644475D01*
X177683475Y-119437632D01*
X177845990Y-119194411D01*
X177957932Y-118924158D01*
X178015000Y-118637260D01*
X178015000Y-118344740D01*
X177957932Y-118057842D01*
X177845990Y-117787589D01*
X177683475Y-117544368D01*
X177476632Y-117337525D01*
X177302240Y-117221000D01*
X177476632Y-117104475D01*
X177683475Y-116897632D01*
X177845990Y-116654411D01*
X177957932Y-116384158D01*
X178015000Y-116097260D01*
X178015000Y-115804740D01*
X177957932Y-115517842D01*
X177845990Y-115247589D01*
X177683475Y-115004368D01*
X177476632Y-114797525D01*
X177302240Y-114681000D01*
X177476632Y-114564475D01*
X177683475Y-114357632D01*
X177808178Y-114171000D01*
X178374199Y-114171000D01*
X178386790Y-114183591D01*
X178386789Y-121158469D01*
X178383113Y-121195791D01*
X178386789Y-121233113D01*
X178386789Y-121233123D01*
X178397786Y-121344776D01*
X178414965Y-121401408D01*
X178441243Y-121488037D01*
X178511815Y-121620067D01*
X178532769Y-121645599D01*
X178606788Y-121735792D01*
X178635791Y-121759595D01*
X179357210Y-122481014D01*
X179332298Y-122527620D01*
X179295988Y-122647318D01*
X179283728Y-122771800D01*
X179283728Y-124471800D01*
X179295988Y-124596282D01*
X179332298Y-124715980D01*
X179391263Y-124826294D01*
X179470615Y-124922985D01*
X179567306Y-125002337D01*
X179677620Y-125061302D01*
X179797318Y-125097612D01*
X179921800Y-125109872D01*
X181185070Y-125109872D01*
X181383002Y-125307804D01*
X181406800Y-125336802D01*
X181522525Y-125431775D01*
X181654554Y-125502347D01*
X181797815Y-125545804D01*
X181909468Y-125556801D01*
X181909477Y-125556801D01*
X181946800Y-125560477D01*
X181984123Y-125556801D01*
X183838479Y-125556801D01*
X183875801Y-125560477D01*
X183913123Y-125556801D01*
X183913134Y-125556801D01*
X184024787Y-125545804D01*
X184168048Y-125502347D01*
X184300077Y-125431775D01*
X184415802Y-125336802D01*
X184439605Y-125307799D01*
X185447815Y-124299589D01*
X185476812Y-124275792D01*
X185571785Y-124160067D01*
X185642357Y-124028038D01*
X185685814Y-123884777D01*
X185696811Y-123773124D01*
X185696811Y-123773116D01*
X185700487Y-123735791D01*
X185696811Y-123698466D01*
X185696811Y-108115136D01*
X185700487Y-108077811D01*
X185696811Y-108040486D01*
X185696811Y-108040478D01*
X185685814Y-107928825D01*
X185642357Y-107785564D01*
X185571785Y-107653535D01*
X185476812Y-107537810D01*
X185447814Y-107514012D01*
X184439605Y-106505803D01*
X184415802Y-106476800D01*
X184300077Y-106381827D01*
X184168048Y-106311255D01*
X184024787Y-106267798D01*
X183913134Y-106256801D01*
X183913123Y-106256801D01*
X183875801Y-106253125D01*
X183838479Y-106256801D01*
X182203344Y-106256801D01*
X182256800Y-105988060D01*
X182256800Y-105695540D01*
X182199732Y-105408642D01*
X182087790Y-105138389D01*
X181925275Y-104895168D01*
X181718432Y-104688325D01*
X181475211Y-104525810D01*
X181204958Y-104413868D01*
X180918060Y-104356800D01*
X180625540Y-104356800D01*
X180338642Y-104413868D01*
X180068389Y-104525810D01*
X179825168Y-104688325D01*
X179618325Y-104895168D01*
X179455810Y-105138389D01*
X179343868Y-105408642D01*
X179286800Y-105695540D01*
X179286800Y-105988060D01*
X179340256Y-106256801D01*
X178070604Y-106256801D01*
X177971210Y-106157407D01*
X178015000Y-105937260D01*
X178015000Y-105644740D01*
X177957932Y-105357842D01*
X177845990Y-105087589D01*
X177683475Y-104844368D01*
X177476632Y-104637525D01*
X177302240Y-104521000D01*
X177476632Y-104404475D01*
X177683475Y-104197632D01*
X177845990Y-103954411D01*
X177957932Y-103684158D01*
X178015000Y-103397260D01*
X178015000Y-103104740D01*
X177957932Y-102817842D01*
X177845990Y-102547589D01*
X177683475Y-102304368D01*
X177476632Y-102097525D01*
X177302240Y-101981000D01*
X177476632Y-101864475D01*
X177683475Y-101657632D01*
X177845990Y-101414411D01*
X177957932Y-101144158D01*
X178015000Y-100857260D01*
X178015000Y-100564740D01*
X177957932Y-100277842D01*
X177845990Y-100007589D01*
X177683475Y-99764368D01*
X177476632Y-99557525D01*
X177233411Y-99395010D01*
X176963158Y-99283068D01*
X176676260Y-99226000D01*
X176383740Y-99226000D01*
X176096842Y-99283068D01*
X175826589Y-99395010D01*
X175583368Y-99557525D01*
X175376525Y-99764368D01*
X175214010Y-100007589D01*
X175102068Y-100277842D01*
X175045000Y-100564740D01*
X169540827Y-100564740D01*
X169613764Y-99405440D01*
X169783815Y-98514000D01*
X181441928Y-98514000D01*
X181441928Y-100114000D01*
X181454188Y-100238482D01*
X181490498Y-100358180D01*
X181549463Y-100468494D01*
X181628815Y-100565185D01*
X181725506Y-100644537D01*
X181835820Y-100703502D01*
X181955518Y-100739812D01*
X182080000Y-100752072D01*
X183680000Y-100752072D01*
X183804482Y-100739812D01*
X183924180Y-100703502D01*
X184034494Y-100644537D01*
X184131185Y-100565185D01*
X184210537Y-100468494D01*
X184269502Y-100358180D01*
X184305812Y-100238482D01*
X184318072Y-100114000D01*
X184318072Y-98514000D01*
X184305812Y-98389518D01*
X184269502Y-98269820D01*
X184210537Y-98159506D01*
X184131185Y-98062815D01*
X184034494Y-97983463D01*
X183924180Y-97924498D01*
X183804482Y-97888188D01*
X183680000Y-97875928D01*
X182080000Y-97875928D01*
X181955518Y-97888188D01*
X181835820Y-97924498D01*
X181725506Y-97983463D01*
X181628815Y-98062815D01*
X181549463Y-98159506D01*
X181490498Y-98269820D01*
X181454188Y-98389518D01*
X181441928Y-98514000D01*
X169783815Y-98514000D01*
X169835040Y-98245473D01*
X170199952Y-97122387D01*
X170702752Y-96053884D01*
X171335504Y-95056825D01*
X171563686Y-94781000D01*
X175041928Y-94781000D01*
X175041928Y-96481000D01*
X175054188Y-96605482D01*
X175090498Y-96725180D01*
X175149463Y-96835494D01*
X175228815Y-96932185D01*
X175325506Y-97011537D01*
X175435820Y-97070502D01*
X175555518Y-97106812D01*
X175680000Y-97119072D01*
X177380000Y-97119072D01*
X177504482Y-97106812D01*
X177624180Y-97070502D01*
X177734494Y-97011537D01*
X177831185Y-96932185D01*
X177910537Y-96835494D01*
X177969502Y-96725180D01*
X178005812Y-96605482D01*
X178018072Y-96481000D01*
X178018072Y-94781000D01*
X178005812Y-94656518D01*
X177969502Y-94536820D01*
X177910537Y-94426506D01*
X177831185Y-94329815D01*
X177734494Y-94250463D01*
X177624180Y-94191498D01*
X177504482Y-94155188D01*
X177380000Y-94142928D01*
X175680000Y-94142928D01*
X175555518Y-94155188D01*
X175435820Y-94191498D01*
X175325506Y-94250463D01*
X175228815Y-94329815D01*
X175149463Y-94426506D01*
X175090498Y-94536820D01*
X175054188Y-94656518D01*
X175041928Y-94781000D01*
X171563686Y-94781000D01*
X172088226Y-94146940D01*
X172949055Y-93338569D01*
X173904417Y-92644458D01*
X174939236Y-92075561D01*
X176037193Y-91640849D01*
X177180983Y-91347174D01*
X178352554Y-91199170D01*
X179533447Y-91199170D01*
X179615575Y-91209545D01*
G37*
%TD.AperFunction*%
D22*
X142542188Y-77765518D02*
X142529928Y-77890000D01*
X142529928Y-79590000D01*
X142542188Y-79714482D01*
X142578498Y-79834180D01*
X142637463Y-79944494D01*
X142716815Y-80041185D01*
X142813506Y-80120537D01*
X142923820Y-80179502D01*
X142996380Y-80201513D01*
X142864525Y-80333368D01*
X142702010Y-80576589D01*
X142590068Y-80846842D01*
X142533000Y-81133740D01*
X142533000Y-81426260D01*
X142590068Y-81713158D01*
X142702010Y-81983411D01*
X142864525Y-82226632D01*
X143071368Y-82433475D01*
X143314589Y-82595990D01*
X143584842Y-82707932D01*
X143871740Y-82765000D01*
X144164260Y-82765000D01*
X144384408Y-82721210D01*
X144496000Y-82832802D01*
X144496000Y-83987247D01*
X144324158Y-83916068D01*
X144037260Y-83859000D01*
X143744740Y-83859000D01*
X143457842Y-83916068D01*
X143187589Y-84028010D01*
X142944368Y-84190525D01*
X142737525Y-84397368D01*
X142621000Y-84571760D01*
X142504475Y-84397368D01*
X142297632Y-84190525D01*
X142054411Y-84028010D01*
X141784158Y-83916068D01*
X141497260Y-83859000D01*
X141204740Y-83859000D01*
X140917842Y-83916068D01*
X140647589Y-84028010D01*
X140404368Y-84190525D01*
X140197525Y-84397368D01*
X140077000Y-84577746D01*
X140077000Y-82593477D01*
X140081282Y-82550000D01*
X140064195Y-82376510D01*
X140013589Y-82209687D01*
X139931411Y-82055941D01*
X139820817Y-81921183D01*
X139686059Y-81810589D01*
X139532313Y-81728411D01*
X139365490Y-81677805D01*
X139235477Y-81665000D01*
X139235476Y-81665000D01*
X139192000Y-81660718D01*
X139148523Y-81665000D01*
X138600476Y-81665000D01*
X138557000Y-81660718D01*
X138513523Y-81665000D01*
X138383510Y-81677805D01*
X138216687Y-81728411D01*
X138062941Y-81810589D01*
X137928183Y-81921183D01*
X137817589Y-82055941D01*
X137735411Y-82209687D01*
X137684805Y-82376510D01*
X137667718Y-82550000D01*
X137672000Y-82593477D01*
X137672000Y-83601509D01*
X137438184Y-83555000D01*
X137135816Y-83555000D01*
X136839257Y-83613989D01*
X136559905Y-83729701D01*
X136308495Y-83897688D01*
X136094688Y-84111495D01*
X135926701Y-84362905D01*
X135810989Y-84642257D01*
X135752000Y-84938816D01*
X135752000Y-85241184D01*
X135798509Y-85475000D01*
X131991000Y-85475000D01*
X131991000Y-85202665D01*
X131935853Y-84925426D01*
X131827680Y-84664273D01*
X131670637Y-84429241D01*
X131470759Y-84229363D01*
X131235727Y-84072320D01*
X130974574Y-83964147D01*
X130697335Y-83909000D01*
X130414665Y-83909000D01*
X130137426Y-83964147D01*
X129876273Y-84072320D01*
X129641241Y-84229363D01*
X129441363Y-84429241D01*
X129284320Y-84664273D01*
X129176147Y-84925426D01*
X129121000Y-85202665D01*
X129121000Y-85485335D01*
X129176147Y-85762574D01*
X129284320Y-86023727D01*
X129441363Y-86258759D01*
X129539977Y-86357373D01*
X129539718Y-86360000D01*
X129544000Y-86403477D01*
X129544000Y-86951523D01*
X129539718Y-86995000D01*
X129542218Y-87020386D01*
X129441363Y-87121241D01*
X129284320Y-87356273D01*
X129176147Y-87617426D01*
X129121000Y-87894665D01*
X129121000Y-88177335D01*
X129176147Y-88454574D01*
X129284320Y-88715727D01*
X129441363Y-88950759D01*
X129641241Y-89150637D01*
X129876273Y-89307680D01*
X130137426Y-89415853D01*
X130414665Y-89471000D01*
X130697335Y-89471000D01*
X130974574Y-89415853D01*
X131235727Y-89307680D01*
X131470759Y-89150637D01*
X131670637Y-88950759D01*
X131827680Y-88715727D01*
X131935853Y-88454574D01*
X131991000Y-88177335D01*
X131991000Y-87894665D01*
X131988083Y-87880000D01*
X133258509Y-87880000D01*
X133212000Y-88113816D01*
X133212000Y-88416184D01*
X133270989Y-88712743D01*
X133386701Y-88992095D01*
X133554688Y-89243505D01*
X133768495Y-89457312D01*
X134019905Y-89625299D01*
X134299257Y-89741011D01*
X134595816Y-89800000D01*
X134898184Y-89800000D01*
X135194743Y-89741011D01*
X135474095Y-89625299D01*
X135725505Y-89457312D01*
X135791944Y-89390873D01*
X135797498Y-89409180D01*
X135856463Y-89519494D01*
X135935815Y-89616185D01*
X136032506Y-89695537D01*
X136142820Y-89754502D01*
X136262518Y-89790812D01*
X136387000Y-89803072D01*
X137672000Y-89803072D01*
X137672000Y-90761523D01*
X137667718Y-90805000D01*
X137684805Y-90978490D01*
X137735411Y-91145313D01*
X137817589Y-91299059D01*
X137868932Y-91361620D01*
X137928183Y-91433817D01*
X138062941Y-91544411D01*
X138216687Y-91626589D01*
X138383510Y-91677195D01*
X138557000Y-91694282D01*
X138600476Y-91690000D01*
X139148524Y-91690000D01*
X139192000Y-91694282D01*
X139365490Y-91677195D01*
X139532313Y-91626589D01*
X139686059Y-91544411D01*
X139820817Y-91433817D01*
X139931411Y-91299059D01*
X140013589Y-91145313D01*
X140064195Y-90978490D01*
X140077000Y-90848477D01*
X140077000Y-90848476D01*
X140081282Y-90805000D01*
X140077000Y-90761523D01*
X140077000Y-86110254D01*
X140197525Y-86290632D01*
X140404368Y-86497475D01*
X140647589Y-86659990D01*
X140917842Y-86771932D01*
X141204740Y-86829000D01*
X141497260Y-86829000D01*
X141784158Y-86771932D01*
X142054411Y-86659990D01*
X142297632Y-86497475D01*
X142504475Y-86290632D01*
X142621000Y-86116240D01*
X142737525Y-86290632D01*
X142944368Y-86497475D01*
X143187589Y-86659990D01*
X143457842Y-86771932D01*
X143744740Y-86829000D01*
X144037260Y-86829000D01*
X144324158Y-86771932D01*
X144594411Y-86659990D01*
X144623000Y-86640887D01*
X144622999Y-99371677D01*
X144619323Y-99408999D01*
X144622999Y-99446321D01*
X144622999Y-99446331D01*
X144633996Y-99557984D01*
X144661909Y-99650002D01*
X144677453Y-99701245D01*
X144748025Y-99833275D01*
X144787870Y-99881825D01*
X144842998Y-99949000D01*
X144872002Y-99972803D01*
X146061002Y-101161804D01*
X146061001Y-107488045D01*
X145960574Y-107446447D01*
X145683335Y-107391300D01*
X145400665Y-107391300D01*
X145123426Y-107446447D01*
X144862273Y-107554620D01*
X144627241Y-107711663D01*
X144427363Y-107911541D01*
X144270320Y-108146573D01*
X144162147Y-108407726D01*
X144107000Y-108684965D01*
X144107000Y-108967635D01*
X144162147Y-109244874D01*
X144270320Y-109506027D01*
X144427363Y-109741059D01*
X144627241Y-109940937D01*
X144862273Y-110097980D01*
X144873547Y-110102650D01*
X144862273Y-110107320D01*
X144627241Y-110264363D01*
X144427363Y-110464241D01*
X144270320Y-110699273D01*
X144162147Y-110960426D01*
X144107000Y-111237665D01*
X144107000Y-111520335D01*
X144162147Y-111797574D01*
X144270320Y-112058727D01*
X144427363Y-112293759D01*
X144627241Y-112493637D01*
X144859759Y-112649000D01*
X144627241Y-112804363D01*
X144427363Y-113004241D01*
X144270320Y-113239273D01*
X144162147Y-113500426D01*
X144107000Y-113777665D01*
X144107000Y-114060335D01*
X144162147Y-114337574D01*
X144270320Y-114598727D01*
X144427363Y-114833759D01*
X144627241Y-115033637D01*
X144859759Y-115189000D01*
X144627241Y-115344363D01*
X144427363Y-115544241D01*
X144270320Y-115779273D01*
X144162147Y-116040426D01*
X144107000Y-116317665D01*
X144107000Y-116600335D01*
X144162147Y-116877574D01*
X144270320Y-117138727D01*
X144427363Y-117373759D01*
X144627241Y-117573637D01*
X144859759Y-117729000D01*
X144627241Y-117884363D01*
X144427363Y-118084241D01*
X144270320Y-118319273D01*
X144162147Y-118580426D01*
X144107000Y-118857665D01*
X144107000Y-119140335D01*
X144162147Y-119417574D01*
X144270320Y-119678727D01*
X144427363Y-119913759D01*
X144627241Y-120113637D01*
X144859759Y-120269000D01*
X144627241Y-120424363D01*
X144427363Y-120624241D01*
X144270320Y-120859273D01*
X144162147Y-121120426D01*
X144107000Y-121397665D01*
X144107000Y-121680335D01*
X144162147Y-121957574D01*
X144270320Y-122218727D01*
X144427363Y-122453759D01*
X144627241Y-122653637D01*
X144859759Y-122809000D01*
X144627241Y-122964363D01*
X144427363Y-123164241D01*
X144270320Y-123399273D01*
X144162147Y-123660426D01*
X144107000Y-123937665D01*
X144107000Y-124220335D01*
X144162147Y-124497574D01*
X144270320Y-124758727D01*
X144427363Y-124993759D01*
X144627241Y-125193637D01*
X144859759Y-125349000D01*
X144627241Y-125504363D01*
X144427363Y-125704241D01*
X144270320Y-125939273D01*
X144162147Y-126200426D01*
X144107000Y-126477665D01*
X144107000Y-126760335D01*
X144162147Y-127037574D01*
X144270320Y-127298727D01*
X144427363Y-127533759D01*
X144627241Y-127733637D01*
X144859759Y-127889000D01*
X144627241Y-128044363D01*
X144427363Y-128244241D01*
X144270320Y-128479273D01*
X144162147Y-128740426D01*
X144107000Y-129017665D01*
X144107000Y-129300335D01*
X144162147Y-129577574D01*
X144270320Y-129838727D01*
X144427363Y-130073759D01*
X144627241Y-130273637D01*
X144859759Y-130429000D01*
X144627241Y-130584363D01*
X144427363Y-130784241D01*
X144270320Y-131019273D01*
X144162147Y-131280426D01*
X144107000Y-131557665D01*
X144107000Y-131840335D01*
X144162147Y-132117574D01*
X144270320Y-132378727D01*
X144427363Y-132613759D01*
X144627241Y-132813637D01*
X144862273Y-132970680D01*
X145030738Y-133040460D01*
X142052199Y-136019000D01*
X141888341Y-136019000D01*
X141801120Y-135888465D01*
X141606535Y-135693880D01*
X141377727Y-135540995D01*
X141300485Y-135509000D01*
X141377727Y-135477005D01*
X141606535Y-135324120D01*
X141801120Y-135129535D01*
X141954005Y-134900727D01*
X142059314Y-134646490D01*
X142113000Y-134376592D01*
X142113000Y-134101408D01*
X142059314Y-133831510D01*
X141954005Y-133577273D01*
X141801120Y-133348465D01*
X141606535Y-133153880D01*
X141377727Y-133000995D01*
X141300485Y-132969000D01*
X141377727Y-132937005D01*
X141606535Y-132784120D01*
X141801120Y-132589535D01*
X141954005Y-132360727D01*
X142059314Y-132106490D01*
X142113000Y-131836592D01*
X142113000Y-131561408D01*
X142059314Y-131291510D01*
X141954005Y-131037273D01*
X141801120Y-130808465D01*
X141606535Y-130613880D01*
X141377727Y-130460995D01*
X141300485Y-130429000D01*
X141377727Y-130397005D01*
X141606535Y-130244120D01*
X141801120Y-130049535D01*
X141954005Y-129820727D01*
X142059314Y-129566490D01*
X142113000Y-129296592D01*
X142113000Y-129021408D01*
X142059314Y-128751510D01*
X141954005Y-128497273D01*
X141801120Y-128268465D01*
X141606535Y-128073880D01*
X141377727Y-127920995D01*
X141300485Y-127889000D01*
X141377727Y-127857005D01*
X141606535Y-127704120D01*
X141801120Y-127509535D01*
X141954005Y-127280727D01*
X142059314Y-127026490D01*
X142113000Y-126756592D01*
X142113000Y-126481408D01*
X142059314Y-126211510D01*
X141954005Y-125957273D01*
X141801120Y-125728465D01*
X141606535Y-125533880D01*
X141377727Y-125380995D01*
X141300485Y-125349000D01*
X141377727Y-125317005D01*
X141606535Y-125164120D01*
X141801120Y-124969535D01*
X141954005Y-124740727D01*
X142059314Y-124486490D01*
X142113000Y-124216592D01*
X142113000Y-123941408D01*
X142059314Y-123671510D01*
X141954005Y-123417273D01*
X141801120Y-123188465D01*
X141606535Y-122993880D01*
X141377727Y-122840995D01*
X141300485Y-122809000D01*
X141377727Y-122777005D01*
X141606535Y-122624120D01*
X141801120Y-122429535D01*
X141954005Y-122200727D01*
X142059314Y-121946490D01*
X142113000Y-121676592D01*
X142113000Y-121401408D01*
X142059314Y-121131510D01*
X141954005Y-120877273D01*
X141801120Y-120648465D01*
X141606535Y-120453880D01*
X141377727Y-120300995D01*
X141300485Y-120269000D01*
X141377727Y-120237005D01*
X141606535Y-120084120D01*
X141801120Y-119889535D01*
X141954005Y-119660727D01*
X142059314Y-119406490D01*
X142113000Y-119136592D01*
X142113000Y-118861408D01*
X142059314Y-118591510D01*
X141954005Y-118337273D01*
X141801120Y-118108465D01*
X141606535Y-117913880D01*
X141377727Y-117760995D01*
X141300485Y-117729000D01*
X141377727Y-117697005D01*
X141606535Y-117544120D01*
X141801120Y-117349535D01*
X141954005Y-117120727D01*
X142059314Y-116866490D01*
X142113000Y-116596592D01*
X142113000Y-116321408D01*
X142059314Y-116051510D01*
X141954005Y-115797273D01*
X141801120Y-115568465D01*
X141606535Y-115373880D01*
X141377727Y-115220995D01*
X141300485Y-115189000D01*
X141377727Y-115157005D01*
X141606535Y-115004120D01*
X141801120Y-114809535D01*
X141954005Y-114580727D01*
X142059314Y-114326490D01*
X142113000Y-114056592D01*
X142113000Y-113781408D01*
X142059314Y-113511510D01*
X141954005Y-113257273D01*
X141801120Y-113028465D01*
X141606535Y-112833880D01*
X141377727Y-112680995D01*
X141300485Y-112649000D01*
X141377727Y-112617005D01*
X141606535Y-112464120D01*
X141801120Y-112269535D01*
X141954005Y-112040727D01*
X142059314Y-111786490D01*
X142113000Y-111516592D01*
X142113000Y-111241408D01*
X142059314Y-110971510D01*
X141954005Y-110717273D01*
X141801120Y-110488465D01*
X141606535Y-110293880D01*
X141377727Y-110140995D01*
X141300485Y-110109000D01*
X141377727Y-110077005D01*
X141606535Y-109924120D01*
X141801120Y-109729535D01*
X141954005Y-109500727D01*
X142059314Y-109246490D01*
X142113000Y-108976592D01*
X142113000Y-108701408D01*
X142059314Y-108431510D01*
X141954005Y-108177273D01*
X141801120Y-107948465D01*
X141606535Y-107753880D01*
X141377727Y-107600995D01*
X141300485Y-107569000D01*
X141377727Y-107537005D01*
X141606535Y-107384120D01*
X141801120Y-107189535D01*
X141954005Y-106960727D01*
X142059314Y-106706490D01*
X142113000Y-106436592D01*
X142113000Y-106161408D01*
X142059314Y-105891510D01*
X141954005Y-105637273D01*
X141801120Y-105408465D01*
X141606535Y-105213880D01*
X141377727Y-105060995D01*
X141123490Y-104955686D01*
X140853592Y-104902000D01*
X140578408Y-104902000D01*
X140308510Y-104955686D01*
X140077000Y-105051581D01*
X140077000Y-103869264D01*
X140157444Y-103989657D01*
X140485343Y-104317556D01*
X140870911Y-104575185D01*
X141299332Y-104752642D01*
X141754140Y-104843109D01*
X142217860Y-104843109D01*
X142672668Y-104752642D01*
X143101089Y-104575185D01*
X143486657Y-104317556D01*
X143814556Y-103989657D01*
X144072185Y-103604089D01*
X144249642Y-103175668D01*
X144340109Y-102720860D01*
X144340109Y-102257140D01*
X144249642Y-101802332D01*
X144072185Y-101373911D01*
X143814556Y-100988343D01*
X143486657Y-100660444D01*
X143101089Y-100402815D01*
X142672668Y-100225358D01*
X142217860Y-100134891D01*
X141754140Y-100134891D01*
X141299332Y-100225358D01*
X140870911Y-100402815D01*
X140485343Y-100660444D01*
X140157444Y-100988343D01*
X140065418Y-101126069D01*
X140077000Y-101008477D01*
X140077000Y-101008476D01*
X140081282Y-100965000D01*
X140077000Y-100921523D01*
X140077000Y-92753477D01*
X140081282Y-92710000D01*
X140064195Y-92536510D01*
X140013589Y-92369687D01*
X139931411Y-92215941D01*
X139820817Y-92081183D01*
X139686059Y-91970589D01*
X139532313Y-91888411D01*
X139365490Y-91837805D01*
X139235477Y-91825000D01*
X139235476Y-91825000D01*
X139192000Y-91820718D01*
X139148523Y-91825000D01*
X138600476Y-91825000D01*
X138557000Y-91820718D01*
X138513523Y-91825000D01*
X138383510Y-91837805D01*
X138216687Y-91888411D01*
X138062941Y-91970589D01*
X137928183Y-92081183D01*
X137817589Y-92215941D01*
X137735411Y-92369687D01*
X137684805Y-92536510D01*
X137667718Y-92710000D01*
X137672000Y-92753477D01*
X137672000Y-93761509D01*
X137438184Y-93715000D01*
X137135816Y-93715000D01*
X136839257Y-93773989D01*
X136559905Y-93889701D01*
X136308495Y-94057688D01*
X136094688Y-94271495D01*
X135926701Y-94522905D01*
X135810989Y-94802257D01*
X135752000Y-95098816D01*
X135752000Y-95401184D01*
X135798509Y-95635000D01*
X131991000Y-95635000D01*
X131991000Y-95514665D01*
X131935853Y-95237426D01*
X131827680Y-94976273D01*
X131670637Y-94741241D01*
X131470759Y-94541363D01*
X131235727Y-94384320D01*
X130974574Y-94276147D01*
X130697335Y-94221000D01*
X130414665Y-94221000D01*
X130137426Y-94276147D01*
X129876273Y-94384320D01*
X129641241Y-94541363D01*
X129441363Y-94741241D01*
X129284320Y-94976273D01*
X129176147Y-95237426D01*
X129121000Y-95514665D01*
X129121000Y-95797335D01*
X129176147Y-96074574D01*
X129284320Y-96335727D01*
X129441363Y-96570759D01*
X129480500Y-96609896D01*
X129480500Y-97111523D01*
X129476218Y-97155000D01*
X129484412Y-97238192D01*
X129441363Y-97281241D01*
X129284320Y-97516273D01*
X129176147Y-97777426D01*
X129121000Y-98054665D01*
X129121000Y-98337335D01*
X129176147Y-98614574D01*
X129284320Y-98875727D01*
X129441363Y-99110759D01*
X129641241Y-99310637D01*
X129876273Y-99467680D01*
X130137426Y-99575853D01*
X130414665Y-99631000D01*
X130697335Y-99631000D01*
X130974574Y-99575853D01*
X131235727Y-99467680D01*
X131470759Y-99310637D01*
X131670637Y-99110759D01*
X131827680Y-98875727D01*
X131935853Y-98614574D01*
X131991000Y-98337335D01*
X131991000Y-98054665D01*
X131988083Y-98040000D01*
X133258509Y-98040000D01*
X133212000Y-98273816D01*
X133212000Y-98576184D01*
X133270989Y-98872743D01*
X133386701Y-99152095D01*
X133554688Y-99403505D01*
X133768495Y-99617312D01*
X134019905Y-99785299D01*
X134299257Y-99901011D01*
X134595816Y-99960000D01*
X134898184Y-99960000D01*
X135194743Y-99901011D01*
X135474095Y-99785299D01*
X135725505Y-99617312D01*
X135791944Y-99550873D01*
X135797498Y-99569180D01*
X135856463Y-99679494D01*
X135935815Y-99776185D01*
X136032506Y-99855537D01*
X136142820Y-99914502D01*
X136262518Y-99950812D01*
X136387000Y-99963072D01*
X137672000Y-99963072D01*
X137672000Y-100921523D01*
X137667718Y-100965000D01*
X137684805Y-101138490D01*
X137735411Y-101305313D01*
X137817589Y-101459059D01*
X137895514Y-101554010D01*
X137928183Y-101593817D01*
X138062941Y-101704411D01*
X138216687Y-101786589D01*
X138383510Y-101837195D01*
X138557000Y-101854282D01*
X138600476Y-101850000D01*
X139148524Y-101850000D01*
X139192000Y-101854282D01*
X139365490Y-101837195D01*
X139532313Y-101786589D01*
X139686059Y-101704411D01*
X139802501Y-101608849D01*
X139722358Y-101802332D01*
X139659850Y-102116580D01*
X139532313Y-102048411D01*
X139365490Y-101997805D01*
X139235477Y-101985000D01*
X139235476Y-101985000D01*
X139192000Y-101980718D01*
X139148523Y-101985000D01*
X138600476Y-101985000D01*
X138557000Y-101980718D01*
X138513523Y-101985000D01*
X138383510Y-101997805D01*
X138216687Y-102048411D01*
X138062941Y-102130589D01*
X137928183Y-102241183D01*
X137817589Y-102375941D01*
X137735411Y-102529687D01*
X137684805Y-102696510D01*
X137667718Y-102870000D01*
X137672000Y-102913477D01*
X137672000Y-103921509D01*
X137438184Y-103875000D01*
X137135816Y-103875000D01*
X136839257Y-103933989D01*
X136559905Y-104049701D01*
X136308495Y-104217688D01*
X136094688Y-104431495D01*
X135926701Y-104682905D01*
X135810989Y-104962257D01*
X135752000Y-105258816D01*
X135752000Y-105561184D01*
X135798509Y-105795000D01*
X131991000Y-105795000D01*
X131991000Y-105674665D01*
X131935853Y-105397426D01*
X131827680Y-105136273D01*
X131670637Y-104901241D01*
X131470759Y-104701363D01*
X131235727Y-104544320D01*
X130974574Y-104436147D01*
X130697335Y-104381000D01*
X130414665Y-104381000D01*
X130137426Y-104436147D01*
X129876273Y-104544320D01*
X129641241Y-104701363D01*
X129441363Y-104901241D01*
X129284320Y-105136273D01*
X129176147Y-105397426D01*
X129121000Y-105674665D01*
X129121000Y-105957335D01*
X129176147Y-106234574D01*
X129284320Y-106495727D01*
X129441363Y-106730759D01*
X129544000Y-106833396D01*
X129544000Y-107271523D01*
X129539718Y-107315000D01*
X129542218Y-107340386D01*
X129441363Y-107441241D01*
X129284320Y-107676273D01*
X129176147Y-107937426D01*
X129121000Y-108214665D01*
X129121000Y-108497335D01*
X129176147Y-108774574D01*
X129284320Y-109035727D01*
X129441363Y-109270759D01*
X129641241Y-109470637D01*
X129876273Y-109627680D01*
X130137426Y-109735853D01*
X130414665Y-109791000D01*
X130697335Y-109791000D01*
X130974574Y-109735853D01*
X131235727Y-109627680D01*
X131470759Y-109470637D01*
X131670637Y-109270759D01*
X131827680Y-109035727D01*
X131935853Y-108774574D01*
X131991000Y-108497335D01*
X131991000Y-108214665D01*
X131988083Y-108200000D01*
X133258509Y-108200000D01*
X133212000Y-108433816D01*
X133212000Y-108736184D01*
X133270989Y-109032743D01*
X133386701Y-109312095D01*
X133554688Y-109563505D01*
X133768495Y-109777312D01*
X134019905Y-109945299D01*
X134299257Y-110061011D01*
X134595816Y-110120000D01*
X134898184Y-110120000D01*
X135194743Y-110061011D01*
X135474095Y-109945299D01*
X135725505Y-109777312D01*
X135791944Y-109710873D01*
X135797498Y-109729180D01*
X135856463Y-109839494D01*
X135935815Y-109936185D01*
X136032506Y-110015537D01*
X136142820Y-110074502D01*
X136262518Y-110110812D01*
X136387000Y-110123072D01*
X137672000Y-110123072D01*
X137672000Y-111081523D01*
X137667718Y-111125000D01*
X137684805Y-111298490D01*
X137735411Y-111465313D01*
X137817589Y-111619059D01*
X137895514Y-111714010D01*
X137928183Y-111753817D01*
X138062941Y-111864411D01*
X138216687Y-111946589D01*
X138383510Y-111997195D01*
X138557000Y-112014282D01*
X138600476Y-112010000D01*
X139148524Y-112010000D01*
X139192000Y-112014282D01*
X139365490Y-111997195D01*
X139449418Y-111971735D01*
X139477995Y-112040727D01*
X139622108Y-112256407D01*
X139532313Y-112208411D01*
X139365490Y-112157805D01*
X139235477Y-112145000D01*
X139235476Y-112145000D01*
X139192000Y-112140718D01*
X139148523Y-112145000D01*
X138600476Y-112145000D01*
X138557000Y-112140718D01*
X138513523Y-112145000D01*
X138383510Y-112157805D01*
X138216687Y-112208411D01*
X138062941Y-112290589D01*
X137928183Y-112401183D01*
X137817589Y-112535941D01*
X137735411Y-112689687D01*
X137684805Y-112856510D01*
X137667718Y-113030000D01*
X137672000Y-113073477D01*
X137672000Y-114081509D01*
X137438184Y-114035000D01*
X137135816Y-114035000D01*
X136839257Y-114093989D01*
X136559905Y-114209701D01*
X136308495Y-114377688D01*
X136094688Y-114591495D01*
X135926701Y-114842905D01*
X135810989Y-115122257D01*
X135752000Y-115418816D01*
X135752000Y-115721184D01*
X135798509Y-115955000D01*
X131991000Y-115955000D01*
X131991000Y-115834665D01*
X131935853Y-115557426D01*
X131827680Y-115296273D01*
X131670637Y-115061241D01*
X131470759Y-114861363D01*
X131235727Y-114704320D01*
X130974574Y-114596147D01*
X130697335Y-114541000D01*
X130414665Y-114541000D01*
X130137426Y-114596147D01*
X129876273Y-114704320D01*
X129641241Y-114861363D01*
X129441363Y-115061241D01*
X129284320Y-115296273D01*
X129176147Y-115557426D01*
X129121000Y-115834665D01*
X129121000Y-116117335D01*
X129176147Y-116394574D01*
X129284320Y-116655727D01*
X129441363Y-116890759D01*
X129480500Y-116929896D01*
X129480500Y-117431523D01*
X129476218Y-117475000D01*
X129484412Y-117558192D01*
X129441363Y-117601241D01*
X129284320Y-117836273D01*
X129176147Y-118097426D01*
X129121000Y-118374665D01*
X129121000Y-118657335D01*
X129176147Y-118934574D01*
X129284320Y-119195727D01*
X129441363Y-119430759D01*
X129641241Y-119630637D01*
X129876273Y-119787680D01*
X130137426Y-119895853D01*
X130414665Y-119951000D01*
X130697335Y-119951000D01*
X130974574Y-119895853D01*
X131235727Y-119787680D01*
X131470759Y-119630637D01*
X131670637Y-119430759D01*
X131827680Y-119195727D01*
X131935853Y-118934574D01*
X131991000Y-118657335D01*
X131991000Y-118374665D01*
X131988083Y-118360000D01*
X133258509Y-118360000D01*
X133212000Y-118593816D01*
X133212000Y-118896184D01*
X133270989Y-119192743D01*
X133386701Y-119472095D01*
X133554688Y-119723505D01*
X133768495Y-119937312D01*
X134019905Y-120105299D01*
X134299257Y-120221011D01*
X134595816Y-120280000D01*
X134898184Y-120280000D01*
X135194743Y-120221011D01*
X135474095Y-120105299D01*
X135725505Y-119937312D01*
X135791944Y-119870873D01*
X135797498Y-119889180D01*
X135856463Y-119999494D01*
X135935815Y-120096185D01*
X136032506Y-120175537D01*
X136142820Y-120234502D01*
X136262518Y-120270812D01*
X136387000Y-120283072D01*
X137672000Y-120283072D01*
X137672000Y-121241523D01*
X137667718Y-121285000D01*
X137684805Y-121458490D01*
X137735411Y-121625313D01*
X137817589Y-121779059D01*
X137861468Y-121832525D01*
X137928183Y-121913817D01*
X138062941Y-122024411D01*
X138216687Y-122106589D01*
X138383510Y-122157195D01*
X138557000Y-122174282D01*
X138600476Y-122170000D01*
X139148524Y-122170000D01*
X139192000Y-122174282D01*
X139365490Y-122157195D01*
X139449418Y-122131735D01*
X139477995Y-122200727D01*
X139622108Y-122416407D01*
X139610933Y-122410434D01*
X139536043Y-122369966D01*
X139534103Y-122369368D01*
X139532313Y-122368411D01*
X139450772Y-122343675D01*
X139369452Y-122318603D01*
X139367435Y-122318395D01*
X139365490Y-122317805D01*
X139280708Y-122309455D01*
X139196042Y-122300727D01*
X139150540Y-122305000D01*
X138600476Y-122305000D01*
X138557000Y-122300718D01*
X138513523Y-122305000D01*
X138383510Y-122317805D01*
X138216687Y-122368411D01*
X138062941Y-122450589D01*
X137928183Y-122561183D01*
X137817589Y-122695941D01*
X137735411Y-122849687D01*
X137684805Y-123016510D01*
X137667718Y-123190000D01*
X137672000Y-123233477D01*
X137672000Y-124241509D01*
X137438184Y-124195000D01*
X137135816Y-124195000D01*
X136839257Y-124253989D01*
X136559905Y-124369701D01*
X136308495Y-124537688D01*
X136094688Y-124751495D01*
X135926701Y-125002905D01*
X135810989Y-125282257D01*
X135752000Y-125578816D01*
X135752000Y-125881184D01*
X135798509Y-126115000D01*
X131991000Y-126115000D01*
X131991000Y-125994665D01*
X131935853Y-125717426D01*
X131827680Y-125456273D01*
X131670637Y-125221241D01*
X131470759Y-125021363D01*
X131235727Y-124864320D01*
X130974574Y-124756147D01*
X130697335Y-124701000D01*
X130414665Y-124701000D01*
X130137426Y-124756147D01*
X129876273Y-124864320D01*
X129641241Y-125021363D01*
X129441363Y-125221241D01*
X129284320Y-125456273D01*
X129176147Y-125717426D01*
X129121000Y-125994665D01*
X129121000Y-126115000D01*
X128615491Y-126115000D01*
X128662000Y-125881184D01*
X128662000Y-125578816D01*
X128603011Y-125282257D01*
X128487299Y-125002905D01*
X128319312Y-124751495D01*
X128105505Y-124537688D01*
X127854095Y-124369701D01*
X127574743Y-124253989D01*
X127278184Y-124195000D01*
X126975816Y-124195000D01*
X126679257Y-124253989D01*
X126399905Y-124369701D01*
X126148495Y-124537688D01*
X125934688Y-124751495D01*
X125766701Y-125002905D01*
X125650989Y-125282257D01*
X125592000Y-125578816D01*
X125592000Y-125881184D01*
X125638509Y-126115000D01*
X124630281Y-126115000D01*
X124513045Y-126103505D01*
X124441906Y-126082027D01*
X124376294Y-126047140D01*
X124318706Y-126000173D01*
X124271338Y-125942915D01*
X124235995Y-125877549D01*
X124214020Y-125806560D01*
X124202000Y-125692192D01*
X124202000Y-120233491D01*
X124435816Y-120280000D01*
X124738184Y-120280000D01*
X125034743Y-120221011D01*
X125314095Y-120105299D01*
X125565505Y-119937312D01*
X125631944Y-119870873D01*
X125637498Y-119889180D01*
X125696463Y-119999494D01*
X125775815Y-120096185D01*
X125872506Y-120175537D01*
X125982820Y-120234502D01*
X126102518Y-120270812D01*
X126227000Y-120283072D01*
X128027000Y-120283072D01*
X128151482Y-120270812D01*
X128271180Y-120234502D01*
X128381494Y-120175537D01*
X128478185Y-120096185D01*
X128557537Y-119999494D01*
X128616502Y-119889180D01*
X128652812Y-119769482D01*
X128665072Y-119645000D01*
X128665072Y-118267320D01*
X128764059Y-118214411D01*
X128898817Y-118103817D01*
X129009411Y-117969059D01*
X129091589Y-117815313D01*
X129142195Y-117648490D01*
X129145300Y-117616965D01*
X129155000Y-117518477D01*
X129155000Y-117518476D01*
X129159282Y-117475000D01*
X129155000Y-117431523D01*
X129155000Y-116883477D01*
X129159282Y-116840000D01*
X129145411Y-116699158D01*
X129142195Y-116666510D01*
X129091589Y-116499687D01*
X129009411Y-116345941D01*
X128898817Y-116211183D01*
X128764059Y-116100589D01*
X128610313Y-116018411D01*
X128603301Y-116016284D01*
X128662000Y-115721184D01*
X128662000Y-115418816D01*
X128603011Y-115122257D01*
X128487299Y-114842905D01*
X128319312Y-114591495D01*
X128105505Y-114377688D01*
X127854095Y-114209701D01*
X127574743Y-114093989D01*
X127278184Y-114035000D01*
X126975816Y-114035000D01*
X126679257Y-114093989D01*
X126399905Y-114209701D01*
X126148495Y-114377688D01*
X125934688Y-114591495D01*
X125766701Y-114842905D01*
X125650989Y-115122257D01*
X125592000Y-115418816D01*
X125592000Y-115721184D01*
X125638509Y-115955000D01*
X124630281Y-115955000D01*
X124513045Y-115943505D01*
X124441906Y-115922027D01*
X124376294Y-115887140D01*
X124318706Y-115840173D01*
X124271338Y-115782915D01*
X124235995Y-115717549D01*
X124214020Y-115646560D01*
X124202000Y-115532192D01*
X124202000Y-110073491D01*
X124435816Y-110120000D01*
X124738184Y-110120000D01*
X125034743Y-110061011D01*
X125314095Y-109945299D01*
X125565505Y-109777312D01*
X125631944Y-109710873D01*
X125637498Y-109729180D01*
X125696463Y-109839494D01*
X125775815Y-109936185D01*
X125872506Y-110015537D01*
X125982820Y-110074502D01*
X126102518Y-110110812D01*
X126227000Y-110123072D01*
X128027000Y-110123072D01*
X128151482Y-110110812D01*
X128271180Y-110074502D01*
X128381494Y-110015537D01*
X128478185Y-109936185D01*
X128557537Y-109839494D01*
X128616502Y-109729180D01*
X128652812Y-109609482D01*
X128665072Y-109485000D01*
X128665072Y-108158503D01*
X128737313Y-108136589D01*
X128891059Y-108054411D01*
X129025817Y-107943817D01*
X129136411Y-107809059D01*
X129218589Y-107655313D01*
X129269195Y-107488490D01*
X129272300Y-107456965D01*
X129282000Y-107358477D01*
X129282000Y-107358476D01*
X129286282Y-107315000D01*
X129282000Y-107271523D01*
X129282000Y-106723477D01*
X129286282Y-106680000D01*
X129272411Y-106539158D01*
X129269195Y-106506510D01*
X129218589Y-106339687D01*
X129136411Y-106185941D01*
X129025817Y-106051183D01*
X128891059Y-105940589D01*
X128737313Y-105858411D01*
X128610528Y-105819951D01*
X128662000Y-105561184D01*
X128662000Y-105258816D01*
X128603011Y-104962257D01*
X128487299Y-104682905D01*
X128319312Y-104431495D01*
X128105505Y-104217688D01*
X127854095Y-104049701D01*
X127574743Y-103933989D01*
X127278184Y-103875000D01*
X126975816Y-103875000D01*
X126679257Y-103933989D01*
X126399905Y-104049701D01*
X126148495Y-104217688D01*
X125934688Y-104431495D01*
X125766701Y-104682905D01*
X125650989Y-104962257D01*
X125592000Y-105258816D01*
X125592000Y-105561184D01*
X125638509Y-105795000D01*
X124630281Y-105795000D01*
X124513045Y-105783505D01*
X124441906Y-105762027D01*
X124376294Y-105727140D01*
X124318706Y-105680173D01*
X124271338Y-105622915D01*
X124235995Y-105557549D01*
X124214020Y-105486560D01*
X124202000Y-105372192D01*
X124202000Y-99913491D01*
X124435816Y-99960000D01*
X124738184Y-99960000D01*
X125034743Y-99901011D01*
X125314095Y-99785299D01*
X125565505Y-99617312D01*
X125631944Y-99550873D01*
X125637498Y-99569180D01*
X125696463Y-99679494D01*
X125775815Y-99776185D01*
X125872506Y-99855537D01*
X125982820Y-99914502D01*
X126102518Y-99950812D01*
X126227000Y-99963072D01*
X128027000Y-99963072D01*
X128151482Y-99950812D01*
X128271180Y-99914502D01*
X128381494Y-99855537D01*
X128478185Y-99776185D01*
X128557537Y-99679494D01*
X128616502Y-99569180D01*
X128652812Y-99449482D01*
X128665072Y-99325000D01*
X128665072Y-97947320D01*
X128764059Y-97894411D01*
X128898817Y-97783817D01*
X129009411Y-97649059D01*
X129091589Y-97495313D01*
X129142195Y-97328490D01*
X129145300Y-97296965D01*
X129155000Y-97198477D01*
X129155000Y-97198476D01*
X129159282Y-97155000D01*
X129155000Y-97111523D01*
X129155000Y-96563477D01*
X129159282Y-96520000D01*
X129145411Y-96379158D01*
X129142195Y-96346510D01*
X129091589Y-96179687D01*
X129009411Y-96025941D01*
X128898817Y-95891183D01*
X128764059Y-95780589D01*
X128610313Y-95698411D01*
X128603301Y-95696284D01*
X128662000Y-95401184D01*
X128662000Y-95098816D01*
X128603011Y-94802257D01*
X128487299Y-94522905D01*
X128319312Y-94271495D01*
X128105505Y-94057688D01*
X127854095Y-93889701D01*
X127574743Y-93773989D01*
X127278184Y-93715000D01*
X126975816Y-93715000D01*
X126679257Y-93773989D01*
X126399905Y-93889701D01*
X126148495Y-94057688D01*
X125934688Y-94271495D01*
X125766701Y-94522905D01*
X125650989Y-94802257D01*
X125592000Y-95098816D01*
X125592000Y-95401184D01*
X125638509Y-95635000D01*
X124630281Y-95635000D01*
X124513045Y-95623505D01*
X124441906Y-95602027D01*
X124376294Y-95567140D01*
X124318706Y-95520173D01*
X124271338Y-95462915D01*
X124235995Y-95397549D01*
X124214020Y-95326560D01*
X124202000Y-95212192D01*
X124202000Y-89753491D01*
X124435816Y-89800000D01*
X124738184Y-89800000D01*
X125034743Y-89741011D01*
X125314095Y-89625299D01*
X125565505Y-89457312D01*
X125631944Y-89390873D01*
X125637498Y-89409180D01*
X125696463Y-89519494D01*
X125775815Y-89616185D01*
X125872506Y-89695537D01*
X125982820Y-89754502D01*
X126102518Y-89790812D01*
X126227000Y-89803072D01*
X128027000Y-89803072D01*
X128151482Y-89790812D01*
X128271180Y-89754502D01*
X128381494Y-89695537D01*
X128478185Y-89616185D01*
X128557537Y-89519494D01*
X128616502Y-89409180D01*
X128652812Y-89289482D01*
X128665072Y-89165000D01*
X128665072Y-87787320D01*
X128764059Y-87734411D01*
X128898817Y-87623817D01*
X129009411Y-87489059D01*
X129091589Y-87335313D01*
X129142195Y-87168490D01*
X129145300Y-87136965D01*
X129155000Y-87038477D01*
X129155000Y-87038476D01*
X129159282Y-86995000D01*
X129155000Y-86951523D01*
X129155000Y-86403477D01*
X129159282Y-86360000D01*
X129145411Y-86219158D01*
X129142195Y-86186510D01*
X129091589Y-86019687D01*
X129009411Y-85865941D01*
X128898817Y-85731183D01*
X128764059Y-85620589D01*
X128610313Y-85538411D01*
X128603301Y-85536284D01*
X128662000Y-85241184D01*
X128662000Y-84938816D01*
X128603011Y-84642257D01*
X128487299Y-84362905D01*
X128319312Y-84111495D01*
X128105505Y-83897688D01*
X127854095Y-83729701D01*
X127574743Y-83613989D01*
X127278184Y-83555000D01*
X126975816Y-83555000D01*
X126679257Y-83613989D01*
X126399905Y-83729701D01*
X126148495Y-83897688D01*
X125934688Y-84111495D01*
X125766701Y-84362905D01*
X125650989Y-84642257D01*
X125592000Y-84938816D01*
X125592000Y-85241184D01*
X125638509Y-85475000D01*
X124630281Y-85475000D01*
X124513045Y-85463505D01*
X124441906Y-85442027D01*
X124376294Y-85407140D01*
X124318706Y-85360173D01*
X124271338Y-85302915D01*
X124235995Y-85237549D01*
X124214020Y-85166560D01*
X124202000Y-85052192D01*
X124202000Y-79593491D01*
X124435816Y-79640000D01*
X124738184Y-79640000D01*
X125034743Y-79581011D01*
X125314095Y-79465299D01*
X125565505Y-79297312D01*
X125631944Y-79230873D01*
X125637498Y-79249180D01*
X125696463Y-79359494D01*
X125775815Y-79456185D01*
X125872506Y-79535537D01*
X125982820Y-79594502D01*
X126102518Y-79630812D01*
X126227000Y-79643072D01*
X128027000Y-79643072D01*
X128151482Y-79630812D01*
X128271180Y-79594502D01*
X128381494Y-79535537D01*
X128478185Y-79456185D01*
X128557537Y-79359494D01*
X128616502Y-79249180D01*
X128652812Y-79129482D01*
X128665072Y-79005000D01*
X128665072Y-77720000D01*
X129121000Y-77720000D01*
X129121000Y-77865335D01*
X129176147Y-78142574D01*
X129284320Y-78403727D01*
X129441363Y-78638759D01*
X129641241Y-78838637D01*
X129876273Y-78995680D01*
X130137426Y-79103853D01*
X130414665Y-79159000D01*
X130697335Y-79159000D01*
X130974574Y-79103853D01*
X131235727Y-78995680D01*
X131470759Y-78838637D01*
X131670637Y-78638759D01*
X131827680Y-78403727D01*
X131935853Y-78142574D01*
X131991000Y-77865335D01*
X131991000Y-77720000D01*
X133258509Y-77720000D01*
X133212000Y-77953816D01*
X133212000Y-78256184D01*
X133270989Y-78552743D01*
X133386701Y-78832095D01*
X133554688Y-79083505D01*
X133768495Y-79297312D01*
X134019905Y-79465299D01*
X134299257Y-79581011D01*
X134595816Y-79640000D01*
X134898184Y-79640000D01*
X135194743Y-79581011D01*
X135474095Y-79465299D01*
X135725505Y-79297312D01*
X135791944Y-79230873D01*
X135797498Y-79249180D01*
X135856463Y-79359494D01*
X135935815Y-79456185D01*
X136032506Y-79535537D01*
X136142820Y-79594502D01*
X136262518Y-79630812D01*
X136387000Y-79643072D01*
X137672000Y-79643072D01*
X137672000Y-80601523D01*
X137667718Y-80645000D01*
X137684805Y-80818490D01*
X137735411Y-80985313D01*
X137817589Y-81139059D01*
X137913561Y-81256000D01*
X137928183Y-81273817D01*
X138062941Y-81384411D01*
X138216687Y-81466589D01*
X138383510Y-81517195D01*
X138557000Y-81534282D01*
X138600476Y-81530000D01*
X139148524Y-81530000D01*
X139192000Y-81534282D01*
X139365490Y-81517195D01*
X139532313Y-81466589D01*
X139686059Y-81384411D01*
X139820817Y-81273817D01*
X139931411Y-81139059D01*
X140013589Y-80985313D01*
X140064195Y-80818490D01*
X140077000Y-80688477D01*
X140077000Y-80688476D01*
X140081282Y-80645000D01*
X140077000Y-80601523D01*
X140077000Y-78148281D01*
X140088495Y-78031045D01*
X140109974Y-77959905D01*
X140144859Y-77894294D01*
X140191828Y-77836705D01*
X140249082Y-77789340D01*
X140314451Y-77753996D01*
X140385441Y-77732020D01*
X140499992Y-77719981D01*
X142556304Y-77718983D01*
X142542188Y-77765518D01*
%TA.AperFunction,Conductor*%
D23*
G36*
X142542188Y-77765518D02*
G01*
X142529928Y-77890000D01*
X142529928Y-79590000D01*
X142542188Y-79714482D01*
X142578498Y-79834180D01*
X142637463Y-79944494D01*
X142716815Y-80041185D01*
X142813506Y-80120537D01*
X142923820Y-80179502D01*
X142996380Y-80201513D01*
X142864525Y-80333368D01*
X142702010Y-80576589D01*
X142590068Y-80846842D01*
X142533000Y-81133740D01*
X142533000Y-81426260D01*
X142590068Y-81713158D01*
X142702010Y-81983411D01*
X142864525Y-82226632D01*
X143071368Y-82433475D01*
X143314589Y-82595990D01*
X143584842Y-82707932D01*
X143871740Y-82765000D01*
X144164260Y-82765000D01*
X144384408Y-82721210D01*
X144496000Y-82832802D01*
X144496000Y-83987247D01*
X144324158Y-83916068D01*
X144037260Y-83859000D01*
X143744740Y-83859000D01*
X143457842Y-83916068D01*
X143187589Y-84028010D01*
X142944368Y-84190525D01*
X142737525Y-84397368D01*
X142621000Y-84571760D01*
X142504475Y-84397368D01*
X142297632Y-84190525D01*
X142054411Y-84028010D01*
X141784158Y-83916068D01*
X141497260Y-83859000D01*
X141204740Y-83859000D01*
X140917842Y-83916068D01*
X140647589Y-84028010D01*
X140404368Y-84190525D01*
X140197525Y-84397368D01*
X140077000Y-84577746D01*
X140077000Y-82593477D01*
X140081282Y-82550000D01*
X140064195Y-82376510D01*
X140013589Y-82209687D01*
X139931411Y-82055941D01*
X139820817Y-81921183D01*
X139686059Y-81810589D01*
X139532313Y-81728411D01*
X139365490Y-81677805D01*
X139235477Y-81665000D01*
X139235476Y-81665000D01*
X139192000Y-81660718D01*
X139148523Y-81665000D01*
X138600476Y-81665000D01*
X138557000Y-81660718D01*
X138513523Y-81665000D01*
X138383510Y-81677805D01*
X138216687Y-81728411D01*
X138062941Y-81810589D01*
X137928183Y-81921183D01*
X137817589Y-82055941D01*
X137735411Y-82209687D01*
X137684805Y-82376510D01*
X137667718Y-82550000D01*
X137672000Y-82593477D01*
X137672000Y-83601509D01*
X137438184Y-83555000D01*
X137135816Y-83555000D01*
X136839257Y-83613989D01*
X136559905Y-83729701D01*
X136308495Y-83897688D01*
X136094688Y-84111495D01*
X135926701Y-84362905D01*
X135810989Y-84642257D01*
X135752000Y-84938816D01*
X135752000Y-85241184D01*
X135798509Y-85475000D01*
X131991000Y-85475000D01*
X131991000Y-85202665D01*
X131935853Y-84925426D01*
X131827680Y-84664273D01*
X131670637Y-84429241D01*
X131470759Y-84229363D01*
X131235727Y-84072320D01*
X130974574Y-83964147D01*
X130697335Y-83909000D01*
X130414665Y-83909000D01*
X130137426Y-83964147D01*
X129876273Y-84072320D01*
X129641241Y-84229363D01*
X129441363Y-84429241D01*
X129284320Y-84664273D01*
X129176147Y-84925426D01*
X129121000Y-85202665D01*
X129121000Y-85485335D01*
X129176147Y-85762574D01*
X129284320Y-86023727D01*
X129441363Y-86258759D01*
X129539977Y-86357373D01*
X129539718Y-86360000D01*
X129544000Y-86403477D01*
X129544000Y-86951523D01*
X129539718Y-86995000D01*
X129542218Y-87020386D01*
X129441363Y-87121241D01*
X129284320Y-87356273D01*
X129176147Y-87617426D01*
X129121000Y-87894665D01*
X129121000Y-88177335D01*
X129176147Y-88454574D01*
X129284320Y-88715727D01*
X129441363Y-88950759D01*
X129641241Y-89150637D01*
X129876273Y-89307680D01*
X130137426Y-89415853D01*
X130414665Y-89471000D01*
X130697335Y-89471000D01*
X130974574Y-89415853D01*
X131235727Y-89307680D01*
X131470759Y-89150637D01*
X131670637Y-88950759D01*
X131827680Y-88715727D01*
X131935853Y-88454574D01*
X131991000Y-88177335D01*
X131991000Y-87894665D01*
X131988083Y-87880000D01*
X133258509Y-87880000D01*
X133212000Y-88113816D01*
X133212000Y-88416184D01*
X133270989Y-88712743D01*
X133386701Y-88992095D01*
X133554688Y-89243505D01*
X133768495Y-89457312D01*
X134019905Y-89625299D01*
X134299257Y-89741011D01*
X134595816Y-89800000D01*
X134898184Y-89800000D01*
X135194743Y-89741011D01*
X135474095Y-89625299D01*
X135725505Y-89457312D01*
X135791944Y-89390873D01*
X135797498Y-89409180D01*
X135856463Y-89519494D01*
X135935815Y-89616185D01*
X136032506Y-89695537D01*
X136142820Y-89754502D01*
X136262518Y-89790812D01*
X136387000Y-89803072D01*
X137672000Y-89803072D01*
X137672000Y-90761523D01*
X137667718Y-90805000D01*
X137684805Y-90978490D01*
X137735411Y-91145313D01*
X137817589Y-91299059D01*
X137868932Y-91361620D01*
X137928183Y-91433817D01*
X138062941Y-91544411D01*
X138216687Y-91626589D01*
X138383510Y-91677195D01*
X138557000Y-91694282D01*
X138600476Y-91690000D01*
X139148524Y-91690000D01*
X139192000Y-91694282D01*
X139365490Y-91677195D01*
X139532313Y-91626589D01*
X139686059Y-91544411D01*
X139820817Y-91433817D01*
X139931411Y-91299059D01*
X140013589Y-91145313D01*
X140064195Y-90978490D01*
X140077000Y-90848477D01*
X140077000Y-90848476D01*
X140081282Y-90805000D01*
X140077000Y-90761523D01*
X140077000Y-86110254D01*
X140197525Y-86290632D01*
X140404368Y-86497475D01*
X140647589Y-86659990D01*
X140917842Y-86771932D01*
X141204740Y-86829000D01*
X141497260Y-86829000D01*
X141784158Y-86771932D01*
X142054411Y-86659990D01*
X142297632Y-86497475D01*
X142504475Y-86290632D01*
X142621000Y-86116240D01*
X142737525Y-86290632D01*
X142944368Y-86497475D01*
X143187589Y-86659990D01*
X143457842Y-86771932D01*
X143744740Y-86829000D01*
X144037260Y-86829000D01*
X144324158Y-86771932D01*
X144594411Y-86659990D01*
X144623000Y-86640887D01*
X144622999Y-99371677D01*
X144619323Y-99408999D01*
X144622999Y-99446321D01*
X144622999Y-99446331D01*
X144633996Y-99557984D01*
X144661909Y-99650002D01*
X144677453Y-99701245D01*
X144748025Y-99833275D01*
X144787870Y-99881825D01*
X144842998Y-99949000D01*
X144872002Y-99972803D01*
X146061002Y-101161804D01*
X146061001Y-107488045D01*
X145960574Y-107446447D01*
X145683335Y-107391300D01*
X145400665Y-107391300D01*
X145123426Y-107446447D01*
X144862273Y-107554620D01*
X144627241Y-107711663D01*
X144427363Y-107911541D01*
X144270320Y-108146573D01*
X144162147Y-108407726D01*
X144107000Y-108684965D01*
X144107000Y-108967635D01*
X144162147Y-109244874D01*
X144270320Y-109506027D01*
X144427363Y-109741059D01*
X144627241Y-109940937D01*
X144862273Y-110097980D01*
X144873547Y-110102650D01*
X144862273Y-110107320D01*
X144627241Y-110264363D01*
X144427363Y-110464241D01*
X144270320Y-110699273D01*
X144162147Y-110960426D01*
X144107000Y-111237665D01*
X144107000Y-111520335D01*
X144162147Y-111797574D01*
X144270320Y-112058727D01*
X144427363Y-112293759D01*
X144627241Y-112493637D01*
X144859759Y-112649000D01*
X144627241Y-112804363D01*
X144427363Y-113004241D01*
X144270320Y-113239273D01*
X144162147Y-113500426D01*
X144107000Y-113777665D01*
X144107000Y-114060335D01*
X144162147Y-114337574D01*
X144270320Y-114598727D01*
X144427363Y-114833759D01*
X144627241Y-115033637D01*
X144859759Y-115189000D01*
X144627241Y-115344363D01*
X144427363Y-115544241D01*
X144270320Y-115779273D01*
X144162147Y-116040426D01*
X144107000Y-116317665D01*
X144107000Y-116600335D01*
X144162147Y-116877574D01*
X144270320Y-117138727D01*
X144427363Y-117373759D01*
X144627241Y-117573637D01*
X144859759Y-117729000D01*
X144627241Y-117884363D01*
X144427363Y-118084241D01*
X144270320Y-118319273D01*
X144162147Y-118580426D01*
X144107000Y-118857665D01*
X144107000Y-119140335D01*
X144162147Y-119417574D01*
X144270320Y-119678727D01*
X144427363Y-119913759D01*
X144627241Y-120113637D01*
X144859759Y-120269000D01*
X144627241Y-120424363D01*
X144427363Y-120624241D01*
X144270320Y-120859273D01*
X144162147Y-121120426D01*
X144107000Y-121397665D01*
X144107000Y-121680335D01*
X144162147Y-121957574D01*
X144270320Y-122218727D01*
X144427363Y-122453759D01*
X144627241Y-122653637D01*
X144859759Y-122809000D01*
X144627241Y-122964363D01*
X144427363Y-123164241D01*
X144270320Y-123399273D01*
X144162147Y-123660426D01*
X144107000Y-123937665D01*
X144107000Y-124220335D01*
X144162147Y-124497574D01*
X144270320Y-124758727D01*
X144427363Y-124993759D01*
X144627241Y-125193637D01*
X144859759Y-125349000D01*
X144627241Y-125504363D01*
X144427363Y-125704241D01*
X144270320Y-125939273D01*
X144162147Y-126200426D01*
X144107000Y-126477665D01*
X144107000Y-126760335D01*
X144162147Y-127037574D01*
X144270320Y-127298727D01*
X144427363Y-127533759D01*
X144627241Y-127733637D01*
X144859759Y-127889000D01*
X144627241Y-128044363D01*
X144427363Y-128244241D01*
X144270320Y-128479273D01*
X144162147Y-128740426D01*
X144107000Y-129017665D01*
X144107000Y-129300335D01*
X144162147Y-129577574D01*
X144270320Y-129838727D01*
X144427363Y-130073759D01*
X144627241Y-130273637D01*
X144859759Y-130429000D01*
X144627241Y-130584363D01*
X144427363Y-130784241D01*
X144270320Y-131019273D01*
X144162147Y-131280426D01*
X144107000Y-131557665D01*
X144107000Y-131840335D01*
X144162147Y-132117574D01*
X144270320Y-132378727D01*
X144427363Y-132613759D01*
X144627241Y-132813637D01*
X144862273Y-132970680D01*
X145030738Y-133040460D01*
X142052199Y-136019000D01*
X141888341Y-136019000D01*
X141801120Y-135888465D01*
X141606535Y-135693880D01*
X141377727Y-135540995D01*
X141300485Y-135509000D01*
X141377727Y-135477005D01*
X141606535Y-135324120D01*
X141801120Y-135129535D01*
X141954005Y-134900727D01*
X142059314Y-134646490D01*
X142113000Y-134376592D01*
X142113000Y-134101408D01*
X142059314Y-133831510D01*
X141954005Y-133577273D01*
X141801120Y-133348465D01*
X141606535Y-133153880D01*
X141377727Y-133000995D01*
X141300485Y-132969000D01*
X141377727Y-132937005D01*
X141606535Y-132784120D01*
X141801120Y-132589535D01*
X141954005Y-132360727D01*
X142059314Y-132106490D01*
X142113000Y-131836592D01*
X142113000Y-131561408D01*
X142059314Y-131291510D01*
X141954005Y-131037273D01*
X141801120Y-130808465D01*
X141606535Y-130613880D01*
X141377727Y-130460995D01*
X141300485Y-130429000D01*
X141377727Y-130397005D01*
X141606535Y-130244120D01*
X141801120Y-130049535D01*
X141954005Y-129820727D01*
X142059314Y-129566490D01*
X142113000Y-129296592D01*
X142113000Y-129021408D01*
X142059314Y-128751510D01*
X141954005Y-128497273D01*
X141801120Y-128268465D01*
X141606535Y-128073880D01*
X141377727Y-127920995D01*
X141300485Y-127889000D01*
X141377727Y-127857005D01*
X141606535Y-127704120D01*
X141801120Y-127509535D01*
X141954005Y-127280727D01*
X142059314Y-127026490D01*
X142113000Y-126756592D01*
X142113000Y-126481408D01*
X142059314Y-126211510D01*
X141954005Y-125957273D01*
X141801120Y-125728465D01*
X141606535Y-125533880D01*
X141377727Y-125380995D01*
X141300485Y-125349000D01*
X141377727Y-125317005D01*
X141606535Y-125164120D01*
X141801120Y-124969535D01*
X141954005Y-124740727D01*
X142059314Y-124486490D01*
X142113000Y-124216592D01*
X142113000Y-123941408D01*
X142059314Y-123671510D01*
X141954005Y-123417273D01*
X141801120Y-123188465D01*
X141606535Y-122993880D01*
X141377727Y-122840995D01*
X141300485Y-122809000D01*
X141377727Y-122777005D01*
X141606535Y-122624120D01*
X141801120Y-122429535D01*
X141954005Y-122200727D01*
X142059314Y-121946490D01*
X142113000Y-121676592D01*
X142113000Y-121401408D01*
X142059314Y-121131510D01*
X141954005Y-120877273D01*
X141801120Y-120648465D01*
X141606535Y-120453880D01*
X141377727Y-120300995D01*
X141300485Y-120269000D01*
X141377727Y-120237005D01*
X141606535Y-120084120D01*
X141801120Y-119889535D01*
X141954005Y-119660727D01*
X142059314Y-119406490D01*
X142113000Y-119136592D01*
X142113000Y-118861408D01*
X142059314Y-118591510D01*
X141954005Y-118337273D01*
X141801120Y-118108465D01*
X141606535Y-117913880D01*
X141377727Y-117760995D01*
X141300485Y-117729000D01*
X141377727Y-117697005D01*
X141606535Y-117544120D01*
X141801120Y-117349535D01*
X141954005Y-117120727D01*
X142059314Y-116866490D01*
X142113000Y-116596592D01*
X142113000Y-116321408D01*
X142059314Y-116051510D01*
X141954005Y-115797273D01*
X141801120Y-115568465D01*
X141606535Y-115373880D01*
X141377727Y-115220995D01*
X141300485Y-115189000D01*
X141377727Y-115157005D01*
X141606535Y-115004120D01*
X141801120Y-114809535D01*
X141954005Y-114580727D01*
X142059314Y-114326490D01*
X142113000Y-114056592D01*
X142113000Y-113781408D01*
X142059314Y-113511510D01*
X141954005Y-113257273D01*
X141801120Y-113028465D01*
X141606535Y-112833880D01*
X141377727Y-112680995D01*
X141300485Y-112649000D01*
X141377727Y-112617005D01*
X141606535Y-112464120D01*
X141801120Y-112269535D01*
X141954005Y-112040727D01*
X142059314Y-111786490D01*
X142113000Y-111516592D01*
X142113000Y-111241408D01*
X142059314Y-110971510D01*
X141954005Y-110717273D01*
X141801120Y-110488465D01*
X141606535Y-110293880D01*
X141377727Y-110140995D01*
X141300485Y-110109000D01*
X141377727Y-110077005D01*
X141606535Y-109924120D01*
X141801120Y-109729535D01*
X141954005Y-109500727D01*
X142059314Y-109246490D01*
X142113000Y-108976592D01*
X142113000Y-108701408D01*
X142059314Y-108431510D01*
X141954005Y-108177273D01*
X141801120Y-107948465D01*
X141606535Y-107753880D01*
X141377727Y-107600995D01*
X141300485Y-107569000D01*
X141377727Y-107537005D01*
X141606535Y-107384120D01*
X141801120Y-107189535D01*
X141954005Y-106960727D01*
X142059314Y-106706490D01*
X142113000Y-106436592D01*
X142113000Y-106161408D01*
X142059314Y-105891510D01*
X141954005Y-105637273D01*
X141801120Y-105408465D01*
X141606535Y-105213880D01*
X141377727Y-105060995D01*
X141123490Y-104955686D01*
X140853592Y-104902000D01*
X140578408Y-104902000D01*
X140308510Y-104955686D01*
X140077000Y-105051581D01*
X140077000Y-103869264D01*
X140157444Y-103989657D01*
X140485343Y-104317556D01*
X140870911Y-104575185D01*
X141299332Y-104752642D01*
X141754140Y-104843109D01*
X142217860Y-104843109D01*
X142672668Y-104752642D01*
X143101089Y-104575185D01*
X143486657Y-104317556D01*
X143814556Y-103989657D01*
X144072185Y-103604089D01*
X144249642Y-103175668D01*
X144340109Y-102720860D01*
X144340109Y-102257140D01*
X144249642Y-101802332D01*
X144072185Y-101373911D01*
X143814556Y-100988343D01*
X143486657Y-100660444D01*
X143101089Y-100402815D01*
X142672668Y-100225358D01*
X142217860Y-100134891D01*
X141754140Y-100134891D01*
X141299332Y-100225358D01*
X140870911Y-100402815D01*
X140485343Y-100660444D01*
X140157444Y-100988343D01*
X140065418Y-101126069D01*
X140077000Y-101008477D01*
X140077000Y-101008476D01*
X140081282Y-100965000D01*
X140077000Y-100921523D01*
X140077000Y-92753477D01*
X140081282Y-92710000D01*
X140064195Y-92536510D01*
X140013589Y-92369687D01*
X139931411Y-92215941D01*
X139820817Y-92081183D01*
X139686059Y-91970589D01*
X139532313Y-91888411D01*
X139365490Y-91837805D01*
X139235477Y-91825000D01*
X139235476Y-91825000D01*
X139192000Y-91820718D01*
X139148523Y-91825000D01*
X138600476Y-91825000D01*
X138557000Y-91820718D01*
X138513523Y-91825000D01*
X138383510Y-91837805D01*
X138216687Y-91888411D01*
X138062941Y-91970589D01*
X137928183Y-92081183D01*
X137817589Y-92215941D01*
X137735411Y-92369687D01*
X137684805Y-92536510D01*
X137667718Y-92710000D01*
X137672000Y-92753477D01*
X137672000Y-93761509D01*
X137438184Y-93715000D01*
X137135816Y-93715000D01*
X136839257Y-93773989D01*
X136559905Y-93889701D01*
X136308495Y-94057688D01*
X136094688Y-94271495D01*
X135926701Y-94522905D01*
X135810989Y-94802257D01*
X135752000Y-95098816D01*
X135752000Y-95401184D01*
X135798509Y-95635000D01*
X131991000Y-95635000D01*
X131991000Y-95514665D01*
X131935853Y-95237426D01*
X131827680Y-94976273D01*
X131670637Y-94741241D01*
X131470759Y-94541363D01*
X131235727Y-94384320D01*
X130974574Y-94276147D01*
X130697335Y-94221000D01*
X130414665Y-94221000D01*
X130137426Y-94276147D01*
X129876273Y-94384320D01*
X129641241Y-94541363D01*
X129441363Y-94741241D01*
X129284320Y-94976273D01*
X129176147Y-95237426D01*
X129121000Y-95514665D01*
X129121000Y-95797335D01*
X129176147Y-96074574D01*
X129284320Y-96335727D01*
X129441363Y-96570759D01*
X129480500Y-96609896D01*
X129480500Y-97111523D01*
X129476218Y-97155000D01*
X129484412Y-97238192D01*
X129441363Y-97281241D01*
X129284320Y-97516273D01*
X129176147Y-97777426D01*
X129121000Y-98054665D01*
X129121000Y-98337335D01*
X129176147Y-98614574D01*
X129284320Y-98875727D01*
X129441363Y-99110759D01*
X129641241Y-99310637D01*
X129876273Y-99467680D01*
X130137426Y-99575853D01*
X130414665Y-99631000D01*
X130697335Y-99631000D01*
X130974574Y-99575853D01*
X131235727Y-99467680D01*
X131470759Y-99310637D01*
X131670637Y-99110759D01*
X131827680Y-98875727D01*
X131935853Y-98614574D01*
X131991000Y-98337335D01*
X131991000Y-98054665D01*
X131988083Y-98040000D01*
X133258509Y-98040000D01*
X133212000Y-98273816D01*
X133212000Y-98576184D01*
X133270989Y-98872743D01*
X133386701Y-99152095D01*
X133554688Y-99403505D01*
X133768495Y-99617312D01*
X134019905Y-99785299D01*
X134299257Y-99901011D01*
X134595816Y-99960000D01*
X134898184Y-99960000D01*
X135194743Y-99901011D01*
X135474095Y-99785299D01*
X135725505Y-99617312D01*
X135791944Y-99550873D01*
X135797498Y-99569180D01*
X135856463Y-99679494D01*
X135935815Y-99776185D01*
X136032506Y-99855537D01*
X136142820Y-99914502D01*
X136262518Y-99950812D01*
X136387000Y-99963072D01*
X137672000Y-99963072D01*
X137672000Y-100921523D01*
X137667718Y-100965000D01*
X137684805Y-101138490D01*
X137735411Y-101305313D01*
X137817589Y-101459059D01*
X137895514Y-101554010D01*
X137928183Y-101593817D01*
X138062941Y-101704411D01*
X138216687Y-101786589D01*
X138383510Y-101837195D01*
X138557000Y-101854282D01*
X138600476Y-101850000D01*
X139148524Y-101850000D01*
X139192000Y-101854282D01*
X139365490Y-101837195D01*
X139532313Y-101786589D01*
X139686059Y-101704411D01*
X139802501Y-101608849D01*
X139722358Y-101802332D01*
X139659850Y-102116580D01*
X139532313Y-102048411D01*
X139365490Y-101997805D01*
X139235477Y-101985000D01*
X139235476Y-101985000D01*
X139192000Y-101980718D01*
X139148523Y-101985000D01*
X138600476Y-101985000D01*
X138557000Y-101980718D01*
X138513523Y-101985000D01*
X138383510Y-101997805D01*
X138216687Y-102048411D01*
X138062941Y-102130589D01*
X137928183Y-102241183D01*
X137817589Y-102375941D01*
X137735411Y-102529687D01*
X137684805Y-102696510D01*
X137667718Y-102870000D01*
X137672000Y-102913477D01*
X137672000Y-103921509D01*
X137438184Y-103875000D01*
X137135816Y-103875000D01*
X136839257Y-103933989D01*
X136559905Y-104049701D01*
X136308495Y-104217688D01*
X136094688Y-104431495D01*
X135926701Y-104682905D01*
X135810989Y-104962257D01*
X135752000Y-105258816D01*
X135752000Y-105561184D01*
X135798509Y-105795000D01*
X131991000Y-105795000D01*
X131991000Y-105674665D01*
X131935853Y-105397426D01*
X131827680Y-105136273D01*
X131670637Y-104901241D01*
X131470759Y-104701363D01*
X131235727Y-104544320D01*
X130974574Y-104436147D01*
X130697335Y-104381000D01*
X130414665Y-104381000D01*
X130137426Y-104436147D01*
X129876273Y-104544320D01*
X129641241Y-104701363D01*
X129441363Y-104901241D01*
X129284320Y-105136273D01*
X129176147Y-105397426D01*
X129121000Y-105674665D01*
X129121000Y-105957335D01*
X129176147Y-106234574D01*
X129284320Y-106495727D01*
X129441363Y-106730759D01*
X129544000Y-106833396D01*
X129544000Y-107271523D01*
X129539718Y-107315000D01*
X129542218Y-107340386D01*
X129441363Y-107441241D01*
X129284320Y-107676273D01*
X129176147Y-107937426D01*
X129121000Y-108214665D01*
X129121000Y-108497335D01*
X129176147Y-108774574D01*
X129284320Y-109035727D01*
X129441363Y-109270759D01*
X129641241Y-109470637D01*
X129876273Y-109627680D01*
X130137426Y-109735853D01*
X130414665Y-109791000D01*
X130697335Y-109791000D01*
X130974574Y-109735853D01*
X131235727Y-109627680D01*
X131470759Y-109470637D01*
X131670637Y-109270759D01*
X131827680Y-109035727D01*
X131935853Y-108774574D01*
X131991000Y-108497335D01*
X131991000Y-108214665D01*
X131988083Y-108200000D01*
X133258509Y-108200000D01*
X133212000Y-108433816D01*
X133212000Y-108736184D01*
X133270989Y-109032743D01*
X133386701Y-109312095D01*
X133554688Y-109563505D01*
X133768495Y-109777312D01*
X134019905Y-109945299D01*
X134299257Y-110061011D01*
X134595816Y-110120000D01*
X134898184Y-110120000D01*
X135194743Y-110061011D01*
X135474095Y-109945299D01*
X135725505Y-109777312D01*
X135791944Y-109710873D01*
X135797498Y-109729180D01*
X135856463Y-109839494D01*
X135935815Y-109936185D01*
X136032506Y-110015537D01*
X136142820Y-110074502D01*
X136262518Y-110110812D01*
X136387000Y-110123072D01*
X137672000Y-110123072D01*
X137672000Y-111081523D01*
X137667718Y-111125000D01*
X137684805Y-111298490D01*
X137735411Y-111465313D01*
X137817589Y-111619059D01*
X137895514Y-111714010D01*
X137928183Y-111753817D01*
X138062941Y-111864411D01*
X138216687Y-111946589D01*
X138383510Y-111997195D01*
X138557000Y-112014282D01*
X138600476Y-112010000D01*
X139148524Y-112010000D01*
X139192000Y-112014282D01*
X139365490Y-111997195D01*
X139449418Y-111971735D01*
X139477995Y-112040727D01*
X139622108Y-112256407D01*
X139532313Y-112208411D01*
X139365490Y-112157805D01*
X139235477Y-112145000D01*
X139235476Y-112145000D01*
X139192000Y-112140718D01*
X139148523Y-112145000D01*
X138600476Y-112145000D01*
X138557000Y-112140718D01*
X138513523Y-112145000D01*
X138383510Y-112157805D01*
X138216687Y-112208411D01*
X138062941Y-112290589D01*
X137928183Y-112401183D01*
X137817589Y-112535941D01*
X137735411Y-112689687D01*
X137684805Y-112856510D01*
X137667718Y-113030000D01*
X137672000Y-113073477D01*
X137672000Y-114081509D01*
X137438184Y-114035000D01*
X137135816Y-114035000D01*
X136839257Y-114093989D01*
X136559905Y-114209701D01*
X136308495Y-114377688D01*
X136094688Y-114591495D01*
X135926701Y-114842905D01*
X135810989Y-115122257D01*
X135752000Y-115418816D01*
X135752000Y-115721184D01*
X135798509Y-115955000D01*
X131991000Y-115955000D01*
X131991000Y-115834665D01*
X131935853Y-115557426D01*
X131827680Y-115296273D01*
X131670637Y-115061241D01*
X131470759Y-114861363D01*
X131235727Y-114704320D01*
X130974574Y-114596147D01*
X130697335Y-114541000D01*
X130414665Y-114541000D01*
X130137426Y-114596147D01*
X129876273Y-114704320D01*
X129641241Y-114861363D01*
X129441363Y-115061241D01*
X129284320Y-115296273D01*
X129176147Y-115557426D01*
X129121000Y-115834665D01*
X129121000Y-116117335D01*
X129176147Y-116394574D01*
X129284320Y-116655727D01*
X129441363Y-116890759D01*
X129480500Y-116929896D01*
X129480500Y-117431523D01*
X129476218Y-117475000D01*
X129484412Y-117558192D01*
X129441363Y-117601241D01*
X129284320Y-117836273D01*
X129176147Y-118097426D01*
X129121000Y-118374665D01*
X129121000Y-118657335D01*
X129176147Y-118934574D01*
X129284320Y-119195727D01*
X129441363Y-119430759D01*
X129641241Y-119630637D01*
X129876273Y-119787680D01*
X130137426Y-119895853D01*
X130414665Y-119951000D01*
X130697335Y-119951000D01*
X130974574Y-119895853D01*
X131235727Y-119787680D01*
X131470759Y-119630637D01*
X131670637Y-119430759D01*
X131827680Y-119195727D01*
X131935853Y-118934574D01*
X131991000Y-118657335D01*
X131991000Y-118374665D01*
X131988083Y-118360000D01*
X133258509Y-118360000D01*
X133212000Y-118593816D01*
X133212000Y-118896184D01*
X133270989Y-119192743D01*
X133386701Y-119472095D01*
X133554688Y-119723505D01*
X133768495Y-119937312D01*
X134019905Y-120105299D01*
X134299257Y-120221011D01*
X134595816Y-120280000D01*
X134898184Y-120280000D01*
X135194743Y-120221011D01*
X135474095Y-120105299D01*
X135725505Y-119937312D01*
X135791944Y-119870873D01*
X135797498Y-119889180D01*
X135856463Y-119999494D01*
X135935815Y-120096185D01*
X136032506Y-120175537D01*
X136142820Y-120234502D01*
X136262518Y-120270812D01*
X136387000Y-120283072D01*
X137672000Y-120283072D01*
X137672000Y-121241523D01*
X137667718Y-121285000D01*
X137684805Y-121458490D01*
X137735411Y-121625313D01*
X137817589Y-121779059D01*
X137861468Y-121832525D01*
X137928183Y-121913817D01*
X138062941Y-122024411D01*
X138216687Y-122106589D01*
X138383510Y-122157195D01*
X138557000Y-122174282D01*
X138600476Y-122170000D01*
X139148524Y-122170000D01*
X139192000Y-122174282D01*
X139365490Y-122157195D01*
X139449418Y-122131735D01*
X139477995Y-122200727D01*
X139622108Y-122416407D01*
X139610933Y-122410434D01*
X139536043Y-122369966D01*
X139534103Y-122369368D01*
X139532313Y-122368411D01*
X139450772Y-122343675D01*
X139369452Y-122318603D01*
X139367435Y-122318395D01*
X139365490Y-122317805D01*
X139280708Y-122309455D01*
X139196042Y-122300727D01*
X139150540Y-122305000D01*
X138600476Y-122305000D01*
X138557000Y-122300718D01*
X138513523Y-122305000D01*
X138383510Y-122317805D01*
X138216687Y-122368411D01*
X138062941Y-122450589D01*
X137928183Y-122561183D01*
X137817589Y-122695941D01*
X137735411Y-122849687D01*
X137684805Y-123016510D01*
X137667718Y-123190000D01*
X137672000Y-123233477D01*
X137672000Y-124241509D01*
X137438184Y-124195000D01*
X137135816Y-124195000D01*
X136839257Y-124253989D01*
X136559905Y-124369701D01*
X136308495Y-124537688D01*
X136094688Y-124751495D01*
X135926701Y-125002905D01*
X135810989Y-125282257D01*
X135752000Y-125578816D01*
X135752000Y-125881184D01*
X135798509Y-126115000D01*
X131991000Y-126115000D01*
X131991000Y-125994665D01*
X131935853Y-125717426D01*
X131827680Y-125456273D01*
X131670637Y-125221241D01*
X131470759Y-125021363D01*
X131235727Y-124864320D01*
X130974574Y-124756147D01*
X130697335Y-124701000D01*
X130414665Y-124701000D01*
X130137426Y-124756147D01*
X129876273Y-124864320D01*
X129641241Y-125021363D01*
X129441363Y-125221241D01*
X129284320Y-125456273D01*
X129176147Y-125717426D01*
X129121000Y-125994665D01*
X129121000Y-126115000D01*
X128615491Y-126115000D01*
X128662000Y-125881184D01*
X128662000Y-125578816D01*
X128603011Y-125282257D01*
X128487299Y-125002905D01*
X128319312Y-124751495D01*
X128105505Y-124537688D01*
X127854095Y-124369701D01*
X127574743Y-124253989D01*
X127278184Y-124195000D01*
X126975816Y-124195000D01*
X126679257Y-124253989D01*
X126399905Y-124369701D01*
X126148495Y-124537688D01*
X125934688Y-124751495D01*
X125766701Y-125002905D01*
X125650989Y-125282257D01*
X125592000Y-125578816D01*
X125592000Y-125881184D01*
X125638509Y-126115000D01*
X124630281Y-126115000D01*
X124513045Y-126103505D01*
X124441906Y-126082027D01*
X124376294Y-126047140D01*
X124318706Y-126000173D01*
X124271338Y-125942915D01*
X124235995Y-125877549D01*
X124214020Y-125806560D01*
X124202000Y-125692192D01*
X124202000Y-120233491D01*
X124435816Y-120280000D01*
X124738184Y-120280000D01*
X125034743Y-120221011D01*
X125314095Y-120105299D01*
X125565505Y-119937312D01*
X125631944Y-119870873D01*
X125637498Y-119889180D01*
X125696463Y-119999494D01*
X125775815Y-120096185D01*
X125872506Y-120175537D01*
X125982820Y-120234502D01*
X126102518Y-120270812D01*
X126227000Y-120283072D01*
X128027000Y-120283072D01*
X128151482Y-120270812D01*
X128271180Y-120234502D01*
X128381494Y-120175537D01*
X128478185Y-120096185D01*
X128557537Y-119999494D01*
X128616502Y-119889180D01*
X128652812Y-119769482D01*
X128665072Y-119645000D01*
X128665072Y-118267320D01*
X128764059Y-118214411D01*
X128898817Y-118103817D01*
X129009411Y-117969059D01*
X129091589Y-117815313D01*
X129142195Y-117648490D01*
X129145300Y-117616965D01*
X129155000Y-117518477D01*
X129155000Y-117518476D01*
X129159282Y-117475000D01*
X129155000Y-117431523D01*
X129155000Y-116883477D01*
X129159282Y-116840000D01*
X129145411Y-116699158D01*
X129142195Y-116666510D01*
X129091589Y-116499687D01*
X129009411Y-116345941D01*
X128898817Y-116211183D01*
X128764059Y-116100589D01*
X128610313Y-116018411D01*
X128603301Y-116016284D01*
X128662000Y-115721184D01*
X128662000Y-115418816D01*
X128603011Y-115122257D01*
X128487299Y-114842905D01*
X128319312Y-114591495D01*
X128105505Y-114377688D01*
X127854095Y-114209701D01*
X127574743Y-114093989D01*
X127278184Y-114035000D01*
X126975816Y-114035000D01*
X126679257Y-114093989D01*
X126399905Y-114209701D01*
X126148495Y-114377688D01*
X125934688Y-114591495D01*
X125766701Y-114842905D01*
X125650989Y-115122257D01*
X125592000Y-115418816D01*
X125592000Y-115721184D01*
X125638509Y-115955000D01*
X124630281Y-115955000D01*
X124513045Y-115943505D01*
X124441906Y-115922027D01*
X124376294Y-115887140D01*
X124318706Y-115840173D01*
X124271338Y-115782915D01*
X124235995Y-115717549D01*
X124214020Y-115646560D01*
X124202000Y-115532192D01*
X124202000Y-110073491D01*
X124435816Y-110120000D01*
X124738184Y-110120000D01*
X125034743Y-110061011D01*
X125314095Y-109945299D01*
X125565505Y-109777312D01*
X125631944Y-109710873D01*
X125637498Y-109729180D01*
X125696463Y-109839494D01*
X125775815Y-109936185D01*
X125872506Y-110015537D01*
X125982820Y-110074502D01*
X126102518Y-110110812D01*
X126227000Y-110123072D01*
X128027000Y-110123072D01*
X128151482Y-110110812D01*
X128271180Y-110074502D01*
X128381494Y-110015537D01*
X128478185Y-109936185D01*
X128557537Y-109839494D01*
X128616502Y-109729180D01*
X128652812Y-109609482D01*
X128665072Y-109485000D01*
X128665072Y-108158503D01*
X128737313Y-108136589D01*
X128891059Y-108054411D01*
X129025817Y-107943817D01*
X129136411Y-107809059D01*
X129218589Y-107655313D01*
X129269195Y-107488490D01*
X129272300Y-107456965D01*
X129282000Y-107358477D01*
X129282000Y-107358476D01*
X129286282Y-107315000D01*
X129282000Y-107271523D01*
X129282000Y-106723477D01*
X129286282Y-106680000D01*
X129272411Y-106539158D01*
X129269195Y-106506510D01*
X129218589Y-106339687D01*
X129136411Y-106185941D01*
X129025817Y-106051183D01*
X128891059Y-105940589D01*
X128737313Y-105858411D01*
X128610528Y-105819951D01*
X128662000Y-105561184D01*
X128662000Y-105258816D01*
X128603011Y-104962257D01*
X128487299Y-104682905D01*
X128319312Y-104431495D01*
X128105505Y-104217688D01*
X127854095Y-104049701D01*
X127574743Y-103933989D01*
X127278184Y-103875000D01*
X126975816Y-103875000D01*
X126679257Y-103933989D01*
X126399905Y-104049701D01*
X126148495Y-104217688D01*
X125934688Y-104431495D01*
X125766701Y-104682905D01*
X125650989Y-104962257D01*
X125592000Y-105258816D01*
X125592000Y-105561184D01*
X125638509Y-105795000D01*
X124630281Y-105795000D01*
X124513045Y-105783505D01*
X124441906Y-105762027D01*
X124376294Y-105727140D01*
X124318706Y-105680173D01*
X124271338Y-105622915D01*
X124235995Y-105557549D01*
X124214020Y-105486560D01*
X124202000Y-105372192D01*
X124202000Y-99913491D01*
X124435816Y-99960000D01*
X124738184Y-99960000D01*
X125034743Y-99901011D01*
X125314095Y-99785299D01*
X125565505Y-99617312D01*
X125631944Y-99550873D01*
X125637498Y-99569180D01*
X125696463Y-99679494D01*
X125775815Y-99776185D01*
X125872506Y-99855537D01*
X125982820Y-99914502D01*
X126102518Y-99950812D01*
X126227000Y-99963072D01*
X128027000Y-99963072D01*
X128151482Y-99950812D01*
X128271180Y-99914502D01*
X128381494Y-99855537D01*
X128478185Y-99776185D01*
X128557537Y-99679494D01*
X128616502Y-99569180D01*
X128652812Y-99449482D01*
X128665072Y-99325000D01*
X128665072Y-97947320D01*
X128764059Y-97894411D01*
X128898817Y-97783817D01*
X129009411Y-97649059D01*
X129091589Y-97495313D01*
X129142195Y-97328490D01*
X129145300Y-97296965D01*
X129155000Y-97198477D01*
X129155000Y-97198476D01*
X129159282Y-97155000D01*
X129155000Y-97111523D01*
X129155000Y-96563477D01*
X129159282Y-96520000D01*
X129145411Y-96379158D01*
X129142195Y-96346510D01*
X129091589Y-96179687D01*
X129009411Y-96025941D01*
X128898817Y-95891183D01*
X128764059Y-95780589D01*
X128610313Y-95698411D01*
X128603301Y-95696284D01*
X128662000Y-95401184D01*
X128662000Y-95098816D01*
X128603011Y-94802257D01*
X128487299Y-94522905D01*
X128319312Y-94271495D01*
X128105505Y-94057688D01*
X127854095Y-93889701D01*
X127574743Y-93773989D01*
X127278184Y-93715000D01*
X126975816Y-93715000D01*
X126679257Y-93773989D01*
X126399905Y-93889701D01*
X126148495Y-94057688D01*
X125934688Y-94271495D01*
X125766701Y-94522905D01*
X125650989Y-94802257D01*
X125592000Y-95098816D01*
X125592000Y-95401184D01*
X125638509Y-95635000D01*
X124630281Y-95635000D01*
X124513045Y-95623505D01*
X124441906Y-95602027D01*
X124376294Y-95567140D01*
X124318706Y-95520173D01*
X124271338Y-95462915D01*
X124235995Y-95397549D01*
X124214020Y-95326560D01*
X124202000Y-95212192D01*
X124202000Y-89753491D01*
X124435816Y-89800000D01*
X124738184Y-89800000D01*
X125034743Y-89741011D01*
X125314095Y-89625299D01*
X125565505Y-89457312D01*
X125631944Y-89390873D01*
X125637498Y-89409180D01*
X125696463Y-89519494D01*
X125775815Y-89616185D01*
X125872506Y-89695537D01*
X125982820Y-89754502D01*
X126102518Y-89790812D01*
X126227000Y-89803072D01*
X128027000Y-89803072D01*
X128151482Y-89790812D01*
X128271180Y-89754502D01*
X128381494Y-89695537D01*
X128478185Y-89616185D01*
X128557537Y-89519494D01*
X128616502Y-89409180D01*
X128652812Y-89289482D01*
X128665072Y-89165000D01*
X128665072Y-87787320D01*
X128764059Y-87734411D01*
X128898817Y-87623817D01*
X129009411Y-87489059D01*
X129091589Y-87335313D01*
X129142195Y-87168490D01*
X129145300Y-87136965D01*
X129155000Y-87038477D01*
X129155000Y-87038476D01*
X129159282Y-86995000D01*
X129155000Y-86951523D01*
X129155000Y-86403477D01*
X129159282Y-86360000D01*
X129145411Y-86219158D01*
X129142195Y-86186510D01*
X129091589Y-86019687D01*
X129009411Y-85865941D01*
X128898817Y-85731183D01*
X128764059Y-85620589D01*
X128610313Y-85538411D01*
X128603301Y-85536284D01*
X128662000Y-85241184D01*
X128662000Y-84938816D01*
X128603011Y-84642257D01*
X128487299Y-84362905D01*
X128319312Y-84111495D01*
X128105505Y-83897688D01*
X127854095Y-83729701D01*
X127574743Y-83613989D01*
X127278184Y-83555000D01*
X126975816Y-83555000D01*
X126679257Y-83613989D01*
X126399905Y-83729701D01*
X126148495Y-83897688D01*
X125934688Y-84111495D01*
X125766701Y-84362905D01*
X125650989Y-84642257D01*
X125592000Y-84938816D01*
X125592000Y-85241184D01*
X125638509Y-85475000D01*
X124630281Y-85475000D01*
X124513045Y-85463505D01*
X124441906Y-85442027D01*
X124376294Y-85407140D01*
X124318706Y-85360173D01*
X124271338Y-85302915D01*
X124235995Y-85237549D01*
X124214020Y-85166560D01*
X124202000Y-85052192D01*
X124202000Y-79593491D01*
X124435816Y-79640000D01*
X124738184Y-79640000D01*
X125034743Y-79581011D01*
X125314095Y-79465299D01*
X125565505Y-79297312D01*
X125631944Y-79230873D01*
X125637498Y-79249180D01*
X125696463Y-79359494D01*
X125775815Y-79456185D01*
X125872506Y-79535537D01*
X125982820Y-79594502D01*
X126102518Y-79630812D01*
X126227000Y-79643072D01*
X128027000Y-79643072D01*
X128151482Y-79630812D01*
X128271180Y-79594502D01*
X128381494Y-79535537D01*
X128478185Y-79456185D01*
X128557537Y-79359494D01*
X128616502Y-79249180D01*
X128652812Y-79129482D01*
X128665072Y-79005000D01*
X128665072Y-77720000D01*
X129121000Y-77720000D01*
X129121000Y-77865335D01*
X129176147Y-78142574D01*
X129284320Y-78403727D01*
X129441363Y-78638759D01*
X129641241Y-78838637D01*
X129876273Y-78995680D01*
X130137426Y-79103853D01*
X130414665Y-79159000D01*
X130697335Y-79159000D01*
X130974574Y-79103853D01*
X131235727Y-78995680D01*
X131470759Y-78838637D01*
X131670637Y-78638759D01*
X131827680Y-78403727D01*
X131935853Y-78142574D01*
X131991000Y-77865335D01*
X131991000Y-77720000D01*
X133258509Y-77720000D01*
X133212000Y-77953816D01*
X133212000Y-78256184D01*
X133270989Y-78552743D01*
X133386701Y-78832095D01*
X133554688Y-79083505D01*
X133768495Y-79297312D01*
X134019905Y-79465299D01*
X134299257Y-79581011D01*
X134595816Y-79640000D01*
X134898184Y-79640000D01*
X135194743Y-79581011D01*
X135474095Y-79465299D01*
X135725505Y-79297312D01*
X135791944Y-79230873D01*
X135797498Y-79249180D01*
X135856463Y-79359494D01*
X135935815Y-79456185D01*
X136032506Y-79535537D01*
X136142820Y-79594502D01*
X136262518Y-79630812D01*
X136387000Y-79643072D01*
X137672000Y-79643072D01*
X137672000Y-80601523D01*
X137667718Y-80645000D01*
X137684805Y-80818490D01*
X137735411Y-80985313D01*
X137817589Y-81139059D01*
X137913561Y-81256000D01*
X137928183Y-81273817D01*
X138062941Y-81384411D01*
X138216687Y-81466589D01*
X138383510Y-81517195D01*
X138557000Y-81534282D01*
X138600476Y-81530000D01*
X139148524Y-81530000D01*
X139192000Y-81534282D01*
X139365490Y-81517195D01*
X139532313Y-81466589D01*
X139686059Y-81384411D01*
X139820817Y-81273817D01*
X139931411Y-81139059D01*
X140013589Y-80985313D01*
X140064195Y-80818490D01*
X140077000Y-80688477D01*
X140077000Y-80688476D01*
X140081282Y-80645000D01*
X140077000Y-80601523D01*
X140077000Y-78148281D01*
X140088495Y-78031045D01*
X140109974Y-77959905D01*
X140144859Y-77894294D01*
X140191828Y-77836705D01*
X140249082Y-77789340D01*
X140314451Y-77753996D01*
X140385441Y-77732020D01*
X140499992Y-77719981D01*
X142556304Y-77718983D01*
X142542188Y-77765518D01*
G37*
%TD.AperFunction*%
%TD*%
M02*
