%TF.GenerationSoftware,KiCad,Pcbnew,5.1.9+dfsg1-1*%
%TF.CreationDate,2022-03-08T22:31:31+00:00*%
%TF.ProjectId,guante metaversal,6775616e-7465-4206-9d65-746176657273,rev?*%
%TF.SameCoordinates,Original*%
%TF.FileFunction,Soldermask,Top*%
%TF.FilePolarity,Negative*%
%FSLAX46Y46*%
G04 Gerber Fmt 4.6, Leading zero omitted, Abs format (unit mm)*
G04 Created by KiCad (PCBNEW 5.1.9+dfsg1-1) date 2022-03-08 22:31:31*
%MOMM*%
%LPD*%
G01*
G04 APERTURE LIST*
%ADD10R,1.700000X1.700000*%
%ADD11O,1.700000X1.700000*%
%ADD12C,1.600000*%
%ADD13O,1.600000X1.600000*%
%ADD14C,1.524000*%
%ADD15C,1.800000*%
%ADD16R,1.800000X1.800000*%
%ADD17C,0.200000*%
%ADD18C,2.000000*%
%ADD19R,1.600000X1.600000*%
G04 APERTURE END LIST*
D10*
%TO.C,U7*%
X173228000Y-125730000D03*
D11*
X173228000Y-123190000D03*
X173228000Y-120650000D03*
X173228000Y-118110000D03*
X173228000Y-115570000D03*
X173228000Y-113030000D03*
X173228000Y-110490000D03*
X173228000Y-107950000D03*
X173228000Y-105410000D03*
X173228000Y-102870000D03*
%TD*%
D12*
%TO.C,R16*%
X130556000Y-118516000D03*
D13*
X130556000Y-126136000D03*
%TD*%
D12*
%TO.C,R16*%
X130556000Y-108356000D03*
D13*
X130556000Y-115976000D03*
%TD*%
D12*
%TO.C,R16*%
X130556000Y-98196000D03*
D13*
X130556000Y-105816000D03*
%TD*%
D12*
%TO.C,R16*%
X130556000Y-88036000D03*
D13*
X130556000Y-95656000D03*
%TD*%
D11*
%TO.C,J1*%
X183311800Y-105841800D03*
X180771800Y-105841800D03*
X183311800Y-108381800D03*
X180771800Y-108381800D03*
X183311800Y-110921800D03*
X180771800Y-110921800D03*
X183311800Y-113461800D03*
X180771800Y-113461800D03*
X183311800Y-116001800D03*
X180771800Y-116001800D03*
X183311800Y-118541800D03*
X180771800Y-118541800D03*
X183311800Y-121081800D03*
X180771800Y-121081800D03*
X183311800Y-123621800D03*
D10*
X180771800Y-123621800D03*
%TD*%
D14*
%TO.C,U2*%
X140716000Y-108839000D03*
X140716000Y-111379000D03*
X140716000Y-113919000D03*
X140716000Y-116459000D03*
X140716000Y-118999000D03*
X140716000Y-121539000D03*
X140716000Y-124079000D03*
X140716000Y-126619000D03*
X140716000Y-129159000D03*
X140716000Y-131699000D03*
X140716000Y-134239000D03*
X140716000Y-136779000D03*
X140716000Y-139319000D03*
X140716000Y-141859000D03*
X166116000Y-141859000D03*
X166116000Y-139319000D03*
X166116000Y-136779000D03*
X166116000Y-134239000D03*
X166116000Y-131699000D03*
X166116000Y-129159000D03*
X166116000Y-126619000D03*
X166116000Y-124079000D03*
X166116000Y-121539000D03*
X166116000Y-118999000D03*
X166116000Y-116459000D03*
X166116000Y-113919000D03*
X166116000Y-111379000D03*
X166116000Y-108839000D03*
X140716000Y-106299000D03*
X166116000Y-106299000D03*
%TD*%
D10*
%TO.C,TP2*%
X132842000Y-95250000D03*
%TD*%
D15*
%TO.C,D3*%
X137287000Y-95250000D03*
D16*
X134747000Y-95250000D03*
%TD*%
%TO.C,D1*%
X124587000Y-95250000D03*
D15*
X127127000Y-95250000D03*
%TD*%
D10*
%TO.C,TP2*%
X132842000Y-105410000D03*
%TD*%
D16*
%TO.C,D3*%
X134747000Y-105410000D03*
D15*
X137287000Y-105410000D03*
%TD*%
%TO.C,D1*%
X127127000Y-105410000D03*
D16*
X124587000Y-105410000D03*
%TD*%
D15*
%TO.C,D2*%
X124587000Y-88265000D03*
D16*
X127127000Y-88265000D03*
%TD*%
%TO.C,D4*%
X137287000Y-88265000D03*
D15*
X134747000Y-88265000D03*
%TD*%
D16*
%TO.C,D2*%
X127127000Y-98425000D03*
D15*
X124587000Y-98425000D03*
%TD*%
%TO.C,D4*%
X134747000Y-98425000D03*
D16*
X137287000Y-98425000D03*
%TD*%
D15*
%TO.C,D4*%
X134747000Y-108585000D03*
D16*
X137287000Y-108585000D03*
%TD*%
%TO.C,D2*%
X127127000Y-108585000D03*
D15*
X124587000Y-108585000D03*
%TD*%
D10*
%TO.C,TP2*%
X132842000Y-125730000D03*
%TD*%
D15*
%TO.C,D3*%
X137287000Y-125730000D03*
D16*
X134747000Y-125730000D03*
%TD*%
%TO.C,D1*%
X124587000Y-125730000D03*
D15*
X127127000Y-125730000D03*
%TD*%
%TO.C,D2*%
X124587000Y-118745000D03*
D16*
X127127000Y-118745000D03*
%TD*%
%TO.C,D4*%
X137287000Y-118745000D03*
D15*
X134747000Y-118745000D03*
%TD*%
D16*
%TO.C,D3*%
X134747000Y-115570000D03*
D15*
X137287000Y-115570000D03*
%TD*%
D10*
%TO.C,TP2*%
X132842000Y-115570000D03*
%TD*%
D15*
%TO.C,D1*%
X127127000Y-115570000D03*
D16*
X124587000Y-115570000D03*
%TD*%
%TO.C,D2*%
X127127000Y-78105000D03*
D15*
X124587000Y-78105000D03*
%TD*%
%TO.C,D1*%
X127127000Y-85090000D03*
D16*
X124587000Y-85090000D03*
%TD*%
%TO.C,D3*%
X134747000Y-85090000D03*
D15*
X137287000Y-85090000D03*
%TD*%
%TO.C,D4*%
X134747000Y-78105000D03*
D16*
X137287000Y-78105000D03*
%TD*%
D10*
%TO.C,TP2*%
X132842000Y-85090000D03*
%TD*%
%TO.C,J3*%
X166116000Y-144399000D03*
D11*
X166116000Y-146939000D03*
%TD*%
%TO.C,J4*%
X140843000Y-146875500D03*
D10*
X140843000Y-144335500D03*
%TD*%
D17*
%TO.C,BZ1*%
G36*
X165263942Y-96996928D02*
G01*
X163849728Y-98411142D01*
X162435514Y-96996928D01*
X163849728Y-95582714D01*
X165263942Y-96996928D01*
G37*
D18*
X159359600Y-92506800D03*
%TD*%
D19*
%TO.C,C1*%
X165862000Y-102412800D03*
D12*
X163362000Y-102412800D03*
%TD*%
D10*
%TO.C,J1*%
X144018000Y-78740000D03*
D11*
X144018000Y-81280000D03*
X146558000Y-78740000D03*
X146558000Y-81280000D03*
X149098000Y-78740000D03*
X149098000Y-81280000D03*
X151638000Y-78740000D03*
X151638000Y-81280000D03*
X154178000Y-78740000D03*
X154178000Y-81280000D03*
X156718000Y-78740000D03*
X156718000Y-81280000D03*
X159258000Y-78740000D03*
X159258000Y-81280000D03*
X161798000Y-78740000D03*
X161798000Y-81280000D03*
%TD*%
D10*
%TO.C,U6*%
X164211000Y-85344000D03*
D11*
X161671000Y-85344000D03*
X159131000Y-85344000D03*
X156591000Y-85344000D03*
X154051000Y-85344000D03*
X151511000Y-85344000D03*
X148971000Y-85344000D03*
X146431000Y-85344000D03*
X143891000Y-85344000D03*
X141351000Y-85344000D03*
%TD*%
D10*
%TO.C,J5*%
X176530000Y-95631000D03*
D11*
X176530000Y-98171000D03*
X176530000Y-100711000D03*
X176530000Y-103251000D03*
X176530000Y-105791000D03*
X176530000Y-108331000D03*
X176530000Y-110871000D03*
X176530000Y-113411000D03*
X176530000Y-115951000D03*
X176530000Y-118491000D03*
X176530000Y-121031000D03*
X176530000Y-123571000D03*
X176530000Y-126111000D03*
X176530000Y-128651000D03*
X176530000Y-131191000D03*
X176530000Y-133731000D03*
%TD*%
D13*
%TO.C,R1*%
X145542000Y-108826300D03*
D12*
X153162000Y-108826300D03*
%TD*%
%TO.C,R2*%
X145542000Y-111379000D03*
D13*
X153162000Y-111379000D03*
%TD*%
%TO.C,R3*%
X153162000Y-113919000D03*
D12*
X145542000Y-113919000D03*
%TD*%
%TO.C,R4*%
X145542000Y-116459000D03*
D13*
X153162000Y-116459000D03*
%TD*%
D12*
%TO.C,R5*%
X145542000Y-118999000D03*
D13*
X153162000Y-118999000D03*
%TD*%
%TO.C,R6*%
X153162000Y-121539000D03*
D12*
X145542000Y-121539000D03*
%TD*%
%TO.C,R7*%
X145542000Y-124079000D03*
D13*
X153162000Y-124079000D03*
%TD*%
%TO.C,R8*%
X153162000Y-126619000D03*
D12*
X145542000Y-126619000D03*
%TD*%
%TO.C,R9*%
X145542000Y-129159000D03*
D13*
X153162000Y-129159000D03*
%TD*%
%TO.C,R10*%
X153162000Y-131699000D03*
D12*
X145542000Y-131699000D03*
%TD*%
%TO.C,R11*%
X158953200Y-123456700D03*
D13*
X158953200Y-131076700D03*
%TD*%
%TO.C,R16*%
X130556000Y-85344000D03*
D12*
X130556000Y-77724000D03*
%TD*%
D19*
%TO.C,C2*%
X182880000Y-99314000D03*
D12*
X185380000Y-99314000D03*
%TD*%
D10*
%TO.C,J6*%
X157480000Y-149860000D03*
D11*
X154940000Y-149860000D03*
X152400000Y-149860000D03*
X149860000Y-149860000D03*
%TD*%
D10*
%TO.C,M6*%
X149860000Y-136652000D03*
D11*
X149860000Y-139192000D03*
%TD*%
D10*
%TO.C,Q1*%
X159016700Y-134378700D03*
D11*
X159016700Y-136918700D03*
X159016700Y-139458700D03*
%TD*%
M02*
