M48
; DRILL file {KiCad 5.1.9+dfsg1-1} date Tue Mar  8 22:31:27 2022
; FORMAT={-:-/ absolute / metric / decimal}
; #@! TF.CreationDate,2022-03-08T22:31:27+00:00
; #@! TF.GenerationSoftware,Kicad,Pcbnew,5.1.9+dfsg1-1
; #@! TF.FileFunction,Plated,1,2,PTH
FMAT,2
METRIC
T1C0.762
T2C0.800
T3C0.900
T4C1.000
%
G90
G05
T1
X140.716Y-106.299
X140.716Y-108.839
X140.716Y-111.379
X140.716Y-113.919
X140.716Y-116.459
X140.716Y-118.999
X140.716Y-121.539
X140.716Y-124.079
X140.716Y-126.619
X140.716Y-129.159
X140.716Y-131.699
X140.716Y-134.239
X140.716Y-136.779
X140.716Y-139.319
X140.716Y-141.859
X166.116Y-106.299
X166.116Y-108.839
X166.116Y-111.379
X166.116Y-113.919
X166.116Y-116.459
X166.116Y-118.999
X166.116Y-121.539
X166.116Y-124.079
X166.116Y-126.619
X166.116Y-129.159
X166.116Y-131.699
X166.116Y-134.239
X166.116Y-136.779
X166.116Y-139.319
X166.116Y-141.859
T2
X130.556Y-77.724
X130.556Y-85.344
X130.556Y-88.036
X130.556Y-95.656
X130.556Y-98.196
X130.556Y-105.816
X130.556Y-108.356
X130.556Y-115.976
X130.556Y-118.516
X130.556Y-126.136
X145.542Y-108.826
X145.542Y-111.379
X145.542Y-113.919
X145.542Y-116.459
X145.542Y-118.999
X145.542Y-121.539
X145.542Y-124.079
X145.542Y-126.619
X145.542Y-129.159
X145.542Y-131.699
X153.162Y-108.826
X153.162Y-111.379
X153.162Y-113.919
X153.162Y-116.459
X153.162Y-118.999
X153.162Y-121.539
X153.162Y-124.079
X153.162Y-126.619
X153.162Y-129.159
X153.162Y-131.699
X158.953Y-123.457
X158.953Y-131.077
X163.362Y-102.413
X165.862Y-102.413
X182.88Y-99.314
X185.38Y-99.314
T3
X124.587Y-78.105
X124.587Y-85.09
X124.587Y-88.265
X124.587Y-95.25
X124.587Y-98.425
X124.587Y-105.41
X124.587Y-108.585
X124.587Y-115.57
X124.587Y-118.745
X124.587Y-125.73
X127.127Y-78.105
X127.127Y-85.09
X127.127Y-88.265
X127.127Y-95.25
X127.127Y-98.425
X127.127Y-105.41
X127.127Y-108.585
X127.127Y-115.57
X127.127Y-118.745
X127.127Y-125.73
X134.747Y-78.105
X134.747Y-85.09
X134.747Y-88.265
X134.747Y-95.25
X134.747Y-98.425
X134.747Y-105.41
X134.747Y-108.585
X134.747Y-115.57
X134.747Y-118.745
X134.747Y-125.73
X137.287Y-78.105
X137.287Y-85.09
X137.287Y-88.265
X137.287Y-95.25
X137.287Y-98.425
X137.287Y-105.41
X137.287Y-108.585
X137.287Y-115.57
X137.287Y-118.745
X137.287Y-125.73
T4
X132.842Y-85.09
X132.842Y-95.25
X132.842Y-105.41
X132.842Y-115.57
X132.842Y-125.73
X140.843Y-144.335
X140.843Y-146.875
X141.351Y-85.344
X143.891Y-85.344
X144.018Y-78.74
X144.018Y-81.28
X146.431Y-85.344
X146.558Y-78.74
X146.558Y-81.28
X148.971Y-85.344
X149.098Y-78.74
X149.098Y-81.28
X149.86Y-136.652
X149.86Y-139.192
X149.86Y-149.86
X151.511Y-85.344
X151.638Y-78.74
X151.638Y-81.28
X152.4Y-149.86
X154.051Y-85.344
X154.178Y-78.74
X154.178Y-81.28
X154.94Y-149.86
X156.591Y-85.344
X156.718Y-78.74
X156.718Y-81.28
X157.48Y-149.86
X159.017Y-134.379
X159.017Y-136.919
X159.017Y-139.459
X159.131Y-85.344
X159.258Y-78.74
X159.258Y-81.28
X159.36Y-92.507
X161.671Y-85.344
X161.798Y-78.74
X161.798Y-81.28
X163.85Y-96.997
X164.211Y-85.344
X166.116Y-144.399
X166.116Y-146.939
X173.228Y-102.87
X173.228Y-105.41
X173.228Y-107.95
X173.228Y-110.49
X173.228Y-113.03
X173.228Y-115.57
X173.228Y-118.11
X173.228Y-120.65
X173.228Y-123.19
X173.228Y-125.73
X176.53Y-95.631
X176.53Y-98.171
X176.53Y-100.711
X176.53Y-103.251
X176.53Y-105.791
X176.53Y-108.331
X176.53Y-110.871
X176.53Y-113.411
X176.53Y-115.951
X176.53Y-118.491
X176.53Y-121.031
X176.53Y-123.571
X176.53Y-126.111
X176.53Y-128.651
X176.53Y-131.191
X176.53Y-133.731
X180.772Y-105.842
X180.772Y-108.382
X180.772Y-110.922
X180.772Y-113.462
X180.772Y-116.002
X180.772Y-118.542
X180.772Y-121.082
X180.772Y-123.622
X183.312Y-105.842
X183.312Y-108.382
X183.312Y-110.922
X183.312Y-113.462
X183.312Y-116.002
X183.312Y-118.542
X183.312Y-121.082
X183.312Y-123.622
T0
M30
