%TF.GenerationSoftware,KiCad,Pcbnew,5.1.9+dfsg1-1*%
%TF.CreationDate,2022-03-08T22:31:32+00:00*%
%TF.ProjectId,guante metaversal,6775616e-7465-4206-9d65-746176657273,rev?*%
%TF.SameCoordinates,Original*%
%TF.FileFunction,Other,Fab,Top*%
%FSLAX46Y46*%
G04 Gerber Fmt 4.6, Leading zero omitted, Abs format (unit mm)*
G04 Created by KiCad (PCBNEW 5.1.9+dfsg1-1) date 2022-03-08 22:31:32*
%MOMM*%
%LPD*%
G01*
G04 APERTURE LIST*
%ADD10C,0.100000*%
%ADD11C,0.150000*%
G04 APERTURE END LIST*
D10*
%TO.C,U7*%
X173863000Y-127000000D02*
X171958000Y-127000000D01*
X159004000Y-127000000D02*
X159004000Y-101600000D01*
X171958000Y-101600000D02*
X174498000Y-101600000D01*
X174498000Y-101600000D02*
X174498000Y-126365000D01*
X174498000Y-126365000D02*
X173863000Y-127000000D01*
%TO.C,R16*%
X131806000Y-119176000D02*
X129306000Y-119176000D01*
X129306000Y-119176000D02*
X129306000Y-125476000D01*
X129306000Y-125476000D02*
X131806000Y-125476000D01*
X131806000Y-125476000D02*
X131806000Y-119176000D01*
X130556000Y-118516000D02*
X130556000Y-119176000D01*
X130556000Y-126136000D02*
X130556000Y-125476000D01*
X131806000Y-109016000D02*
X129306000Y-109016000D01*
X129306000Y-109016000D02*
X129306000Y-115316000D01*
X129306000Y-115316000D02*
X131806000Y-115316000D01*
X131806000Y-115316000D02*
X131806000Y-109016000D01*
X130556000Y-108356000D02*
X130556000Y-109016000D01*
X130556000Y-115976000D02*
X130556000Y-115316000D01*
X131806000Y-98856000D02*
X129306000Y-98856000D01*
X129306000Y-98856000D02*
X129306000Y-105156000D01*
X129306000Y-105156000D02*
X131806000Y-105156000D01*
X131806000Y-105156000D02*
X131806000Y-98856000D01*
X130556000Y-98196000D02*
X130556000Y-98856000D01*
X130556000Y-105816000D02*
X130556000Y-105156000D01*
X131806000Y-88696000D02*
X129306000Y-88696000D01*
X129306000Y-88696000D02*
X129306000Y-94996000D01*
X129306000Y-94996000D02*
X131806000Y-94996000D01*
X131806000Y-94996000D02*
X131806000Y-88696000D01*
X130556000Y-88036000D02*
X130556000Y-88696000D01*
X130556000Y-95656000D02*
X130556000Y-94996000D01*
%TO.C,J1*%
X184581800Y-104571800D02*
X184581800Y-124891800D01*
X179501800Y-104571800D02*
X184581800Y-104571800D01*
X179501800Y-123891800D02*
X179501800Y-104571800D01*
X180501800Y-124891800D02*
X179501800Y-123891800D01*
X184581800Y-124891800D02*
X180501800Y-124891800D01*
%TO.C,TP2*%
X132207000Y-93980000D02*
X134112000Y-93980000D01*
X134112000Y-93980000D02*
X134112000Y-96520000D01*
X134112000Y-96520000D02*
X131572000Y-96520000D01*
X131572000Y-96520000D02*
X131572000Y-94615000D01*
X131572000Y-94615000D02*
X132207000Y-93980000D01*
%TO.C,D3*%
X137667000Y-94050000D02*
X134367000Y-94050000D01*
X137667000Y-96450000D02*
X137667000Y-94050000D01*
X134367000Y-96450000D02*
X137667000Y-96450000D01*
X134367000Y-94050000D02*
X134367000Y-96450000D01*
X136917000Y-95250000D02*
G75*
G03*
X136917000Y-95250000I-900000J0D01*
G01*
%TO.C,D1*%
X126757000Y-95250000D02*
G75*
G03*
X126757000Y-95250000I-900000J0D01*
G01*
X124207000Y-94050000D02*
X124207000Y-96450000D01*
X124207000Y-96450000D02*
X127507000Y-96450000D01*
X127507000Y-96450000D02*
X127507000Y-94050000D01*
X127507000Y-94050000D02*
X124207000Y-94050000D01*
%TO.C,TP2*%
X132207000Y-104140000D02*
X134112000Y-104140000D01*
X134112000Y-104140000D02*
X134112000Y-106680000D01*
X134112000Y-106680000D02*
X131572000Y-106680000D01*
X131572000Y-106680000D02*
X131572000Y-104775000D01*
X131572000Y-104775000D02*
X132207000Y-104140000D01*
%TO.C,D3*%
X137667000Y-104210000D02*
X134367000Y-104210000D01*
X137667000Y-106610000D02*
X137667000Y-104210000D01*
X134367000Y-106610000D02*
X137667000Y-106610000D01*
X134367000Y-104210000D02*
X134367000Y-106610000D01*
X136917000Y-105410000D02*
G75*
G03*
X136917000Y-105410000I-900000J0D01*
G01*
%TO.C,D1*%
X126757000Y-105410000D02*
G75*
G03*
X126757000Y-105410000I-900000J0D01*
G01*
X124207000Y-104210000D02*
X124207000Y-106610000D01*
X124207000Y-106610000D02*
X127507000Y-106610000D01*
X127507000Y-106610000D02*
X127507000Y-104210000D01*
X127507000Y-104210000D02*
X124207000Y-104210000D01*
%TO.C,D2*%
X124207000Y-89465000D02*
X127507000Y-89465000D01*
X124207000Y-87065000D02*
X124207000Y-89465000D01*
X127507000Y-87065000D02*
X124207000Y-87065000D01*
X127507000Y-89465000D02*
X127507000Y-87065000D01*
X126757000Y-88265000D02*
G75*
G03*
X126757000Y-88265000I-900000J0D01*
G01*
%TO.C,D4*%
X136917000Y-88265000D02*
G75*
G03*
X136917000Y-88265000I-900000J0D01*
G01*
X137667000Y-89465000D02*
X137667000Y-87065000D01*
X137667000Y-87065000D02*
X134367000Y-87065000D01*
X134367000Y-87065000D02*
X134367000Y-89465000D01*
X134367000Y-89465000D02*
X137667000Y-89465000D01*
%TO.C,D2*%
X124207000Y-99625000D02*
X127507000Y-99625000D01*
X124207000Y-97225000D02*
X124207000Y-99625000D01*
X127507000Y-97225000D02*
X124207000Y-97225000D01*
X127507000Y-99625000D02*
X127507000Y-97225000D01*
X126757000Y-98425000D02*
G75*
G03*
X126757000Y-98425000I-900000J0D01*
G01*
%TO.C,D4*%
X136917000Y-98425000D02*
G75*
G03*
X136917000Y-98425000I-900000J0D01*
G01*
X137667000Y-99625000D02*
X137667000Y-97225000D01*
X137667000Y-97225000D02*
X134367000Y-97225000D01*
X134367000Y-97225000D02*
X134367000Y-99625000D01*
X134367000Y-99625000D02*
X137667000Y-99625000D01*
X136917000Y-108585000D02*
G75*
G03*
X136917000Y-108585000I-900000J0D01*
G01*
X137667000Y-109785000D02*
X137667000Y-107385000D01*
X137667000Y-107385000D02*
X134367000Y-107385000D01*
X134367000Y-107385000D02*
X134367000Y-109785000D01*
X134367000Y-109785000D02*
X137667000Y-109785000D01*
%TO.C,D2*%
X124207000Y-109785000D02*
X127507000Y-109785000D01*
X124207000Y-107385000D02*
X124207000Y-109785000D01*
X127507000Y-107385000D02*
X124207000Y-107385000D01*
X127507000Y-109785000D02*
X127507000Y-107385000D01*
X126757000Y-108585000D02*
G75*
G03*
X126757000Y-108585000I-900000J0D01*
G01*
%TO.C,TP2*%
X132207000Y-124460000D02*
X134112000Y-124460000D01*
X134112000Y-124460000D02*
X134112000Y-127000000D01*
X134112000Y-127000000D02*
X131572000Y-127000000D01*
X131572000Y-127000000D02*
X131572000Y-125095000D01*
X131572000Y-125095000D02*
X132207000Y-124460000D01*
%TO.C,D3*%
X137667000Y-124530000D02*
X134367000Y-124530000D01*
X137667000Y-126930000D02*
X137667000Y-124530000D01*
X134367000Y-126930000D02*
X137667000Y-126930000D01*
X134367000Y-124530000D02*
X134367000Y-126930000D01*
X136917000Y-125730000D02*
G75*
G03*
X136917000Y-125730000I-900000J0D01*
G01*
%TO.C,D1*%
X126757000Y-125730000D02*
G75*
G03*
X126757000Y-125730000I-900000J0D01*
G01*
X124207000Y-124530000D02*
X124207000Y-126930000D01*
X124207000Y-126930000D02*
X127507000Y-126930000D01*
X127507000Y-126930000D02*
X127507000Y-124530000D01*
X127507000Y-124530000D02*
X124207000Y-124530000D01*
%TO.C,D2*%
X124207000Y-119945000D02*
X127507000Y-119945000D01*
X124207000Y-117545000D02*
X124207000Y-119945000D01*
X127507000Y-117545000D02*
X124207000Y-117545000D01*
X127507000Y-119945000D02*
X127507000Y-117545000D01*
X126757000Y-118745000D02*
G75*
G03*
X126757000Y-118745000I-900000J0D01*
G01*
%TO.C,D4*%
X136917000Y-118745000D02*
G75*
G03*
X136917000Y-118745000I-900000J0D01*
G01*
X137667000Y-119945000D02*
X137667000Y-117545000D01*
X137667000Y-117545000D02*
X134367000Y-117545000D01*
X134367000Y-117545000D02*
X134367000Y-119945000D01*
X134367000Y-119945000D02*
X137667000Y-119945000D01*
%TO.C,D3*%
X137667000Y-114370000D02*
X134367000Y-114370000D01*
X137667000Y-116770000D02*
X137667000Y-114370000D01*
X134367000Y-116770000D02*
X137667000Y-116770000D01*
X134367000Y-114370000D02*
X134367000Y-116770000D01*
X136917000Y-115570000D02*
G75*
G03*
X136917000Y-115570000I-900000J0D01*
G01*
%TO.C,TP2*%
X132207000Y-114300000D02*
X134112000Y-114300000D01*
X134112000Y-114300000D02*
X134112000Y-116840000D01*
X134112000Y-116840000D02*
X131572000Y-116840000D01*
X131572000Y-116840000D02*
X131572000Y-114935000D01*
X131572000Y-114935000D02*
X132207000Y-114300000D01*
%TO.C,D1*%
X126757000Y-115570000D02*
G75*
G03*
X126757000Y-115570000I-900000J0D01*
G01*
X124207000Y-114370000D02*
X124207000Y-116770000D01*
X124207000Y-116770000D02*
X127507000Y-116770000D01*
X127507000Y-116770000D02*
X127507000Y-114370000D01*
X127507000Y-114370000D02*
X124207000Y-114370000D01*
%TO.C,D2*%
X124207000Y-79305000D02*
X127507000Y-79305000D01*
X124207000Y-76905000D02*
X124207000Y-79305000D01*
X127507000Y-76905000D02*
X124207000Y-76905000D01*
X127507000Y-79305000D02*
X127507000Y-76905000D01*
X126757000Y-78105000D02*
G75*
G03*
X126757000Y-78105000I-900000J0D01*
G01*
%TO.C,D1*%
X126757000Y-85090000D02*
G75*
G03*
X126757000Y-85090000I-900000J0D01*
G01*
X124207000Y-83890000D02*
X124207000Y-86290000D01*
X124207000Y-86290000D02*
X127507000Y-86290000D01*
X127507000Y-86290000D02*
X127507000Y-83890000D01*
X127507000Y-83890000D02*
X124207000Y-83890000D01*
%TO.C,D3*%
X137667000Y-83890000D02*
X134367000Y-83890000D01*
X137667000Y-86290000D02*
X137667000Y-83890000D01*
X134367000Y-86290000D02*
X137667000Y-86290000D01*
X134367000Y-83890000D02*
X134367000Y-86290000D01*
X136917000Y-85090000D02*
G75*
G03*
X136917000Y-85090000I-900000J0D01*
G01*
%TO.C,D4*%
X136917000Y-78105000D02*
G75*
G03*
X136917000Y-78105000I-900000J0D01*
G01*
X137667000Y-79305000D02*
X137667000Y-76905000D01*
X137667000Y-76905000D02*
X134367000Y-76905000D01*
X134367000Y-76905000D02*
X134367000Y-79305000D01*
X134367000Y-79305000D02*
X137667000Y-79305000D01*
%TO.C,TP2*%
X132207000Y-83820000D02*
X134112000Y-83820000D01*
X134112000Y-83820000D02*
X134112000Y-86360000D01*
X134112000Y-86360000D02*
X131572000Y-86360000D01*
X131572000Y-86360000D02*
X131572000Y-84455000D01*
X131572000Y-84455000D02*
X132207000Y-83820000D01*
%TO.C,J3*%
X164846000Y-143764000D02*
X165481000Y-143129000D01*
X164846000Y-148209000D02*
X164846000Y-143764000D01*
X167386000Y-148209000D02*
X164846000Y-148209000D01*
X167386000Y-143129000D02*
X167386000Y-148209000D01*
X165481000Y-143129000D02*
X167386000Y-143129000D01*
%TO.C,J4*%
X140208000Y-143065500D02*
X142113000Y-143065500D01*
X142113000Y-143065500D02*
X142113000Y-148145500D01*
X142113000Y-148145500D02*
X139573000Y-148145500D01*
X139573000Y-148145500D02*
X139573000Y-143700500D01*
X139573000Y-143700500D02*
X140208000Y-143065500D01*
%TO.C,BZ1*%
X167611734Y-94758935D02*
G75*
G03*
X167611734Y-94758935I-5999999J0D01*
G01*
X162611735Y-94758935D02*
G75*
G03*
X162611735Y-94758935I-1000000J0D01*
G01*
%TO.C,C1*%
X166495605Y-103750300D02*
X166495605Y-103250300D01*
X166745605Y-103500300D02*
X166245605Y-103500300D01*
X167112000Y-102412800D02*
G75*
G03*
X167112000Y-102412800I-2500000J0D01*
G01*
%TO.C,J1*%
X163068000Y-82550000D02*
X142748000Y-82550000D01*
X163068000Y-77470000D02*
X163068000Y-82550000D01*
X143748000Y-77470000D02*
X163068000Y-77470000D01*
X142748000Y-78470000D02*
X143748000Y-77470000D01*
X142748000Y-82550000D02*
X142748000Y-78470000D01*
%TO.C,U6*%
X165481000Y-84709000D02*
X165481000Y-86614000D01*
X165481000Y-99568000D02*
X140081000Y-99568000D01*
X140081000Y-86614000D02*
X140081000Y-84074000D01*
X140081000Y-84074000D02*
X164846000Y-84074000D01*
X164846000Y-84074000D02*
X165481000Y-84709000D01*
%TO.C,J5*%
X175260000Y-135001000D02*
X175260000Y-94361000D01*
X177800000Y-135001000D02*
X175260000Y-135001000D01*
X177800000Y-94996000D02*
X177800000Y-135001000D01*
X177165000Y-94361000D02*
X177800000Y-94996000D01*
X175260000Y-94361000D02*
X177165000Y-94361000D01*
%TO.C,R1*%
X152502000Y-110076300D02*
X152502000Y-107576300D01*
X152502000Y-107576300D02*
X146202000Y-107576300D01*
X146202000Y-107576300D02*
X146202000Y-110076300D01*
X146202000Y-110076300D02*
X152502000Y-110076300D01*
X153162000Y-108826300D02*
X152502000Y-108826300D01*
X145542000Y-108826300D02*
X146202000Y-108826300D01*
%TO.C,R2*%
X153162000Y-111379000D02*
X152502000Y-111379000D01*
X145542000Y-111379000D02*
X146202000Y-111379000D01*
X152502000Y-110129000D02*
X146202000Y-110129000D01*
X152502000Y-112629000D02*
X152502000Y-110129000D01*
X146202000Y-112629000D02*
X152502000Y-112629000D01*
X146202000Y-110129000D02*
X146202000Y-112629000D01*
%TO.C,R3*%
X146202000Y-112669000D02*
X146202000Y-115169000D01*
X146202000Y-115169000D02*
X152502000Y-115169000D01*
X152502000Y-115169000D02*
X152502000Y-112669000D01*
X152502000Y-112669000D02*
X146202000Y-112669000D01*
X145542000Y-113919000D02*
X146202000Y-113919000D01*
X153162000Y-113919000D02*
X152502000Y-113919000D01*
%TO.C,R4*%
X153162000Y-116459000D02*
X152502000Y-116459000D01*
X145542000Y-116459000D02*
X146202000Y-116459000D01*
X152502000Y-115209000D02*
X146202000Y-115209000D01*
X152502000Y-117709000D02*
X152502000Y-115209000D01*
X146202000Y-117709000D02*
X152502000Y-117709000D01*
X146202000Y-115209000D02*
X146202000Y-117709000D01*
%TO.C,R5*%
X153162000Y-118999000D02*
X152502000Y-118999000D01*
X145542000Y-118999000D02*
X146202000Y-118999000D01*
X152502000Y-117749000D02*
X146202000Y-117749000D01*
X152502000Y-120249000D02*
X152502000Y-117749000D01*
X146202000Y-120249000D02*
X152502000Y-120249000D01*
X146202000Y-117749000D02*
X146202000Y-120249000D01*
%TO.C,R6*%
X146202000Y-120289000D02*
X146202000Y-122789000D01*
X146202000Y-122789000D02*
X152502000Y-122789000D01*
X152502000Y-122789000D02*
X152502000Y-120289000D01*
X152502000Y-120289000D02*
X146202000Y-120289000D01*
X145542000Y-121539000D02*
X146202000Y-121539000D01*
X153162000Y-121539000D02*
X152502000Y-121539000D01*
%TO.C,R7*%
X153162000Y-124079000D02*
X152502000Y-124079000D01*
X145542000Y-124079000D02*
X146202000Y-124079000D01*
X152502000Y-122829000D02*
X146202000Y-122829000D01*
X152502000Y-125329000D02*
X152502000Y-122829000D01*
X146202000Y-125329000D02*
X152502000Y-125329000D01*
X146202000Y-122829000D02*
X146202000Y-125329000D01*
%TO.C,R8*%
X146202000Y-125369000D02*
X146202000Y-127869000D01*
X146202000Y-127869000D02*
X152502000Y-127869000D01*
X152502000Y-127869000D02*
X152502000Y-125369000D01*
X152502000Y-125369000D02*
X146202000Y-125369000D01*
X145542000Y-126619000D02*
X146202000Y-126619000D01*
X153162000Y-126619000D02*
X152502000Y-126619000D01*
%TO.C,R9*%
X153162000Y-129159000D02*
X152502000Y-129159000D01*
X145542000Y-129159000D02*
X146202000Y-129159000D01*
X152502000Y-127909000D02*
X146202000Y-127909000D01*
X152502000Y-130409000D02*
X152502000Y-127909000D01*
X146202000Y-130409000D02*
X152502000Y-130409000D01*
X146202000Y-127909000D02*
X146202000Y-130409000D01*
%TO.C,R10*%
X146202000Y-130449000D02*
X146202000Y-132949000D01*
X146202000Y-132949000D02*
X152502000Y-132949000D01*
X152502000Y-132949000D02*
X152502000Y-130449000D01*
X152502000Y-130449000D02*
X146202000Y-130449000D01*
X145542000Y-131699000D02*
X146202000Y-131699000D01*
X153162000Y-131699000D02*
X152502000Y-131699000D01*
%TO.C,R11*%
X158953200Y-131076700D02*
X158953200Y-130416700D01*
X158953200Y-123456700D02*
X158953200Y-124116700D01*
X160203200Y-130416700D02*
X160203200Y-124116700D01*
X157703200Y-130416700D02*
X160203200Y-130416700D01*
X157703200Y-124116700D02*
X157703200Y-130416700D01*
X160203200Y-124116700D02*
X157703200Y-124116700D01*
%TO.C,R16*%
X131806000Y-78384000D02*
X129306000Y-78384000D01*
X129306000Y-78384000D02*
X129306000Y-84684000D01*
X129306000Y-84684000D02*
X131806000Y-84684000D01*
X131806000Y-84684000D02*
X131806000Y-78384000D01*
X130556000Y-77724000D02*
X130556000Y-78384000D01*
X130556000Y-85344000D02*
X130556000Y-84684000D01*
%TO.C,C2*%
X182246395Y-97976500D02*
X182246395Y-98476500D01*
X181996395Y-98226500D02*
X182496395Y-98226500D01*
X186630000Y-99314000D02*
G75*
G03*
X186630000Y-99314000I-2500000J0D01*
G01*
%TO.C,J6*%
X158750000Y-148590000D02*
X158750000Y-150495000D01*
X158750000Y-150495000D02*
X158115000Y-151130000D01*
X158115000Y-151130000D02*
X148590000Y-151130000D01*
X148590000Y-151130000D02*
X148590000Y-148590000D01*
X148590000Y-148590000D02*
X158750000Y-148590000D01*
%TO.C,M6*%
X149225000Y-135382000D02*
X151130000Y-135382000D01*
X151130000Y-135382000D02*
X151130000Y-140462000D01*
X151130000Y-140462000D02*
X148590000Y-140462000D01*
X148590000Y-140462000D02*
X148590000Y-136017000D01*
X148590000Y-136017000D02*
X149225000Y-135382000D01*
%TO.C,Q1*%
X158381700Y-133108700D02*
X160286700Y-133108700D01*
X160286700Y-133108700D02*
X160286700Y-140728700D01*
X160286700Y-140728700D02*
X157746700Y-140728700D01*
X157746700Y-140728700D02*
X157746700Y-133743700D01*
X157746700Y-133743700D02*
X158381700Y-133108700D01*
%TD*%
%TO.C,U7*%
D11*
X205415047Y-93289380D02*
X205415047Y-92289380D01*
X205748380Y-93003666D01*
X206081714Y-92289380D01*
X206081714Y-93289380D01*
X206557904Y-93289380D02*
X206557904Y-92289380D01*
X206938857Y-92289380D01*
X207034095Y-92337000D01*
X207081714Y-92384619D01*
X207129333Y-92479857D01*
X207129333Y-92622714D01*
X207081714Y-92717952D01*
X207034095Y-92765571D01*
X206938857Y-92813190D01*
X206557904Y-92813190D01*
X207557904Y-92289380D02*
X207557904Y-93098904D01*
X207605523Y-93194142D01*
X207653142Y-93241761D01*
X207748380Y-93289380D01*
X207938857Y-93289380D01*
X208034095Y-93241761D01*
X208081714Y-93194142D01*
X208129333Y-93098904D01*
X208129333Y-92289380D01*
X208605523Y-92908428D02*
X209367428Y-92908428D01*
X209891238Y-93289380D02*
X210081714Y-93289380D01*
X210176952Y-93241761D01*
X210224571Y-93194142D01*
X210319809Y-93051285D01*
X210367428Y-92860809D01*
X210367428Y-92479857D01*
X210319809Y-92384619D01*
X210272190Y-92337000D01*
X210176952Y-92289380D01*
X209986476Y-92289380D01*
X209891238Y-92337000D01*
X209843619Y-92384619D01*
X209796000Y-92479857D01*
X209796000Y-92717952D01*
X209843619Y-92813190D01*
X209891238Y-92860809D01*
X209986476Y-92908428D01*
X210176952Y-92908428D01*
X210272190Y-92860809D01*
X210319809Y-92813190D01*
X210367428Y-92717952D01*
X210748380Y-92384619D02*
X210796000Y-92337000D01*
X210891238Y-92289380D01*
X211129333Y-92289380D01*
X211224571Y-92337000D01*
X211272190Y-92384619D01*
X211319809Y-92479857D01*
X211319809Y-92575095D01*
X211272190Y-92717952D01*
X210700761Y-93289380D01*
X211319809Y-93289380D01*
X212224571Y-92289380D02*
X211748380Y-92289380D01*
X211700761Y-92765571D01*
X211748380Y-92717952D01*
X211843619Y-92670333D01*
X212081714Y-92670333D01*
X212176952Y-92717952D01*
X212224571Y-92765571D01*
X212272190Y-92860809D01*
X212272190Y-93098904D01*
X212224571Y-93194142D01*
X212176952Y-93241761D01*
X212081714Y-93289380D01*
X211843619Y-93289380D01*
X211748380Y-93241761D01*
X211700761Y-93194142D01*
X212891238Y-92289380D02*
X212986476Y-92289380D01*
X213081714Y-92337000D01*
X213129333Y-92384619D01*
X213176952Y-92479857D01*
X213224571Y-92670333D01*
X213224571Y-92908428D01*
X213176952Y-93098904D01*
X213129333Y-93194142D01*
X213081714Y-93241761D01*
X212986476Y-93289380D01*
X212891238Y-93289380D01*
X212796000Y-93241761D01*
X212748380Y-93194142D01*
X212700761Y-93098904D01*
X212653142Y-92908428D01*
X212653142Y-92670333D01*
X212700761Y-92479857D01*
X212748380Y-92384619D01*
X212796000Y-92337000D01*
X212891238Y-92289380D01*
X191476380Y-112013904D02*
X192285904Y-112013904D01*
X192381142Y-111966285D01*
X192428761Y-111918666D01*
X192476380Y-111823428D01*
X192476380Y-111632952D01*
X192428761Y-111537714D01*
X192381142Y-111490095D01*
X192285904Y-111442476D01*
X191476380Y-111442476D01*
X191476380Y-111061523D02*
X191476380Y-110394857D01*
X192476380Y-110823428D01*
%TO.C,J1*%
X198655942Y-74067942D02*
X198608323Y-74115561D01*
X198465466Y-74163180D01*
X198370228Y-74163180D01*
X198227371Y-74115561D01*
X198132133Y-74020323D01*
X198084514Y-73925085D01*
X198036895Y-73734609D01*
X198036895Y-73591752D01*
X198084514Y-73401276D01*
X198132133Y-73306038D01*
X198227371Y-73210800D01*
X198370228Y-73163180D01*
X198465466Y-73163180D01*
X198608323Y-73210800D01*
X198655942Y-73258419D01*
X199227371Y-74163180D02*
X199132133Y-74115561D01*
X199084514Y-74067942D01*
X199036895Y-73972704D01*
X199036895Y-73686990D01*
X199084514Y-73591752D01*
X199132133Y-73544133D01*
X199227371Y-73496514D01*
X199370228Y-73496514D01*
X199465466Y-73544133D01*
X199513085Y-73591752D01*
X199560704Y-73686990D01*
X199560704Y-73972704D01*
X199513085Y-74067942D01*
X199465466Y-74115561D01*
X199370228Y-74163180D01*
X199227371Y-74163180D01*
X199989276Y-73496514D02*
X199989276Y-74163180D01*
X199989276Y-73591752D02*
X200036895Y-73544133D01*
X200132133Y-73496514D01*
X200274990Y-73496514D01*
X200370228Y-73544133D01*
X200417847Y-73639371D01*
X200417847Y-74163180D01*
X200894038Y-73496514D02*
X200894038Y-74163180D01*
X200894038Y-73591752D02*
X200941657Y-73544133D01*
X201036895Y-73496514D01*
X201179752Y-73496514D01*
X201274990Y-73544133D01*
X201322609Y-73639371D01*
X201322609Y-74163180D01*
X201560704Y-74258419D02*
X202322609Y-74258419D01*
X202751180Y-73163180D02*
X202846419Y-73163180D01*
X202941657Y-73210800D01*
X202989276Y-73258419D01*
X203036895Y-73353657D01*
X203084514Y-73544133D01*
X203084514Y-73782228D01*
X203036895Y-73972704D01*
X202989276Y-74067942D01*
X202941657Y-74115561D01*
X202846419Y-74163180D01*
X202751180Y-74163180D01*
X202655942Y-74115561D01*
X202608323Y-74067942D01*
X202560704Y-73972704D01*
X202513085Y-73782228D01*
X202513085Y-73544133D01*
X202560704Y-73353657D01*
X202608323Y-73258419D01*
X202655942Y-73210800D01*
X202751180Y-73163180D01*
X203465466Y-73258419D02*
X203513085Y-73210800D01*
X203608323Y-73163180D01*
X203846419Y-73163180D01*
X203941657Y-73210800D01*
X203989276Y-73258419D01*
X204036895Y-73353657D01*
X204036895Y-73448895D01*
X203989276Y-73591752D01*
X203417847Y-74163180D01*
X204036895Y-74163180D01*
X204370228Y-74163180D02*
X204894038Y-73496514D01*
X204370228Y-73496514D02*
X204894038Y-74163180D01*
X205465466Y-73163180D02*
X205560704Y-73163180D01*
X205655942Y-73210800D01*
X205703561Y-73258419D01*
X205751180Y-73353657D01*
X205798800Y-73544133D01*
X205798800Y-73782228D01*
X205751180Y-73972704D01*
X205703561Y-74067942D01*
X205655942Y-74115561D01*
X205560704Y-74163180D01*
X205465466Y-74163180D01*
X205370228Y-74115561D01*
X205322609Y-74067942D01*
X205274990Y-73972704D01*
X205227371Y-73782228D01*
X205227371Y-73544133D01*
X205274990Y-73353657D01*
X205322609Y-73258419D01*
X205370228Y-73210800D01*
X205465466Y-73163180D01*
X206370228Y-73591752D02*
X206274990Y-73544133D01*
X206227371Y-73496514D01*
X206179752Y-73401276D01*
X206179752Y-73353657D01*
X206227371Y-73258419D01*
X206274990Y-73210800D01*
X206370228Y-73163180D01*
X206560704Y-73163180D01*
X206655942Y-73210800D01*
X206703561Y-73258419D01*
X206751180Y-73353657D01*
X206751180Y-73401276D01*
X206703561Y-73496514D01*
X206655942Y-73544133D01*
X206560704Y-73591752D01*
X206370228Y-73591752D01*
X206274990Y-73639371D01*
X206227371Y-73686990D01*
X206179752Y-73782228D01*
X206179752Y-73972704D01*
X206227371Y-74067942D01*
X206274990Y-74115561D01*
X206370228Y-74163180D01*
X206560704Y-74163180D01*
X206655942Y-74115561D01*
X206703561Y-74067942D01*
X206751180Y-73972704D01*
X206751180Y-73782228D01*
X206703561Y-73686990D01*
X206655942Y-73639371D01*
X206560704Y-73591752D01*
X206941657Y-74258419D02*
X207703561Y-74258419D01*
X208132133Y-73163180D02*
X208322609Y-73163180D01*
X208417847Y-73210800D01*
X208513085Y-73306038D01*
X208560704Y-73496514D01*
X208560704Y-73829847D01*
X208513085Y-74020323D01*
X208417847Y-74115561D01*
X208322609Y-74163180D01*
X208132133Y-74163180D01*
X208036895Y-74115561D01*
X207941657Y-74020323D01*
X207894038Y-73829847D01*
X207894038Y-73496514D01*
X207941657Y-73306038D01*
X208036895Y-73210800D01*
X208132133Y-73163180D01*
X209417847Y-74163180D02*
X209417847Y-73163180D01*
X209417847Y-74115561D02*
X209322609Y-74163180D01*
X209132133Y-74163180D01*
X209036895Y-74115561D01*
X208989276Y-74067942D01*
X208941657Y-73972704D01*
X208941657Y-73686990D01*
X208989276Y-73591752D01*
X209036895Y-73544133D01*
X209132133Y-73496514D01*
X209322609Y-73496514D01*
X209417847Y-73544133D01*
X210322609Y-74163180D02*
X210322609Y-73163180D01*
X210322609Y-74115561D02*
X210227371Y-74163180D01*
X210036895Y-74163180D01*
X209941657Y-74115561D01*
X209894038Y-74067942D01*
X209846419Y-73972704D01*
X209846419Y-73686990D01*
X209894038Y-73591752D01*
X209941657Y-73544133D01*
X210036895Y-73496514D01*
X210227371Y-73496514D01*
X210322609Y-73544133D01*
X210560704Y-74258419D02*
X211322609Y-74258419D01*
X211560704Y-73639371D02*
X211894038Y-73639371D01*
X212036895Y-74163180D02*
X211560704Y-74163180D01*
X211560704Y-73163180D01*
X212036895Y-73163180D01*
X212370228Y-73496514D02*
X212608323Y-74163180D01*
X212846419Y-73496514D01*
X213608323Y-74115561D02*
X213513085Y-74163180D01*
X213322609Y-74163180D01*
X213227371Y-74115561D01*
X213179752Y-74020323D01*
X213179752Y-73639371D01*
X213227371Y-73544133D01*
X213322609Y-73496514D01*
X213513085Y-73496514D01*
X213608323Y-73544133D01*
X213655942Y-73639371D01*
X213655942Y-73734609D01*
X213179752Y-73829847D01*
X214084514Y-73496514D02*
X214084514Y-74163180D01*
X214084514Y-73591752D02*
X214132133Y-73544133D01*
X214227371Y-73496514D01*
X214370228Y-73496514D01*
X214465466Y-73544133D01*
X214513085Y-73639371D01*
X214513085Y-74163180D01*
X192492380Y-115649333D02*
X193206666Y-115649333D01*
X193349523Y-115696952D01*
X193444761Y-115792190D01*
X193492380Y-115935047D01*
X193492380Y-116030285D01*
X193492380Y-114649333D02*
X193492380Y-115220761D01*
X193492380Y-114935047D02*
X192492380Y-114935047D01*
X192635238Y-115030285D01*
X192730476Y-115125523D01*
X192778095Y-115220761D01*
%TO.C,U2*%
X147058857Y-105481380D02*
X147058857Y-104481380D01*
X147630285Y-105481380D01*
X147630285Y-104481380D01*
X148249333Y-105481380D02*
X148154095Y-105433761D01*
X148106476Y-105386142D01*
X148058857Y-105290904D01*
X148058857Y-105005190D01*
X148106476Y-104909952D01*
X148154095Y-104862333D01*
X148249333Y-104814714D01*
X148392190Y-104814714D01*
X148487428Y-104862333D01*
X148535047Y-104909952D01*
X148582666Y-105005190D01*
X148582666Y-105290904D01*
X148535047Y-105386142D01*
X148487428Y-105433761D01*
X148392190Y-105481380D01*
X148249333Y-105481380D01*
X149439809Y-105481380D02*
X149439809Y-104481380D01*
X149439809Y-105433761D02*
X149344571Y-105481380D01*
X149154095Y-105481380D01*
X149058857Y-105433761D01*
X149011238Y-105386142D01*
X148963619Y-105290904D01*
X148963619Y-105005190D01*
X149011238Y-104909952D01*
X149058857Y-104862333D01*
X149154095Y-104814714D01*
X149344571Y-104814714D01*
X149439809Y-104862333D01*
X150296952Y-105433761D02*
X150201714Y-105481380D01*
X150011238Y-105481380D01*
X149916000Y-105433761D01*
X149868380Y-105338523D01*
X149868380Y-104957571D01*
X149916000Y-104862333D01*
X150011238Y-104814714D01*
X150201714Y-104814714D01*
X150296952Y-104862333D01*
X150344571Y-104957571D01*
X150344571Y-105052809D01*
X149868380Y-105148047D01*
X150773142Y-105481380D02*
X150773142Y-104481380D01*
X151106476Y-105195666D01*
X151439809Y-104481380D01*
X151439809Y-105481380D01*
X152487428Y-105386142D02*
X152439809Y-105433761D01*
X152296952Y-105481380D01*
X152201714Y-105481380D01*
X152058857Y-105433761D01*
X151963619Y-105338523D01*
X151916000Y-105243285D01*
X151868380Y-105052809D01*
X151868380Y-104909952D01*
X151916000Y-104719476D01*
X151963619Y-104624238D01*
X152058857Y-104529000D01*
X152201714Y-104481380D01*
X152296952Y-104481380D01*
X152439809Y-104529000D01*
X152487428Y-104576619D01*
X152916000Y-104481380D02*
X152916000Y-105290904D01*
X152963619Y-105386142D01*
X153011238Y-105433761D01*
X153106476Y-105481380D01*
X153296952Y-105481380D01*
X153392190Y-105433761D01*
X153439809Y-105386142D01*
X153487428Y-105290904D01*
X153487428Y-104481380D01*
X153725523Y-105576619D02*
X154487428Y-105576619D01*
X154725523Y-104957571D02*
X155058857Y-104957571D01*
X155201714Y-105481380D02*
X154725523Y-105481380D01*
X154725523Y-104481380D01*
X155201714Y-104481380D01*
X155582666Y-105433761D02*
X155725523Y-105481380D01*
X155963619Y-105481380D01*
X156058857Y-105433761D01*
X156106476Y-105386142D01*
X156154095Y-105290904D01*
X156154095Y-105195666D01*
X156106476Y-105100428D01*
X156058857Y-105052809D01*
X155963619Y-105005190D01*
X155773142Y-104957571D01*
X155677904Y-104909952D01*
X155630285Y-104862333D01*
X155582666Y-104767095D01*
X155582666Y-104671857D01*
X155630285Y-104576619D01*
X155677904Y-104529000D01*
X155773142Y-104481380D01*
X156011238Y-104481380D01*
X156154095Y-104529000D01*
X156582666Y-105481380D02*
X156582666Y-104481380D01*
X156963619Y-104481380D01*
X157058857Y-104529000D01*
X157106476Y-104576619D01*
X157154095Y-104671857D01*
X157154095Y-104814714D01*
X157106476Y-104909952D01*
X157058857Y-104957571D01*
X156963619Y-105005190D01*
X156582666Y-105005190D01*
X157344571Y-105576619D02*
X158106476Y-105576619D01*
X158249333Y-104481380D02*
X158868380Y-104481380D01*
X158535047Y-104862333D01*
X158677904Y-104862333D01*
X158773142Y-104909952D01*
X158820761Y-104957571D01*
X158868380Y-105052809D01*
X158868380Y-105290904D01*
X158820761Y-105386142D01*
X158773142Y-105433761D01*
X158677904Y-105481380D01*
X158392190Y-105481380D01*
X158296952Y-105433761D01*
X158249333Y-105386142D01*
X159249333Y-104576619D02*
X159296952Y-104529000D01*
X159392190Y-104481380D01*
X159630285Y-104481380D01*
X159725523Y-104529000D01*
X159773142Y-104576619D01*
X159820761Y-104671857D01*
X159820761Y-104767095D01*
X159773142Y-104909952D01*
X159201714Y-105481380D01*
X159820761Y-105481380D01*
%TO.C,TP2*%
%TO.C,D3*%
X132626285Y-93193571D02*
X132959619Y-93193571D01*
X133102476Y-93717380D02*
X132626285Y-93717380D01*
X132626285Y-92717380D01*
X133102476Y-92717380D01*
X133531047Y-93717380D02*
X133531047Y-93050714D01*
X133531047Y-93145952D02*
X133578666Y-93098333D01*
X133673904Y-93050714D01*
X133816761Y-93050714D01*
X133912000Y-93098333D01*
X133959619Y-93193571D01*
X133959619Y-93717380D01*
X133959619Y-93193571D02*
X134007238Y-93098333D01*
X134102476Y-93050714D01*
X134245333Y-93050714D01*
X134340571Y-93098333D01*
X134388190Y-93193571D01*
X134388190Y-93717380D01*
X134864380Y-93717380D02*
X134864380Y-93050714D01*
X134864380Y-92717380D02*
X134816761Y-92765000D01*
X134864380Y-92812619D01*
X134912000Y-92765000D01*
X134864380Y-92717380D01*
X134864380Y-92812619D01*
X135292952Y-93669761D02*
X135388190Y-93717380D01*
X135578666Y-93717380D01*
X135673904Y-93669761D01*
X135721523Y-93574523D01*
X135721523Y-93526904D01*
X135673904Y-93431666D01*
X135578666Y-93384047D01*
X135435809Y-93384047D01*
X135340571Y-93336428D01*
X135292952Y-93241190D01*
X135292952Y-93193571D01*
X135340571Y-93098333D01*
X135435809Y-93050714D01*
X135578666Y-93050714D01*
X135673904Y-93098333D01*
X136292952Y-93717380D02*
X136197714Y-93669761D01*
X136150095Y-93622142D01*
X136102476Y-93526904D01*
X136102476Y-93241190D01*
X136150095Y-93145952D01*
X136197714Y-93098333D01*
X136292952Y-93050714D01*
X136435809Y-93050714D01*
X136531047Y-93098333D01*
X136578666Y-93145952D01*
X136626285Y-93241190D01*
X136626285Y-93526904D01*
X136578666Y-93622142D01*
X136531047Y-93669761D01*
X136435809Y-93717380D01*
X136292952Y-93717380D01*
X137054857Y-93717380D02*
X137054857Y-93050714D01*
X137054857Y-93241190D02*
X137102476Y-93145952D01*
X137150095Y-93098333D01*
X137245333Y-93050714D01*
X137340571Y-93050714D01*
%TO.C,D1*%
X123726285Y-93273571D02*
X124059619Y-93273571D01*
X124202476Y-93797380D02*
X123726285Y-93797380D01*
X123726285Y-92797380D01*
X124202476Y-92797380D01*
X124631047Y-93797380D02*
X124631047Y-93130714D01*
X124631047Y-93225952D02*
X124678666Y-93178333D01*
X124773904Y-93130714D01*
X124916761Y-93130714D01*
X125012000Y-93178333D01*
X125059619Y-93273571D01*
X125059619Y-93797380D01*
X125059619Y-93273571D02*
X125107238Y-93178333D01*
X125202476Y-93130714D01*
X125345333Y-93130714D01*
X125440571Y-93178333D01*
X125488190Y-93273571D01*
X125488190Y-93797380D01*
X125964380Y-93797380D02*
X125964380Y-93130714D01*
X125964380Y-92797380D02*
X125916761Y-92845000D01*
X125964380Y-92892619D01*
X126012000Y-92845000D01*
X125964380Y-92797380D01*
X125964380Y-92892619D01*
X126392952Y-93749761D02*
X126488190Y-93797380D01*
X126678666Y-93797380D01*
X126773904Y-93749761D01*
X126821523Y-93654523D01*
X126821523Y-93606904D01*
X126773904Y-93511666D01*
X126678666Y-93464047D01*
X126535809Y-93464047D01*
X126440571Y-93416428D01*
X126392952Y-93321190D01*
X126392952Y-93273571D01*
X126440571Y-93178333D01*
X126535809Y-93130714D01*
X126678666Y-93130714D01*
X126773904Y-93178333D01*
X127392952Y-93797380D02*
X127297714Y-93749761D01*
X127250095Y-93702142D01*
X127202476Y-93606904D01*
X127202476Y-93321190D01*
X127250095Y-93225952D01*
X127297714Y-93178333D01*
X127392952Y-93130714D01*
X127535809Y-93130714D01*
X127631047Y-93178333D01*
X127678666Y-93225952D01*
X127726285Y-93321190D01*
X127726285Y-93606904D01*
X127678666Y-93702142D01*
X127631047Y-93749761D01*
X127535809Y-93797380D01*
X127392952Y-93797380D01*
X128154857Y-93797380D02*
X128154857Y-93130714D01*
X128154857Y-93321190D02*
X128202476Y-93225952D01*
X128250095Y-93178333D01*
X128345333Y-93130714D01*
X128440571Y-93130714D01*
%TO.C,TP2*%
%TO.C,D3*%
X132626285Y-103353571D02*
X132959619Y-103353571D01*
X133102476Y-103877380D02*
X132626285Y-103877380D01*
X132626285Y-102877380D01*
X133102476Y-102877380D01*
X133531047Y-103877380D02*
X133531047Y-103210714D01*
X133531047Y-103305952D02*
X133578666Y-103258333D01*
X133673904Y-103210714D01*
X133816761Y-103210714D01*
X133912000Y-103258333D01*
X133959619Y-103353571D01*
X133959619Y-103877380D01*
X133959619Y-103353571D02*
X134007238Y-103258333D01*
X134102476Y-103210714D01*
X134245333Y-103210714D01*
X134340571Y-103258333D01*
X134388190Y-103353571D01*
X134388190Y-103877380D01*
X134864380Y-103877380D02*
X134864380Y-103210714D01*
X134864380Y-102877380D02*
X134816761Y-102925000D01*
X134864380Y-102972619D01*
X134912000Y-102925000D01*
X134864380Y-102877380D01*
X134864380Y-102972619D01*
X135292952Y-103829761D02*
X135388190Y-103877380D01*
X135578666Y-103877380D01*
X135673904Y-103829761D01*
X135721523Y-103734523D01*
X135721523Y-103686904D01*
X135673904Y-103591666D01*
X135578666Y-103544047D01*
X135435809Y-103544047D01*
X135340571Y-103496428D01*
X135292952Y-103401190D01*
X135292952Y-103353571D01*
X135340571Y-103258333D01*
X135435809Y-103210714D01*
X135578666Y-103210714D01*
X135673904Y-103258333D01*
X136292952Y-103877380D02*
X136197714Y-103829761D01*
X136150095Y-103782142D01*
X136102476Y-103686904D01*
X136102476Y-103401190D01*
X136150095Y-103305952D01*
X136197714Y-103258333D01*
X136292952Y-103210714D01*
X136435809Y-103210714D01*
X136531047Y-103258333D01*
X136578666Y-103305952D01*
X136626285Y-103401190D01*
X136626285Y-103686904D01*
X136578666Y-103782142D01*
X136531047Y-103829761D01*
X136435809Y-103877380D01*
X136292952Y-103877380D01*
X137054857Y-103877380D02*
X137054857Y-103210714D01*
X137054857Y-103401190D02*
X137102476Y-103305952D01*
X137150095Y-103258333D01*
X137245333Y-103210714D01*
X137340571Y-103210714D01*
%TO.C,D1*%
X123726285Y-103433571D02*
X124059619Y-103433571D01*
X124202476Y-103957380D02*
X123726285Y-103957380D01*
X123726285Y-102957380D01*
X124202476Y-102957380D01*
X124631047Y-103957380D02*
X124631047Y-103290714D01*
X124631047Y-103385952D02*
X124678666Y-103338333D01*
X124773904Y-103290714D01*
X124916761Y-103290714D01*
X125012000Y-103338333D01*
X125059619Y-103433571D01*
X125059619Y-103957380D01*
X125059619Y-103433571D02*
X125107238Y-103338333D01*
X125202476Y-103290714D01*
X125345333Y-103290714D01*
X125440571Y-103338333D01*
X125488190Y-103433571D01*
X125488190Y-103957380D01*
X125964380Y-103957380D02*
X125964380Y-103290714D01*
X125964380Y-102957380D02*
X125916761Y-103005000D01*
X125964380Y-103052619D01*
X126012000Y-103005000D01*
X125964380Y-102957380D01*
X125964380Y-103052619D01*
X126392952Y-103909761D02*
X126488190Y-103957380D01*
X126678666Y-103957380D01*
X126773904Y-103909761D01*
X126821523Y-103814523D01*
X126821523Y-103766904D01*
X126773904Y-103671666D01*
X126678666Y-103624047D01*
X126535809Y-103624047D01*
X126440571Y-103576428D01*
X126392952Y-103481190D01*
X126392952Y-103433571D01*
X126440571Y-103338333D01*
X126535809Y-103290714D01*
X126678666Y-103290714D01*
X126773904Y-103338333D01*
X127392952Y-103957380D02*
X127297714Y-103909761D01*
X127250095Y-103862142D01*
X127202476Y-103766904D01*
X127202476Y-103481190D01*
X127250095Y-103385952D01*
X127297714Y-103338333D01*
X127392952Y-103290714D01*
X127535809Y-103290714D01*
X127631047Y-103338333D01*
X127678666Y-103385952D01*
X127726285Y-103481190D01*
X127726285Y-103766904D01*
X127678666Y-103862142D01*
X127631047Y-103909761D01*
X127535809Y-103957380D01*
X127392952Y-103957380D01*
X128154857Y-103957380D02*
X128154857Y-103290714D01*
X128154857Y-103481190D02*
X128202476Y-103385952D01*
X128250095Y-103338333D01*
X128345333Y-103290714D01*
X128440571Y-103290714D01*
%TO.C,D2*%
X124235809Y-90617380D02*
X123902476Y-90141190D01*
X123664380Y-90617380D02*
X123664380Y-89617380D01*
X124045333Y-89617380D01*
X124140571Y-89665000D01*
X124188190Y-89712619D01*
X124235809Y-89807857D01*
X124235809Y-89950714D01*
X124188190Y-90045952D01*
X124140571Y-90093571D01*
X124045333Y-90141190D01*
X123664380Y-90141190D01*
X125045333Y-90569761D02*
X124950095Y-90617380D01*
X124759619Y-90617380D01*
X124664380Y-90569761D01*
X124616761Y-90474523D01*
X124616761Y-90093571D01*
X124664380Y-89998333D01*
X124759619Y-89950714D01*
X124950095Y-89950714D01*
X125045333Y-89998333D01*
X125092952Y-90093571D01*
X125092952Y-90188809D01*
X124616761Y-90284047D01*
X125950095Y-90569761D02*
X125854857Y-90617380D01*
X125664380Y-90617380D01*
X125569142Y-90569761D01*
X125521523Y-90522142D01*
X125473904Y-90426904D01*
X125473904Y-90141190D01*
X125521523Y-90045952D01*
X125569142Y-89998333D01*
X125664380Y-89950714D01*
X125854857Y-89950714D01*
X125950095Y-89998333D01*
X126759619Y-90569761D02*
X126664380Y-90617380D01*
X126473904Y-90617380D01*
X126378666Y-90569761D01*
X126331047Y-90474523D01*
X126331047Y-90093571D01*
X126378666Y-89998333D01*
X126473904Y-89950714D01*
X126664380Y-89950714D01*
X126759619Y-89998333D01*
X126807238Y-90093571D01*
X126807238Y-90188809D01*
X126331047Y-90284047D01*
X127235809Y-89950714D02*
X127235809Y-90950714D01*
X127235809Y-89998333D02*
X127331047Y-89950714D01*
X127521523Y-89950714D01*
X127616761Y-89998333D01*
X127664380Y-90045952D01*
X127712000Y-90141190D01*
X127712000Y-90426904D01*
X127664380Y-90522142D01*
X127616761Y-90569761D01*
X127521523Y-90617380D01*
X127331047Y-90617380D01*
X127235809Y-90569761D01*
X127997714Y-89950714D02*
X128378666Y-89950714D01*
X128140571Y-89617380D02*
X128140571Y-90474523D01*
X128188190Y-90569761D01*
X128283428Y-90617380D01*
X128378666Y-90617380D01*
X128854857Y-90617380D02*
X128759619Y-90569761D01*
X128712000Y-90522142D01*
X128664380Y-90426904D01*
X128664380Y-90141190D01*
X128712000Y-90045952D01*
X128759619Y-89998333D01*
X128854857Y-89950714D01*
X128997714Y-89950714D01*
X129092952Y-89998333D01*
X129140571Y-90045952D01*
X129188190Y-90141190D01*
X129188190Y-90426904D01*
X129140571Y-90522142D01*
X129092952Y-90569761D01*
X128997714Y-90617380D01*
X128854857Y-90617380D01*
X129616761Y-90617380D02*
X129616761Y-89950714D01*
X129616761Y-90141190D02*
X129664380Y-90045952D01*
X129712000Y-89998333D01*
X129807238Y-89950714D01*
X129902476Y-89950714D01*
%TO.C,D4*%
X132435809Y-90622380D02*
X132102476Y-90146190D01*
X131864380Y-90622380D02*
X131864380Y-89622380D01*
X132245333Y-89622380D01*
X132340571Y-89670000D01*
X132388190Y-89717619D01*
X132435809Y-89812857D01*
X132435809Y-89955714D01*
X132388190Y-90050952D01*
X132340571Y-90098571D01*
X132245333Y-90146190D01*
X131864380Y-90146190D01*
X133245333Y-90574761D02*
X133150095Y-90622380D01*
X132959619Y-90622380D01*
X132864380Y-90574761D01*
X132816761Y-90479523D01*
X132816761Y-90098571D01*
X132864380Y-90003333D01*
X132959619Y-89955714D01*
X133150095Y-89955714D01*
X133245333Y-90003333D01*
X133292952Y-90098571D01*
X133292952Y-90193809D01*
X132816761Y-90289047D01*
X134150095Y-90574761D02*
X134054857Y-90622380D01*
X133864380Y-90622380D01*
X133769142Y-90574761D01*
X133721523Y-90527142D01*
X133673904Y-90431904D01*
X133673904Y-90146190D01*
X133721523Y-90050952D01*
X133769142Y-90003333D01*
X133864380Y-89955714D01*
X134054857Y-89955714D01*
X134150095Y-90003333D01*
X134959619Y-90574761D02*
X134864380Y-90622380D01*
X134673904Y-90622380D01*
X134578666Y-90574761D01*
X134531047Y-90479523D01*
X134531047Y-90098571D01*
X134578666Y-90003333D01*
X134673904Y-89955714D01*
X134864380Y-89955714D01*
X134959619Y-90003333D01*
X135007238Y-90098571D01*
X135007238Y-90193809D01*
X134531047Y-90289047D01*
X135435809Y-89955714D02*
X135435809Y-90955714D01*
X135435809Y-90003333D02*
X135531047Y-89955714D01*
X135721523Y-89955714D01*
X135816761Y-90003333D01*
X135864380Y-90050952D01*
X135912000Y-90146190D01*
X135912000Y-90431904D01*
X135864380Y-90527142D01*
X135816761Y-90574761D01*
X135721523Y-90622380D01*
X135531047Y-90622380D01*
X135435809Y-90574761D01*
X136197714Y-89955714D02*
X136578666Y-89955714D01*
X136340571Y-89622380D02*
X136340571Y-90479523D01*
X136388190Y-90574761D01*
X136483428Y-90622380D01*
X136578666Y-90622380D01*
X137054857Y-90622380D02*
X136959619Y-90574761D01*
X136912000Y-90527142D01*
X136864380Y-90431904D01*
X136864380Y-90146190D01*
X136912000Y-90050952D01*
X136959619Y-90003333D01*
X137054857Y-89955714D01*
X137197714Y-89955714D01*
X137292952Y-90003333D01*
X137340571Y-90050952D01*
X137388190Y-90146190D01*
X137388190Y-90431904D01*
X137340571Y-90527142D01*
X137292952Y-90574761D01*
X137197714Y-90622380D01*
X137054857Y-90622380D01*
X137816761Y-90622380D02*
X137816761Y-89955714D01*
X137816761Y-90146190D02*
X137864380Y-90050952D01*
X137912000Y-90003333D01*
X138007238Y-89955714D01*
X138102476Y-89955714D01*
%TO.C,D2*%
X124235809Y-100777380D02*
X123902476Y-100301190D01*
X123664380Y-100777380D02*
X123664380Y-99777380D01*
X124045333Y-99777380D01*
X124140571Y-99825000D01*
X124188190Y-99872619D01*
X124235809Y-99967857D01*
X124235809Y-100110714D01*
X124188190Y-100205952D01*
X124140571Y-100253571D01*
X124045333Y-100301190D01*
X123664380Y-100301190D01*
X125045333Y-100729761D02*
X124950095Y-100777380D01*
X124759619Y-100777380D01*
X124664380Y-100729761D01*
X124616761Y-100634523D01*
X124616761Y-100253571D01*
X124664380Y-100158333D01*
X124759619Y-100110714D01*
X124950095Y-100110714D01*
X125045333Y-100158333D01*
X125092952Y-100253571D01*
X125092952Y-100348809D01*
X124616761Y-100444047D01*
X125950095Y-100729761D02*
X125854857Y-100777380D01*
X125664380Y-100777380D01*
X125569142Y-100729761D01*
X125521523Y-100682142D01*
X125473904Y-100586904D01*
X125473904Y-100301190D01*
X125521523Y-100205952D01*
X125569142Y-100158333D01*
X125664380Y-100110714D01*
X125854857Y-100110714D01*
X125950095Y-100158333D01*
X126759619Y-100729761D02*
X126664380Y-100777380D01*
X126473904Y-100777380D01*
X126378666Y-100729761D01*
X126331047Y-100634523D01*
X126331047Y-100253571D01*
X126378666Y-100158333D01*
X126473904Y-100110714D01*
X126664380Y-100110714D01*
X126759619Y-100158333D01*
X126807238Y-100253571D01*
X126807238Y-100348809D01*
X126331047Y-100444047D01*
X127235809Y-100110714D02*
X127235809Y-101110714D01*
X127235809Y-100158333D02*
X127331047Y-100110714D01*
X127521523Y-100110714D01*
X127616761Y-100158333D01*
X127664380Y-100205952D01*
X127712000Y-100301190D01*
X127712000Y-100586904D01*
X127664380Y-100682142D01*
X127616761Y-100729761D01*
X127521523Y-100777380D01*
X127331047Y-100777380D01*
X127235809Y-100729761D01*
X127997714Y-100110714D02*
X128378666Y-100110714D01*
X128140571Y-99777380D02*
X128140571Y-100634523D01*
X128188190Y-100729761D01*
X128283428Y-100777380D01*
X128378666Y-100777380D01*
X128854857Y-100777380D02*
X128759619Y-100729761D01*
X128712000Y-100682142D01*
X128664380Y-100586904D01*
X128664380Y-100301190D01*
X128712000Y-100205952D01*
X128759619Y-100158333D01*
X128854857Y-100110714D01*
X128997714Y-100110714D01*
X129092952Y-100158333D01*
X129140571Y-100205952D01*
X129188190Y-100301190D01*
X129188190Y-100586904D01*
X129140571Y-100682142D01*
X129092952Y-100729761D01*
X128997714Y-100777380D01*
X128854857Y-100777380D01*
X129616761Y-100777380D02*
X129616761Y-100110714D01*
X129616761Y-100301190D02*
X129664380Y-100205952D01*
X129712000Y-100158333D01*
X129807238Y-100110714D01*
X129902476Y-100110714D01*
%TO.C,D4*%
X132435809Y-100782380D02*
X132102476Y-100306190D01*
X131864380Y-100782380D02*
X131864380Y-99782380D01*
X132245333Y-99782380D01*
X132340571Y-99830000D01*
X132388190Y-99877619D01*
X132435809Y-99972857D01*
X132435809Y-100115714D01*
X132388190Y-100210952D01*
X132340571Y-100258571D01*
X132245333Y-100306190D01*
X131864380Y-100306190D01*
X133245333Y-100734761D02*
X133150095Y-100782380D01*
X132959619Y-100782380D01*
X132864380Y-100734761D01*
X132816761Y-100639523D01*
X132816761Y-100258571D01*
X132864380Y-100163333D01*
X132959619Y-100115714D01*
X133150095Y-100115714D01*
X133245333Y-100163333D01*
X133292952Y-100258571D01*
X133292952Y-100353809D01*
X132816761Y-100449047D01*
X134150095Y-100734761D02*
X134054857Y-100782380D01*
X133864380Y-100782380D01*
X133769142Y-100734761D01*
X133721523Y-100687142D01*
X133673904Y-100591904D01*
X133673904Y-100306190D01*
X133721523Y-100210952D01*
X133769142Y-100163333D01*
X133864380Y-100115714D01*
X134054857Y-100115714D01*
X134150095Y-100163333D01*
X134959619Y-100734761D02*
X134864380Y-100782380D01*
X134673904Y-100782380D01*
X134578666Y-100734761D01*
X134531047Y-100639523D01*
X134531047Y-100258571D01*
X134578666Y-100163333D01*
X134673904Y-100115714D01*
X134864380Y-100115714D01*
X134959619Y-100163333D01*
X135007238Y-100258571D01*
X135007238Y-100353809D01*
X134531047Y-100449047D01*
X135435809Y-100115714D02*
X135435809Y-101115714D01*
X135435809Y-100163333D02*
X135531047Y-100115714D01*
X135721523Y-100115714D01*
X135816761Y-100163333D01*
X135864380Y-100210952D01*
X135912000Y-100306190D01*
X135912000Y-100591904D01*
X135864380Y-100687142D01*
X135816761Y-100734761D01*
X135721523Y-100782380D01*
X135531047Y-100782380D01*
X135435809Y-100734761D01*
X136197714Y-100115714D02*
X136578666Y-100115714D01*
X136340571Y-99782380D02*
X136340571Y-100639523D01*
X136388190Y-100734761D01*
X136483428Y-100782380D01*
X136578666Y-100782380D01*
X137054857Y-100782380D02*
X136959619Y-100734761D01*
X136912000Y-100687142D01*
X136864380Y-100591904D01*
X136864380Y-100306190D01*
X136912000Y-100210952D01*
X136959619Y-100163333D01*
X137054857Y-100115714D01*
X137197714Y-100115714D01*
X137292952Y-100163333D01*
X137340571Y-100210952D01*
X137388190Y-100306190D01*
X137388190Y-100591904D01*
X137340571Y-100687142D01*
X137292952Y-100734761D01*
X137197714Y-100782380D01*
X137054857Y-100782380D01*
X137816761Y-100782380D02*
X137816761Y-100115714D01*
X137816761Y-100306190D02*
X137864380Y-100210952D01*
X137912000Y-100163333D01*
X138007238Y-100115714D01*
X138102476Y-100115714D01*
X132435809Y-110942380D02*
X132102476Y-110466190D01*
X131864380Y-110942380D02*
X131864380Y-109942380D01*
X132245333Y-109942380D01*
X132340571Y-109990000D01*
X132388190Y-110037619D01*
X132435809Y-110132857D01*
X132435809Y-110275714D01*
X132388190Y-110370952D01*
X132340571Y-110418571D01*
X132245333Y-110466190D01*
X131864380Y-110466190D01*
X133245333Y-110894761D02*
X133150095Y-110942380D01*
X132959619Y-110942380D01*
X132864380Y-110894761D01*
X132816761Y-110799523D01*
X132816761Y-110418571D01*
X132864380Y-110323333D01*
X132959619Y-110275714D01*
X133150095Y-110275714D01*
X133245333Y-110323333D01*
X133292952Y-110418571D01*
X133292952Y-110513809D01*
X132816761Y-110609047D01*
X134150095Y-110894761D02*
X134054857Y-110942380D01*
X133864380Y-110942380D01*
X133769142Y-110894761D01*
X133721523Y-110847142D01*
X133673904Y-110751904D01*
X133673904Y-110466190D01*
X133721523Y-110370952D01*
X133769142Y-110323333D01*
X133864380Y-110275714D01*
X134054857Y-110275714D01*
X134150095Y-110323333D01*
X134959619Y-110894761D02*
X134864380Y-110942380D01*
X134673904Y-110942380D01*
X134578666Y-110894761D01*
X134531047Y-110799523D01*
X134531047Y-110418571D01*
X134578666Y-110323333D01*
X134673904Y-110275714D01*
X134864380Y-110275714D01*
X134959619Y-110323333D01*
X135007238Y-110418571D01*
X135007238Y-110513809D01*
X134531047Y-110609047D01*
X135435809Y-110275714D02*
X135435809Y-111275714D01*
X135435809Y-110323333D02*
X135531047Y-110275714D01*
X135721523Y-110275714D01*
X135816761Y-110323333D01*
X135864380Y-110370952D01*
X135912000Y-110466190D01*
X135912000Y-110751904D01*
X135864380Y-110847142D01*
X135816761Y-110894761D01*
X135721523Y-110942380D01*
X135531047Y-110942380D01*
X135435809Y-110894761D01*
X136197714Y-110275714D02*
X136578666Y-110275714D01*
X136340571Y-109942380D02*
X136340571Y-110799523D01*
X136388190Y-110894761D01*
X136483428Y-110942380D01*
X136578666Y-110942380D01*
X137054857Y-110942380D02*
X136959619Y-110894761D01*
X136912000Y-110847142D01*
X136864380Y-110751904D01*
X136864380Y-110466190D01*
X136912000Y-110370952D01*
X136959619Y-110323333D01*
X137054857Y-110275714D01*
X137197714Y-110275714D01*
X137292952Y-110323333D01*
X137340571Y-110370952D01*
X137388190Y-110466190D01*
X137388190Y-110751904D01*
X137340571Y-110847142D01*
X137292952Y-110894761D01*
X137197714Y-110942380D01*
X137054857Y-110942380D01*
X137816761Y-110942380D02*
X137816761Y-110275714D01*
X137816761Y-110466190D02*
X137864380Y-110370952D01*
X137912000Y-110323333D01*
X138007238Y-110275714D01*
X138102476Y-110275714D01*
%TO.C,D2*%
X124235809Y-110937380D02*
X123902476Y-110461190D01*
X123664380Y-110937380D02*
X123664380Y-109937380D01*
X124045333Y-109937380D01*
X124140571Y-109985000D01*
X124188190Y-110032619D01*
X124235809Y-110127857D01*
X124235809Y-110270714D01*
X124188190Y-110365952D01*
X124140571Y-110413571D01*
X124045333Y-110461190D01*
X123664380Y-110461190D01*
X125045333Y-110889761D02*
X124950095Y-110937380D01*
X124759619Y-110937380D01*
X124664380Y-110889761D01*
X124616761Y-110794523D01*
X124616761Y-110413571D01*
X124664380Y-110318333D01*
X124759619Y-110270714D01*
X124950095Y-110270714D01*
X125045333Y-110318333D01*
X125092952Y-110413571D01*
X125092952Y-110508809D01*
X124616761Y-110604047D01*
X125950095Y-110889761D02*
X125854857Y-110937380D01*
X125664380Y-110937380D01*
X125569142Y-110889761D01*
X125521523Y-110842142D01*
X125473904Y-110746904D01*
X125473904Y-110461190D01*
X125521523Y-110365952D01*
X125569142Y-110318333D01*
X125664380Y-110270714D01*
X125854857Y-110270714D01*
X125950095Y-110318333D01*
X126759619Y-110889761D02*
X126664380Y-110937380D01*
X126473904Y-110937380D01*
X126378666Y-110889761D01*
X126331047Y-110794523D01*
X126331047Y-110413571D01*
X126378666Y-110318333D01*
X126473904Y-110270714D01*
X126664380Y-110270714D01*
X126759619Y-110318333D01*
X126807238Y-110413571D01*
X126807238Y-110508809D01*
X126331047Y-110604047D01*
X127235809Y-110270714D02*
X127235809Y-111270714D01*
X127235809Y-110318333D02*
X127331047Y-110270714D01*
X127521523Y-110270714D01*
X127616761Y-110318333D01*
X127664380Y-110365952D01*
X127712000Y-110461190D01*
X127712000Y-110746904D01*
X127664380Y-110842142D01*
X127616761Y-110889761D01*
X127521523Y-110937380D01*
X127331047Y-110937380D01*
X127235809Y-110889761D01*
X127997714Y-110270714D02*
X128378666Y-110270714D01*
X128140571Y-109937380D02*
X128140571Y-110794523D01*
X128188190Y-110889761D01*
X128283428Y-110937380D01*
X128378666Y-110937380D01*
X128854857Y-110937380D02*
X128759619Y-110889761D01*
X128712000Y-110842142D01*
X128664380Y-110746904D01*
X128664380Y-110461190D01*
X128712000Y-110365952D01*
X128759619Y-110318333D01*
X128854857Y-110270714D01*
X128997714Y-110270714D01*
X129092952Y-110318333D01*
X129140571Y-110365952D01*
X129188190Y-110461190D01*
X129188190Y-110746904D01*
X129140571Y-110842142D01*
X129092952Y-110889761D01*
X128997714Y-110937380D01*
X128854857Y-110937380D01*
X129616761Y-110937380D02*
X129616761Y-110270714D01*
X129616761Y-110461190D02*
X129664380Y-110365952D01*
X129712000Y-110318333D01*
X129807238Y-110270714D01*
X129902476Y-110270714D01*
%TO.C,TP2*%
%TO.C,D3*%
X132626285Y-123673571D02*
X132959619Y-123673571D01*
X133102476Y-124197380D02*
X132626285Y-124197380D01*
X132626285Y-123197380D01*
X133102476Y-123197380D01*
X133531047Y-124197380D02*
X133531047Y-123530714D01*
X133531047Y-123625952D02*
X133578666Y-123578333D01*
X133673904Y-123530714D01*
X133816761Y-123530714D01*
X133912000Y-123578333D01*
X133959619Y-123673571D01*
X133959619Y-124197380D01*
X133959619Y-123673571D02*
X134007238Y-123578333D01*
X134102476Y-123530714D01*
X134245333Y-123530714D01*
X134340571Y-123578333D01*
X134388190Y-123673571D01*
X134388190Y-124197380D01*
X134864380Y-124197380D02*
X134864380Y-123530714D01*
X134864380Y-123197380D02*
X134816761Y-123245000D01*
X134864380Y-123292619D01*
X134912000Y-123245000D01*
X134864380Y-123197380D01*
X134864380Y-123292619D01*
X135292952Y-124149761D02*
X135388190Y-124197380D01*
X135578666Y-124197380D01*
X135673904Y-124149761D01*
X135721523Y-124054523D01*
X135721523Y-124006904D01*
X135673904Y-123911666D01*
X135578666Y-123864047D01*
X135435809Y-123864047D01*
X135340571Y-123816428D01*
X135292952Y-123721190D01*
X135292952Y-123673571D01*
X135340571Y-123578333D01*
X135435809Y-123530714D01*
X135578666Y-123530714D01*
X135673904Y-123578333D01*
X136292952Y-124197380D02*
X136197714Y-124149761D01*
X136150095Y-124102142D01*
X136102476Y-124006904D01*
X136102476Y-123721190D01*
X136150095Y-123625952D01*
X136197714Y-123578333D01*
X136292952Y-123530714D01*
X136435809Y-123530714D01*
X136531047Y-123578333D01*
X136578666Y-123625952D01*
X136626285Y-123721190D01*
X136626285Y-124006904D01*
X136578666Y-124102142D01*
X136531047Y-124149761D01*
X136435809Y-124197380D01*
X136292952Y-124197380D01*
X137054857Y-124197380D02*
X137054857Y-123530714D01*
X137054857Y-123721190D02*
X137102476Y-123625952D01*
X137150095Y-123578333D01*
X137245333Y-123530714D01*
X137340571Y-123530714D01*
%TO.C,D1*%
X123726285Y-123753571D02*
X124059619Y-123753571D01*
X124202476Y-124277380D02*
X123726285Y-124277380D01*
X123726285Y-123277380D01*
X124202476Y-123277380D01*
X124631047Y-124277380D02*
X124631047Y-123610714D01*
X124631047Y-123705952D02*
X124678666Y-123658333D01*
X124773904Y-123610714D01*
X124916761Y-123610714D01*
X125012000Y-123658333D01*
X125059619Y-123753571D01*
X125059619Y-124277380D01*
X125059619Y-123753571D02*
X125107238Y-123658333D01*
X125202476Y-123610714D01*
X125345333Y-123610714D01*
X125440571Y-123658333D01*
X125488190Y-123753571D01*
X125488190Y-124277380D01*
X125964380Y-124277380D02*
X125964380Y-123610714D01*
X125964380Y-123277380D02*
X125916761Y-123325000D01*
X125964380Y-123372619D01*
X126012000Y-123325000D01*
X125964380Y-123277380D01*
X125964380Y-123372619D01*
X126392952Y-124229761D02*
X126488190Y-124277380D01*
X126678666Y-124277380D01*
X126773904Y-124229761D01*
X126821523Y-124134523D01*
X126821523Y-124086904D01*
X126773904Y-123991666D01*
X126678666Y-123944047D01*
X126535809Y-123944047D01*
X126440571Y-123896428D01*
X126392952Y-123801190D01*
X126392952Y-123753571D01*
X126440571Y-123658333D01*
X126535809Y-123610714D01*
X126678666Y-123610714D01*
X126773904Y-123658333D01*
X127392952Y-124277380D02*
X127297714Y-124229761D01*
X127250095Y-124182142D01*
X127202476Y-124086904D01*
X127202476Y-123801190D01*
X127250095Y-123705952D01*
X127297714Y-123658333D01*
X127392952Y-123610714D01*
X127535809Y-123610714D01*
X127631047Y-123658333D01*
X127678666Y-123705952D01*
X127726285Y-123801190D01*
X127726285Y-124086904D01*
X127678666Y-124182142D01*
X127631047Y-124229761D01*
X127535809Y-124277380D01*
X127392952Y-124277380D01*
X128154857Y-124277380D02*
X128154857Y-123610714D01*
X128154857Y-123801190D02*
X128202476Y-123705952D01*
X128250095Y-123658333D01*
X128345333Y-123610714D01*
X128440571Y-123610714D01*
%TO.C,D2*%
X124235809Y-121097380D02*
X123902476Y-120621190D01*
X123664380Y-121097380D02*
X123664380Y-120097380D01*
X124045333Y-120097380D01*
X124140571Y-120145000D01*
X124188190Y-120192619D01*
X124235809Y-120287857D01*
X124235809Y-120430714D01*
X124188190Y-120525952D01*
X124140571Y-120573571D01*
X124045333Y-120621190D01*
X123664380Y-120621190D01*
X125045333Y-121049761D02*
X124950095Y-121097380D01*
X124759619Y-121097380D01*
X124664380Y-121049761D01*
X124616761Y-120954523D01*
X124616761Y-120573571D01*
X124664380Y-120478333D01*
X124759619Y-120430714D01*
X124950095Y-120430714D01*
X125045333Y-120478333D01*
X125092952Y-120573571D01*
X125092952Y-120668809D01*
X124616761Y-120764047D01*
X125950095Y-121049761D02*
X125854857Y-121097380D01*
X125664380Y-121097380D01*
X125569142Y-121049761D01*
X125521523Y-121002142D01*
X125473904Y-120906904D01*
X125473904Y-120621190D01*
X125521523Y-120525952D01*
X125569142Y-120478333D01*
X125664380Y-120430714D01*
X125854857Y-120430714D01*
X125950095Y-120478333D01*
X126759619Y-121049761D02*
X126664380Y-121097380D01*
X126473904Y-121097380D01*
X126378666Y-121049761D01*
X126331047Y-120954523D01*
X126331047Y-120573571D01*
X126378666Y-120478333D01*
X126473904Y-120430714D01*
X126664380Y-120430714D01*
X126759619Y-120478333D01*
X126807238Y-120573571D01*
X126807238Y-120668809D01*
X126331047Y-120764047D01*
X127235809Y-120430714D02*
X127235809Y-121430714D01*
X127235809Y-120478333D02*
X127331047Y-120430714D01*
X127521523Y-120430714D01*
X127616761Y-120478333D01*
X127664380Y-120525952D01*
X127712000Y-120621190D01*
X127712000Y-120906904D01*
X127664380Y-121002142D01*
X127616761Y-121049761D01*
X127521523Y-121097380D01*
X127331047Y-121097380D01*
X127235809Y-121049761D01*
X127997714Y-120430714D02*
X128378666Y-120430714D01*
X128140571Y-120097380D02*
X128140571Y-120954523D01*
X128188190Y-121049761D01*
X128283428Y-121097380D01*
X128378666Y-121097380D01*
X128854857Y-121097380D02*
X128759619Y-121049761D01*
X128712000Y-121002142D01*
X128664380Y-120906904D01*
X128664380Y-120621190D01*
X128712000Y-120525952D01*
X128759619Y-120478333D01*
X128854857Y-120430714D01*
X128997714Y-120430714D01*
X129092952Y-120478333D01*
X129140571Y-120525952D01*
X129188190Y-120621190D01*
X129188190Y-120906904D01*
X129140571Y-121002142D01*
X129092952Y-121049761D01*
X128997714Y-121097380D01*
X128854857Y-121097380D01*
X129616761Y-121097380D02*
X129616761Y-120430714D01*
X129616761Y-120621190D02*
X129664380Y-120525952D01*
X129712000Y-120478333D01*
X129807238Y-120430714D01*
X129902476Y-120430714D01*
%TO.C,D4*%
X132435809Y-121102380D02*
X132102476Y-120626190D01*
X131864380Y-121102380D02*
X131864380Y-120102380D01*
X132245333Y-120102380D01*
X132340571Y-120150000D01*
X132388190Y-120197619D01*
X132435809Y-120292857D01*
X132435809Y-120435714D01*
X132388190Y-120530952D01*
X132340571Y-120578571D01*
X132245333Y-120626190D01*
X131864380Y-120626190D01*
X133245333Y-121054761D02*
X133150095Y-121102380D01*
X132959619Y-121102380D01*
X132864380Y-121054761D01*
X132816761Y-120959523D01*
X132816761Y-120578571D01*
X132864380Y-120483333D01*
X132959619Y-120435714D01*
X133150095Y-120435714D01*
X133245333Y-120483333D01*
X133292952Y-120578571D01*
X133292952Y-120673809D01*
X132816761Y-120769047D01*
X134150095Y-121054761D02*
X134054857Y-121102380D01*
X133864380Y-121102380D01*
X133769142Y-121054761D01*
X133721523Y-121007142D01*
X133673904Y-120911904D01*
X133673904Y-120626190D01*
X133721523Y-120530952D01*
X133769142Y-120483333D01*
X133864380Y-120435714D01*
X134054857Y-120435714D01*
X134150095Y-120483333D01*
X134959619Y-121054761D02*
X134864380Y-121102380D01*
X134673904Y-121102380D01*
X134578666Y-121054761D01*
X134531047Y-120959523D01*
X134531047Y-120578571D01*
X134578666Y-120483333D01*
X134673904Y-120435714D01*
X134864380Y-120435714D01*
X134959619Y-120483333D01*
X135007238Y-120578571D01*
X135007238Y-120673809D01*
X134531047Y-120769047D01*
X135435809Y-120435714D02*
X135435809Y-121435714D01*
X135435809Y-120483333D02*
X135531047Y-120435714D01*
X135721523Y-120435714D01*
X135816761Y-120483333D01*
X135864380Y-120530952D01*
X135912000Y-120626190D01*
X135912000Y-120911904D01*
X135864380Y-121007142D01*
X135816761Y-121054761D01*
X135721523Y-121102380D01*
X135531047Y-121102380D01*
X135435809Y-121054761D01*
X136197714Y-120435714D02*
X136578666Y-120435714D01*
X136340571Y-120102380D02*
X136340571Y-120959523D01*
X136388190Y-121054761D01*
X136483428Y-121102380D01*
X136578666Y-121102380D01*
X137054857Y-121102380D02*
X136959619Y-121054761D01*
X136912000Y-121007142D01*
X136864380Y-120911904D01*
X136864380Y-120626190D01*
X136912000Y-120530952D01*
X136959619Y-120483333D01*
X137054857Y-120435714D01*
X137197714Y-120435714D01*
X137292952Y-120483333D01*
X137340571Y-120530952D01*
X137388190Y-120626190D01*
X137388190Y-120911904D01*
X137340571Y-121007142D01*
X137292952Y-121054761D01*
X137197714Y-121102380D01*
X137054857Y-121102380D01*
X137816761Y-121102380D02*
X137816761Y-120435714D01*
X137816761Y-120626190D02*
X137864380Y-120530952D01*
X137912000Y-120483333D01*
X138007238Y-120435714D01*
X138102476Y-120435714D01*
%TO.C,D3*%
X132626285Y-113513571D02*
X132959619Y-113513571D01*
X133102476Y-114037380D02*
X132626285Y-114037380D01*
X132626285Y-113037380D01*
X133102476Y-113037380D01*
X133531047Y-114037380D02*
X133531047Y-113370714D01*
X133531047Y-113465952D02*
X133578666Y-113418333D01*
X133673904Y-113370714D01*
X133816761Y-113370714D01*
X133912000Y-113418333D01*
X133959619Y-113513571D01*
X133959619Y-114037380D01*
X133959619Y-113513571D02*
X134007238Y-113418333D01*
X134102476Y-113370714D01*
X134245333Y-113370714D01*
X134340571Y-113418333D01*
X134388190Y-113513571D01*
X134388190Y-114037380D01*
X134864380Y-114037380D02*
X134864380Y-113370714D01*
X134864380Y-113037380D02*
X134816761Y-113085000D01*
X134864380Y-113132619D01*
X134912000Y-113085000D01*
X134864380Y-113037380D01*
X134864380Y-113132619D01*
X135292952Y-113989761D02*
X135388190Y-114037380D01*
X135578666Y-114037380D01*
X135673904Y-113989761D01*
X135721523Y-113894523D01*
X135721523Y-113846904D01*
X135673904Y-113751666D01*
X135578666Y-113704047D01*
X135435809Y-113704047D01*
X135340571Y-113656428D01*
X135292952Y-113561190D01*
X135292952Y-113513571D01*
X135340571Y-113418333D01*
X135435809Y-113370714D01*
X135578666Y-113370714D01*
X135673904Y-113418333D01*
X136292952Y-114037380D02*
X136197714Y-113989761D01*
X136150095Y-113942142D01*
X136102476Y-113846904D01*
X136102476Y-113561190D01*
X136150095Y-113465952D01*
X136197714Y-113418333D01*
X136292952Y-113370714D01*
X136435809Y-113370714D01*
X136531047Y-113418333D01*
X136578666Y-113465952D01*
X136626285Y-113561190D01*
X136626285Y-113846904D01*
X136578666Y-113942142D01*
X136531047Y-113989761D01*
X136435809Y-114037380D01*
X136292952Y-114037380D01*
X137054857Y-114037380D02*
X137054857Y-113370714D01*
X137054857Y-113561190D02*
X137102476Y-113465952D01*
X137150095Y-113418333D01*
X137245333Y-113370714D01*
X137340571Y-113370714D01*
%TO.C,TP2*%
%TO.C,D1*%
X123726285Y-113593571D02*
X124059619Y-113593571D01*
X124202476Y-114117380D02*
X123726285Y-114117380D01*
X123726285Y-113117380D01*
X124202476Y-113117380D01*
X124631047Y-114117380D02*
X124631047Y-113450714D01*
X124631047Y-113545952D02*
X124678666Y-113498333D01*
X124773904Y-113450714D01*
X124916761Y-113450714D01*
X125012000Y-113498333D01*
X125059619Y-113593571D01*
X125059619Y-114117380D01*
X125059619Y-113593571D02*
X125107238Y-113498333D01*
X125202476Y-113450714D01*
X125345333Y-113450714D01*
X125440571Y-113498333D01*
X125488190Y-113593571D01*
X125488190Y-114117380D01*
X125964380Y-114117380D02*
X125964380Y-113450714D01*
X125964380Y-113117380D02*
X125916761Y-113165000D01*
X125964380Y-113212619D01*
X126012000Y-113165000D01*
X125964380Y-113117380D01*
X125964380Y-113212619D01*
X126392952Y-114069761D02*
X126488190Y-114117380D01*
X126678666Y-114117380D01*
X126773904Y-114069761D01*
X126821523Y-113974523D01*
X126821523Y-113926904D01*
X126773904Y-113831666D01*
X126678666Y-113784047D01*
X126535809Y-113784047D01*
X126440571Y-113736428D01*
X126392952Y-113641190D01*
X126392952Y-113593571D01*
X126440571Y-113498333D01*
X126535809Y-113450714D01*
X126678666Y-113450714D01*
X126773904Y-113498333D01*
X127392952Y-114117380D02*
X127297714Y-114069761D01*
X127250095Y-114022142D01*
X127202476Y-113926904D01*
X127202476Y-113641190D01*
X127250095Y-113545952D01*
X127297714Y-113498333D01*
X127392952Y-113450714D01*
X127535809Y-113450714D01*
X127631047Y-113498333D01*
X127678666Y-113545952D01*
X127726285Y-113641190D01*
X127726285Y-113926904D01*
X127678666Y-114022142D01*
X127631047Y-114069761D01*
X127535809Y-114117380D01*
X127392952Y-114117380D01*
X128154857Y-114117380D02*
X128154857Y-113450714D01*
X128154857Y-113641190D02*
X128202476Y-113545952D01*
X128250095Y-113498333D01*
X128345333Y-113450714D01*
X128440571Y-113450714D01*
%TO.C,D2*%
X124235809Y-80457380D02*
X123902476Y-79981190D01*
X123664380Y-80457380D02*
X123664380Y-79457380D01*
X124045333Y-79457380D01*
X124140571Y-79505000D01*
X124188190Y-79552619D01*
X124235809Y-79647857D01*
X124235809Y-79790714D01*
X124188190Y-79885952D01*
X124140571Y-79933571D01*
X124045333Y-79981190D01*
X123664380Y-79981190D01*
X125045333Y-80409761D02*
X124950095Y-80457380D01*
X124759619Y-80457380D01*
X124664380Y-80409761D01*
X124616761Y-80314523D01*
X124616761Y-79933571D01*
X124664380Y-79838333D01*
X124759619Y-79790714D01*
X124950095Y-79790714D01*
X125045333Y-79838333D01*
X125092952Y-79933571D01*
X125092952Y-80028809D01*
X124616761Y-80124047D01*
X125950095Y-80409761D02*
X125854857Y-80457380D01*
X125664380Y-80457380D01*
X125569142Y-80409761D01*
X125521523Y-80362142D01*
X125473904Y-80266904D01*
X125473904Y-79981190D01*
X125521523Y-79885952D01*
X125569142Y-79838333D01*
X125664380Y-79790714D01*
X125854857Y-79790714D01*
X125950095Y-79838333D01*
X126759619Y-80409761D02*
X126664380Y-80457380D01*
X126473904Y-80457380D01*
X126378666Y-80409761D01*
X126331047Y-80314523D01*
X126331047Y-79933571D01*
X126378666Y-79838333D01*
X126473904Y-79790714D01*
X126664380Y-79790714D01*
X126759619Y-79838333D01*
X126807238Y-79933571D01*
X126807238Y-80028809D01*
X126331047Y-80124047D01*
X127235809Y-79790714D02*
X127235809Y-80790714D01*
X127235809Y-79838333D02*
X127331047Y-79790714D01*
X127521523Y-79790714D01*
X127616761Y-79838333D01*
X127664380Y-79885952D01*
X127712000Y-79981190D01*
X127712000Y-80266904D01*
X127664380Y-80362142D01*
X127616761Y-80409761D01*
X127521523Y-80457380D01*
X127331047Y-80457380D01*
X127235809Y-80409761D01*
X127997714Y-79790714D02*
X128378666Y-79790714D01*
X128140571Y-79457380D02*
X128140571Y-80314523D01*
X128188190Y-80409761D01*
X128283428Y-80457380D01*
X128378666Y-80457380D01*
X128854857Y-80457380D02*
X128759619Y-80409761D01*
X128712000Y-80362142D01*
X128664380Y-80266904D01*
X128664380Y-79981190D01*
X128712000Y-79885952D01*
X128759619Y-79838333D01*
X128854857Y-79790714D01*
X128997714Y-79790714D01*
X129092952Y-79838333D01*
X129140571Y-79885952D01*
X129188190Y-79981190D01*
X129188190Y-80266904D01*
X129140571Y-80362142D01*
X129092952Y-80409761D01*
X128997714Y-80457380D01*
X128854857Y-80457380D01*
X129616761Y-80457380D02*
X129616761Y-79790714D01*
X129616761Y-79981190D02*
X129664380Y-79885952D01*
X129712000Y-79838333D01*
X129807238Y-79790714D01*
X129902476Y-79790714D01*
%TO.C,D1*%
X123726285Y-83113571D02*
X124059619Y-83113571D01*
X124202476Y-83637380D02*
X123726285Y-83637380D01*
X123726285Y-82637380D01*
X124202476Y-82637380D01*
X124631047Y-83637380D02*
X124631047Y-82970714D01*
X124631047Y-83065952D02*
X124678666Y-83018333D01*
X124773904Y-82970714D01*
X124916761Y-82970714D01*
X125012000Y-83018333D01*
X125059619Y-83113571D01*
X125059619Y-83637380D01*
X125059619Y-83113571D02*
X125107238Y-83018333D01*
X125202476Y-82970714D01*
X125345333Y-82970714D01*
X125440571Y-83018333D01*
X125488190Y-83113571D01*
X125488190Y-83637380D01*
X125964380Y-83637380D02*
X125964380Y-82970714D01*
X125964380Y-82637380D02*
X125916761Y-82685000D01*
X125964380Y-82732619D01*
X126012000Y-82685000D01*
X125964380Y-82637380D01*
X125964380Y-82732619D01*
X126392952Y-83589761D02*
X126488190Y-83637380D01*
X126678666Y-83637380D01*
X126773904Y-83589761D01*
X126821523Y-83494523D01*
X126821523Y-83446904D01*
X126773904Y-83351666D01*
X126678666Y-83304047D01*
X126535809Y-83304047D01*
X126440571Y-83256428D01*
X126392952Y-83161190D01*
X126392952Y-83113571D01*
X126440571Y-83018333D01*
X126535809Y-82970714D01*
X126678666Y-82970714D01*
X126773904Y-83018333D01*
X127392952Y-83637380D02*
X127297714Y-83589761D01*
X127250095Y-83542142D01*
X127202476Y-83446904D01*
X127202476Y-83161190D01*
X127250095Y-83065952D01*
X127297714Y-83018333D01*
X127392952Y-82970714D01*
X127535809Y-82970714D01*
X127631047Y-83018333D01*
X127678666Y-83065952D01*
X127726285Y-83161190D01*
X127726285Y-83446904D01*
X127678666Y-83542142D01*
X127631047Y-83589761D01*
X127535809Y-83637380D01*
X127392952Y-83637380D01*
X128154857Y-83637380D02*
X128154857Y-82970714D01*
X128154857Y-83161190D02*
X128202476Y-83065952D01*
X128250095Y-83018333D01*
X128345333Y-82970714D01*
X128440571Y-82970714D01*
%TO.C,D3*%
X132626285Y-83033571D02*
X132959619Y-83033571D01*
X133102476Y-83557380D02*
X132626285Y-83557380D01*
X132626285Y-82557380D01*
X133102476Y-82557380D01*
X133531047Y-83557380D02*
X133531047Y-82890714D01*
X133531047Y-82985952D02*
X133578666Y-82938333D01*
X133673904Y-82890714D01*
X133816761Y-82890714D01*
X133912000Y-82938333D01*
X133959619Y-83033571D01*
X133959619Y-83557380D01*
X133959619Y-83033571D02*
X134007238Y-82938333D01*
X134102476Y-82890714D01*
X134245333Y-82890714D01*
X134340571Y-82938333D01*
X134388190Y-83033571D01*
X134388190Y-83557380D01*
X134864380Y-83557380D02*
X134864380Y-82890714D01*
X134864380Y-82557380D02*
X134816761Y-82605000D01*
X134864380Y-82652619D01*
X134912000Y-82605000D01*
X134864380Y-82557380D01*
X134864380Y-82652619D01*
X135292952Y-83509761D02*
X135388190Y-83557380D01*
X135578666Y-83557380D01*
X135673904Y-83509761D01*
X135721523Y-83414523D01*
X135721523Y-83366904D01*
X135673904Y-83271666D01*
X135578666Y-83224047D01*
X135435809Y-83224047D01*
X135340571Y-83176428D01*
X135292952Y-83081190D01*
X135292952Y-83033571D01*
X135340571Y-82938333D01*
X135435809Y-82890714D01*
X135578666Y-82890714D01*
X135673904Y-82938333D01*
X136292952Y-83557380D02*
X136197714Y-83509761D01*
X136150095Y-83462142D01*
X136102476Y-83366904D01*
X136102476Y-83081190D01*
X136150095Y-82985952D01*
X136197714Y-82938333D01*
X136292952Y-82890714D01*
X136435809Y-82890714D01*
X136531047Y-82938333D01*
X136578666Y-82985952D01*
X136626285Y-83081190D01*
X136626285Y-83366904D01*
X136578666Y-83462142D01*
X136531047Y-83509761D01*
X136435809Y-83557380D01*
X136292952Y-83557380D01*
X137054857Y-83557380D02*
X137054857Y-82890714D01*
X137054857Y-83081190D02*
X137102476Y-82985952D01*
X137150095Y-82938333D01*
X137245333Y-82890714D01*
X137340571Y-82890714D01*
%TO.C,D4*%
X132435809Y-80462380D02*
X132102476Y-79986190D01*
X131864380Y-80462380D02*
X131864380Y-79462380D01*
X132245333Y-79462380D01*
X132340571Y-79510000D01*
X132388190Y-79557619D01*
X132435809Y-79652857D01*
X132435809Y-79795714D01*
X132388190Y-79890952D01*
X132340571Y-79938571D01*
X132245333Y-79986190D01*
X131864380Y-79986190D01*
X133245333Y-80414761D02*
X133150095Y-80462380D01*
X132959619Y-80462380D01*
X132864380Y-80414761D01*
X132816761Y-80319523D01*
X132816761Y-79938571D01*
X132864380Y-79843333D01*
X132959619Y-79795714D01*
X133150095Y-79795714D01*
X133245333Y-79843333D01*
X133292952Y-79938571D01*
X133292952Y-80033809D01*
X132816761Y-80129047D01*
X134150095Y-80414761D02*
X134054857Y-80462380D01*
X133864380Y-80462380D01*
X133769142Y-80414761D01*
X133721523Y-80367142D01*
X133673904Y-80271904D01*
X133673904Y-79986190D01*
X133721523Y-79890952D01*
X133769142Y-79843333D01*
X133864380Y-79795714D01*
X134054857Y-79795714D01*
X134150095Y-79843333D01*
X134959619Y-80414761D02*
X134864380Y-80462380D01*
X134673904Y-80462380D01*
X134578666Y-80414761D01*
X134531047Y-80319523D01*
X134531047Y-79938571D01*
X134578666Y-79843333D01*
X134673904Y-79795714D01*
X134864380Y-79795714D01*
X134959619Y-79843333D01*
X135007238Y-79938571D01*
X135007238Y-80033809D01*
X134531047Y-80129047D01*
X135435809Y-79795714D02*
X135435809Y-80795714D01*
X135435809Y-79843333D02*
X135531047Y-79795714D01*
X135721523Y-79795714D01*
X135816761Y-79843333D01*
X135864380Y-79890952D01*
X135912000Y-79986190D01*
X135912000Y-80271904D01*
X135864380Y-80367142D01*
X135816761Y-80414761D01*
X135721523Y-80462380D01*
X135531047Y-80462380D01*
X135435809Y-80414761D01*
X136197714Y-79795714D02*
X136578666Y-79795714D01*
X136340571Y-79462380D02*
X136340571Y-80319523D01*
X136388190Y-80414761D01*
X136483428Y-80462380D01*
X136578666Y-80462380D01*
X137054857Y-80462380D02*
X136959619Y-80414761D01*
X136912000Y-80367142D01*
X136864380Y-80271904D01*
X136864380Y-79986190D01*
X136912000Y-79890952D01*
X136959619Y-79843333D01*
X137054857Y-79795714D01*
X137197714Y-79795714D01*
X137292952Y-79843333D01*
X137340571Y-79890952D01*
X137388190Y-79986190D01*
X137388190Y-80271904D01*
X137340571Y-80367142D01*
X137292952Y-80414761D01*
X137197714Y-80462380D01*
X137054857Y-80462380D01*
X137816761Y-80462380D02*
X137816761Y-79795714D01*
X137816761Y-79986190D02*
X137864380Y-79890952D01*
X137912000Y-79843333D01*
X138007238Y-79795714D01*
X138102476Y-79795714D01*
%TO.C,TP2*%
%TO.C,J3*%
X185618904Y-173966142D02*
X185571285Y-174013761D01*
X185428428Y-174061380D01*
X185333190Y-174061380D01*
X185190333Y-174013761D01*
X185095095Y-173918523D01*
X185047476Y-173823285D01*
X184999857Y-173632809D01*
X184999857Y-173489952D01*
X185047476Y-173299476D01*
X185095095Y-173204238D01*
X185190333Y-173109000D01*
X185333190Y-173061380D01*
X185428428Y-173061380D01*
X185571285Y-173109000D01*
X185618904Y-173156619D01*
X186190333Y-174061380D02*
X186095095Y-174013761D01*
X186047476Y-173966142D01*
X185999857Y-173870904D01*
X185999857Y-173585190D01*
X186047476Y-173489952D01*
X186095095Y-173442333D01*
X186190333Y-173394714D01*
X186333190Y-173394714D01*
X186428428Y-173442333D01*
X186476047Y-173489952D01*
X186523666Y-173585190D01*
X186523666Y-173870904D01*
X186476047Y-173966142D01*
X186428428Y-174013761D01*
X186333190Y-174061380D01*
X186190333Y-174061380D01*
X186952238Y-173394714D02*
X186952238Y-174061380D01*
X186952238Y-173489952D02*
X186999857Y-173442333D01*
X187095095Y-173394714D01*
X187237952Y-173394714D01*
X187333190Y-173442333D01*
X187380809Y-173537571D01*
X187380809Y-174061380D01*
X187857000Y-173394714D02*
X187857000Y-174061380D01*
X187857000Y-173489952D02*
X187904619Y-173442333D01*
X187999857Y-173394714D01*
X188142714Y-173394714D01*
X188237952Y-173442333D01*
X188285571Y-173537571D01*
X188285571Y-174061380D01*
X188523666Y-174156619D02*
X189285571Y-174156619D01*
X189714142Y-173061380D02*
X189809380Y-173061380D01*
X189904619Y-173109000D01*
X189952238Y-173156619D01*
X189999857Y-173251857D01*
X190047476Y-173442333D01*
X190047476Y-173680428D01*
X189999857Y-173870904D01*
X189952238Y-173966142D01*
X189904619Y-174013761D01*
X189809380Y-174061380D01*
X189714142Y-174061380D01*
X189618904Y-174013761D01*
X189571285Y-173966142D01*
X189523666Y-173870904D01*
X189476047Y-173680428D01*
X189476047Y-173442333D01*
X189523666Y-173251857D01*
X189571285Y-173156619D01*
X189618904Y-173109000D01*
X189714142Y-173061380D01*
X190999857Y-174061380D02*
X190428428Y-174061380D01*
X190714142Y-174061380D02*
X190714142Y-173061380D01*
X190618904Y-173204238D01*
X190523666Y-173299476D01*
X190428428Y-173347095D01*
X191333190Y-174061380D02*
X191857000Y-173394714D01*
X191333190Y-173394714D02*
X191857000Y-174061380D01*
X192428428Y-173061380D02*
X192523666Y-173061380D01*
X192618904Y-173109000D01*
X192666523Y-173156619D01*
X192714142Y-173251857D01*
X192761761Y-173442333D01*
X192761761Y-173680428D01*
X192714142Y-173870904D01*
X192666523Y-173966142D01*
X192618904Y-174013761D01*
X192523666Y-174061380D01*
X192428428Y-174061380D01*
X192333190Y-174013761D01*
X192285571Y-173966142D01*
X192237952Y-173870904D01*
X192190333Y-173680428D01*
X192190333Y-173442333D01*
X192237952Y-173251857D01*
X192285571Y-173156619D01*
X192333190Y-173109000D01*
X192428428Y-173061380D01*
X193142714Y-173156619D02*
X193190333Y-173109000D01*
X193285571Y-173061380D01*
X193523666Y-173061380D01*
X193618904Y-173109000D01*
X193666523Y-173156619D01*
X193714142Y-173251857D01*
X193714142Y-173347095D01*
X193666523Y-173489952D01*
X193095095Y-174061380D01*
X193714142Y-174061380D01*
X165568380Y-146002333D02*
X166282666Y-146002333D01*
X166425523Y-146049952D01*
X166520761Y-146145190D01*
X166568380Y-146288047D01*
X166568380Y-146383285D01*
X165568380Y-145621380D02*
X165568380Y-145002333D01*
X165949333Y-145335666D01*
X165949333Y-145192809D01*
X165996952Y-145097571D01*
X166044571Y-145049952D01*
X166139809Y-145002333D01*
X166377904Y-145002333D01*
X166473142Y-145049952D01*
X166520761Y-145097571D01*
X166568380Y-145192809D01*
X166568380Y-145478523D01*
X166520761Y-145573761D01*
X166473142Y-145621380D01*
%TO.C,J4*%
X92654904Y-151550642D02*
X92607285Y-151598261D01*
X92464428Y-151645880D01*
X92369190Y-151645880D01*
X92226333Y-151598261D01*
X92131095Y-151503023D01*
X92083476Y-151407785D01*
X92035857Y-151217309D01*
X92035857Y-151074452D01*
X92083476Y-150883976D01*
X92131095Y-150788738D01*
X92226333Y-150693500D01*
X92369190Y-150645880D01*
X92464428Y-150645880D01*
X92607285Y-150693500D01*
X92654904Y-150741119D01*
X93226333Y-151645880D02*
X93131095Y-151598261D01*
X93083476Y-151550642D01*
X93035857Y-151455404D01*
X93035857Y-151169690D01*
X93083476Y-151074452D01*
X93131095Y-151026833D01*
X93226333Y-150979214D01*
X93369190Y-150979214D01*
X93464428Y-151026833D01*
X93512047Y-151074452D01*
X93559666Y-151169690D01*
X93559666Y-151455404D01*
X93512047Y-151550642D01*
X93464428Y-151598261D01*
X93369190Y-151645880D01*
X93226333Y-151645880D01*
X93988238Y-150979214D02*
X93988238Y-151645880D01*
X93988238Y-151074452D02*
X94035857Y-151026833D01*
X94131095Y-150979214D01*
X94273952Y-150979214D01*
X94369190Y-151026833D01*
X94416809Y-151122071D01*
X94416809Y-151645880D01*
X94893000Y-150979214D02*
X94893000Y-151645880D01*
X94893000Y-151074452D02*
X94940619Y-151026833D01*
X95035857Y-150979214D01*
X95178714Y-150979214D01*
X95273952Y-151026833D01*
X95321571Y-151122071D01*
X95321571Y-151645880D01*
X95559666Y-151741119D02*
X96321571Y-151741119D01*
X96750142Y-150645880D02*
X96845380Y-150645880D01*
X96940619Y-150693500D01*
X96988238Y-150741119D01*
X97035857Y-150836357D01*
X97083476Y-151026833D01*
X97083476Y-151264928D01*
X97035857Y-151455404D01*
X96988238Y-151550642D01*
X96940619Y-151598261D01*
X96845380Y-151645880D01*
X96750142Y-151645880D01*
X96654904Y-151598261D01*
X96607285Y-151550642D01*
X96559666Y-151455404D01*
X96512047Y-151264928D01*
X96512047Y-151026833D01*
X96559666Y-150836357D01*
X96607285Y-150741119D01*
X96654904Y-150693500D01*
X96750142Y-150645880D01*
X98035857Y-151645880D02*
X97464428Y-151645880D01*
X97750142Y-151645880D02*
X97750142Y-150645880D01*
X97654904Y-150788738D01*
X97559666Y-150883976D01*
X97464428Y-150931595D01*
X98369190Y-151645880D02*
X98893000Y-150979214D01*
X98369190Y-150979214D02*
X98893000Y-151645880D01*
X99464428Y-150645880D02*
X99559666Y-150645880D01*
X99654904Y-150693500D01*
X99702523Y-150741119D01*
X99750142Y-150836357D01*
X99797761Y-151026833D01*
X99797761Y-151264928D01*
X99750142Y-151455404D01*
X99702523Y-151550642D01*
X99654904Y-151598261D01*
X99559666Y-151645880D01*
X99464428Y-151645880D01*
X99369190Y-151598261D01*
X99321571Y-151550642D01*
X99273952Y-151455404D01*
X99226333Y-151264928D01*
X99226333Y-151026833D01*
X99273952Y-150836357D01*
X99321571Y-150741119D01*
X99369190Y-150693500D01*
X99464428Y-150645880D01*
X100178714Y-150741119D02*
X100226333Y-150693500D01*
X100321571Y-150645880D01*
X100559666Y-150645880D01*
X100654904Y-150693500D01*
X100702523Y-150741119D01*
X100750142Y-150836357D01*
X100750142Y-150931595D01*
X100702523Y-151074452D01*
X100131095Y-151645880D01*
X100750142Y-151645880D01*
X140295380Y-145938833D02*
X141009666Y-145938833D01*
X141152523Y-145986452D01*
X141247761Y-146081690D01*
X141295380Y-146224547D01*
X141295380Y-146319785D01*
X140628714Y-145034071D02*
X141295380Y-145034071D01*
X140247761Y-145272166D02*
X140962047Y-145510261D01*
X140962047Y-144891214D01*
%TO.C,BZ1*%
X161611563Y-92107355D02*
X161678907Y-92242042D01*
X161678907Y-92309385D01*
X161645235Y-92410401D01*
X161544220Y-92511416D01*
X161443204Y-92545088D01*
X161375861Y-92545088D01*
X161274846Y-92511416D01*
X161005472Y-92242042D01*
X161712578Y-91534935D01*
X161948281Y-91770637D01*
X161981952Y-91871653D01*
X161981952Y-91938996D01*
X161948281Y-92040011D01*
X161880937Y-92107355D01*
X161779922Y-92141027D01*
X161712578Y-92141027D01*
X161611563Y-92107355D01*
X161375861Y-91871653D01*
X162487029Y-92780790D02*
X162015624Y-93252194D01*
X162183983Y-92477744D02*
X161813594Y-92848133D01*
X161779922Y-92949149D01*
X161813594Y-93050164D01*
X161914609Y-93151179D01*
X162015624Y-93184851D01*
X162082968Y-93184851D01*
X162756403Y-93050164D02*
X163126792Y-93420553D01*
X162284998Y-93521569D01*
X162655387Y-93891958D01*
X163328823Y-93622584D02*
X163699212Y-93992973D01*
X162857418Y-94093988D01*
X163227807Y-94464378D01*
X163800227Y-94969454D02*
X163699212Y-94935782D01*
X163564525Y-94801095D01*
X163530853Y-94700080D01*
X163564525Y-94599065D01*
X163833899Y-94329691D01*
X163934914Y-94296019D01*
X164035929Y-94329691D01*
X164170616Y-94464378D01*
X164204288Y-94565393D01*
X164170616Y-94666408D01*
X164103273Y-94733752D01*
X163699212Y-94464378D01*
X164103273Y-95339843D02*
X164574677Y-94868439D01*
X164439990Y-95003126D02*
X164541006Y-94969454D01*
X164608349Y-94969454D01*
X164709364Y-95003126D01*
X164776708Y-95070469D01*
X165719918Y-95056533D02*
X166258666Y-95595281D01*
X165719918Y-95595281D02*
X166258666Y-95056533D01*
%TO.C,C1*%
X208851523Y-86971142D02*
X208803904Y-87018761D01*
X208661047Y-87066380D01*
X208565809Y-87066380D01*
X208422952Y-87018761D01*
X208327714Y-86923523D01*
X208280095Y-86828285D01*
X208232476Y-86637809D01*
X208232476Y-86494952D01*
X208280095Y-86304476D01*
X208327714Y-86209238D01*
X208422952Y-86114000D01*
X208565809Y-86066380D01*
X208661047Y-86066380D01*
X208803904Y-86114000D01*
X208851523Y-86161619D01*
X209280095Y-87066380D02*
X209280095Y-86066380D01*
X209661047Y-86066380D01*
X209756285Y-86114000D01*
X209803904Y-86161619D01*
X209851523Y-86256857D01*
X209851523Y-86399714D01*
X209803904Y-86494952D01*
X209756285Y-86542571D01*
X209661047Y-86590190D01*
X209280095Y-86590190D01*
X164445333Y-102769942D02*
X164397714Y-102817561D01*
X164254857Y-102865180D01*
X164159619Y-102865180D01*
X164016761Y-102817561D01*
X163921523Y-102722323D01*
X163873904Y-102627085D01*
X163826285Y-102436609D01*
X163826285Y-102293752D01*
X163873904Y-102103276D01*
X163921523Y-102008038D01*
X164016761Y-101912800D01*
X164159619Y-101865180D01*
X164254857Y-101865180D01*
X164397714Y-101912800D01*
X164445333Y-101960419D01*
X165397714Y-102865180D02*
X164826285Y-102865180D01*
X165112000Y-102865180D02*
X165112000Y-101865180D01*
X165016761Y-102008038D01*
X164921523Y-102103276D01*
X164826285Y-102150895D01*
%TO.C,J1*%
X216130142Y-78762857D02*
X216177761Y-78810476D01*
X216225380Y-78953333D01*
X216225380Y-79048571D01*
X216177761Y-79191428D01*
X216082523Y-79286666D01*
X215987285Y-79334285D01*
X215796809Y-79381904D01*
X215653952Y-79381904D01*
X215463476Y-79334285D01*
X215368238Y-79286666D01*
X215273000Y-79191428D01*
X215225380Y-79048571D01*
X215225380Y-78953333D01*
X215273000Y-78810476D01*
X215320619Y-78762857D01*
X216225380Y-78191428D02*
X216177761Y-78286666D01*
X216130142Y-78334285D01*
X216034904Y-78381904D01*
X215749190Y-78381904D01*
X215653952Y-78334285D01*
X215606333Y-78286666D01*
X215558714Y-78191428D01*
X215558714Y-78048571D01*
X215606333Y-77953333D01*
X215653952Y-77905714D01*
X215749190Y-77858095D01*
X216034904Y-77858095D01*
X216130142Y-77905714D01*
X216177761Y-77953333D01*
X216225380Y-78048571D01*
X216225380Y-78191428D01*
X215558714Y-77429523D02*
X216225380Y-77429523D01*
X215653952Y-77429523D02*
X215606333Y-77381904D01*
X215558714Y-77286666D01*
X215558714Y-77143809D01*
X215606333Y-77048571D01*
X215701571Y-77000952D01*
X216225380Y-77000952D01*
X215558714Y-76524761D02*
X216225380Y-76524761D01*
X215653952Y-76524761D02*
X215606333Y-76477142D01*
X215558714Y-76381904D01*
X215558714Y-76239047D01*
X215606333Y-76143809D01*
X215701571Y-76096190D01*
X216225380Y-76096190D01*
X216320619Y-75858095D02*
X216320619Y-75096190D01*
X215225380Y-74667619D02*
X215225380Y-74572380D01*
X215273000Y-74477142D01*
X215320619Y-74429523D01*
X215415857Y-74381904D01*
X215606333Y-74334285D01*
X215844428Y-74334285D01*
X216034904Y-74381904D01*
X216130142Y-74429523D01*
X216177761Y-74477142D01*
X216225380Y-74572380D01*
X216225380Y-74667619D01*
X216177761Y-74762857D01*
X216130142Y-74810476D01*
X216034904Y-74858095D01*
X215844428Y-74905714D01*
X215606333Y-74905714D01*
X215415857Y-74858095D01*
X215320619Y-74810476D01*
X215273000Y-74762857D01*
X215225380Y-74667619D01*
X215320619Y-73953333D02*
X215273000Y-73905714D01*
X215225380Y-73810476D01*
X215225380Y-73572380D01*
X215273000Y-73477142D01*
X215320619Y-73429523D01*
X215415857Y-73381904D01*
X215511095Y-73381904D01*
X215653952Y-73429523D01*
X216225380Y-74000952D01*
X216225380Y-73381904D01*
X216225380Y-73048571D02*
X215558714Y-72524761D01*
X215558714Y-73048571D02*
X216225380Y-72524761D01*
X215225380Y-71953333D02*
X215225380Y-71858095D01*
X215273000Y-71762857D01*
X215320619Y-71715238D01*
X215415857Y-71667619D01*
X215606333Y-71620000D01*
X215844428Y-71620000D01*
X216034904Y-71667619D01*
X216130142Y-71715238D01*
X216177761Y-71762857D01*
X216225380Y-71858095D01*
X216225380Y-71953333D01*
X216177761Y-72048571D01*
X216130142Y-72096190D01*
X216034904Y-72143809D01*
X215844428Y-72191428D01*
X215606333Y-72191428D01*
X215415857Y-72143809D01*
X215320619Y-72096190D01*
X215273000Y-72048571D01*
X215225380Y-71953333D01*
X215653952Y-71048571D02*
X215606333Y-71143809D01*
X215558714Y-71191428D01*
X215463476Y-71239047D01*
X215415857Y-71239047D01*
X215320619Y-71191428D01*
X215273000Y-71143809D01*
X215225380Y-71048571D01*
X215225380Y-70858095D01*
X215273000Y-70762857D01*
X215320619Y-70715238D01*
X215415857Y-70667619D01*
X215463476Y-70667619D01*
X215558714Y-70715238D01*
X215606333Y-70762857D01*
X215653952Y-70858095D01*
X215653952Y-71048571D01*
X215701571Y-71143809D01*
X215749190Y-71191428D01*
X215844428Y-71239047D01*
X216034904Y-71239047D01*
X216130142Y-71191428D01*
X216177761Y-71143809D01*
X216225380Y-71048571D01*
X216225380Y-70858095D01*
X216177761Y-70762857D01*
X216130142Y-70715238D01*
X216034904Y-70667619D01*
X215844428Y-70667619D01*
X215749190Y-70715238D01*
X215701571Y-70762857D01*
X215653952Y-70858095D01*
X216320619Y-70477142D02*
X216320619Y-69715238D01*
X215225380Y-69286666D02*
X215225380Y-69096190D01*
X215273000Y-69000952D01*
X215368238Y-68905714D01*
X215558714Y-68858095D01*
X215892047Y-68858095D01*
X216082523Y-68905714D01*
X216177761Y-69000952D01*
X216225380Y-69096190D01*
X216225380Y-69286666D01*
X216177761Y-69381904D01*
X216082523Y-69477142D01*
X215892047Y-69524761D01*
X215558714Y-69524761D01*
X215368238Y-69477142D01*
X215273000Y-69381904D01*
X215225380Y-69286666D01*
X216225380Y-68000952D02*
X215225380Y-68000952D01*
X216177761Y-68000952D02*
X216225380Y-68096190D01*
X216225380Y-68286666D01*
X216177761Y-68381904D01*
X216130142Y-68429523D01*
X216034904Y-68477142D01*
X215749190Y-68477142D01*
X215653952Y-68429523D01*
X215606333Y-68381904D01*
X215558714Y-68286666D01*
X215558714Y-68096190D01*
X215606333Y-68000952D01*
X216225380Y-67096190D02*
X215225380Y-67096190D01*
X216177761Y-67096190D02*
X216225380Y-67191428D01*
X216225380Y-67381904D01*
X216177761Y-67477142D01*
X216130142Y-67524761D01*
X216034904Y-67572380D01*
X215749190Y-67572380D01*
X215653952Y-67524761D01*
X215606333Y-67477142D01*
X215558714Y-67381904D01*
X215558714Y-67191428D01*
X215606333Y-67096190D01*
X216320619Y-66858095D02*
X216320619Y-66096190D01*
X215701571Y-65858095D02*
X215701571Y-65524761D01*
X216225380Y-65381904D02*
X216225380Y-65858095D01*
X215225380Y-65858095D01*
X215225380Y-65381904D01*
X215558714Y-65048571D02*
X216225380Y-64810476D01*
X215558714Y-64572380D01*
X216177761Y-63810476D02*
X216225380Y-63905714D01*
X216225380Y-64096190D01*
X216177761Y-64191428D01*
X216082523Y-64239047D01*
X215701571Y-64239047D01*
X215606333Y-64191428D01*
X215558714Y-64096190D01*
X215558714Y-63905714D01*
X215606333Y-63810476D01*
X215701571Y-63762857D01*
X215796809Y-63762857D01*
X215892047Y-64239047D01*
X215558714Y-63334285D02*
X216225380Y-63334285D01*
X215653952Y-63334285D02*
X215606333Y-63286666D01*
X215558714Y-63191428D01*
X215558714Y-63048571D01*
X215606333Y-62953333D01*
X215701571Y-62905714D01*
X216225380Y-62905714D01*
X152574666Y-79462380D02*
X152574666Y-80176666D01*
X152527047Y-80319523D01*
X152431809Y-80414761D01*
X152288952Y-80462380D01*
X152193714Y-80462380D01*
X153574666Y-80462380D02*
X153003238Y-80462380D01*
X153288952Y-80462380D02*
X153288952Y-79462380D01*
X153193714Y-79605238D01*
X153098476Y-79700476D01*
X153003238Y-79748095D01*
%TO.C,U6*%
X142956447Y-91993980D02*
X142956447Y-90993980D01*
X143289780Y-91708266D01*
X143623114Y-90993980D01*
X143623114Y-91993980D01*
X144099304Y-91993980D02*
X144099304Y-90993980D01*
X144480257Y-90993980D01*
X144575495Y-91041600D01*
X144623114Y-91089219D01*
X144670733Y-91184457D01*
X144670733Y-91327314D01*
X144623114Y-91422552D01*
X144575495Y-91470171D01*
X144480257Y-91517790D01*
X144099304Y-91517790D01*
X145099304Y-90993980D02*
X145099304Y-91803504D01*
X145146923Y-91898742D01*
X145194542Y-91946361D01*
X145289780Y-91993980D01*
X145480257Y-91993980D01*
X145575495Y-91946361D01*
X145623114Y-91898742D01*
X145670733Y-91803504D01*
X145670733Y-90993980D01*
X146146923Y-91613028D02*
X146908828Y-91613028D01*
X147432638Y-91993980D02*
X147623114Y-91993980D01*
X147718352Y-91946361D01*
X147765971Y-91898742D01*
X147861209Y-91755885D01*
X147908828Y-91565409D01*
X147908828Y-91184457D01*
X147861209Y-91089219D01*
X147813590Y-91041600D01*
X147718352Y-90993980D01*
X147527876Y-90993980D01*
X147432638Y-91041600D01*
X147385019Y-91089219D01*
X147337400Y-91184457D01*
X147337400Y-91422552D01*
X147385019Y-91517790D01*
X147432638Y-91565409D01*
X147527876Y-91613028D01*
X147718352Y-91613028D01*
X147813590Y-91565409D01*
X147861209Y-91517790D01*
X147908828Y-91422552D01*
X148289780Y-91089219D02*
X148337400Y-91041600D01*
X148432638Y-90993980D01*
X148670733Y-90993980D01*
X148765971Y-91041600D01*
X148813590Y-91089219D01*
X148861209Y-91184457D01*
X148861209Y-91279695D01*
X148813590Y-91422552D01*
X148242161Y-91993980D01*
X148861209Y-91993980D01*
X149765971Y-90993980D02*
X149289780Y-90993980D01*
X149242161Y-91470171D01*
X149289780Y-91422552D01*
X149385019Y-91374933D01*
X149623114Y-91374933D01*
X149718352Y-91422552D01*
X149765971Y-91470171D01*
X149813590Y-91565409D01*
X149813590Y-91803504D01*
X149765971Y-91898742D01*
X149718352Y-91946361D01*
X149623114Y-91993980D01*
X149385019Y-91993980D01*
X149289780Y-91946361D01*
X149242161Y-91898742D01*
X150432638Y-90993980D02*
X150527876Y-90993980D01*
X150623114Y-91041600D01*
X150670733Y-91089219D01*
X150718352Y-91184457D01*
X150765971Y-91374933D01*
X150765971Y-91613028D01*
X150718352Y-91803504D01*
X150670733Y-91898742D01*
X150623114Y-91946361D01*
X150527876Y-91993980D01*
X150432638Y-91993980D01*
X150337400Y-91946361D01*
X150289780Y-91898742D01*
X150242161Y-91803504D01*
X150194542Y-91613028D01*
X150194542Y-91374933D01*
X150242161Y-91184457D01*
X150289780Y-91089219D01*
X150337400Y-91041600D01*
X150432638Y-90993980D01*
X152019095Y-84796380D02*
X152019095Y-85605904D01*
X152066714Y-85701142D01*
X152114333Y-85748761D01*
X152209571Y-85796380D01*
X152400047Y-85796380D01*
X152495285Y-85748761D01*
X152542904Y-85701142D01*
X152590523Y-85605904D01*
X152590523Y-84796380D01*
X153495285Y-84796380D02*
X153304809Y-84796380D01*
X153209571Y-84844000D01*
X153161952Y-84891619D01*
X153066714Y-85034476D01*
X153019095Y-85224952D01*
X153019095Y-85605904D01*
X153066714Y-85701142D01*
X153114333Y-85748761D01*
X153209571Y-85796380D01*
X153400047Y-85796380D01*
X153495285Y-85748761D01*
X153542904Y-85701142D01*
X153590523Y-85605904D01*
X153590523Y-85367809D01*
X153542904Y-85272571D01*
X153495285Y-85224952D01*
X153400047Y-85177333D01*
X153209571Y-85177333D01*
X153114333Y-85224952D01*
X153066714Y-85272571D01*
X153019095Y-85367809D01*
%TO.C,J5*%
X198636666Y-78208142D02*
X198589047Y-78255761D01*
X198446190Y-78303380D01*
X198350952Y-78303380D01*
X198208095Y-78255761D01*
X198112857Y-78160523D01*
X198065238Y-78065285D01*
X198017619Y-77874809D01*
X198017619Y-77731952D01*
X198065238Y-77541476D01*
X198112857Y-77446238D01*
X198208095Y-77351000D01*
X198350952Y-77303380D01*
X198446190Y-77303380D01*
X198589047Y-77351000D01*
X198636666Y-77398619D01*
X199208095Y-78303380D02*
X199112857Y-78255761D01*
X199065238Y-78208142D01*
X199017619Y-78112904D01*
X199017619Y-77827190D01*
X199065238Y-77731952D01*
X199112857Y-77684333D01*
X199208095Y-77636714D01*
X199350952Y-77636714D01*
X199446190Y-77684333D01*
X199493809Y-77731952D01*
X199541428Y-77827190D01*
X199541428Y-78112904D01*
X199493809Y-78208142D01*
X199446190Y-78255761D01*
X199350952Y-78303380D01*
X199208095Y-78303380D01*
X199970000Y-77636714D02*
X199970000Y-78303380D01*
X199970000Y-77731952D02*
X200017619Y-77684333D01*
X200112857Y-77636714D01*
X200255714Y-77636714D01*
X200350952Y-77684333D01*
X200398571Y-77779571D01*
X200398571Y-78303380D01*
X200874761Y-77636714D02*
X200874761Y-78303380D01*
X200874761Y-77731952D02*
X200922380Y-77684333D01*
X201017619Y-77636714D01*
X201160476Y-77636714D01*
X201255714Y-77684333D01*
X201303333Y-77779571D01*
X201303333Y-78303380D01*
X201541428Y-78398619D02*
X202303333Y-78398619D01*
X202731904Y-77303380D02*
X202827142Y-77303380D01*
X202922380Y-77351000D01*
X202970000Y-77398619D01*
X203017619Y-77493857D01*
X203065238Y-77684333D01*
X203065238Y-77922428D01*
X203017619Y-78112904D01*
X202970000Y-78208142D01*
X202922380Y-78255761D01*
X202827142Y-78303380D01*
X202731904Y-78303380D01*
X202636666Y-78255761D01*
X202589047Y-78208142D01*
X202541428Y-78112904D01*
X202493809Y-77922428D01*
X202493809Y-77684333D01*
X202541428Y-77493857D01*
X202589047Y-77398619D01*
X202636666Y-77351000D01*
X202731904Y-77303380D01*
X204017619Y-78303380D02*
X203446190Y-78303380D01*
X203731904Y-78303380D02*
X203731904Y-77303380D01*
X203636666Y-77446238D01*
X203541428Y-77541476D01*
X203446190Y-77589095D01*
X204350952Y-78303380D02*
X204874761Y-77636714D01*
X204350952Y-77636714D02*
X204874761Y-78303380D01*
X205779523Y-78303380D02*
X205208095Y-78303380D01*
X205493809Y-78303380D02*
X205493809Y-77303380D01*
X205398571Y-77446238D01*
X205303333Y-77541476D01*
X205208095Y-77589095D01*
X206636666Y-77303380D02*
X206446190Y-77303380D01*
X206350952Y-77351000D01*
X206303333Y-77398619D01*
X206208095Y-77541476D01*
X206160476Y-77731952D01*
X206160476Y-78112904D01*
X206208095Y-78208142D01*
X206255714Y-78255761D01*
X206350952Y-78303380D01*
X206541428Y-78303380D01*
X206636666Y-78255761D01*
X206684285Y-78208142D01*
X206731904Y-78112904D01*
X206731904Y-77874809D01*
X206684285Y-77779571D01*
X206636666Y-77731952D01*
X206541428Y-77684333D01*
X206350952Y-77684333D01*
X206255714Y-77731952D01*
X206208095Y-77779571D01*
X206160476Y-77874809D01*
X206922380Y-78398619D02*
X207684285Y-78398619D01*
X207922380Y-78303380D02*
X207922380Y-77303380D01*
X208255714Y-78017666D01*
X208589047Y-77303380D01*
X208589047Y-78303380D01*
X209493809Y-78303380D02*
X209493809Y-77779571D01*
X209446190Y-77684333D01*
X209350952Y-77636714D01*
X209160476Y-77636714D01*
X209065238Y-77684333D01*
X209493809Y-78255761D02*
X209398571Y-78303380D01*
X209160476Y-78303380D01*
X209065238Y-78255761D01*
X209017619Y-78160523D01*
X209017619Y-78065285D01*
X209065238Y-77970047D01*
X209160476Y-77922428D01*
X209398571Y-77922428D01*
X209493809Y-77874809D01*
X210112857Y-78303380D02*
X210017619Y-78255761D01*
X209970000Y-78160523D01*
X209970000Y-77303380D01*
X210874761Y-78255761D02*
X210779523Y-78303380D01*
X210589047Y-78303380D01*
X210493809Y-78255761D01*
X210446190Y-78160523D01*
X210446190Y-77779571D01*
X210493809Y-77684333D01*
X210589047Y-77636714D01*
X210779523Y-77636714D01*
X210874761Y-77684333D01*
X210922380Y-77779571D01*
X210922380Y-77874809D01*
X210446190Y-77970047D01*
X202652380Y-76914333D02*
X203366666Y-76914333D01*
X203509523Y-76961952D01*
X203604761Y-77057190D01*
X203652380Y-77200047D01*
X203652380Y-77295285D01*
X202652380Y-75961952D02*
X202652380Y-76438142D01*
X203128571Y-76485761D01*
X203080952Y-76438142D01*
X203033333Y-76342904D01*
X203033333Y-76104809D01*
X203080952Y-76009571D01*
X203128571Y-75961952D01*
X203223809Y-75914333D01*
X203461904Y-75914333D01*
X203557142Y-75961952D01*
X203604761Y-76009571D01*
X203652380Y-76104809D01*
X203652380Y-76342904D01*
X203604761Y-76438142D01*
X203557142Y-76485761D01*
%TO.C,C2*%
X183939523Y-103421142D02*
X183891904Y-103468761D01*
X183749047Y-103516380D01*
X183653809Y-103516380D01*
X183510952Y-103468761D01*
X183415714Y-103373523D01*
X183368095Y-103278285D01*
X183320476Y-103087809D01*
X183320476Y-102944952D01*
X183368095Y-102754476D01*
X183415714Y-102659238D01*
X183510952Y-102564000D01*
X183653809Y-102516380D01*
X183749047Y-102516380D01*
X183891904Y-102564000D01*
X183939523Y-102611619D01*
X184368095Y-103516380D02*
X184368095Y-102516380D01*
X184749047Y-102516380D01*
X184844285Y-102564000D01*
X184891904Y-102611619D01*
X184939523Y-102706857D01*
X184939523Y-102849714D01*
X184891904Y-102944952D01*
X184844285Y-102992571D01*
X184749047Y-103040190D01*
X184368095Y-103040190D01*
X183963333Y-99671142D02*
X183915714Y-99718761D01*
X183772857Y-99766380D01*
X183677619Y-99766380D01*
X183534761Y-99718761D01*
X183439523Y-99623523D01*
X183391904Y-99528285D01*
X183344285Y-99337809D01*
X183344285Y-99194952D01*
X183391904Y-99004476D01*
X183439523Y-98909238D01*
X183534761Y-98814000D01*
X183677619Y-98766380D01*
X183772857Y-98766380D01*
X183915714Y-98814000D01*
X183963333Y-98861619D01*
X184344285Y-98861619D02*
X184391904Y-98814000D01*
X184487142Y-98766380D01*
X184725238Y-98766380D01*
X184820476Y-98814000D01*
X184868095Y-98861619D01*
X184915714Y-98956857D01*
X184915714Y-99052095D01*
X184868095Y-99194952D01*
X184296666Y-99766380D01*
X184915714Y-99766380D01*
%TO.C,J6*%
X133072143Y-152328095D02*
X133119762Y-152375714D01*
X133167381Y-152518571D01*
X133167381Y-152613809D01*
X133119762Y-152756666D01*
X133024524Y-152851904D01*
X132929286Y-152899523D01*
X132738810Y-152947142D01*
X132595953Y-152947142D01*
X132405477Y-152899523D01*
X132310239Y-152851904D01*
X132215001Y-152756666D01*
X132167381Y-152613809D01*
X132167381Y-152518571D01*
X132215001Y-152375714D01*
X132262620Y-152328095D01*
X133167381Y-151756666D02*
X133119762Y-151851904D01*
X133072143Y-151899523D01*
X132976905Y-151947142D01*
X132691191Y-151947142D01*
X132595953Y-151899523D01*
X132548334Y-151851904D01*
X132500715Y-151756666D01*
X132500715Y-151613809D01*
X132548334Y-151518571D01*
X132595953Y-151470952D01*
X132691191Y-151423333D01*
X132976905Y-151423333D01*
X133072143Y-151470952D01*
X133119762Y-151518571D01*
X133167381Y-151613809D01*
X133167381Y-151756666D01*
X132500715Y-150994761D02*
X133167381Y-150994761D01*
X132595953Y-150994761D02*
X132548334Y-150947142D01*
X132500715Y-150851904D01*
X132500715Y-150709047D01*
X132548334Y-150613809D01*
X132643572Y-150566190D01*
X133167381Y-150566190D01*
X132500715Y-150090000D02*
X133167381Y-150090000D01*
X132595953Y-150090000D02*
X132548334Y-150042380D01*
X132500715Y-149947142D01*
X132500715Y-149804285D01*
X132548334Y-149709047D01*
X132643572Y-149661428D01*
X133167381Y-149661428D01*
X133262620Y-149423333D02*
X133262620Y-148661428D01*
X132167381Y-148232857D02*
X132167381Y-148137619D01*
X132215001Y-148042380D01*
X132262620Y-147994761D01*
X132357858Y-147947142D01*
X132548334Y-147899523D01*
X132786429Y-147899523D01*
X132976905Y-147947142D01*
X133072143Y-147994761D01*
X133119762Y-148042380D01*
X133167381Y-148137619D01*
X133167381Y-148232857D01*
X133119762Y-148328095D01*
X133072143Y-148375714D01*
X132976905Y-148423333D01*
X132786429Y-148470952D01*
X132548334Y-148470952D01*
X132357858Y-148423333D01*
X132262620Y-148375714D01*
X132215001Y-148328095D01*
X132167381Y-148232857D01*
X133167381Y-146947142D02*
X133167381Y-147518571D01*
X133167381Y-147232857D02*
X132167381Y-147232857D01*
X132310239Y-147328095D01*
X132405477Y-147423333D01*
X132453096Y-147518571D01*
X133167381Y-146613809D02*
X132500715Y-146090000D01*
X132500715Y-146613809D02*
X133167381Y-146090000D01*
X132167381Y-145518571D02*
X132167381Y-145423333D01*
X132215001Y-145328095D01*
X132262620Y-145280476D01*
X132357858Y-145232857D01*
X132548334Y-145185238D01*
X132786429Y-145185238D01*
X132976905Y-145232857D01*
X133072143Y-145280476D01*
X133119762Y-145328095D01*
X133167381Y-145423333D01*
X133167381Y-145518571D01*
X133119762Y-145613809D01*
X133072143Y-145661428D01*
X132976905Y-145709047D01*
X132786429Y-145756666D01*
X132548334Y-145756666D01*
X132357858Y-145709047D01*
X132262620Y-145661428D01*
X132215001Y-145613809D01*
X132167381Y-145518571D01*
X132500715Y-144328095D02*
X133167381Y-144328095D01*
X132119762Y-144566190D02*
X132834048Y-144804285D01*
X132834048Y-144185238D01*
X158670666Y-154900380D02*
X158670666Y-155614666D01*
X158623047Y-155757523D01*
X158527809Y-155852761D01*
X158384952Y-155900380D01*
X158289714Y-155900380D01*
X159575428Y-154900380D02*
X159384952Y-154900380D01*
X159289714Y-154948000D01*
X159242095Y-154995619D01*
X159146857Y-155138476D01*
X159099238Y-155328952D01*
X159099238Y-155709904D01*
X159146857Y-155805142D01*
X159194476Y-155852761D01*
X159289714Y-155900380D01*
X159480190Y-155900380D01*
X159575428Y-155852761D01*
X159623047Y-155805142D01*
X159670666Y-155709904D01*
X159670666Y-155471809D01*
X159623047Y-155376571D01*
X159575428Y-155328952D01*
X159480190Y-155281333D01*
X159289714Y-155281333D01*
X159194476Y-155328952D01*
X159146857Y-155376571D01*
X159099238Y-155471809D01*
%TO.C,Q1*%
X159564319Y-137013938D02*
X159516700Y-137109176D01*
X159421461Y-137204414D01*
X159278604Y-137347271D01*
X159230985Y-137442509D01*
X159230985Y-137537747D01*
X159469080Y-137490128D02*
X159421461Y-137585366D01*
X159326223Y-137680604D01*
X159135747Y-137728223D01*
X158802414Y-137728223D01*
X158611938Y-137680604D01*
X158516700Y-137585366D01*
X158469080Y-137490128D01*
X158469080Y-137299652D01*
X158516700Y-137204414D01*
X158611938Y-137109176D01*
X158802414Y-137061557D01*
X159135747Y-137061557D01*
X159326223Y-137109176D01*
X159421461Y-137204414D01*
X159469080Y-137299652D01*
X159469080Y-137490128D01*
X159469080Y-136109176D02*
X159469080Y-136680604D01*
X159469080Y-136394890D02*
X158469080Y-136394890D01*
X158611938Y-136490128D01*
X158707176Y-136585366D01*
X158754795Y-136680604D01*
%TD*%
M02*
