%TF.GenerationSoftware,KiCad,Pcbnew,6.0.2+dfsg-1*%
%TF.CreationDate,2022-04-07T04:59:57+00:00*%
%TF.ProjectId,guante metaversal,6775616e-7465-4206-9d65-746176657273,rev?*%
%TF.SameCoordinates,Original*%
%TF.FileFunction,Legend,Top*%
%TF.FilePolarity,Positive*%
%FSLAX46Y46*%
G04 Gerber Fmt 4.6, Leading zero omitted, Abs format (unit mm)*
G04 Created by KiCad (PCBNEW 6.0.2+dfsg-1) date 2022-04-07 04:59:57*
%MOMM*%
%LPD*%
G01*
G04 APERTURE LIST*
%ADD10C,0.150000*%
%ADD11C,0.120000*%
%ADD12C,1.524000*%
G04 APERTURE END LIST*
D10*
X163214857Y-143597571D02*
X163214857Y-144740428D01*
X162643428Y-144169000D02*
X163786285Y-144169000D01*
X163214857Y-146597571D02*
X163214857Y-147740428D01*
X143402857Y-143724571D02*
X143402857Y-144867428D01*
X142831428Y-144296000D02*
X143974285Y-144296000D01*
X143402857Y-146724571D02*
X143402857Y-147867428D01*
X157075238Y-144605523D02*
X157027619Y-144748380D01*
X157027619Y-144986476D01*
X157075238Y-145081714D01*
X157122857Y-145129333D01*
X157218095Y-145176952D01*
X157313333Y-145176952D01*
X157408571Y-145129333D01*
X157456190Y-145081714D01*
X157503809Y-144986476D01*
X157551428Y-144796000D01*
X157599047Y-144700761D01*
X157646666Y-144653142D01*
X157741904Y-144605523D01*
X157837142Y-144605523D01*
X157932380Y-144653142D01*
X157980000Y-144700761D01*
X158027619Y-144796000D01*
X158027619Y-145034095D01*
X157980000Y-145176952D01*
X157122857Y-146176952D02*
X157075238Y-146129333D01*
X157027619Y-145986476D01*
X157027619Y-145891238D01*
X157075238Y-145748380D01*
X157170476Y-145653142D01*
X157265714Y-145605523D01*
X157456190Y-145557904D01*
X157599047Y-145557904D01*
X157789523Y-145605523D01*
X157884761Y-145653142D01*
X157980000Y-145748380D01*
X158027619Y-145891238D01*
X158027619Y-145986476D01*
X157980000Y-146129333D01*
X157932380Y-146176952D01*
X157027619Y-147081714D02*
X157027619Y-146605523D01*
X158027619Y-146605523D01*
X152947619Y-144319809D02*
X152947619Y-144938857D01*
X152566666Y-144605523D01*
X152566666Y-144748380D01*
X152519047Y-144843619D01*
X152471428Y-144891238D01*
X152376190Y-144938857D01*
X152138095Y-144938857D01*
X152042857Y-144891238D01*
X151995238Y-144843619D01*
X151947619Y-144748380D01*
X151947619Y-144462666D01*
X151995238Y-144367428D01*
X152042857Y-144319809D01*
X152042857Y-145367428D02*
X151995238Y-145415047D01*
X151947619Y-145367428D01*
X151995238Y-145319809D01*
X152042857Y-145367428D01*
X151947619Y-145367428D01*
X152947619Y-145748380D02*
X152947619Y-146367428D01*
X152566666Y-146034095D01*
X152566666Y-146176952D01*
X152519047Y-146272190D01*
X152471428Y-146319809D01*
X152376190Y-146367428D01*
X152138095Y-146367428D01*
X152042857Y-146319809D01*
X151995238Y-146272190D01*
X151947619Y-146176952D01*
X151947619Y-145891238D01*
X151995238Y-145796000D01*
X152042857Y-145748380D01*
X152947619Y-146653142D02*
X151947619Y-146986476D01*
X152947619Y-147319809D01*
X164382628Y-79005180D02*
X165001676Y-79005180D01*
X164668342Y-79386133D01*
X164811200Y-79386133D01*
X164906438Y-79433752D01*
X164954057Y-79481371D01*
X165001676Y-79576609D01*
X165001676Y-79814704D01*
X164954057Y-79909942D01*
X164906438Y-79957561D01*
X164811200Y-80005180D01*
X164525485Y-80005180D01*
X164430247Y-79957561D01*
X164382628Y-79909942D01*
X165430247Y-79909942D02*
X165477866Y-79957561D01*
X165430247Y-80005180D01*
X165382628Y-79957561D01*
X165430247Y-79909942D01*
X165430247Y-80005180D01*
X165811200Y-79005180D02*
X166430247Y-79005180D01*
X166096914Y-79386133D01*
X166239771Y-79386133D01*
X166335009Y-79433752D01*
X166382628Y-79481371D01*
X166430247Y-79576609D01*
X166430247Y-79814704D01*
X166382628Y-79909942D01*
X166335009Y-79957561D01*
X166239771Y-80005180D01*
X165954057Y-80005180D01*
X165858819Y-79957561D01*
X165811200Y-79909942D01*
X166763580Y-79338514D02*
X167001676Y-80005180D01*
X167239771Y-79338514D01*
X163976857Y-77938571D02*
X163976857Y-79081428D01*
X163405428Y-78510000D02*
X164548285Y-78510000D01*
X163976857Y-80938571D02*
X163976857Y-82081428D01*
X150360000Y-145034095D02*
X150407619Y-144938857D01*
X150407619Y-144796000D01*
X150360000Y-144653142D01*
X150264761Y-144557904D01*
X150169523Y-144510285D01*
X149979047Y-144462666D01*
X149836190Y-144462666D01*
X149645714Y-144510285D01*
X149550476Y-144557904D01*
X149455238Y-144653142D01*
X149407619Y-144796000D01*
X149407619Y-144891238D01*
X149455238Y-145034095D01*
X149502857Y-145081714D01*
X149836190Y-145081714D01*
X149836190Y-144891238D01*
X149407619Y-145510285D02*
X150407619Y-145510285D01*
X149407619Y-146081714D01*
X150407619Y-146081714D01*
X149407619Y-146557904D02*
X150407619Y-146557904D01*
X150407619Y-146796000D01*
X150360000Y-146938857D01*
X150264761Y-147034095D01*
X150169523Y-147081714D01*
X149979047Y-147129333D01*
X149836190Y-147129333D01*
X149645714Y-147081714D01*
X149550476Y-147034095D01*
X149455238Y-146938857D01*
X149407619Y-146796000D01*
X149407619Y-146557904D01*
X154535238Y-144581714D02*
X154487619Y-144724571D01*
X154487619Y-144962666D01*
X154535238Y-145057904D01*
X154582857Y-145105523D01*
X154678095Y-145153142D01*
X154773333Y-145153142D01*
X154868571Y-145105523D01*
X154916190Y-145057904D01*
X154963809Y-144962666D01*
X155011428Y-144772190D01*
X155059047Y-144676952D01*
X155106666Y-144629333D01*
X155201904Y-144581714D01*
X155297142Y-144581714D01*
X155392380Y-144629333D01*
X155440000Y-144676952D01*
X155487619Y-144772190D01*
X155487619Y-145010285D01*
X155440000Y-145153142D01*
X154487619Y-145581714D02*
X155487619Y-145581714D01*
X155487619Y-145819809D01*
X155440000Y-145962666D01*
X155344761Y-146057904D01*
X155249523Y-146105523D01*
X155059047Y-146153142D01*
X154916190Y-146153142D01*
X154725714Y-146105523D01*
X154630476Y-146057904D01*
X154535238Y-145962666D01*
X154487619Y-145819809D01*
X154487619Y-145581714D01*
X154773333Y-146534095D02*
X154773333Y-147010285D01*
X154487619Y-146438857D02*
X155487619Y-146772190D01*
X154487619Y-147105523D01*
%TO.C,U2*%
X144907095Y-102576380D02*
X144907095Y-103385904D01*
X144954714Y-103481142D01*
X145002333Y-103528761D01*
X145097571Y-103576380D01*
X145288047Y-103576380D01*
X145383285Y-103528761D01*
X145430904Y-103481142D01*
X145478523Y-103385904D01*
X145478523Y-102576380D01*
X145907095Y-102671619D02*
X145954714Y-102624000D01*
X146049952Y-102576380D01*
X146288047Y-102576380D01*
X146383285Y-102624000D01*
X146430904Y-102671619D01*
X146478523Y-102766857D01*
X146478523Y-102862095D01*
X146430904Y-103004952D01*
X145859476Y-103576380D01*
X146478523Y-103576380D01*
X141787714Y-129611380D02*
X141787714Y-128611380D01*
X142025809Y-128611380D01*
X142168666Y-128659000D01*
X142263904Y-128754238D01*
X142311523Y-128849476D01*
X142359142Y-129039952D01*
X142359142Y-129182809D01*
X142311523Y-129373285D01*
X142263904Y-129468523D01*
X142168666Y-129563761D01*
X142025809Y-129611380D01*
X141787714Y-129611380D01*
X142740095Y-128706619D02*
X142787714Y-128659000D01*
X142882952Y-128611380D01*
X143121047Y-128611380D01*
X143216285Y-128659000D01*
X143263904Y-128706619D01*
X143311523Y-128801857D01*
X143311523Y-128897095D01*
X143263904Y-129039952D01*
X142692476Y-129611380D01*
X143311523Y-129611380D01*
X143644857Y-128611380D02*
X144311523Y-128611380D01*
X143882952Y-129611380D01*
X162099809Y-141311380D02*
X162718857Y-141311380D01*
X162385523Y-141692333D01*
X162528380Y-141692333D01*
X162623619Y-141739952D01*
X162671238Y-141787571D01*
X162718857Y-141882809D01*
X162718857Y-142120904D01*
X162671238Y-142216142D01*
X162623619Y-142263761D01*
X162528380Y-142311380D01*
X162242666Y-142311380D01*
X162147428Y-142263761D01*
X162099809Y-142216142D01*
X163147428Y-142216142D02*
X163195047Y-142263761D01*
X163147428Y-142311380D01*
X163099809Y-142263761D01*
X163147428Y-142216142D01*
X163147428Y-142311380D01*
X163528380Y-141311380D02*
X164147428Y-141311380D01*
X163814095Y-141692333D01*
X163956952Y-141692333D01*
X164052190Y-141739952D01*
X164099809Y-141787571D01*
X164147428Y-141882809D01*
X164147428Y-142120904D01*
X164099809Y-142216142D01*
X164052190Y-142263761D01*
X163956952Y-142311380D01*
X163671238Y-142311380D01*
X163576000Y-142263761D01*
X163528380Y-142216142D01*
X164433142Y-141311380D02*
X164766476Y-142311380D01*
X165099809Y-141311380D01*
X162361714Y-127071380D02*
X162361714Y-126071380D01*
X162599809Y-126071380D01*
X162742666Y-126119000D01*
X162837904Y-126214238D01*
X162885523Y-126309476D01*
X162933142Y-126499952D01*
X162933142Y-126642809D01*
X162885523Y-126833285D01*
X162837904Y-126928523D01*
X162742666Y-127023761D01*
X162599809Y-127071380D01*
X162361714Y-127071380D01*
X163885523Y-127071380D02*
X163314095Y-127071380D01*
X163599809Y-127071380D02*
X163599809Y-126071380D01*
X163504571Y-126214238D01*
X163409333Y-126309476D01*
X163314095Y-126357095D01*
X164218857Y-126071380D02*
X164885523Y-126071380D01*
X164456952Y-127071380D01*
X141787714Y-119451380D02*
X141787714Y-118451380D01*
X142025809Y-118451380D01*
X142168666Y-118499000D01*
X142263904Y-118594238D01*
X142311523Y-118689476D01*
X142359142Y-118879952D01*
X142359142Y-119022809D01*
X142311523Y-119213285D01*
X142263904Y-119308523D01*
X142168666Y-119403761D01*
X142025809Y-119451380D01*
X141787714Y-119451380D01*
X142692476Y-118451380D02*
X143311523Y-118451380D01*
X142978190Y-118832333D01*
X143121047Y-118832333D01*
X143216285Y-118879952D01*
X143263904Y-118927571D01*
X143311523Y-119022809D01*
X143311523Y-119260904D01*
X143263904Y-119356142D01*
X143216285Y-119403761D01*
X143121047Y-119451380D01*
X142835333Y-119451380D01*
X142740095Y-119403761D01*
X142692476Y-119356142D01*
X143692476Y-118546619D02*
X143740095Y-118499000D01*
X143835333Y-118451380D01*
X144073428Y-118451380D01*
X144168666Y-118499000D01*
X144216285Y-118546619D01*
X144263904Y-118641857D01*
X144263904Y-118737095D01*
X144216285Y-118879952D01*
X143644857Y-119451380D01*
X144263904Y-119451380D01*
X141787714Y-116911380D02*
X141787714Y-115911380D01*
X142025809Y-115911380D01*
X142168666Y-115959000D01*
X142263904Y-116054238D01*
X142311523Y-116149476D01*
X142359142Y-116339952D01*
X142359142Y-116482809D01*
X142311523Y-116673285D01*
X142263904Y-116768523D01*
X142168666Y-116863761D01*
X142025809Y-116911380D01*
X141787714Y-116911380D01*
X142692476Y-115911380D02*
X143311523Y-115911380D01*
X142978190Y-116292333D01*
X143121047Y-116292333D01*
X143216285Y-116339952D01*
X143263904Y-116387571D01*
X143311523Y-116482809D01*
X143311523Y-116720904D01*
X143263904Y-116816142D01*
X143216285Y-116863761D01*
X143121047Y-116911380D01*
X142835333Y-116911380D01*
X142740095Y-116863761D01*
X142692476Y-116816142D01*
X144216285Y-115911380D02*
X143740095Y-115911380D01*
X143692476Y-116387571D01*
X143740095Y-116339952D01*
X143835333Y-116292333D01*
X144073428Y-116292333D01*
X144168666Y-116339952D01*
X144216285Y-116387571D01*
X144263904Y-116482809D01*
X144263904Y-116720904D01*
X144216285Y-116816142D01*
X144168666Y-116863761D01*
X144073428Y-116911380D01*
X143835333Y-116911380D01*
X143740095Y-116863761D01*
X143692476Y-116816142D01*
X163409333Y-114371380D02*
X163076000Y-113895190D01*
X162837904Y-114371380D02*
X162837904Y-113371380D01*
X163218857Y-113371380D01*
X163314095Y-113419000D01*
X163361714Y-113466619D01*
X163409333Y-113561857D01*
X163409333Y-113704714D01*
X163361714Y-113799952D01*
X163314095Y-113847571D01*
X163218857Y-113895190D01*
X162837904Y-113895190D01*
X163742666Y-113371380D02*
X164409333Y-114371380D01*
X164409333Y-113371380D02*
X163742666Y-114371380D01*
X141787714Y-127071380D02*
X141787714Y-126071380D01*
X142025809Y-126071380D01*
X142168666Y-126119000D01*
X142263904Y-126214238D01*
X142311523Y-126309476D01*
X142359142Y-126499952D01*
X142359142Y-126642809D01*
X142311523Y-126833285D01*
X142263904Y-126928523D01*
X142168666Y-127023761D01*
X142025809Y-127071380D01*
X141787714Y-127071380D01*
X142740095Y-126166619D02*
X142787714Y-126119000D01*
X142882952Y-126071380D01*
X143121047Y-126071380D01*
X143216285Y-126119000D01*
X143263904Y-126166619D01*
X143311523Y-126261857D01*
X143311523Y-126357095D01*
X143263904Y-126499952D01*
X142692476Y-127071380D01*
X143311523Y-127071380D01*
X144168666Y-126071380D02*
X143978190Y-126071380D01*
X143882952Y-126119000D01*
X143835333Y-126166619D01*
X143740095Y-126309476D01*
X143692476Y-126499952D01*
X143692476Y-126880904D01*
X143740095Y-126976142D01*
X143787714Y-127023761D01*
X143882952Y-127071380D01*
X144073428Y-127071380D01*
X144168666Y-127023761D01*
X144216285Y-126976142D01*
X144263904Y-126880904D01*
X144263904Y-126642809D01*
X144216285Y-126547571D01*
X144168666Y-126499952D01*
X144073428Y-126452333D01*
X143882952Y-126452333D01*
X143787714Y-126499952D01*
X143740095Y-126547571D01*
X143692476Y-126642809D01*
X141787714Y-114371380D02*
X141787714Y-113371380D01*
X142025809Y-113371380D01*
X142168666Y-113419000D01*
X142263904Y-113514238D01*
X142311523Y-113609476D01*
X142359142Y-113799952D01*
X142359142Y-113942809D01*
X142311523Y-114133285D01*
X142263904Y-114228523D01*
X142168666Y-114323761D01*
X142025809Y-114371380D01*
X141787714Y-114371380D01*
X142692476Y-113371380D02*
X143311523Y-113371380D01*
X142978190Y-113752333D01*
X143121047Y-113752333D01*
X143216285Y-113799952D01*
X143263904Y-113847571D01*
X143311523Y-113942809D01*
X143311523Y-114180904D01*
X143263904Y-114276142D01*
X143216285Y-114323761D01*
X143121047Y-114371380D01*
X142835333Y-114371380D01*
X142740095Y-114323761D01*
X142692476Y-114276142D01*
X144168666Y-113704714D02*
X144168666Y-114371380D01*
X143930571Y-113323761D02*
X143692476Y-114038047D01*
X144311523Y-114038047D01*
X162361714Y-121991380D02*
X162361714Y-120991380D01*
X162599809Y-120991380D01*
X162742666Y-121039000D01*
X162837904Y-121134238D01*
X162885523Y-121229476D01*
X162933142Y-121419952D01*
X162933142Y-121562809D01*
X162885523Y-121753285D01*
X162837904Y-121848523D01*
X162742666Y-121943761D01*
X162599809Y-121991380D01*
X162361714Y-121991380D01*
X163885523Y-121991380D02*
X163314095Y-121991380D01*
X163599809Y-121991380D02*
X163599809Y-120991380D01*
X163504571Y-121134238D01*
X163409333Y-121229476D01*
X163314095Y-121277095D01*
X164456952Y-121419952D02*
X164361714Y-121372333D01*
X164314095Y-121324714D01*
X164266476Y-121229476D01*
X164266476Y-121181857D01*
X164314095Y-121086619D01*
X164361714Y-121039000D01*
X164456952Y-120991380D01*
X164647428Y-120991380D01*
X164742666Y-121039000D01*
X164790285Y-121086619D01*
X164837904Y-121181857D01*
X164837904Y-121229476D01*
X164790285Y-121324714D01*
X164742666Y-121372333D01*
X164647428Y-121419952D01*
X164456952Y-121419952D01*
X164361714Y-121467571D01*
X164314095Y-121515190D01*
X164266476Y-121610428D01*
X164266476Y-121800904D01*
X164314095Y-121896142D01*
X164361714Y-121943761D01*
X164456952Y-121991380D01*
X164647428Y-121991380D01*
X164742666Y-121943761D01*
X164790285Y-121896142D01*
X164837904Y-121800904D01*
X164837904Y-121610428D01*
X164790285Y-121515190D01*
X164742666Y-121467571D01*
X164647428Y-121419952D01*
X142240095Y-138819000D02*
X142144857Y-138771380D01*
X142002000Y-138771380D01*
X141859142Y-138819000D01*
X141763904Y-138914238D01*
X141716285Y-139009476D01*
X141668666Y-139199952D01*
X141668666Y-139342809D01*
X141716285Y-139533285D01*
X141763904Y-139628523D01*
X141859142Y-139723761D01*
X142002000Y-139771380D01*
X142097238Y-139771380D01*
X142240095Y-139723761D01*
X142287714Y-139676142D01*
X142287714Y-139342809D01*
X142097238Y-139342809D01*
X142716285Y-139771380D02*
X142716285Y-138771380D01*
X143287714Y-139771380D01*
X143287714Y-138771380D01*
X143763904Y-139771380D02*
X143763904Y-138771380D01*
X144002000Y-138771380D01*
X144144857Y-138819000D01*
X144240095Y-138914238D01*
X144287714Y-139009476D01*
X144335333Y-139199952D01*
X144335333Y-139342809D01*
X144287714Y-139533285D01*
X144240095Y-139628523D01*
X144144857Y-139723761D01*
X144002000Y-139771380D01*
X143763904Y-139771380D01*
X142517904Y-106227571D02*
X142851238Y-106227571D01*
X142994095Y-106751380D02*
X142517904Y-106751380D01*
X142517904Y-105751380D01*
X142994095Y-105751380D01*
X143422666Y-106751380D02*
X143422666Y-105751380D01*
X143994095Y-106751380D01*
X143994095Y-105751380D01*
X162361714Y-109291380D02*
X162361714Y-108291380D01*
X162599809Y-108291380D01*
X162742666Y-108339000D01*
X162837904Y-108434238D01*
X162885523Y-108529476D01*
X162933142Y-108719952D01*
X162933142Y-108862809D01*
X162885523Y-109053285D01*
X162837904Y-109148523D01*
X162742666Y-109243761D01*
X162599809Y-109291380D01*
X162361714Y-109291380D01*
X163314095Y-108386619D02*
X163361714Y-108339000D01*
X163456952Y-108291380D01*
X163695047Y-108291380D01*
X163790285Y-108339000D01*
X163837904Y-108386619D01*
X163885523Y-108481857D01*
X163885523Y-108577095D01*
X163837904Y-108719952D01*
X163266476Y-109291380D01*
X163885523Y-109291380D01*
X164266476Y-108386619D02*
X164314095Y-108339000D01*
X164409333Y-108291380D01*
X164647428Y-108291380D01*
X164742666Y-108339000D01*
X164790285Y-108386619D01*
X164837904Y-108481857D01*
X164837904Y-108577095D01*
X164790285Y-108719952D01*
X164218857Y-109291380D01*
X164837904Y-109291380D01*
X141787714Y-109291380D02*
X141787714Y-108291380D01*
X142025809Y-108291380D01*
X142168666Y-108339000D01*
X142263904Y-108434238D01*
X142311523Y-108529476D01*
X142359142Y-108719952D01*
X142359142Y-108862809D01*
X142311523Y-109053285D01*
X142263904Y-109148523D01*
X142168666Y-109243761D01*
X142025809Y-109291380D01*
X141787714Y-109291380D01*
X142692476Y-108291380D02*
X143311523Y-108291380D01*
X142978190Y-108672333D01*
X143121047Y-108672333D01*
X143216285Y-108719952D01*
X143263904Y-108767571D01*
X143311523Y-108862809D01*
X143311523Y-109100904D01*
X143263904Y-109196142D01*
X143216285Y-109243761D01*
X143121047Y-109291380D01*
X142835333Y-109291380D01*
X142740095Y-109243761D01*
X142692476Y-109196142D01*
X144168666Y-108291380D02*
X143978190Y-108291380D01*
X143882952Y-108339000D01*
X143835333Y-108386619D01*
X143740095Y-108529476D01*
X143692476Y-108719952D01*
X143692476Y-109100904D01*
X143740095Y-109196142D01*
X143787714Y-109243761D01*
X143882952Y-109291380D01*
X144073428Y-109291380D01*
X144168666Y-109243761D01*
X144216285Y-109196142D01*
X144263904Y-109100904D01*
X144263904Y-108862809D01*
X144216285Y-108767571D01*
X144168666Y-108719952D01*
X144073428Y-108672333D01*
X143882952Y-108672333D01*
X143787714Y-108719952D01*
X143740095Y-108767571D01*
X143692476Y-108862809D01*
X149963619Y-103576380D02*
X149630285Y-103100190D01*
X149392190Y-103576380D02*
X149392190Y-102576380D01*
X149773142Y-102576380D01*
X149868380Y-102624000D01*
X149916000Y-102671619D01*
X149963619Y-102766857D01*
X149963619Y-102909714D01*
X149916000Y-103004952D01*
X149868380Y-103052571D01*
X149773142Y-103100190D01*
X149392190Y-103100190D01*
X150725523Y-103052571D02*
X150392190Y-103052571D01*
X150392190Y-103576380D02*
X150392190Y-102576380D01*
X150868380Y-102576380D01*
X151963619Y-103290666D02*
X152439809Y-103290666D01*
X151868380Y-103576380D02*
X152201714Y-102576380D01*
X152535047Y-103576380D01*
X152868380Y-102909714D02*
X152868380Y-103576380D01*
X152868380Y-103004952D02*
X152916000Y-102957333D01*
X153011238Y-102909714D01*
X153154095Y-102909714D01*
X153249333Y-102957333D01*
X153296952Y-103052571D01*
X153296952Y-103576380D01*
X153630285Y-102909714D02*
X154011238Y-102909714D01*
X153773142Y-102576380D02*
X153773142Y-103433523D01*
X153820761Y-103528761D01*
X153916000Y-103576380D01*
X154011238Y-103576380D01*
X154725523Y-103528761D02*
X154630285Y-103576380D01*
X154439809Y-103576380D01*
X154344571Y-103528761D01*
X154296952Y-103433523D01*
X154296952Y-103052571D01*
X154344571Y-102957333D01*
X154439809Y-102909714D01*
X154630285Y-102909714D01*
X154725523Y-102957333D01*
X154773142Y-103052571D01*
X154773142Y-103147809D01*
X154296952Y-103243047D01*
X155201714Y-102909714D02*
X155201714Y-103576380D01*
X155201714Y-103004952D02*
X155249333Y-102957333D01*
X155344571Y-102909714D01*
X155487428Y-102909714D01*
X155582666Y-102957333D01*
X155630285Y-103052571D01*
X155630285Y-103576380D01*
X156106476Y-102909714D02*
X156106476Y-103576380D01*
X156106476Y-103004952D02*
X156154095Y-102957333D01*
X156249333Y-102909714D01*
X156392190Y-102909714D01*
X156487428Y-102957333D01*
X156535047Y-103052571D01*
X156535047Y-103576380D01*
X157439809Y-103576380D02*
X157439809Y-103052571D01*
X157392190Y-102957333D01*
X157296952Y-102909714D01*
X157106476Y-102909714D01*
X157011238Y-102957333D01*
X157439809Y-103528761D02*
X157344571Y-103576380D01*
X157106476Y-103576380D01*
X157011238Y-103528761D01*
X156963619Y-103433523D01*
X156963619Y-103338285D01*
X157011238Y-103243047D01*
X157106476Y-103195428D01*
X157344571Y-103195428D01*
X157439809Y-103147809D01*
X162837904Y-134691380D02*
X162837904Y-133691380D01*
X163076000Y-133691380D01*
X163218857Y-133739000D01*
X163314095Y-133834238D01*
X163361714Y-133929476D01*
X163409333Y-134119952D01*
X163409333Y-134262809D01*
X163361714Y-134453285D01*
X163314095Y-134548523D01*
X163218857Y-134643761D01*
X163076000Y-134691380D01*
X162837904Y-134691380D01*
X163790285Y-133786619D02*
X163837904Y-133739000D01*
X163933142Y-133691380D01*
X164171238Y-133691380D01*
X164266476Y-133739000D01*
X164314095Y-133786619D01*
X164361714Y-133881857D01*
X164361714Y-133977095D01*
X164314095Y-134119952D01*
X163742666Y-134691380D01*
X164361714Y-134691380D01*
X162814095Y-110831380D02*
X163385523Y-110831380D01*
X163099809Y-111831380D02*
X163099809Y-110831380D01*
X163623619Y-110831380D02*
X164290285Y-111831380D01*
X164290285Y-110831380D02*
X163623619Y-111831380D01*
X141787714Y-137231380D02*
X141787714Y-136231380D01*
X142025809Y-136231380D01*
X142168666Y-136279000D01*
X142263904Y-136374238D01*
X142311523Y-136469476D01*
X142359142Y-136659952D01*
X142359142Y-136802809D01*
X142311523Y-136993285D01*
X142263904Y-137088523D01*
X142168666Y-137183761D01*
X142025809Y-137231380D01*
X141787714Y-137231380D01*
X143311523Y-137231380D02*
X142740095Y-137231380D01*
X143025809Y-137231380D02*
X143025809Y-136231380D01*
X142930571Y-136374238D01*
X142835333Y-136469476D01*
X142740095Y-136517095D01*
X143644857Y-136231380D02*
X144263904Y-136231380D01*
X143930571Y-136612333D01*
X144073428Y-136612333D01*
X144168666Y-136659952D01*
X144216285Y-136707571D01*
X144263904Y-136802809D01*
X144263904Y-137040904D01*
X144216285Y-137136142D01*
X144168666Y-137183761D01*
X144073428Y-137231380D01*
X143787714Y-137231380D01*
X143692476Y-137183761D01*
X143644857Y-137136142D01*
X162361714Y-137231380D02*
X162361714Y-136231380D01*
X162599809Y-136231380D01*
X162742666Y-136279000D01*
X162837904Y-136374238D01*
X162885523Y-136469476D01*
X162933142Y-136659952D01*
X162933142Y-136802809D01*
X162885523Y-136993285D01*
X162837904Y-137088523D01*
X162742666Y-137183761D01*
X162599809Y-137231380D01*
X162361714Y-137231380D01*
X163885523Y-137231380D02*
X163314095Y-137231380D01*
X163599809Y-137231380D02*
X163599809Y-136231380D01*
X163504571Y-136374238D01*
X163409333Y-136469476D01*
X163314095Y-136517095D01*
X164790285Y-136231380D02*
X164314095Y-136231380D01*
X164266476Y-136707571D01*
X164314095Y-136659952D01*
X164409333Y-136612333D01*
X164647428Y-136612333D01*
X164742666Y-136659952D01*
X164790285Y-136707571D01*
X164837904Y-136802809D01*
X164837904Y-137040904D01*
X164790285Y-137136142D01*
X164742666Y-137183761D01*
X164647428Y-137231380D01*
X164409333Y-137231380D01*
X164314095Y-137183761D01*
X164266476Y-137136142D01*
X141787714Y-111831380D02*
X141787714Y-110831380D01*
X142025809Y-110831380D01*
X142168666Y-110879000D01*
X142263904Y-110974238D01*
X142311523Y-111069476D01*
X142359142Y-111259952D01*
X142359142Y-111402809D01*
X142311523Y-111593285D01*
X142263904Y-111688523D01*
X142168666Y-111783761D01*
X142025809Y-111831380D01*
X141787714Y-111831380D01*
X142692476Y-110831380D02*
X143311523Y-110831380D01*
X142978190Y-111212333D01*
X143121047Y-111212333D01*
X143216285Y-111259952D01*
X143263904Y-111307571D01*
X143311523Y-111402809D01*
X143311523Y-111640904D01*
X143263904Y-111736142D01*
X143216285Y-111783761D01*
X143121047Y-111831380D01*
X142835333Y-111831380D01*
X142740095Y-111783761D01*
X142692476Y-111736142D01*
X143787714Y-111831380D02*
X143978190Y-111831380D01*
X144073428Y-111783761D01*
X144121047Y-111736142D01*
X144216285Y-111593285D01*
X144263904Y-111402809D01*
X144263904Y-111021857D01*
X144216285Y-110926619D01*
X144168666Y-110879000D01*
X144073428Y-110831380D01*
X143882952Y-110831380D01*
X143787714Y-110879000D01*
X143740095Y-110926619D01*
X143692476Y-111021857D01*
X143692476Y-111259952D01*
X143740095Y-111355190D01*
X143787714Y-111402809D01*
X143882952Y-111450428D01*
X144073428Y-111450428D01*
X144168666Y-111402809D01*
X144216285Y-111355190D01*
X144263904Y-111259952D01*
X153170095Y-157440380D02*
X153170095Y-158249904D01*
X153217714Y-158345142D01*
X153265333Y-158392761D01*
X153360571Y-158440380D01*
X153551047Y-158440380D01*
X153646285Y-158392761D01*
X153693904Y-158345142D01*
X153741523Y-158249904D01*
X153741523Y-157440380D01*
X154170095Y-158392761D02*
X154312952Y-158440380D01*
X154551047Y-158440380D01*
X154646285Y-158392761D01*
X154693904Y-158345142D01*
X154741523Y-158249904D01*
X154741523Y-158154666D01*
X154693904Y-158059428D01*
X154646285Y-158011809D01*
X154551047Y-157964190D01*
X154360571Y-157916571D01*
X154265333Y-157868952D01*
X154217714Y-157821333D01*
X154170095Y-157726095D01*
X154170095Y-157630857D01*
X154217714Y-157535619D01*
X154265333Y-157488000D01*
X154360571Y-157440380D01*
X154598666Y-157440380D01*
X154741523Y-157488000D01*
X155503428Y-157916571D02*
X155646285Y-157964190D01*
X155693904Y-158011809D01*
X155741523Y-158107047D01*
X155741523Y-158249904D01*
X155693904Y-158345142D01*
X155646285Y-158392761D01*
X155551047Y-158440380D01*
X155170095Y-158440380D01*
X155170095Y-157440380D01*
X155503428Y-157440380D01*
X155598666Y-157488000D01*
X155646285Y-157535619D01*
X155693904Y-157630857D01*
X155693904Y-157726095D01*
X155646285Y-157821333D01*
X155598666Y-157868952D01*
X155503428Y-157916571D01*
X155170095Y-157916571D01*
X162837904Y-124531380D02*
X162837904Y-123531380D01*
X163076000Y-123531380D01*
X163218857Y-123579000D01*
X163314095Y-123674238D01*
X163361714Y-123769476D01*
X163409333Y-123959952D01*
X163409333Y-124102809D01*
X163361714Y-124293285D01*
X163314095Y-124388523D01*
X163218857Y-124483761D01*
X163076000Y-124531380D01*
X162837904Y-124531380D01*
X164314095Y-123531380D02*
X163837904Y-123531380D01*
X163790285Y-124007571D01*
X163837904Y-123959952D01*
X163933142Y-123912333D01*
X164171238Y-123912333D01*
X164266476Y-123959952D01*
X164314095Y-124007571D01*
X164361714Y-124102809D01*
X164361714Y-124340904D01*
X164314095Y-124436142D01*
X164266476Y-124483761D01*
X164171238Y-124531380D01*
X163933142Y-124531380D01*
X163837904Y-124483761D01*
X163790285Y-124436142D01*
X141787714Y-134691380D02*
X141787714Y-133691380D01*
X142025809Y-133691380D01*
X142168666Y-133739000D01*
X142263904Y-133834238D01*
X142311523Y-133929476D01*
X142359142Y-134119952D01*
X142359142Y-134262809D01*
X142311523Y-134453285D01*
X142263904Y-134548523D01*
X142168666Y-134643761D01*
X142025809Y-134691380D01*
X141787714Y-134691380D01*
X143311523Y-134691380D02*
X142740095Y-134691380D01*
X143025809Y-134691380D02*
X143025809Y-133691380D01*
X142930571Y-133834238D01*
X142835333Y-133929476D01*
X142740095Y-133977095D01*
X143692476Y-133786619D02*
X143740095Y-133739000D01*
X143835333Y-133691380D01*
X144073428Y-133691380D01*
X144168666Y-133739000D01*
X144216285Y-133786619D01*
X144263904Y-133881857D01*
X144263904Y-133977095D01*
X144216285Y-134119952D01*
X143644857Y-134691380D01*
X144263904Y-134691380D01*
X162814095Y-138819000D02*
X162718857Y-138771380D01*
X162576000Y-138771380D01*
X162433142Y-138819000D01*
X162337904Y-138914238D01*
X162290285Y-139009476D01*
X162242666Y-139199952D01*
X162242666Y-139342809D01*
X162290285Y-139533285D01*
X162337904Y-139628523D01*
X162433142Y-139723761D01*
X162576000Y-139771380D01*
X162671238Y-139771380D01*
X162814095Y-139723761D01*
X162861714Y-139676142D01*
X162861714Y-139342809D01*
X162671238Y-139342809D01*
X163290285Y-139771380D02*
X163290285Y-138771380D01*
X163861714Y-139771380D01*
X163861714Y-138771380D01*
X164337904Y-139771380D02*
X164337904Y-138771380D01*
X164576000Y-138771380D01*
X164718857Y-138819000D01*
X164814095Y-138914238D01*
X164861714Y-139009476D01*
X164909333Y-139199952D01*
X164909333Y-139342809D01*
X164861714Y-139533285D01*
X164814095Y-139628523D01*
X164718857Y-139723761D01*
X164576000Y-139771380D01*
X164337904Y-139771380D01*
X162361714Y-129611380D02*
X162361714Y-128611380D01*
X162599809Y-128611380D01*
X162742666Y-128659000D01*
X162837904Y-128754238D01*
X162885523Y-128849476D01*
X162933142Y-129039952D01*
X162933142Y-129182809D01*
X162885523Y-129373285D01*
X162837904Y-129468523D01*
X162742666Y-129563761D01*
X162599809Y-129611380D01*
X162361714Y-129611380D01*
X163885523Y-129611380D02*
X163314095Y-129611380D01*
X163599809Y-129611380D02*
X163599809Y-128611380D01*
X163504571Y-128754238D01*
X163409333Y-128849476D01*
X163314095Y-128897095D01*
X164742666Y-128611380D02*
X164552190Y-128611380D01*
X164456952Y-128659000D01*
X164409333Y-128706619D01*
X164314095Y-128849476D01*
X164266476Y-129039952D01*
X164266476Y-129420904D01*
X164314095Y-129516142D01*
X164361714Y-129563761D01*
X164456952Y-129611380D01*
X164647428Y-129611380D01*
X164742666Y-129563761D01*
X164790285Y-129516142D01*
X164837904Y-129420904D01*
X164837904Y-129182809D01*
X164790285Y-129087571D01*
X164742666Y-129039952D01*
X164647428Y-128992333D01*
X164456952Y-128992333D01*
X164361714Y-129039952D01*
X164314095Y-129087571D01*
X164266476Y-129182809D01*
X141787714Y-124531380D02*
X141787714Y-123531380D01*
X142025809Y-123531380D01*
X142168666Y-123579000D01*
X142263904Y-123674238D01*
X142311523Y-123769476D01*
X142359142Y-123959952D01*
X142359142Y-124102809D01*
X142311523Y-124293285D01*
X142263904Y-124388523D01*
X142168666Y-124483761D01*
X142025809Y-124531380D01*
X141787714Y-124531380D01*
X142740095Y-123626619D02*
X142787714Y-123579000D01*
X142882952Y-123531380D01*
X143121047Y-123531380D01*
X143216285Y-123579000D01*
X143263904Y-123626619D01*
X143311523Y-123721857D01*
X143311523Y-123817095D01*
X143263904Y-123959952D01*
X142692476Y-124531380D01*
X143311523Y-124531380D01*
X144216285Y-123531380D02*
X143740095Y-123531380D01*
X143692476Y-124007571D01*
X143740095Y-123959952D01*
X143835333Y-123912333D01*
X144073428Y-123912333D01*
X144168666Y-123959952D01*
X144216285Y-124007571D01*
X144263904Y-124102809D01*
X144263904Y-124340904D01*
X144216285Y-124436142D01*
X144168666Y-124483761D01*
X144073428Y-124531380D01*
X143835333Y-124531380D01*
X143740095Y-124483761D01*
X143692476Y-124436142D01*
X162837904Y-132151380D02*
X162837904Y-131151380D01*
X163076000Y-131151380D01*
X163218857Y-131199000D01*
X163314095Y-131294238D01*
X163361714Y-131389476D01*
X163409333Y-131579952D01*
X163409333Y-131722809D01*
X163361714Y-131913285D01*
X163314095Y-132008523D01*
X163218857Y-132103761D01*
X163076000Y-132151380D01*
X162837904Y-132151380D01*
X164266476Y-131484714D02*
X164266476Y-132151380D01*
X164028380Y-131103761D02*
X163790285Y-131818047D01*
X164409333Y-131818047D01*
X141906761Y-141311380D02*
X142240095Y-142311380D01*
X142573428Y-141311380D01*
X142906761Y-142311380D02*
X142906761Y-141311380D01*
X143382952Y-142311380D02*
X143382952Y-141311380D01*
X143954380Y-142311380D01*
X143954380Y-141311380D01*
X162361714Y-119451380D02*
X162361714Y-118451380D01*
X162599809Y-118451380D01*
X162742666Y-118499000D01*
X162837904Y-118594238D01*
X162885523Y-118689476D01*
X162933142Y-118879952D01*
X162933142Y-119022809D01*
X162885523Y-119213285D01*
X162837904Y-119308523D01*
X162742666Y-119403761D01*
X162599809Y-119451380D01*
X162361714Y-119451380D01*
X163885523Y-119451380D02*
X163314095Y-119451380D01*
X163599809Y-119451380D02*
X163599809Y-118451380D01*
X163504571Y-118594238D01*
X163409333Y-118689476D01*
X163314095Y-118737095D01*
X164361714Y-119451380D02*
X164552190Y-119451380D01*
X164647428Y-119403761D01*
X164695047Y-119356142D01*
X164790285Y-119213285D01*
X164837904Y-119022809D01*
X164837904Y-118641857D01*
X164790285Y-118546619D01*
X164742666Y-118499000D01*
X164647428Y-118451380D01*
X164456952Y-118451380D01*
X164361714Y-118499000D01*
X164314095Y-118546619D01*
X164266476Y-118641857D01*
X164266476Y-118879952D01*
X164314095Y-118975190D01*
X164361714Y-119022809D01*
X164456952Y-119070428D01*
X164647428Y-119070428D01*
X164742666Y-119022809D01*
X164790285Y-118975190D01*
X164837904Y-118879952D01*
X141787714Y-132151380D02*
X141787714Y-131151380D01*
X142025809Y-131151380D01*
X142168666Y-131199000D01*
X142263904Y-131294238D01*
X142311523Y-131389476D01*
X142359142Y-131579952D01*
X142359142Y-131722809D01*
X142311523Y-131913285D01*
X142263904Y-132008523D01*
X142168666Y-132103761D01*
X142025809Y-132151380D01*
X141787714Y-132151380D01*
X143311523Y-132151380D02*
X142740095Y-132151380D01*
X143025809Y-132151380D02*
X143025809Y-131151380D01*
X142930571Y-131294238D01*
X142835333Y-131389476D01*
X142740095Y-131437095D01*
X144168666Y-131484714D02*
X144168666Y-132151380D01*
X143930571Y-131103761D02*
X143692476Y-131818047D01*
X144311523Y-131818047D01*
X162361714Y-116911380D02*
X162361714Y-115911380D01*
X162599809Y-115911380D01*
X162742666Y-115959000D01*
X162837904Y-116054238D01*
X162885523Y-116149476D01*
X162933142Y-116339952D01*
X162933142Y-116482809D01*
X162885523Y-116673285D01*
X162837904Y-116768523D01*
X162742666Y-116863761D01*
X162599809Y-116911380D01*
X162361714Y-116911380D01*
X163314095Y-116006619D02*
X163361714Y-115959000D01*
X163456952Y-115911380D01*
X163695047Y-115911380D01*
X163790285Y-115959000D01*
X163837904Y-116006619D01*
X163885523Y-116101857D01*
X163885523Y-116197095D01*
X163837904Y-116339952D01*
X163266476Y-116911380D01*
X163885523Y-116911380D01*
X164837904Y-116911380D02*
X164266476Y-116911380D01*
X164552190Y-116911380D02*
X164552190Y-115911380D01*
X164456952Y-116054238D01*
X164361714Y-116149476D01*
X164266476Y-116197095D01*
X141787714Y-121991380D02*
X141787714Y-120991380D01*
X142025809Y-120991380D01*
X142168666Y-121039000D01*
X142263904Y-121134238D01*
X142311523Y-121229476D01*
X142359142Y-121419952D01*
X142359142Y-121562809D01*
X142311523Y-121753285D01*
X142263904Y-121848523D01*
X142168666Y-121943761D01*
X142025809Y-121991380D01*
X141787714Y-121991380D01*
X142692476Y-120991380D02*
X143311523Y-120991380D01*
X142978190Y-121372333D01*
X143121047Y-121372333D01*
X143216285Y-121419952D01*
X143263904Y-121467571D01*
X143311523Y-121562809D01*
X143311523Y-121800904D01*
X143263904Y-121896142D01*
X143216285Y-121943761D01*
X143121047Y-121991380D01*
X142835333Y-121991380D01*
X142740095Y-121943761D01*
X142692476Y-121896142D01*
X143644857Y-120991380D02*
X144263904Y-120991380D01*
X143930571Y-121372333D01*
X144073428Y-121372333D01*
X144168666Y-121419952D01*
X144216285Y-121467571D01*
X144263904Y-121562809D01*
X144263904Y-121800904D01*
X144216285Y-121896142D01*
X144168666Y-121943761D01*
X144073428Y-121991380D01*
X143787714Y-121991380D01*
X143692476Y-121943761D01*
X143644857Y-121896142D01*
X162361714Y-106751380D02*
X162361714Y-105751380D01*
X162599809Y-105751380D01*
X162742666Y-105799000D01*
X162837904Y-105894238D01*
X162885523Y-105989476D01*
X162933142Y-106179952D01*
X162933142Y-106322809D01*
X162885523Y-106513285D01*
X162837904Y-106608523D01*
X162742666Y-106703761D01*
X162599809Y-106751380D01*
X162361714Y-106751380D01*
X163314095Y-105846619D02*
X163361714Y-105799000D01*
X163456952Y-105751380D01*
X163695047Y-105751380D01*
X163790285Y-105799000D01*
X163837904Y-105846619D01*
X163885523Y-105941857D01*
X163885523Y-106037095D01*
X163837904Y-106179952D01*
X163266476Y-106751380D01*
X163885523Y-106751380D01*
X164218857Y-105751380D02*
X164837904Y-105751380D01*
X164504571Y-106132333D01*
X164647428Y-106132333D01*
X164742666Y-106179952D01*
X164790285Y-106227571D01*
X164837904Y-106322809D01*
X164837904Y-106560904D01*
X164790285Y-106656142D01*
X164742666Y-106703761D01*
X164647428Y-106751380D01*
X164361714Y-106751380D01*
X164266476Y-106703761D01*
X164218857Y-106656142D01*
%TO.C,D4*%
X118895904Y-101417380D02*
X118895904Y-100417380D01*
X119134000Y-100417380D01*
X119276857Y-100465000D01*
X119372095Y-100560238D01*
X119419714Y-100655476D01*
X119467333Y-100845952D01*
X119467333Y-100988809D01*
X119419714Y-101179285D01*
X119372095Y-101274523D01*
X119276857Y-101369761D01*
X119134000Y-101417380D01*
X118895904Y-101417380D01*
X120324476Y-100750714D02*
X120324476Y-101417380D01*
X120086380Y-100369761D02*
X119848285Y-101084047D01*
X120467333Y-101084047D01*
%TO.C,D2*%
X109820904Y-101442380D02*
X109820904Y-100442380D01*
X110059000Y-100442380D01*
X110201857Y-100490000D01*
X110297095Y-100585238D01*
X110344714Y-100680476D01*
X110392333Y-100870952D01*
X110392333Y-101013809D01*
X110344714Y-101204285D01*
X110297095Y-101299523D01*
X110201857Y-101394761D01*
X110059000Y-101442380D01*
X109820904Y-101442380D01*
X110773285Y-100537619D02*
X110820904Y-100490000D01*
X110916142Y-100442380D01*
X111154238Y-100442380D01*
X111249476Y-100490000D01*
X111297095Y-100537619D01*
X111344714Y-100632857D01*
X111344714Y-100728095D01*
X111297095Y-100870952D01*
X110725666Y-101442380D01*
X111344714Y-101442380D01*
%TO.C,D4*%
X102258904Y-90241380D02*
X102258904Y-89241380D01*
X102497000Y-89241380D01*
X102639857Y-89289000D01*
X102735095Y-89384238D01*
X102782714Y-89479476D01*
X102830333Y-89669952D01*
X102830333Y-89812809D01*
X102782714Y-90003285D01*
X102735095Y-90098523D01*
X102639857Y-90193761D01*
X102497000Y-90241380D01*
X102258904Y-90241380D01*
X103687476Y-89574714D02*
X103687476Y-90241380D01*
X103449380Y-89193761D02*
X103211285Y-89908047D01*
X103830333Y-89908047D01*
%TO.C,D2*%
X117186904Y-92552380D02*
X117186904Y-91552380D01*
X117425000Y-91552380D01*
X117567857Y-91600000D01*
X117663095Y-91695238D01*
X117710714Y-91790476D01*
X117758333Y-91980952D01*
X117758333Y-92123809D01*
X117710714Y-92314285D01*
X117663095Y-92409523D01*
X117567857Y-92504761D01*
X117425000Y-92552380D01*
X117186904Y-92552380D01*
X118139285Y-91647619D02*
X118186904Y-91600000D01*
X118282142Y-91552380D01*
X118520238Y-91552380D01*
X118615476Y-91600000D01*
X118663095Y-91647619D01*
X118710714Y-91742857D01*
X118710714Y-91838095D01*
X118663095Y-91980952D01*
X118091666Y-92552380D01*
X118710714Y-92552380D01*
%TO.C,D1*%
X106195904Y-102052380D02*
X106195904Y-101052380D01*
X106434000Y-101052380D01*
X106576857Y-101100000D01*
X106672095Y-101195238D01*
X106719714Y-101290476D01*
X106767333Y-101480952D01*
X106767333Y-101623809D01*
X106719714Y-101814285D01*
X106672095Y-101909523D01*
X106576857Y-102004761D01*
X106434000Y-102052380D01*
X106195904Y-102052380D01*
X107719714Y-102052380D02*
X107148285Y-102052380D01*
X107434000Y-102052380D02*
X107434000Y-101052380D01*
X107338761Y-101195238D01*
X107243523Y-101290476D01*
X107148285Y-101338095D01*
%TO.C,D3*%
X115520904Y-102142380D02*
X115520904Y-101142380D01*
X115759000Y-101142380D01*
X115901857Y-101190000D01*
X115997095Y-101285238D01*
X116044714Y-101380476D01*
X116092333Y-101570952D01*
X116092333Y-101713809D01*
X116044714Y-101904285D01*
X115997095Y-101999523D01*
X115901857Y-102094761D01*
X115759000Y-102142380D01*
X115520904Y-102142380D01*
X116425666Y-101142380D02*
X117044714Y-101142380D01*
X116711380Y-101523333D01*
X116854238Y-101523333D01*
X116949476Y-101570952D01*
X116997095Y-101618571D01*
X117044714Y-101713809D01*
X117044714Y-101951904D01*
X116997095Y-102047142D01*
X116949476Y-102094761D01*
X116854238Y-102142380D01*
X116568523Y-102142380D01*
X116473285Y-102094761D01*
X116425666Y-102047142D01*
%TO.C,TP2*%
X112530095Y-104862380D02*
X113101523Y-104862380D01*
X112815809Y-105862380D02*
X112815809Y-104862380D01*
X113434857Y-105862380D02*
X113434857Y-104862380D01*
X113815809Y-104862380D01*
X113911047Y-104910000D01*
X113958666Y-104957619D01*
X114006285Y-105052857D01*
X114006285Y-105195714D01*
X113958666Y-105290952D01*
X113911047Y-105338571D01*
X113815809Y-105386190D01*
X113434857Y-105386190D01*
X114387238Y-104957619D02*
X114434857Y-104910000D01*
X114530095Y-104862380D01*
X114768190Y-104862380D01*
X114863428Y-104910000D01*
X114911047Y-104957619D01*
X114958666Y-105052857D01*
X114958666Y-105148095D01*
X114911047Y-105290952D01*
X114339619Y-105862380D01*
X114958666Y-105862380D01*
%TO.C,D3*%
X98883904Y-90966380D02*
X98883904Y-89966380D01*
X99122000Y-89966380D01*
X99264857Y-90014000D01*
X99360095Y-90109238D01*
X99407714Y-90204476D01*
X99455333Y-90394952D01*
X99455333Y-90537809D01*
X99407714Y-90728285D01*
X99360095Y-90823523D01*
X99264857Y-90918761D01*
X99122000Y-90966380D01*
X98883904Y-90966380D01*
X99788666Y-89966380D02*
X100407714Y-89966380D01*
X100074380Y-90347333D01*
X100217238Y-90347333D01*
X100312476Y-90394952D01*
X100360095Y-90442571D01*
X100407714Y-90537809D01*
X100407714Y-90775904D01*
X100360095Y-90871142D01*
X100312476Y-90918761D01*
X100217238Y-90966380D01*
X99931523Y-90966380D01*
X99836285Y-90918761D01*
X99788666Y-90871142D01*
%TO.C,TP2*%
X112530095Y-94702380D02*
X113101523Y-94702380D01*
X112815809Y-95702380D02*
X112815809Y-94702380D01*
X113434857Y-95702380D02*
X113434857Y-94702380D01*
X113815809Y-94702380D01*
X113911047Y-94750000D01*
X113958666Y-94797619D01*
X114006285Y-94892857D01*
X114006285Y-95035714D01*
X113958666Y-95130952D01*
X113911047Y-95178571D01*
X113815809Y-95226190D01*
X113434857Y-95226190D01*
X114387238Y-94797619D02*
X114434857Y-94750000D01*
X114530095Y-94702380D01*
X114768190Y-94702380D01*
X114863428Y-94750000D01*
X114911047Y-94797619D01*
X114958666Y-94892857D01*
X114958666Y-94988095D01*
X114911047Y-95130952D01*
X114339619Y-95702380D01*
X114958666Y-95702380D01*
%TO.C,J3*%
X161718666Y-145248380D02*
X161718666Y-145962666D01*
X161671047Y-146105523D01*
X161575809Y-146200761D01*
X161432952Y-146248380D01*
X161337714Y-146248380D01*
X162099619Y-145248380D02*
X162718666Y-145248380D01*
X162385333Y-145629333D01*
X162528190Y-145629333D01*
X162623428Y-145676952D01*
X162671047Y-145724571D01*
X162718666Y-145819809D01*
X162718666Y-146057904D01*
X162671047Y-146153142D01*
X162623428Y-146200761D01*
X162528190Y-146248380D01*
X162242476Y-146248380D01*
X162147238Y-146200761D01*
X162099619Y-146153142D01*
%TO.C,J4*%
X144446666Y-145248380D02*
X144446666Y-145962666D01*
X144399047Y-146105523D01*
X144303809Y-146200761D01*
X144160952Y-146248380D01*
X144065714Y-146248380D01*
X145351428Y-145581714D02*
X145351428Y-146248380D01*
X145113333Y-145200761D02*
X144875238Y-145915047D01*
X145494285Y-145915047D01*
%TO.C,C1*%
X190892133Y-94235542D02*
X190844514Y-94283161D01*
X190701657Y-94330780D01*
X190606419Y-94330780D01*
X190463561Y-94283161D01*
X190368323Y-94187923D01*
X190320704Y-94092685D01*
X190273085Y-93902209D01*
X190273085Y-93759352D01*
X190320704Y-93568876D01*
X190368323Y-93473638D01*
X190463561Y-93378400D01*
X190606419Y-93330780D01*
X190701657Y-93330780D01*
X190844514Y-93378400D01*
X190892133Y-93426019D01*
X191844514Y-94330780D02*
X191273085Y-94330780D01*
X191558800Y-94330780D02*
X191558800Y-93330780D01*
X191463561Y-93473638D01*
X191368323Y-93568876D01*
X191273085Y-93616495D01*
%TO.C,D1*%
X114196904Y-82367380D02*
X114196904Y-81367380D01*
X114435000Y-81367380D01*
X114577857Y-81415000D01*
X114673095Y-81510238D01*
X114720714Y-81605476D01*
X114768333Y-81795952D01*
X114768333Y-81938809D01*
X114720714Y-82129285D01*
X114673095Y-82224523D01*
X114577857Y-82319761D01*
X114435000Y-82367380D01*
X114196904Y-82367380D01*
X115720714Y-82367380D02*
X115149285Y-82367380D01*
X115435000Y-82367380D02*
X115435000Y-81367380D01*
X115339761Y-81510238D01*
X115244523Y-81605476D01*
X115149285Y-81653095D01*
X113561904Y-93162380D02*
X113561904Y-92162380D01*
X113800000Y-92162380D01*
X113942857Y-92210000D01*
X114038095Y-92305238D01*
X114085714Y-92400476D01*
X114133333Y-92590952D01*
X114133333Y-92733809D01*
X114085714Y-92924285D01*
X114038095Y-93019523D01*
X113942857Y-93114761D01*
X113800000Y-93162380D01*
X113561904Y-93162380D01*
X115085714Y-93162380D02*
X114514285Y-93162380D01*
X114800000Y-93162380D02*
X114800000Y-92162380D01*
X114704761Y-92305238D01*
X114609523Y-92400476D01*
X114514285Y-92448095D01*
%TO.C,D3*%
X115520904Y-81822380D02*
X115520904Y-80822380D01*
X115759000Y-80822380D01*
X115901857Y-80870000D01*
X115997095Y-80965238D01*
X116044714Y-81060476D01*
X116092333Y-81250952D01*
X116092333Y-81393809D01*
X116044714Y-81584285D01*
X115997095Y-81679523D01*
X115901857Y-81774761D01*
X115759000Y-81822380D01*
X115520904Y-81822380D01*
X116425666Y-80822380D02*
X117044714Y-80822380D01*
X116711380Y-81203333D01*
X116854238Y-81203333D01*
X116949476Y-81250952D01*
X116997095Y-81298571D01*
X117044714Y-81393809D01*
X117044714Y-81631904D01*
X116997095Y-81727142D01*
X116949476Y-81774761D01*
X116854238Y-81822380D01*
X116568523Y-81822380D01*
X116473285Y-81774761D01*
X116425666Y-81727142D01*
%TO.C,D4*%
X118895904Y-81097380D02*
X118895904Y-80097380D01*
X119134000Y-80097380D01*
X119276857Y-80145000D01*
X119372095Y-80240238D01*
X119419714Y-80335476D01*
X119467333Y-80525952D01*
X119467333Y-80668809D01*
X119419714Y-80859285D01*
X119372095Y-80954523D01*
X119276857Y-81049761D01*
X119134000Y-81097380D01*
X118895904Y-81097380D01*
X120324476Y-80430714D02*
X120324476Y-81097380D01*
X120086380Y-80049761D02*
X119848285Y-80764047D01*
X120467333Y-80764047D01*
%TO.C,TP2*%
X112530095Y-84542380D02*
X113101523Y-84542380D01*
X112815809Y-85542380D02*
X112815809Y-84542380D01*
X113434857Y-85542380D02*
X113434857Y-84542380D01*
X113815809Y-84542380D01*
X113911047Y-84590000D01*
X113958666Y-84637619D01*
X114006285Y-84732857D01*
X114006285Y-84875714D01*
X113958666Y-84970952D01*
X113911047Y-85018571D01*
X113815809Y-85066190D01*
X113434857Y-85066190D01*
X114387238Y-84637619D02*
X114434857Y-84590000D01*
X114530095Y-84542380D01*
X114768190Y-84542380D01*
X114863428Y-84590000D01*
X114911047Y-84637619D01*
X114958666Y-84732857D01*
X114958666Y-84828095D01*
X114911047Y-84970952D01*
X114339619Y-85542380D01*
X114958666Y-85542380D01*
%TO.C,D2*%
X117821904Y-81757380D02*
X117821904Y-80757380D01*
X118060000Y-80757380D01*
X118202857Y-80805000D01*
X118298095Y-80900238D01*
X118345714Y-80995476D01*
X118393333Y-81185952D01*
X118393333Y-81328809D01*
X118345714Y-81519285D01*
X118298095Y-81614523D01*
X118202857Y-81709761D01*
X118060000Y-81757380D01*
X117821904Y-81757380D01*
X118774285Y-80852619D02*
X118821904Y-80805000D01*
X118917142Y-80757380D01*
X119155238Y-80757380D01*
X119250476Y-80805000D01*
X119298095Y-80852619D01*
X119345714Y-80947857D01*
X119345714Y-81043095D01*
X119298095Y-81185952D01*
X118726666Y-81757380D01*
X119345714Y-81757380D01*
X108423904Y-112110380D02*
X108423904Y-111110380D01*
X108662000Y-111110380D01*
X108804857Y-111158000D01*
X108900095Y-111253238D01*
X108947714Y-111348476D01*
X108995333Y-111538952D01*
X108995333Y-111681809D01*
X108947714Y-111872285D01*
X108900095Y-111967523D01*
X108804857Y-112062761D01*
X108662000Y-112110380D01*
X108423904Y-112110380D01*
X109376285Y-111205619D02*
X109423904Y-111158000D01*
X109519142Y-111110380D01*
X109757238Y-111110380D01*
X109852476Y-111158000D01*
X109900095Y-111205619D01*
X109947714Y-111300857D01*
X109947714Y-111396095D01*
X109900095Y-111538952D01*
X109328666Y-112110380D01*
X109947714Y-112110380D01*
%TO.C,D1*%
X104798904Y-112720380D02*
X104798904Y-111720380D01*
X105037000Y-111720380D01*
X105179857Y-111768000D01*
X105275095Y-111863238D01*
X105322714Y-111958476D01*
X105370333Y-112148952D01*
X105370333Y-112291809D01*
X105322714Y-112482285D01*
X105275095Y-112577523D01*
X105179857Y-112672761D01*
X105037000Y-112720380D01*
X104798904Y-112720380D01*
X106322714Y-112720380D02*
X105751285Y-112720380D01*
X106037000Y-112720380D02*
X106037000Y-111720380D01*
X105941761Y-111863238D01*
X105846523Y-111958476D01*
X105751285Y-112006095D01*
%TO.C,TP2*%
X112530095Y-115022380D02*
X113101523Y-115022380D01*
X112815809Y-116022380D02*
X112815809Y-115022380D01*
X113434857Y-116022380D02*
X113434857Y-115022380D01*
X113815809Y-115022380D01*
X113911047Y-115070000D01*
X113958666Y-115117619D01*
X114006285Y-115212857D01*
X114006285Y-115355714D01*
X113958666Y-115450952D01*
X113911047Y-115498571D01*
X113815809Y-115546190D01*
X113434857Y-115546190D01*
X114387238Y-115117619D02*
X114434857Y-115070000D01*
X114530095Y-115022380D01*
X114768190Y-115022380D01*
X114863428Y-115070000D01*
X114911047Y-115117619D01*
X114958666Y-115212857D01*
X114958666Y-115308095D01*
X114911047Y-115450952D01*
X114339619Y-116022380D01*
X114958666Y-116022380D01*
%TO.C,D3*%
X114123904Y-112810380D02*
X114123904Y-111810380D01*
X114362000Y-111810380D01*
X114504857Y-111858000D01*
X114600095Y-111953238D01*
X114647714Y-112048476D01*
X114695333Y-112238952D01*
X114695333Y-112381809D01*
X114647714Y-112572285D01*
X114600095Y-112667523D01*
X114504857Y-112762761D01*
X114362000Y-112810380D01*
X114123904Y-112810380D01*
X115028666Y-111810380D02*
X115647714Y-111810380D01*
X115314380Y-112191333D01*
X115457238Y-112191333D01*
X115552476Y-112238952D01*
X115600095Y-112286571D01*
X115647714Y-112381809D01*
X115647714Y-112619904D01*
X115600095Y-112715142D01*
X115552476Y-112762761D01*
X115457238Y-112810380D01*
X115171523Y-112810380D01*
X115076285Y-112762761D01*
X115028666Y-112715142D01*
%TO.C,D4*%
X117498904Y-112085380D02*
X117498904Y-111085380D01*
X117737000Y-111085380D01*
X117879857Y-111133000D01*
X117975095Y-111228238D01*
X118022714Y-111323476D01*
X118070333Y-111513952D01*
X118070333Y-111656809D01*
X118022714Y-111847285D01*
X117975095Y-111942523D01*
X117879857Y-112037761D01*
X117737000Y-112085380D01*
X117498904Y-112085380D01*
X118927476Y-111418714D02*
X118927476Y-112085380D01*
X118689380Y-111037761D02*
X118451285Y-111752047D01*
X119070333Y-111752047D01*
X-3278095Y-126182380D02*
X-3278095Y-125182380D01*
X-3040000Y-125182380D01*
X-2897142Y-125230000D01*
X-2801904Y-125325238D01*
X-2754285Y-125420476D01*
X-2706666Y-125610952D01*
X-2706666Y-125753809D01*
X-2754285Y-125944285D01*
X-2801904Y-126039523D01*
X-2897142Y-126134761D01*
X-3040000Y-126182380D01*
X-3278095Y-126182380D01*
X-1849523Y-125515714D02*
X-1849523Y-126182380D01*
X-2087619Y-125134761D02*
X-2325714Y-125849047D01*
X-1706666Y-125849047D01*
%TO.C,D2*%
X-4548095Y-119832380D02*
X-4548095Y-118832380D01*
X-4310000Y-118832380D01*
X-4167142Y-118880000D01*
X-4071904Y-118975238D01*
X-4024285Y-119070476D01*
X-3976666Y-119260952D01*
X-3976666Y-119403809D01*
X-4024285Y-119594285D01*
X-4071904Y-119689523D01*
X-4167142Y-119784761D01*
X-4310000Y-119832380D01*
X-4548095Y-119832380D01*
X-3595714Y-118927619D02*
X-3548095Y-118880000D01*
X-3452857Y-118832380D01*
X-3214761Y-118832380D01*
X-3119523Y-118880000D01*
X-3071904Y-118927619D01*
X-3024285Y-119022857D01*
X-3024285Y-119118095D01*
X-3071904Y-119260952D01*
X-3643333Y-119832380D01*
X-3024285Y-119832380D01*
%TO.C,D1*%
X105560904Y-122372380D02*
X105560904Y-121372380D01*
X105799000Y-121372380D01*
X105941857Y-121420000D01*
X106037095Y-121515238D01*
X106084714Y-121610476D01*
X106132333Y-121800952D01*
X106132333Y-121943809D01*
X106084714Y-122134285D01*
X106037095Y-122229523D01*
X105941857Y-122324761D01*
X105799000Y-122372380D01*
X105560904Y-122372380D01*
X107084714Y-122372380D02*
X106513285Y-122372380D01*
X106799000Y-122372380D02*
X106799000Y-121372380D01*
X106703761Y-121515238D01*
X106608523Y-121610476D01*
X106513285Y-121658095D01*
%TO.C,D3*%
X-3278095Y-112212380D02*
X-3278095Y-111212380D01*
X-3040000Y-111212380D01*
X-2897142Y-111260000D01*
X-2801904Y-111355238D01*
X-2754285Y-111450476D01*
X-2706666Y-111640952D01*
X-2706666Y-111783809D01*
X-2754285Y-111974285D01*
X-2801904Y-112069523D01*
X-2897142Y-112164761D01*
X-3040000Y-112212380D01*
X-3278095Y-112212380D01*
X-2373333Y-111212380D02*
X-1754285Y-111212380D01*
X-2087619Y-111593333D01*
X-1944761Y-111593333D01*
X-1849523Y-111640952D01*
X-1801904Y-111688571D01*
X-1754285Y-111783809D01*
X-1754285Y-112021904D01*
X-1801904Y-112117142D01*
X-1849523Y-112164761D01*
X-1944761Y-112212380D01*
X-2230476Y-112212380D01*
X-2325714Y-112164761D01*
X-2373333Y-112117142D01*
%TO.C,TP2*%
X8095Y-116292380D02*
X579523Y-116292380D01*
X293809Y-117292380D02*
X293809Y-116292380D01*
X912857Y-117292380D02*
X912857Y-116292380D01*
X1293809Y-116292380D01*
X1389047Y-116340000D01*
X1436666Y-116387619D01*
X1484285Y-116482857D01*
X1484285Y-116625714D01*
X1436666Y-116720952D01*
X1389047Y-116768571D01*
X1293809Y-116816190D01*
X912857Y-116816190D01*
X1865238Y-116387619D02*
X1912857Y-116340000D01*
X2008095Y-116292380D01*
X2246190Y-116292380D01*
X2341428Y-116340000D01*
X2389047Y-116387619D01*
X2436666Y-116482857D01*
X2436666Y-116578095D01*
X2389047Y-116720952D01*
X1817619Y-117292380D01*
X2436666Y-117292380D01*
%TO.C,J1*%
X216074666Y-124166380D02*
X216074666Y-124880666D01*
X216027047Y-125023523D01*
X215931809Y-125118761D01*
X215788952Y-125166380D01*
X215693714Y-125166380D01*
X217074666Y-125166380D02*
X216503238Y-125166380D01*
X216788952Y-125166380D02*
X216788952Y-124166380D01*
X216693714Y-124309238D01*
X216598476Y-124404476D01*
X216503238Y-124452095D01*
X140700380Y-80343333D02*
X141414666Y-80343333D01*
X141557523Y-80390952D01*
X141652761Y-80486190D01*
X141700380Y-80629047D01*
X141700380Y-80724285D01*
X141700380Y-79343333D02*
X141700380Y-79914761D01*
X141700380Y-79629047D02*
X140700380Y-79629047D01*
X140843238Y-79724285D01*
X140938476Y-79819523D01*
X140986095Y-79914761D01*
%TO.C,U6*%
X165993380Y-86105904D02*
X166802904Y-86105904D01*
X166898142Y-86058285D01*
X166945761Y-86010666D01*
X166993380Y-85915428D01*
X166993380Y-85724952D01*
X166945761Y-85629714D01*
X166898142Y-85582095D01*
X166802904Y-85534476D01*
X165993380Y-85534476D01*
X165993380Y-84629714D02*
X165993380Y-84820190D01*
X166041000Y-84915428D01*
X166088619Y-84963047D01*
X166231476Y-85058285D01*
X166421952Y-85105904D01*
X166802904Y-85105904D01*
X166898142Y-85058285D01*
X166945761Y-85010666D01*
X166993380Y-84915428D01*
X166993380Y-84724952D01*
X166945761Y-84629714D01*
X166898142Y-84582095D01*
X166802904Y-84534476D01*
X166564809Y-84534476D01*
X166469571Y-84582095D01*
X166421952Y-84629714D01*
X166374333Y-84724952D01*
X166374333Y-84915428D01*
X166421952Y-85010666D01*
X166469571Y-85058285D01*
X166564809Y-85105904D01*
X161171000Y-89280904D02*
X161123380Y-89376142D01*
X161123380Y-89519000D01*
X161171000Y-89661857D01*
X161266238Y-89757095D01*
X161361476Y-89804714D01*
X161551952Y-89852333D01*
X161694809Y-89852333D01*
X161885285Y-89804714D01*
X161980523Y-89757095D01*
X162075761Y-89661857D01*
X162123380Y-89519000D01*
X162123380Y-89423761D01*
X162075761Y-89280904D01*
X162028142Y-89233285D01*
X161694809Y-89233285D01*
X161694809Y-89423761D01*
X162123380Y-88804714D02*
X161123380Y-88804714D01*
X162123380Y-88233285D01*
X161123380Y-88233285D01*
X162123380Y-87757095D02*
X161123380Y-87757095D01*
X161123380Y-87519000D01*
X161171000Y-87376142D01*
X161266238Y-87280904D01*
X161361476Y-87233285D01*
X161551952Y-87185666D01*
X161694809Y-87185666D01*
X161885285Y-87233285D01*
X161980523Y-87280904D01*
X162075761Y-87376142D01*
X162123380Y-87519000D01*
X162123380Y-87757095D01*
X163536380Y-89979333D02*
X164536380Y-89646000D01*
X163536380Y-89312666D01*
X164441142Y-88407904D02*
X164488761Y-88455523D01*
X164536380Y-88598380D01*
X164536380Y-88693619D01*
X164488761Y-88836476D01*
X164393523Y-88931714D01*
X164298285Y-88979333D01*
X164107809Y-89026952D01*
X163964952Y-89026952D01*
X163774476Y-88979333D01*
X163679238Y-88931714D01*
X163584000Y-88836476D01*
X163536380Y-88693619D01*
X163536380Y-88598380D01*
X163584000Y-88455523D01*
X163631619Y-88407904D01*
X164441142Y-87407904D02*
X164488761Y-87455523D01*
X164536380Y-87598380D01*
X164536380Y-87693619D01*
X164488761Y-87836476D01*
X164393523Y-87931714D01*
X164298285Y-87979333D01*
X164107809Y-88026952D01*
X163964952Y-88026952D01*
X163774476Y-87979333D01*
X163679238Y-87931714D01*
X163584000Y-87836476D01*
X163536380Y-87693619D01*
X163536380Y-87598380D01*
X163584000Y-87455523D01*
X163631619Y-87407904D01*
X151439571Y-89638047D02*
X151439571Y-89304714D01*
X151963380Y-89161857D02*
X151963380Y-89638047D01*
X150963380Y-89638047D01*
X150963380Y-89161857D01*
X151868142Y-88161857D02*
X151915761Y-88209476D01*
X151963380Y-88352333D01*
X151963380Y-88447571D01*
X151915761Y-88590428D01*
X151820523Y-88685666D01*
X151725285Y-88733285D01*
X151534809Y-88780904D01*
X151391952Y-88780904D01*
X151201476Y-88733285D01*
X151106238Y-88685666D01*
X151011000Y-88590428D01*
X150963380Y-88447571D01*
X150963380Y-88352333D01*
X151011000Y-88209476D01*
X151058619Y-88161857D01*
X151963380Y-87257095D02*
X151963380Y-87733285D01*
X150963380Y-87733285D01*
X145391190Y-94869000D02*
X145867380Y-94869000D01*
X144867380Y-95202333D02*
X145391190Y-94869000D01*
X144867380Y-94535666D01*
X144343380Y-89780904D02*
X143343380Y-89780904D01*
X144343380Y-89209476D01*
X143343380Y-89209476D01*
X144248142Y-88161857D02*
X144295761Y-88209476D01*
X144343380Y-88352333D01*
X144343380Y-88447571D01*
X144295761Y-88590428D01*
X144200523Y-88685666D01*
X144105285Y-88733285D01*
X143914809Y-88780904D01*
X143771952Y-88780904D01*
X143581476Y-88733285D01*
X143486238Y-88685666D01*
X143391000Y-88590428D01*
X143343380Y-88447571D01*
X143343380Y-88352333D01*
X143391000Y-88209476D01*
X143438619Y-88161857D01*
X144295761Y-87780904D02*
X144343380Y-87638047D01*
X144343380Y-87399952D01*
X144295761Y-87304714D01*
X144248142Y-87257095D01*
X144152904Y-87209476D01*
X144057666Y-87209476D01*
X143962428Y-87257095D01*
X143914809Y-87304714D01*
X143867190Y-87399952D01*
X143819571Y-87590428D01*
X143771952Y-87685666D01*
X143724333Y-87733285D01*
X143629095Y-87780904D01*
X143533857Y-87780904D01*
X143438619Y-87733285D01*
X143391000Y-87685666D01*
X143343380Y-87590428D01*
X143343380Y-87352333D01*
X143391000Y-87209476D01*
X149137666Y-89733285D02*
X149137666Y-89257095D01*
X149423380Y-89828523D02*
X148423380Y-89495190D01*
X149423380Y-89161857D01*
X149423380Y-88828523D02*
X148423380Y-88828523D01*
X148423380Y-88590428D01*
X148471000Y-88447571D01*
X148566238Y-88352333D01*
X148661476Y-88304714D01*
X148851952Y-88257095D01*
X148994809Y-88257095D01*
X149185285Y-88304714D01*
X149280523Y-88352333D01*
X149375761Y-88447571D01*
X149423380Y-88590428D01*
X149423380Y-88828523D01*
X148423380Y-87638047D02*
X148423380Y-87542809D01*
X148471000Y-87447571D01*
X148518619Y-87399952D01*
X148613857Y-87352333D01*
X148804333Y-87304714D01*
X149042428Y-87304714D01*
X149232904Y-87352333D01*
X149328142Y-87399952D01*
X149375761Y-87447571D01*
X149423380Y-87542809D01*
X149423380Y-87638047D01*
X149375761Y-87733285D01*
X149328142Y-87780904D01*
X149232904Y-87828523D01*
X149042428Y-87876142D01*
X148804333Y-87876142D01*
X148613857Y-87828523D01*
X148518619Y-87780904D01*
X148471000Y-87733285D01*
X148423380Y-87638047D01*
X141438380Y-98377333D02*
X142438380Y-97710666D01*
X141438380Y-97710666D02*
X142438380Y-98377333D01*
X146883380Y-89169761D02*
X145883380Y-89169761D01*
X146883380Y-88693571D02*
X145883380Y-88693571D01*
X146883380Y-88122142D01*
X145883380Y-88122142D01*
X145883380Y-87788809D02*
X145883380Y-87217380D01*
X146883380Y-87503095D02*
X145883380Y-87503095D01*
X141279571Y-91193714D02*
X141279571Y-91527047D01*
X141803380Y-91527047D02*
X140803380Y-91527047D01*
X140803380Y-91050857D01*
X141755761Y-90717523D02*
X141803380Y-90574666D01*
X141803380Y-90336571D01*
X141755761Y-90241333D01*
X141708142Y-90193714D01*
X141612904Y-90146095D01*
X141517666Y-90146095D01*
X141422428Y-90193714D01*
X141374809Y-90241333D01*
X141327190Y-90336571D01*
X141279571Y-90527047D01*
X141231952Y-90622285D01*
X141184333Y-90669904D01*
X141089095Y-90717523D01*
X140993857Y-90717523D01*
X140898619Y-90669904D01*
X140851000Y-90622285D01*
X140803380Y-90527047D01*
X140803380Y-90288952D01*
X140851000Y-90146095D01*
X141327190Y-89527047D02*
X141803380Y-89527047D01*
X140803380Y-89860380D02*
X141327190Y-89527047D01*
X140803380Y-89193714D01*
X141803380Y-88860380D02*
X140803380Y-88860380D01*
X141803380Y-88288952D01*
X140803380Y-88288952D01*
X141708142Y-87241333D02*
X141755761Y-87288952D01*
X141803380Y-87431809D01*
X141803380Y-87527047D01*
X141755761Y-87669904D01*
X141660523Y-87765142D01*
X141565285Y-87812761D01*
X141374809Y-87860380D01*
X141231952Y-87860380D01*
X141041476Y-87812761D01*
X140946238Y-87765142D01*
X140851000Y-87669904D01*
X140803380Y-87527047D01*
X140803380Y-87431809D01*
X140851000Y-87288952D01*
X140898619Y-87241333D01*
X140803380Y-94567333D02*
X140803380Y-93900666D01*
X141803380Y-94567333D01*
X141803380Y-93900666D01*
X153979571Y-89661857D02*
X153979571Y-89328523D01*
X154503380Y-89185666D02*
X154503380Y-89661857D01*
X153503380Y-89661857D01*
X153503380Y-89185666D01*
X154503380Y-88757095D02*
X153503380Y-88757095D01*
X153503380Y-88519000D01*
X153551000Y-88376142D01*
X153646238Y-88280904D01*
X153741476Y-88233285D01*
X153931952Y-88185666D01*
X154074809Y-88185666D01*
X154265285Y-88233285D01*
X154360523Y-88280904D01*
X154455761Y-88376142D01*
X154503380Y-88519000D01*
X154503380Y-88757095D01*
X154217666Y-87804714D02*
X154217666Y-87328523D01*
X154503380Y-87899952D02*
X153503380Y-87566619D01*
X154503380Y-87233285D01*
X156995761Y-89733285D02*
X157043380Y-89590428D01*
X157043380Y-89352333D01*
X156995761Y-89257095D01*
X156948142Y-89209476D01*
X156852904Y-89161857D01*
X156757666Y-89161857D01*
X156662428Y-89209476D01*
X156614809Y-89257095D01*
X156567190Y-89352333D01*
X156519571Y-89542809D01*
X156471952Y-89638047D01*
X156424333Y-89685666D01*
X156329095Y-89733285D01*
X156233857Y-89733285D01*
X156138619Y-89685666D01*
X156091000Y-89638047D01*
X156043380Y-89542809D01*
X156043380Y-89304714D01*
X156091000Y-89161857D01*
X157043380Y-88733285D02*
X156043380Y-88733285D01*
X156043380Y-88495190D01*
X156091000Y-88352333D01*
X156186238Y-88257095D01*
X156281476Y-88209476D01*
X156471952Y-88161857D01*
X156614809Y-88161857D01*
X156805285Y-88209476D01*
X156900523Y-88257095D01*
X156995761Y-88352333D01*
X157043380Y-88495190D01*
X157043380Y-88733285D01*
X156757666Y-87780904D02*
X156757666Y-87304714D01*
X157043380Y-87876142D02*
X156043380Y-87542809D01*
X157043380Y-87209476D01*
X159535761Y-89709476D02*
X159583380Y-89566619D01*
X159583380Y-89328523D01*
X159535761Y-89233285D01*
X159488142Y-89185666D01*
X159392904Y-89138047D01*
X159297666Y-89138047D01*
X159202428Y-89185666D01*
X159154809Y-89233285D01*
X159107190Y-89328523D01*
X159059571Y-89519000D01*
X159011952Y-89614238D01*
X158964333Y-89661857D01*
X158869095Y-89709476D01*
X158773857Y-89709476D01*
X158678619Y-89661857D01*
X158631000Y-89614238D01*
X158583380Y-89519000D01*
X158583380Y-89280904D01*
X158631000Y-89138047D01*
X159488142Y-88138047D02*
X159535761Y-88185666D01*
X159583380Y-88328523D01*
X159583380Y-88423761D01*
X159535761Y-88566619D01*
X159440523Y-88661857D01*
X159345285Y-88709476D01*
X159154809Y-88757095D01*
X159011952Y-88757095D01*
X158821476Y-88709476D01*
X158726238Y-88661857D01*
X158631000Y-88566619D01*
X158583380Y-88423761D01*
X158583380Y-88328523D01*
X158631000Y-88185666D01*
X158678619Y-88138047D01*
X159583380Y-87233285D02*
X159583380Y-87709476D01*
X158583380Y-87709476D01*
%TO.C,R1*%
X155192433Y-109164380D02*
X154859100Y-108688190D01*
X154621004Y-109164380D02*
X154621004Y-108164380D01*
X155001957Y-108164380D01*
X155097195Y-108212000D01*
X155144814Y-108259619D01*
X155192433Y-108354857D01*
X155192433Y-108497714D01*
X155144814Y-108592952D01*
X155097195Y-108640571D01*
X155001957Y-108688190D01*
X154621004Y-108688190D01*
X156144814Y-109164380D02*
X155573385Y-109164380D01*
X155859100Y-109164380D02*
X155859100Y-108164380D01*
X155763861Y-108307238D01*
X155668623Y-108402476D01*
X155573385Y-108450095D01*
X148921861Y-109291380D02*
X148350433Y-109291380D01*
X148636147Y-109291380D02*
X148636147Y-108291380D01*
X148540909Y-108434238D01*
X148445671Y-108529476D01*
X148350433Y-108577095D01*
X149540909Y-108291380D02*
X149636147Y-108291380D01*
X149731385Y-108339000D01*
X149779004Y-108386619D01*
X149826623Y-108481857D01*
X149874242Y-108672333D01*
X149874242Y-108910428D01*
X149826623Y-109100904D01*
X149779004Y-109196142D01*
X149731385Y-109243761D01*
X149636147Y-109291380D01*
X149540909Y-109291380D01*
X149445671Y-109243761D01*
X149398052Y-109196142D01*
X149350433Y-109100904D01*
X149302814Y-108910428D01*
X149302814Y-108672333D01*
X149350433Y-108481857D01*
X149398052Y-108386619D01*
X149445671Y-108339000D01*
X149540909Y-108291380D01*
X150302814Y-109291380D02*
X150302814Y-108291380D01*
X150398052Y-108910428D02*
X150683766Y-109291380D01*
X150683766Y-108624714D02*
X150302814Y-109005666D01*
%TO.C,R2*%
X155154333Y-111831380D02*
X154821000Y-111355190D01*
X154582904Y-111831380D02*
X154582904Y-110831380D01*
X154963857Y-110831380D01*
X155059095Y-110879000D01*
X155106714Y-110926619D01*
X155154333Y-111021857D01*
X155154333Y-111164714D01*
X155106714Y-111259952D01*
X155059095Y-111307571D01*
X154963857Y-111355190D01*
X154582904Y-111355190D01*
X155535285Y-110926619D02*
X155582904Y-110879000D01*
X155678142Y-110831380D01*
X155916238Y-110831380D01*
X156011476Y-110879000D01*
X156059095Y-110926619D01*
X156106714Y-111021857D01*
X156106714Y-111117095D01*
X156059095Y-111259952D01*
X155487666Y-111831380D01*
X156106714Y-111831380D01*
X148883761Y-111704380D02*
X148312333Y-111704380D01*
X148598047Y-111704380D02*
X148598047Y-110704380D01*
X148502809Y-110847238D01*
X148407571Y-110942476D01*
X148312333Y-110990095D01*
X149502809Y-110704380D02*
X149598047Y-110704380D01*
X149693285Y-110752000D01*
X149740904Y-110799619D01*
X149788523Y-110894857D01*
X149836142Y-111085333D01*
X149836142Y-111323428D01*
X149788523Y-111513904D01*
X149740904Y-111609142D01*
X149693285Y-111656761D01*
X149598047Y-111704380D01*
X149502809Y-111704380D01*
X149407571Y-111656761D01*
X149359952Y-111609142D01*
X149312333Y-111513904D01*
X149264714Y-111323428D01*
X149264714Y-111085333D01*
X149312333Y-110894857D01*
X149359952Y-110799619D01*
X149407571Y-110752000D01*
X149502809Y-110704380D01*
X150264714Y-111704380D02*
X150264714Y-110704380D01*
X150359952Y-111323428D02*
X150645666Y-111704380D01*
X150645666Y-111037714D02*
X150264714Y-111418666D01*
%TO.C,R4*%
X155154333Y-117038380D02*
X154821000Y-116562190D01*
X154582904Y-117038380D02*
X154582904Y-116038380D01*
X154963857Y-116038380D01*
X155059095Y-116086000D01*
X155106714Y-116133619D01*
X155154333Y-116228857D01*
X155154333Y-116371714D01*
X155106714Y-116466952D01*
X155059095Y-116514571D01*
X154963857Y-116562190D01*
X154582904Y-116562190D01*
X156011476Y-116371714D02*
X156011476Y-117038380D01*
X155773380Y-115990761D02*
X155535285Y-116705047D01*
X156154333Y-116705047D01*
X148883761Y-117038380D02*
X148312333Y-117038380D01*
X148598047Y-117038380D02*
X148598047Y-116038380D01*
X148502809Y-116181238D01*
X148407571Y-116276476D01*
X148312333Y-116324095D01*
X149502809Y-116038380D02*
X149598047Y-116038380D01*
X149693285Y-116086000D01*
X149740904Y-116133619D01*
X149788523Y-116228857D01*
X149836142Y-116419333D01*
X149836142Y-116657428D01*
X149788523Y-116847904D01*
X149740904Y-116943142D01*
X149693285Y-116990761D01*
X149598047Y-117038380D01*
X149502809Y-117038380D01*
X149407571Y-116990761D01*
X149359952Y-116943142D01*
X149312333Y-116847904D01*
X149264714Y-116657428D01*
X149264714Y-116419333D01*
X149312333Y-116228857D01*
X149359952Y-116133619D01*
X149407571Y-116086000D01*
X149502809Y-116038380D01*
X150264714Y-117038380D02*
X150264714Y-116038380D01*
X150359952Y-116657428D02*
X150645666Y-117038380D01*
X150645666Y-116371714D02*
X150264714Y-116752666D01*
%TO.C,R5*%
X155154333Y-119578380D02*
X154821000Y-119102190D01*
X154582904Y-119578380D02*
X154582904Y-118578380D01*
X154963857Y-118578380D01*
X155059095Y-118626000D01*
X155106714Y-118673619D01*
X155154333Y-118768857D01*
X155154333Y-118911714D01*
X155106714Y-119006952D01*
X155059095Y-119054571D01*
X154963857Y-119102190D01*
X154582904Y-119102190D01*
X156059095Y-118578380D02*
X155582904Y-118578380D01*
X155535285Y-119054571D01*
X155582904Y-119006952D01*
X155678142Y-118959333D01*
X155916238Y-118959333D01*
X156011476Y-119006952D01*
X156059095Y-119054571D01*
X156106714Y-119149809D01*
X156106714Y-119387904D01*
X156059095Y-119483142D01*
X156011476Y-119530761D01*
X155916238Y-119578380D01*
X155678142Y-119578380D01*
X155582904Y-119530761D01*
X155535285Y-119483142D01*
X148883761Y-119578380D02*
X148312333Y-119578380D01*
X148598047Y-119578380D02*
X148598047Y-118578380D01*
X148502809Y-118721238D01*
X148407571Y-118816476D01*
X148312333Y-118864095D01*
X149502809Y-118578380D02*
X149598047Y-118578380D01*
X149693285Y-118626000D01*
X149740904Y-118673619D01*
X149788523Y-118768857D01*
X149836142Y-118959333D01*
X149836142Y-119197428D01*
X149788523Y-119387904D01*
X149740904Y-119483142D01*
X149693285Y-119530761D01*
X149598047Y-119578380D01*
X149502809Y-119578380D01*
X149407571Y-119530761D01*
X149359952Y-119483142D01*
X149312333Y-119387904D01*
X149264714Y-119197428D01*
X149264714Y-118959333D01*
X149312333Y-118768857D01*
X149359952Y-118673619D01*
X149407571Y-118626000D01*
X149502809Y-118578380D01*
X150264714Y-119578380D02*
X150264714Y-118578380D01*
X150359952Y-119197428D02*
X150645666Y-119578380D01*
X150645666Y-118911714D02*
X150264714Y-119292666D01*
%TO.C,R6*%
X155154333Y-121864380D02*
X154821000Y-121388190D01*
X154582904Y-121864380D02*
X154582904Y-120864380D01*
X154963857Y-120864380D01*
X155059095Y-120912000D01*
X155106714Y-120959619D01*
X155154333Y-121054857D01*
X155154333Y-121197714D01*
X155106714Y-121292952D01*
X155059095Y-121340571D01*
X154963857Y-121388190D01*
X154582904Y-121388190D01*
X156011476Y-120864380D02*
X155821000Y-120864380D01*
X155725761Y-120912000D01*
X155678142Y-120959619D01*
X155582904Y-121102476D01*
X155535285Y-121292952D01*
X155535285Y-121673904D01*
X155582904Y-121769142D01*
X155630523Y-121816761D01*
X155725761Y-121864380D01*
X155916238Y-121864380D01*
X156011476Y-121816761D01*
X156059095Y-121769142D01*
X156106714Y-121673904D01*
X156106714Y-121435809D01*
X156059095Y-121340571D01*
X156011476Y-121292952D01*
X155916238Y-121245333D01*
X155725761Y-121245333D01*
X155630523Y-121292952D01*
X155582904Y-121340571D01*
X155535285Y-121435809D01*
X148883761Y-122118380D02*
X148312333Y-122118380D01*
X148598047Y-122118380D02*
X148598047Y-121118380D01*
X148502809Y-121261238D01*
X148407571Y-121356476D01*
X148312333Y-121404095D01*
X149502809Y-121118380D02*
X149598047Y-121118380D01*
X149693285Y-121166000D01*
X149740904Y-121213619D01*
X149788523Y-121308857D01*
X149836142Y-121499333D01*
X149836142Y-121737428D01*
X149788523Y-121927904D01*
X149740904Y-122023142D01*
X149693285Y-122070761D01*
X149598047Y-122118380D01*
X149502809Y-122118380D01*
X149407571Y-122070761D01*
X149359952Y-122023142D01*
X149312333Y-121927904D01*
X149264714Y-121737428D01*
X149264714Y-121499333D01*
X149312333Y-121308857D01*
X149359952Y-121213619D01*
X149407571Y-121166000D01*
X149502809Y-121118380D01*
X150264714Y-122118380D02*
X150264714Y-121118380D01*
X150359952Y-121737428D02*
X150645666Y-122118380D01*
X150645666Y-121451714D02*
X150264714Y-121832666D01*
%TO.C,R7*%
X155154333Y-124658380D02*
X154821000Y-124182190D01*
X154582904Y-124658380D02*
X154582904Y-123658380D01*
X154963857Y-123658380D01*
X155059095Y-123706000D01*
X155106714Y-123753619D01*
X155154333Y-123848857D01*
X155154333Y-123991714D01*
X155106714Y-124086952D01*
X155059095Y-124134571D01*
X154963857Y-124182190D01*
X154582904Y-124182190D01*
X155487666Y-123658380D02*
X156154333Y-123658380D01*
X155725761Y-124658380D01*
X148883761Y-124658380D02*
X148312333Y-124658380D01*
X148598047Y-124658380D02*
X148598047Y-123658380D01*
X148502809Y-123801238D01*
X148407571Y-123896476D01*
X148312333Y-123944095D01*
X149502809Y-123658380D02*
X149598047Y-123658380D01*
X149693285Y-123706000D01*
X149740904Y-123753619D01*
X149788523Y-123848857D01*
X149836142Y-124039333D01*
X149836142Y-124277428D01*
X149788523Y-124467904D01*
X149740904Y-124563142D01*
X149693285Y-124610761D01*
X149598047Y-124658380D01*
X149502809Y-124658380D01*
X149407571Y-124610761D01*
X149359952Y-124563142D01*
X149312333Y-124467904D01*
X149264714Y-124277428D01*
X149264714Y-124039333D01*
X149312333Y-123848857D01*
X149359952Y-123753619D01*
X149407571Y-123706000D01*
X149502809Y-123658380D01*
X150264714Y-124658380D02*
X150264714Y-123658380D01*
X150359952Y-124277428D02*
X150645666Y-124658380D01*
X150645666Y-123991714D02*
X150264714Y-124372666D01*
%TO.C,R9*%
X155154333Y-129484380D02*
X154821000Y-129008190D01*
X154582904Y-129484380D02*
X154582904Y-128484380D01*
X154963857Y-128484380D01*
X155059095Y-128532000D01*
X155106714Y-128579619D01*
X155154333Y-128674857D01*
X155154333Y-128817714D01*
X155106714Y-128912952D01*
X155059095Y-128960571D01*
X154963857Y-129008190D01*
X154582904Y-129008190D01*
X155630523Y-129484380D02*
X155821000Y-129484380D01*
X155916238Y-129436761D01*
X155963857Y-129389142D01*
X156059095Y-129246285D01*
X156106714Y-129055809D01*
X156106714Y-128674857D01*
X156059095Y-128579619D01*
X156011476Y-128532000D01*
X155916238Y-128484380D01*
X155725761Y-128484380D01*
X155630523Y-128532000D01*
X155582904Y-128579619D01*
X155535285Y-128674857D01*
X155535285Y-128912952D01*
X155582904Y-129008190D01*
X155630523Y-129055809D01*
X155725761Y-129103428D01*
X155916238Y-129103428D01*
X156011476Y-129055809D01*
X156059095Y-129008190D01*
X156106714Y-128912952D01*
X148883761Y-129484380D02*
X148312333Y-129484380D01*
X148598047Y-129484380D02*
X148598047Y-128484380D01*
X148502809Y-128627238D01*
X148407571Y-128722476D01*
X148312333Y-128770095D01*
X149502809Y-128484380D02*
X149598047Y-128484380D01*
X149693285Y-128532000D01*
X149740904Y-128579619D01*
X149788523Y-128674857D01*
X149836142Y-128865333D01*
X149836142Y-129103428D01*
X149788523Y-129293904D01*
X149740904Y-129389142D01*
X149693285Y-129436761D01*
X149598047Y-129484380D01*
X149502809Y-129484380D01*
X149407571Y-129436761D01*
X149359952Y-129389142D01*
X149312333Y-129293904D01*
X149264714Y-129103428D01*
X149264714Y-128865333D01*
X149312333Y-128674857D01*
X149359952Y-128579619D01*
X149407571Y-128532000D01*
X149502809Y-128484380D01*
X150264714Y-129484380D02*
X150264714Y-128484380D01*
X150359952Y-129103428D02*
X150645666Y-129484380D01*
X150645666Y-128817714D02*
X150264714Y-129198666D01*
%TO.C,R10*%
X155059142Y-132024380D02*
X154725809Y-131548190D01*
X154487714Y-132024380D02*
X154487714Y-131024380D01*
X154868666Y-131024380D01*
X154963904Y-131072000D01*
X155011523Y-131119619D01*
X155059142Y-131214857D01*
X155059142Y-131357714D01*
X155011523Y-131452952D01*
X154963904Y-131500571D01*
X154868666Y-131548190D01*
X154487714Y-131548190D01*
X156011523Y-132024380D02*
X155440095Y-132024380D01*
X155725809Y-132024380D02*
X155725809Y-131024380D01*
X155630571Y-131167238D01*
X155535333Y-131262476D01*
X155440095Y-131310095D01*
X156630571Y-131024380D02*
X156725809Y-131024380D01*
X156821047Y-131072000D01*
X156868666Y-131119619D01*
X156916285Y-131214857D01*
X156963904Y-131405333D01*
X156963904Y-131643428D01*
X156916285Y-131833904D01*
X156868666Y-131929142D01*
X156821047Y-131976761D01*
X156725809Y-132024380D01*
X156630571Y-132024380D01*
X156535333Y-131976761D01*
X156487714Y-131929142D01*
X156440095Y-131833904D01*
X156392476Y-131643428D01*
X156392476Y-131405333D01*
X156440095Y-131214857D01*
X156487714Y-131119619D01*
X156535333Y-131072000D01*
X156630571Y-131024380D01*
X148883761Y-132278380D02*
X148312333Y-132278380D01*
X148598047Y-132278380D02*
X148598047Y-131278380D01*
X148502809Y-131421238D01*
X148407571Y-131516476D01*
X148312333Y-131564095D01*
X149502809Y-131278380D02*
X149598047Y-131278380D01*
X149693285Y-131326000D01*
X149740904Y-131373619D01*
X149788523Y-131468857D01*
X149836142Y-131659333D01*
X149836142Y-131897428D01*
X149788523Y-132087904D01*
X149740904Y-132183142D01*
X149693285Y-132230761D01*
X149598047Y-132278380D01*
X149502809Y-132278380D01*
X149407571Y-132230761D01*
X149359952Y-132183142D01*
X149312333Y-132087904D01*
X149264714Y-131897428D01*
X149264714Y-131659333D01*
X149312333Y-131468857D01*
X149359952Y-131373619D01*
X149407571Y-131326000D01*
X149502809Y-131278380D01*
X150264714Y-132278380D02*
X150264714Y-131278380D01*
X150359952Y-131897428D02*
X150645666Y-132278380D01*
X150645666Y-131611714D02*
X150264714Y-131992666D01*
%TO.C,R11*%
X161775580Y-127909557D02*
X161299390Y-128242890D01*
X161775580Y-128480985D02*
X160775580Y-128480985D01*
X160775580Y-128100033D01*
X160823200Y-128004795D01*
X160870819Y-127957176D01*
X160966057Y-127909557D01*
X161108914Y-127909557D01*
X161204152Y-127957176D01*
X161251771Y-128004795D01*
X161299390Y-128100033D01*
X161299390Y-128480985D01*
X161775580Y-126957176D02*
X161775580Y-127528604D01*
X161775580Y-127242890D02*
X160775580Y-127242890D01*
X160918438Y-127338128D01*
X161013676Y-127433366D01*
X161061295Y-127528604D01*
X161775580Y-126004795D02*
X161775580Y-126576223D01*
X161775580Y-126290509D02*
X160775580Y-126290509D01*
X160918438Y-126385747D01*
X161013676Y-126480985D01*
X161061295Y-126576223D01*
X158329380Y-127968285D02*
X158329380Y-128444476D01*
X158805571Y-128492095D01*
X158757952Y-128444476D01*
X158710333Y-128349238D01*
X158710333Y-128111142D01*
X158757952Y-128015904D01*
X158805571Y-127968285D01*
X158900809Y-127920666D01*
X159138904Y-127920666D01*
X159234142Y-127968285D01*
X159281761Y-128015904D01*
X159329380Y-128111142D01*
X159329380Y-128349238D01*
X159281761Y-128444476D01*
X159234142Y-128492095D01*
X158329380Y-127301619D02*
X158329380Y-127206380D01*
X158377000Y-127111142D01*
X158424619Y-127063523D01*
X158519857Y-127015904D01*
X158710333Y-126968285D01*
X158948428Y-126968285D01*
X159138904Y-127015904D01*
X159234142Y-127063523D01*
X159281761Y-127111142D01*
X159329380Y-127206380D01*
X159329380Y-127301619D01*
X159281761Y-127396857D01*
X159234142Y-127444476D01*
X159138904Y-127492095D01*
X158948428Y-127539714D01*
X158710333Y-127539714D01*
X158519857Y-127492095D01*
X158424619Y-127444476D01*
X158377000Y-127396857D01*
X158329380Y-127301619D01*
X158329380Y-126349238D02*
X158329380Y-126254000D01*
X158377000Y-126158761D01*
X158424619Y-126111142D01*
X158519857Y-126063523D01*
X158710333Y-126015904D01*
X158948428Y-126015904D01*
X159138904Y-126063523D01*
X159234142Y-126111142D01*
X159281761Y-126158761D01*
X159329380Y-126254000D01*
X159329380Y-126349238D01*
X159281761Y-126444476D01*
X159234142Y-126492095D01*
X159138904Y-126539714D01*
X158948428Y-126587333D01*
X158710333Y-126587333D01*
X158519857Y-126539714D01*
X158424619Y-126492095D01*
X158377000Y-126444476D01*
X158329380Y-126349238D01*
%TO.C,R16*%
X132961142Y-82113380D02*
X132627809Y-81637190D01*
X132389714Y-82113380D02*
X132389714Y-81113380D01*
X132770666Y-81113380D01*
X132865904Y-81161000D01*
X132913523Y-81208619D01*
X132961142Y-81303857D01*
X132961142Y-81446714D01*
X132913523Y-81541952D01*
X132865904Y-81589571D01*
X132770666Y-81637190D01*
X132389714Y-81637190D01*
X133913523Y-82113380D02*
X133342095Y-82113380D01*
X133627809Y-82113380D02*
X133627809Y-81113380D01*
X133532571Y-81256238D01*
X133437333Y-81351476D01*
X133342095Y-81399095D01*
X134770666Y-81113380D02*
X134580190Y-81113380D01*
X134484952Y-81161000D01*
X134437333Y-81208619D01*
X134342095Y-81351476D01*
X134294476Y-81541952D01*
X134294476Y-81922904D01*
X134342095Y-82018142D01*
X134389714Y-82065761D01*
X134484952Y-82113380D01*
X134675428Y-82113380D01*
X134770666Y-82065761D01*
X134818285Y-82018142D01*
X134865904Y-81922904D01*
X134865904Y-81684809D01*
X134818285Y-81589571D01*
X134770666Y-81541952D01*
X134675428Y-81494333D01*
X134484952Y-81494333D01*
X134389714Y-81541952D01*
X134342095Y-81589571D01*
X134294476Y-81684809D01*
X130103619Y-82645095D02*
X130056000Y-82597476D01*
X130008380Y-82502238D01*
X130008380Y-82264142D01*
X130056000Y-82168904D01*
X130103619Y-82121285D01*
X130198857Y-82073666D01*
X130294095Y-82073666D01*
X130436952Y-82121285D01*
X131008380Y-82692714D01*
X131008380Y-82073666D01*
X130103619Y-81692714D02*
X130056000Y-81645095D01*
X130008380Y-81549857D01*
X130008380Y-81311761D01*
X130056000Y-81216523D01*
X130103619Y-81168904D01*
X130198857Y-81121285D01*
X130294095Y-81121285D01*
X130436952Y-81168904D01*
X131008380Y-81740333D01*
X131008380Y-81121285D01*
X130008380Y-80502238D02*
X130008380Y-80407000D01*
X130056000Y-80311761D01*
X130103619Y-80264142D01*
X130198857Y-80216523D01*
X130389333Y-80168904D01*
X130627428Y-80168904D01*
X130817904Y-80216523D01*
X130913142Y-80264142D01*
X130960761Y-80311761D01*
X131008380Y-80407000D01*
X131008380Y-80502238D01*
X130960761Y-80597476D01*
X130913142Y-80645095D01*
X130817904Y-80692714D01*
X130627428Y-80740333D01*
X130389333Y-80740333D01*
X130198857Y-80692714D01*
X130103619Y-80645095D01*
X130056000Y-80597476D01*
X130008380Y-80502238D01*
X132961142Y-122905380D02*
X132627809Y-122429190D01*
X132389714Y-122905380D02*
X132389714Y-121905380D01*
X132770666Y-121905380D01*
X132865904Y-121953000D01*
X132913523Y-122000619D01*
X132961142Y-122095857D01*
X132961142Y-122238714D01*
X132913523Y-122333952D01*
X132865904Y-122381571D01*
X132770666Y-122429190D01*
X132389714Y-122429190D01*
X133913523Y-122905380D02*
X133342095Y-122905380D01*
X133627809Y-122905380D02*
X133627809Y-121905380D01*
X133532571Y-122048238D01*
X133437333Y-122143476D01*
X133342095Y-122191095D01*
X134770666Y-121905380D02*
X134580190Y-121905380D01*
X134484952Y-121953000D01*
X134437333Y-122000619D01*
X134342095Y-122143476D01*
X134294476Y-122333952D01*
X134294476Y-122714904D01*
X134342095Y-122810142D01*
X134389714Y-122857761D01*
X134484952Y-122905380D01*
X134675428Y-122905380D01*
X134770666Y-122857761D01*
X134818285Y-122810142D01*
X134865904Y-122714904D01*
X134865904Y-122476809D01*
X134818285Y-122381571D01*
X134770666Y-122333952D01*
X134675428Y-122286333D01*
X134484952Y-122286333D01*
X134389714Y-122333952D01*
X134342095Y-122381571D01*
X134294476Y-122476809D01*
X130103619Y-123437095D02*
X130056000Y-123389476D01*
X130008380Y-123294238D01*
X130008380Y-123056142D01*
X130056000Y-122960904D01*
X130103619Y-122913285D01*
X130198857Y-122865666D01*
X130294095Y-122865666D01*
X130436952Y-122913285D01*
X131008380Y-123484714D01*
X131008380Y-122865666D01*
X130103619Y-122484714D02*
X130056000Y-122437095D01*
X130008380Y-122341857D01*
X130008380Y-122103761D01*
X130056000Y-122008523D01*
X130103619Y-121960904D01*
X130198857Y-121913285D01*
X130294095Y-121913285D01*
X130436952Y-121960904D01*
X131008380Y-122532333D01*
X131008380Y-121913285D01*
X130008380Y-121294238D02*
X130008380Y-121199000D01*
X130056000Y-121103761D01*
X130103619Y-121056142D01*
X130198857Y-121008523D01*
X130389333Y-120960904D01*
X130627428Y-120960904D01*
X130817904Y-121008523D01*
X130913142Y-121056142D01*
X130960761Y-121103761D01*
X131008380Y-121199000D01*
X131008380Y-121294238D01*
X130960761Y-121389476D01*
X130913142Y-121437095D01*
X130817904Y-121484714D01*
X130627428Y-121532333D01*
X130389333Y-121532333D01*
X130198857Y-121484714D01*
X130103619Y-121437095D01*
X130056000Y-121389476D01*
X130008380Y-121294238D01*
%TO.C,BZ1*%
X191452718Y-68125321D02*
X191385375Y-67990634D01*
X191385375Y-67923290D01*
X191419047Y-67822275D01*
X191520062Y-67721260D01*
X191621077Y-67687588D01*
X191688421Y-67687588D01*
X191789436Y-67721260D01*
X192058810Y-67990634D01*
X191351703Y-68697740D01*
X191116001Y-68462038D01*
X191082329Y-68361023D01*
X191082329Y-68293679D01*
X191116001Y-68192664D01*
X191183344Y-68125321D01*
X191284360Y-68091649D01*
X191351703Y-68091649D01*
X191452718Y-68125321D01*
X191688421Y-68361023D01*
X190711940Y-68057977D02*
X190240535Y-67586573D01*
X191419047Y-67350870D01*
X190947642Y-66879466D01*
X190307879Y-66239702D02*
X190711940Y-66643763D01*
X190509909Y-66441733D02*
X189802802Y-67148840D01*
X189971161Y-67115168D01*
X190105848Y-67115168D01*
X190206863Y-67148840D01*
X166116047Y-94051428D02*
X166877952Y-94051428D01*
X166497000Y-94432380D02*
X166497000Y-93670476D01*
%TO.C,J5*%
X202866666Y-81113380D02*
X202866666Y-81827666D01*
X202819047Y-81970523D01*
X202723809Y-82065761D01*
X202580952Y-82113380D01*
X202485714Y-82113380D01*
X203819047Y-81113380D02*
X203342857Y-81113380D01*
X203295238Y-81589571D01*
X203342857Y-81541952D01*
X203438095Y-81494333D01*
X203676190Y-81494333D01*
X203771428Y-81541952D01*
X203819047Y-81589571D01*
X203866666Y-81684809D01*
X203866666Y-81922904D01*
X203819047Y-82018142D01*
X203771428Y-82065761D01*
X203676190Y-82113380D01*
X203438095Y-82113380D01*
X203342857Y-82065761D01*
X203295238Y-82018142D01*
%TO.C,C2*%
X183963333Y-95921142D02*
X183915714Y-95968761D01*
X183772857Y-96016380D01*
X183677619Y-96016380D01*
X183534761Y-95968761D01*
X183439523Y-95873523D01*
X183391904Y-95778285D01*
X183344285Y-95587809D01*
X183344285Y-95444952D01*
X183391904Y-95254476D01*
X183439523Y-95159238D01*
X183534761Y-95064000D01*
X183677619Y-95016380D01*
X183772857Y-95016380D01*
X183915714Y-95064000D01*
X183963333Y-95111619D01*
X184344285Y-95111619D02*
X184391904Y-95064000D01*
X184487142Y-95016380D01*
X184725238Y-95016380D01*
X184820476Y-95064000D01*
X184868095Y-95111619D01*
X184915714Y-95206857D01*
X184915714Y-95302095D01*
X184868095Y-95444952D01*
X184296666Y-96016380D01*
X184915714Y-96016380D01*
%TO.C,U7*%
X172466095Y-127512380D02*
X172466095Y-128321904D01*
X172513714Y-128417142D01*
X172561333Y-128464761D01*
X172656571Y-128512380D01*
X172847047Y-128512380D01*
X172942285Y-128464761D01*
X172989904Y-128417142D01*
X173037523Y-128321904D01*
X173037523Y-127512380D01*
X173418476Y-127512380D02*
X174085142Y-127512380D01*
X173656571Y-128512380D01*
X169672142Y-115498571D02*
X170005476Y-115498571D01*
X170148333Y-116022380D02*
X169672142Y-116022380D01*
X169672142Y-115022380D01*
X170148333Y-115022380D01*
X170576904Y-116022380D02*
X170576904Y-115022380D01*
X170815000Y-115022380D01*
X170957857Y-115070000D01*
X171053095Y-115165238D01*
X171100714Y-115260476D01*
X171148333Y-115450952D01*
X171148333Y-115593809D01*
X171100714Y-115784285D01*
X171053095Y-115879523D01*
X170957857Y-115974761D01*
X170815000Y-116022380D01*
X170576904Y-116022380D01*
X171529285Y-115736666D02*
X172005476Y-115736666D01*
X171434047Y-116022380D02*
X171767380Y-115022380D01*
X172100714Y-116022380D01*
X169553095Y-105862380D02*
X169553095Y-104862380D01*
X170124523Y-105862380D01*
X170124523Y-104862380D01*
X171172142Y-105767142D02*
X171124523Y-105814761D01*
X170981666Y-105862380D01*
X170886428Y-105862380D01*
X170743571Y-105814761D01*
X170648333Y-105719523D01*
X170600714Y-105624285D01*
X170553095Y-105433809D01*
X170553095Y-105290952D01*
X170600714Y-105100476D01*
X170648333Y-105005238D01*
X170743571Y-104910000D01*
X170886428Y-104862380D01*
X170981666Y-104862380D01*
X171124523Y-104910000D01*
X171172142Y-104957619D01*
X171553095Y-105814761D02*
X171695952Y-105862380D01*
X171934047Y-105862380D01*
X172029285Y-105814761D01*
X172076904Y-105767142D01*
X172124523Y-105671904D01*
X172124523Y-105576666D01*
X172076904Y-105481428D01*
X172029285Y-105433809D01*
X171934047Y-105386190D01*
X171743571Y-105338571D01*
X171648333Y-105290952D01*
X171600714Y-105243333D01*
X171553095Y-105148095D01*
X171553095Y-105052857D01*
X171600714Y-104957619D01*
X171648333Y-104910000D01*
X171743571Y-104862380D01*
X171981666Y-104862380D01*
X172124523Y-104910000D01*
X169600714Y-110656666D02*
X170076904Y-110656666D01*
X169505476Y-110942380D02*
X169838809Y-109942380D01*
X170172142Y-110942380D01*
X170505476Y-110942380D02*
X170505476Y-109942380D01*
X170743571Y-109942380D01*
X170886428Y-109990000D01*
X170981666Y-110085238D01*
X171029285Y-110180476D01*
X171076904Y-110370952D01*
X171076904Y-110513809D01*
X171029285Y-110704285D01*
X170981666Y-110799523D01*
X170886428Y-110894761D01*
X170743571Y-110942380D01*
X170505476Y-110942380D01*
X171695952Y-109942380D02*
X171791190Y-109942380D01*
X171886428Y-109990000D01*
X171934047Y-110037619D01*
X171981666Y-110132857D01*
X172029285Y-110323333D01*
X172029285Y-110561428D01*
X171981666Y-110751904D01*
X171934047Y-110847142D01*
X171886428Y-110894761D01*
X171791190Y-110942380D01*
X171695952Y-110942380D01*
X171600714Y-110894761D01*
X171553095Y-110847142D01*
X171505476Y-110751904D01*
X171457857Y-110561428D01*
X171457857Y-110323333D01*
X171505476Y-110132857D01*
X171553095Y-110037619D01*
X171600714Y-109990000D01*
X171695952Y-109942380D01*
X169751523Y-121054761D02*
X169894380Y-121102380D01*
X170132476Y-121102380D01*
X170227714Y-121054761D01*
X170275333Y-121007142D01*
X170322952Y-120911904D01*
X170322952Y-120816666D01*
X170275333Y-120721428D01*
X170227714Y-120673809D01*
X170132476Y-120626190D01*
X169942000Y-120578571D01*
X169846761Y-120530952D01*
X169799142Y-120483333D01*
X169751523Y-120388095D01*
X169751523Y-120292857D01*
X169799142Y-120197619D01*
X169846761Y-120150000D01*
X169942000Y-120102380D01*
X170180095Y-120102380D01*
X170322952Y-120150000D01*
X171322952Y-121007142D02*
X171275333Y-121054761D01*
X171132476Y-121102380D01*
X171037238Y-121102380D01*
X170894380Y-121054761D01*
X170799142Y-120959523D01*
X170751523Y-120864285D01*
X170703904Y-120673809D01*
X170703904Y-120530952D01*
X170751523Y-120340476D01*
X170799142Y-120245238D01*
X170894380Y-120150000D01*
X171037238Y-120102380D01*
X171132476Y-120102380D01*
X171275333Y-120150000D01*
X171322952Y-120197619D01*
X172227714Y-121102380D02*
X171751523Y-121102380D01*
X171751523Y-120102380D01*
X168394285Y-102798571D02*
X168060952Y-102798571D01*
X168060952Y-103322380D02*
X168060952Y-102322380D01*
X168537142Y-102322380D01*
X168870476Y-103274761D02*
X169013333Y-103322380D01*
X169251428Y-103322380D01*
X169346666Y-103274761D01*
X169394285Y-103227142D01*
X169441904Y-103131904D01*
X169441904Y-103036666D01*
X169394285Y-102941428D01*
X169346666Y-102893809D01*
X169251428Y-102846190D01*
X169060952Y-102798571D01*
X168965714Y-102750952D01*
X168918095Y-102703333D01*
X168870476Y-102608095D01*
X168870476Y-102512857D01*
X168918095Y-102417619D01*
X168965714Y-102370000D01*
X169060952Y-102322380D01*
X169299047Y-102322380D01*
X169441904Y-102370000D01*
X170060952Y-102846190D02*
X170060952Y-103322380D01*
X169727619Y-102322380D02*
X170060952Y-102846190D01*
X170394285Y-102322380D01*
X170727619Y-103322380D02*
X170727619Y-102322380D01*
X171299047Y-103322380D01*
X171299047Y-102322380D01*
X172346666Y-103227142D02*
X172299047Y-103274761D01*
X172156190Y-103322380D01*
X172060952Y-103322380D01*
X171918095Y-103274761D01*
X171822857Y-103179523D01*
X171775238Y-103084285D01*
X171727619Y-102893809D01*
X171727619Y-102750952D01*
X171775238Y-102560476D01*
X171822857Y-102465238D01*
X171918095Y-102370000D01*
X172060952Y-102322380D01*
X172156190Y-102322380D01*
X172299047Y-102370000D01*
X172346666Y-102417619D01*
X163703000Y-106910190D02*
X163703000Y-107386380D01*
X163369666Y-106386380D02*
X163703000Y-106910190D01*
X164036333Y-106386380D01*
X169608666Y-125245880D02*
X169942000Y-126245880D01*
X170275333Y-125245880D01*
X171180095Y-126150642D02*
X171132476Y-126198261D01*
X170989619Y-126245880D01*
X170894380Y-126245880D01*
X170751523Y-126198261D01*
X170656285Y-126103023D01*
X170608666Y-126007785D01*
X170561047Y-125817309D01*
X170561047Y-125674452D01*
X170608666Y-125483976D01*
X170656285Y-125388738D01*
X170751523Y-125293500D01*
X170894380Y-125245880D01*
X170989619Y-125245880D01*
X171132476Y-125293500D01*
X171180095Y-125341119D01*
X172180095Y-126150642D02*
X172132476Y-126198261D01*
X171989619Y-126245880D01*
X171894380Y-126245880D01*
X171751523Y-126198261D01*
X171656285Y-126103023D01*
X171608666Y-126007785D01*
X171561047Y-125817309D01*
X171561047Y-125674452D01*
X171608666Y-125483976D01*
X171656285Y-125388738D01*
X171751523Y-125293500D01*
X171894380Y-125245880D01*
X171989619Y-125245880D01*
X172132476Y-125293500D01*
X172180095Y-125341119D01*
X170180095Y-122753500D02*
X170084857Y-122705880D01*
X169942000Y-122705880D01*
X169799142Y-122753500D01*
X169703904Y-122848738D01*
X169656285Y-122943976D01*
X169608666Y-123134452D01*
X169608666Y-123277309D01*
X169656285Y-123467785D01*
X169703904Y-123563023D01*
X169799142Y-123658261D01*
X169942000Y-123705880D01*
X170037238Y-123705880D01*
X170180095Y-123658261D01*
X170227714Y-123610642D01*
X170227714Y-123277309D01*
X170037238Y-123277309D01*
X170656285Y-123705880D02*
X170656285Y-122705880D01*
X171227714Y-123705880D01*
X171227714Y-122705880D01*
X171703904Y-123705880D02*
X171703904Y-122705880D01*
X171942000Y-122705880D01*
X172084857Y-122753500D01*
X172180095Y-122848738D01*
X172227714Y-122943976D01*
X172275333Y-123134452D01*
X172275333Y-123277309D01*
X172227714Y-123467785D01*
X172180095Y-123563023D01*
X172084857Y-123658261D01*
X171942000Y-123705880D01*
X171703904Y-123705880D01*
X169910238Y-108402380D02*
X169910238Y-107402380D01*
X170386428Y-108402380D02*
X170386428Y-107402380D01*
X170957857Y-108402380D01*
X170957857Y-107402380D01*
X171291190Y-107402380D02*
X171862619Y-107402380D01*
X171576904Y-108402380D02*
X171576904Y-107402380D01*
X164004666Y-102322380D02*
X164671333Y-102322380D01*
X164004666Y-103322380D01*
X164671333Y-103322380D01*
X160194666Y-102957380D02*
X160861333Y-103957380D01*
X160861333Y-102957380D02*
X160194666Y-103957380D01*
X169727714Y-118514761D02*
X169870571Y-118562380D01*
X170108666Y-118562380D01*
X170203904Y-118514761D01*
X170251523Y-118467142D01*
X170299142Y-118371904D01*
X170299142Y-118276666D01*
X170251523Y-118181428D01*
X170203904Y-118133809D01*
X170108666Y-118086190D01*
X169918190Y-118038571D01*
X169822952Y-117990952D01*
X169775333Y-117943333D01*
X169727714Y-117848095D01*
X169727714Y-117752857D01*
X169775333Y-117657619D01*
X169822952Y-117610000D01*
X169918190Y-117562380D01*
X170156285Y-117562380D01*
X170299142Y-117610000D01*
X170727714Y-118562380D02*
X170727714Y-117562380D01*
X170965809Y-117562380D01*
X171108666Y-117610000D01*
X171203904Y-117705238D01*
X171251523Y-117800476D01*
X171299142Y-117990952D01*
X171299142Y-118133809D01*
X171251523Y-118324285D01*
X171203904Y-118419523D01*
X171108666Y-118514761D01*
X170965809Y-118562380D01*
X170727714Y-118562380D01*
X171680095Y-118276666D02*
X172156285Y-118276666D01*
X171584857Y-118562380D02*
X171918190Y-117562380D01*
X172251523Y-118562380D01*
X169695952Y-112958571D02*
X170029285Y-112958571D01*
X170172142Y-113482380D02*
X169695952Y-113482380D01*
X169695952Y-112482380D01*
X170172142Y-112482380D01*
X171172142Y-113387142D02*
X171124523Y-113434761D01*
X170981666Y-113482380D01*
X170886428Y-113482380D01*
X170743571Y-113434761D01*
X170648333Y-113339523D01*
X170600714Y-113244285D01*
X170553095Y-113053809D01*
X170553095Y-112910952D01*
X170600714Y-112720476D01*
X170648333Y-112625238D01*
X170743571Y-112530000D01*
X170886428Y-112482380D01*
X170981666Y-112482380D01*
X171124523Y-112530000D01*
X171172142Y-112577619D01*
X172076904Y-113482380D02*
X171600714Y-113482380D01*
X171600714Y-112482380D01*
%TO.C,J6*%
X159916666Y-149312380D02*
X159916666Y-150026666D01*
X159869047Y-150169523D01*
X159773809Y-150264761D01*
X159630952Y-150312380D01*
X159535714Y-150312380D01*
X160821428Y-149312380D02*
X160630952Y-149312380D01*
X160535714Y-149360000D01*
X160488095Y-149407619D01*
X160392857Y-149550476D01*
X160345238Y-149740952D01*
X160345238Y-150121904D01*
X160392857Y-150217142D01*
X160440476Y-150264761D01*
X160535714Y-150312380D01*
X160726190Y-150312380D01*
X160821428Y-150264761D01*
X160869047Y-150217142D01*
X160916666Y-150121904D01*
X160916666Y-149883809D01*
X160869047Y-149788571D01*
X160821428Y-149740952D01*
X160726190Y-149693333D01*
X160535714Y-149693333D01*
X160440476Y-149740952D01*
X160392857Y-149788571D01*
X160345238Y-149883809D01*
%TO.C,M6*%
X146248380Y-138477523D02*
X145248380Y-138477523D01*
X145962666Y-138144190D01*
X145248380Y-137810857D01*
X146248380Y-137810857D01*
X145248380Y-136906095D02*
X145248380Y-137096571D01*
X145296000Y-137191809D01*
X145343619Y-137239428D01*
X145486476Y-137334666D01*
X145676952Y-137382285D01*
X146057904Y-137382285D01*
X146153142Y-137334666D01*
X146200761Y-137287047D01*
X146248380Y-137191809D01*
X146248380Y-137001333D01*
X146200761Y-136906095D01*
X146153142Y-136858476D01*
X146057904Y-136810857D01*
X145819809Y-136810857D01*
X145724571Y-136858476D01*
X145676952Y-136906095D01*
X145629333Y-137001333D01*
X145629333Y-137191809D01*
X145676952Y-137287047D01*
X145724571Y-137334666D01*
X145819809Y-137382285D01*
X146826314Y-141041095D02*
X147492980Y-140803000D01*
X146826314Y-140564904D01*
X147492980Y-140183952D02*
X146826314Y-140183952D01*
X146492980Y-140183952D02*
X146540600Y-140231571D01*
X146588219Y-140183952D01*
X146540600Y-140136333D01*
X146492980Y-140183952D01*
X146588219Y-140183952D01*
X147492980Y-139707761D02*
X146492980Y-139707761D01*
X146873933Y-139707761D02*
X146826314Y-139612523D01*
X146826314Y-139422047D01*
X146873933Y-139326809D01*
X146921552Y-139279190D01*
X147016790Y-139231571D01*
X147302504Y-139231571D01*
X147397742Y-139279190D01*
X147445361Y-139326809D01*
X147492980Y-139422047D01*
X147492980Y-139612523D01*
X147445361Y-139707761D01*
X147492980Y-138803000D02*
X146826314Y-138803000D01*
X147016790Y-138803000D02*
X146921552Y-138755380D01*
X146873933Y-138707761D01*
X146826314Y-138612523D01*
X146826314Y-138517285D01*
X147492980Y-137755380D02*
X146969171Y-137755380D01*
X146873933Y-137803000D01*
X146826314Y-137898238D01*
X146826314Y-138088714D01*
X146873933Y-138183952D01*
X147445361Y-137755380D02*
X147492980Y-137850619D01*
X147492980Y-138088714D01*
X147445361Y-138183952D01*
X147350123Y-138231571D01*
X147254885Y-138231571D01*
X147159647Y-138183952D01*
X147112028Y-138088714D01*
X147112028Y-137850619D01*
X147064409Y-137755380D01*
X146826314Y-137422047D02*
X146826314Y-137041095D01*
X146492980Y-137279190D02*
X147350123Y-137279190D01*
X147445361Y-137231571D01*
X147492980Y-137136333D01*
X147492980Y-137041095D01*
X147492980Y-136564904D02*
X147445361Y-136660142D01*
X147397742Y-136707761D01*
X147302504Y-136755380D01*
X147016790Y-136755380D01*
X146921552Y-136707761D01*
X146873933Y-136660142D01*
X146826314Y-136564904D01*
X146826314Y-136422047D01*
X146873933Y-136326809D01*
X146921552Y-136279190D01*
X147016790Y-136231571D01*
X147302504Y-136231571D01*
X147397742Y-136279190D01*
X147445361Y-136326809D01*
X147492980Y-136422047D01*
X147492980Y-136564904D01*
X147492980Y-135803000D02*
X146826314Y-135803000D01*
X147016790Y-135803000D02*
X146921552Y-135755380D01*
X146873933Y-135707761D01*
X146826314Y-135612523D01*
X146826314Y-135517285D01*
%TO.C,Q1*%
X156114761Y-133897619D02*
X156019523Y-133850000D01*
X155924285Y-133754761D01*
X155781428Y-133611904D01*
X155686190Y-133564285D01*
X155590952Y-133564285D01*
X155638571Y-133802380D02*
X155543333Y-133754761D01*
X155448095Y-133659523D01*
X155400476Y-133469047D01*
X155400476Y-133135714D01*
X155448095Y-132945238D01*
X155543333Y-132850000D01*
X155638571Y-132802380D01*
X155829047Y-132802380D01*
X155924285Y-132850000D01*
X156019523Y-132945238D01*
X156067142Y-133135714D01*
X156067142Y-133469047D01*
X156019523Y-133659523D01*
X155924285Y-133754761D01*
X155829047Y-133802380D01*
X155638571Y-133802380D01*
X157019523Y-133802380D02*
X156448095Y-133802380D01*
X156733809Y-133802380D02*
X156733809Y-132802380D01*
X156638571Y-132945238D01*
X156543333Y-133040476D01*
X156448095Y-133088095D01*
X155757619Y-139874285D02*
X155710000Y-139826666D01*
X155662380Y-139731428D01*
X155662380Y-139493333D01*
X155710000Y-139398095D01*
X155757619Y-139350476D01*
X155852857Y-139302857D01*
X155948095Y-139302857D01*
X156090952Y-139350476D01*
X156662380Y-139921904D01*
X156662380Y-139302857D01*
X156662380Y-138874285D02*
X155662380Y-138874285D01*
X156662380Y-138302857D01*
X155662380Y-138302857D01*
X155757619Y-137874285D02*
X155710000Y-137826666D01*
X155662380Y-137731428D01*
X155662380Y-137493333D01*
X155710000Y-137398095D01*
X155757619Y-137350476D01*
X155852857Y-137302857D01*
X155948095Y-137302857D01*
X156090952Y-137350476D01*
X156662380Y-137921904D01*
X156662380Y-137302857D01*
X155757619Y-136921904D02*
X155710000Y-136874285D01*
X155662380Y-136779047D01*
X155662380Y-136540952D01*
X155710000Y-136445714D01*
X155757619Y-136398095D01*
X155852857Y-136350476D01*
X155948095Y-136350476D01*
X156090952Y-136398095D01*
X156662380Y-136969523D01*
X156662380Y-136350476D01*
X155757619Y-135969523D02*
X155710000Y-135921904D01*
X155662380Y-135826666D01*
X155662380Y-135588571D01*
X155710000Y-135493333D01*
X155757619Y-135445714D01*
X155852857Y-135398095D01*
X155948095Y-135398095D01*
X156090952Y-135445714D01*
X156662380Y-136017142D01*
X156662380Y-135398095D01*
X155757619Y-135017142D02*
X155710000Y-134969523D01*
X155662380Y-134874285D01*
X155662380Y-134636190D01*
X155710000Y-134540952D01*
X155757619Y-134493333D01*
X155852857Y-134445714D01*
X155948095Y-134445714D01*
X156090952Y-134493333D01*
X156662380Y-135064761D01*
X156662380Y-134445714D01*
%TO.C,R3*%
X155154333Y-114244380D02*
X154821000Y-113768190D01*
X154582904Y-114244380D02*
X154582904Y-113244380D01*
X154963857Y-113244380D01*
X155059095Y-113292000D01*
X155106714Y-113339619D01*
X155154333Y-113434857D01*
X155154333Y-113577714D01*
X155106714Y-113672952D01*
X155059095Y-113720571D01*
X154963857Y-113768190D01*
X154582904Y-113768190D01*
X155487666Y-113244380D02*
X156106714Y-113244380D01*
X155773380Y-113625333D01*
X155916238Y-113625333D01*
X156011476Y-113672952D01*
X156059095Y-113720571D01*
X156106714Y-113815809D01*
X156106714Y-114053904D01*
X156059095Y-114149142D01*
X156011476Y-114196761D01*
X155916238Y-114244380D01*
X155630523Y-114244380D01*
X155535285Y-114196761D01*
X155487666Y-114149142D01*
X148883761Y-114498380D02*
X148312333Y-114498380D01*
X148598047Y-114498380D02*
X148598047Y-113498380D01*
X148502809Y-113641238D01*
X148407571Y-113736476D01*
X148312333Y-113784095D01*
X149502809Y-113498380D02*
X149598047Y-113498380D01*
X149693285Y-113546000D01*
X149740904Y-113593619D01*
X149788523Y-113688857D01*
X149836142Y-113879333D01*
X149836142Y-114117428D01*
X149788523Y-114307904D01*
X149740904Y-114403142D01*
X149693285Y-114450761D01*
X149598047Y-114498380D01*
X149502809Y-114498380D01*
X149407571Y-114450761D01*
X149359952Y-114403142D01*
X149312333Y-114307904D01*
X149264714Y-114117428D01*
X149264714Y-113879333D01*
X149312333Y-113688857D01*
X149359952Y-113593619D01*
X149407571Y-113546000D01*
X149502809Y-113498380D01*
X150264714Y-114498380D02*
X150264714Y-113498380D01*
X150359952Y-114117428D02*
X150645666Y-114498380D01*
X150645666Y-113831714D02*
X150264714Y-114212666D01*
%TO.C,R8*%
X155154333Y-127198380D02*
X154821000Y-126722190D01*
X154582904Y-127198380D02*
X154582904Y-126198380D01*
X154963857Y-126198380D01*
X155059095Y-126246000D01*
X155106714Y-126293619D01*
X155154333Y-126388857D01*
X155154333Y-126531714D01*
X155106714Y-126626952D01*
X155059095Y-126674571D01*
X154963857Y-126722190D01*
X154582904Y-126722190D01*
X155725761Y-126626952D02*
X155630523Y-126579333D01*
X155582904Y-126531714D01*
X155535285Y-126436476D01*
X155535285Y-126388857D01*
X155582904Y-126293619D01*
X155630523Y-126246000D01*
X155725761Y-126198380D01*
X155916238Y-126198380D01*
X156011476Y-126246000D01*
X156059095Y-126293619D01*
X156106714Y-126388857D01*
X156106714Y-126436476D01*
X156059095Y-126531714D01*
X156011476Y-126579333D01*
X155916238Y-126626952D01*
X155725761Y-126626952D01*
X155630523Y-126674571D01*
X155582904Y-126722190D01*
X155535285Y-126817428D01*
X155535285Y-127007904D01*
X155582904Y-127103142D01*
X155630523Y-127150761D01*
X155725761Y-127198380D01*
X155916238Y-127198380D01*
X156011476Y-127150761D01*
X156059095Y-127103142D01*
X156106714Y-127007904D01*
X156106714Y-126817428D01*
X156059095Y-126722190D01*
X156011476Y-126674571D01*
X155916238Y-126626952D01*
X148883761Y-126944380D02*
X148312333Y-126944380D01*
X148598047Y-126944380D02*
X148598047Y-125944380D01*
X148502809Y-126087238D01*
X148407571Y-126182476D01*
X148312333Y-126230095D01*
X149502809Y-125944380D02*
X149598047Y-125944380D01*
X149693285Y-125992000D01*
X149740904Y-126039619D01*
X149788523Y-126134857D01*
X149836142Y-126325333D01*
X149836142Y-126563428D01*
X149788523Y-126753904D01*
X149740904Y-126849142D01*
X149693285Y-126896761D01*
X149598047Y-126944380D01*
X149502809Y-126944380D01*
X149407571Y-126896761D01*
X149359952Y-126849142D01*
X149312333Y-126753904D01*
X149264714Y-126563428D01*
X149264714Y-126325333D01*
X149312333Y-126134857D01*
X149359952Y-126039619D01*
X149407571Y-125992000D01*
X149502809Y-125944380D01*
X150264714Y-126944380D02*
X150264714Y-125944380D01*
X150359952Y-126563428D02*
X150645666Y-126944380D01*
X150645666Y-126277714D02*
X150264714Y-126658666D01*
%TO.C,R16*%
X132961142Y-102585380D02*
X132627809Y-102109190D01*
X132389714Y-102585380D02*
X132389714Y-101585380D01*
X132770666Y-101585380D01*
X132865904Y-101633000D01*
X132913523Y-101680619D01*
X132961142Y-101775857D01*
X132961142Y-101918714D01*
X132913523Y-102013952D01*
X132865904Y-102061571D01*
X132770666Y-102109190D01*
X132389714Y-102109190D01*
X133913523Y-102585380D02*
X133342095Y-102585380D01*
X133627809Y-102585380D02*
X133627809Y-101585380D01*
X133532571Y-101728238D01*
X133437333Y-101823476D01*
X133342095Y-101871095D01*
X134770666Y-101585380D02*
X134580190Y-101585380D01*
X134484952Y-101633000D01*
X134437333Y-101680619D01*
X134342095Y-101823476D01*
X134294476Y-102013952D01*
X134294476Y-102394904D01*
X134342095Y-102490142D01*
X134389714Y-102537761D01*
X134484952Y-102585380D01*
X134675428Y-102585380D01*
X134770666Y-102537761D01*
X134818285Y-102490142D01*
X134865904Y-102394904D01*
X134865904Y-102156809D01*
X134818285Y-102061571D01*
X134770666Y-102013952D01*
X134675428Y-101966333D01*
X134484952Y-101966333D01*
X134389714Y-102013952D01*
X134342095Y-102061571D01*
X134294476Y-102156809D01*
X130103619Y-103117095D02*
X130056000Y-103069476D01*
X130008380Y-102974238D01*
X130008380Y-102736142D01*
X130056000Y-102640904D01*
X130103619Y-102593285D01*
X130198857Y-102545666D01*
X130294095Y-102545666D01*
X130436952Y-102593285D01*
X131008380Y-103164714D01*
X131008380Y-102545666D01*
X130103619Y-102164714D02*
X130056000Y-102117095D01*
X130008380Y-102021857D01*
X130008380Y-101783761D01*
X130056000Y-101688523D01*
X130103619Y-101640904D01*
X130198857Y-101593285D01*
X130294095Y-101593285D01*
X130436952Y-101640904D01*
X131008380Y-102212333D01*
X131008380Y-101593285D01*
X130008380Y-100974238D02*
X130008380Y-100879000D01*
X130056000Y-100783761D01*
X130103619Y-100736142D01*
X130198857Y-100688523D01*
X130389333Y-100640904D01*
X130627428Y-100640904D01*
X130817904Y-100688523D01*
X130913142Y-100736142D01*
X130960761Y-100783761D01*
X131008380Y-100879000D01*
X131008380Y-100974238D01*
X130960761Y-101069476D01*
X130913142Y-101117095D01*
X130817904Y-101164714D01*
X130627428Y-101212333D01*
X130389333Y-101212333D01*
X130198857Y-101164714D01*
X130103619Y-101117095D01*
X130056000Y-101069476D01*
X130008380Y-100974238D01*
X132961142Y-112745380D02*
X132627809Y-112269190D01*
X132389714Y-112745380D02*
X132389714Y-111745380D01*
X132770666Y-111745380D01*
X132865904Y-111793000D01*
X132913523Y-111840619D01*
X132961142Y-111935857D01*
X132961142Y-112078714D01*
X132913523Y-112173952D01*
X132865904Y-112221571D01*
X132770666Y-112269190D01*
X132389714Y-112269190D01*
X133913523Y-112745380D02*
X133342095Y-112745380D01*
X133627809Y-112745380D02*
X133627809Y-111745380D01*
X133532571Y-111888238D01*
X133437333Y-111983476D01*
X133342095Y-112031095D01*
X134770666Y-111745380D02*
X134580190Y-111745380D01*
X134484952Y-111793000D01*
X134437333Y-111840619D01*
X134342095Y-111983476D01*
X134294476Y-112173952D01*
X134294476Y-112554904D01*
X134342095Y-112650142D01*
X134389714Y-112697761D01*
X134484952Y-112745380D01*
X134675428Y-112745380D01*
X134770666Y-112697761D01*
X134818285Y-112650142D01*
X134865904Y-112554904D01*
X134865904Y-112316809D01*
X134818285Y-112221571D01*
X134770666Y-112173952D01*
X134675428Y-112126333D01*
X134484952Y-112126333D01*
X134389714Y-112173952D01*
X134342095Y-112221571D01*
X134294476Y-112316809D01*
X130103619Y-113277095D02*
X130056000Y-113229476D01*
X130008380Y-113134238D01*
X130008380Y-112896142D01*
X130056000Y-112800904D01*
X130103619Y-112753285D01*
X130198857Y-112705666D01*
X130294095Y-112705666D01*
X130436952Y-112753285D01*
X131008380Y-113324714D01*
X131008380Y-112705666D01*
X130103619Y-112324714D02*
X130056000Y-112277095D01*
X130008380Y-112181857D01*
X130008380Y-111943761D01*
X130056000Y-111848523D01*
X130103619Y-111800904D01*
X130198857Y-111753285D01*
X130294095Y-111753285D01*
X130436952Y-111800904D01*
X131008380Y-112372333D01*
X131008380Y-111753285D01*
X130008380Y-111134238D02*
X130008380Y-111039000D01*
X130056000Y-110943761D01*
X130103619Y-110896142D01*
X130198857Y-110848523D01*
X130389333Y-110800904D01*
X130627428Y-110800904D01*
X130817904Y-110848523D01*
X130913142Y-110896142D01*
X130960761Y-110943761D01*
X131008380Y-111039000D01*
X131008380Y-111134238D01*
X130960761Y-111229476D01*
X130913142Y-111277095D01*
X130817904Y-111324714D01*
X130627428Y-111372333D01*
X130389333Y-111372333D01*
X130198857Y-111324714D01*
X130103619Y-111277095D01*
X130056000Y-111229476D01*
X130008380Y-111134238D01*
X132961142Y-92425380D02*
X132627809Y-91949190D01*
X132389714Y-92425380D02*
X132389714Y-91425380D01*
X132770666Y-91425380D01*
X132865904Y-91473000D01*
X132913523Y-91520619D01*
X132961142Y-91615857D01*
X132961142Y-91758714D01*
X132913523Y-91853952D01*
X132865904Y-91901571D01*
X132770666Y-91949190D01*
X132389714Y-91949190D01*
X133913523Y-92425380D02*
X133342095Y-92425380D01*
X133627809Y-92425380D02*
X133627809Y-91425380D01*
X133532571Y-91568238D01*
X133437333Y-91663476D01*
X133342095Y-91711095D01*
X134770666Y-91425380D02*
X134580190Y-91425380D01*
X134484952Y-91473000D01*
X134437333Y-91520619D01*
X134342095Y-91663476D01*
X134294476Y-91853952D01*
X134294476Y-92234904D01*
X134342095Y-92330142D01*
X134389714Y-92377761D01*
X134484952Y-92425380D01*
X134675428Y-92425380D01*
X134770666Y-92377761D01*
X134818285Y-92330142D01*
X134865904Y-92234904D01*
X134865904Y-91996809D01*
X134818285Y-91901571D01*
X134770666Y-91853952D01*
X134675428Y-91806333D01*
X134484952Y-91806333D01*
X134389714Y-91853952D01*
X134342095Y-91901571D01*
X134294476Y-91996809D01*
X130103619Y-92957095D02*
X130056000Y-92909476D01*
X130008380Y-92814238D01*
X130008380Y-92576142D01*
X130056000Y-92480904D01*
X130103619Y-92433285D01*
X130198857Y-92385666D01*
X130294095Y-92385666D01*
X130436952Y-92433285D01*
X131008380Y-93004714D01*
X131008380Y-92385666D01*
X130103619Y-92004714D02*
X130056000Y-91957095D01*
X130008380Y-91861857D01*
X130008380Y-91623761D01*
X130056000Y-91528523D01*
X130103619Y-91480904D01*
X130198857Y-91433285D01*
X130294095Y-91433285D01*
X130436952Y-91480904D01*
X131008380Y-92052333D01*
X131008380Y-91433285D01*
X130008380Y-90814238D02*
X130008380Y-90719000D01*
X130056000Y-90623761D01*
X130103619Y-90576142D01*
X130198857Y-90528523D01*
X130389333Y-90480904D01*
X130627428Y-90480904D01*
X130817904Y-90528523D01*
X130913142Y-90576142D01*
X130960761Y-90623761D01*
X131008380Y-90719000D01*
X131008380Y-90814238D01*
X130960761Y-90909476D01*
X130913142Y-90957095D01*
X130817904Y-91004714D01*
X130627428Y-91052333D01*
X130389333Y-91052333D01*
X130198857Y-91004714D01*
X130103619Y-90957095D01*
X130056000Y-90909476D01*
X130008380Y-90814238D01*
%TO.C,U2*%
X166126000Y-152019000D02*
X155956000Y-152019000D01*
X139446000Y-101219000D02*
X139446000Y-150749000D01*
D11*
X145796000Y-108839000D02*
X161036000Y-108839000D01*
X161036000Y-108839000D02*
X161036000Y-125349000D01*
D10*
X157206000Y-152019000D02*
X149606000Y-152019000D01*
X167386000Y-101219000D02*
X167386000Y-150749000D01*
X149616000Y-152019000D02*
X149616000Y-147289000D01*
X157216000Y-147289000D02*
X157206000Y-152019000D01*
X162306000Y-101219000D02*
X162306000Y-106299000D01*
X162306000Y-101219000D02*
X144526000Y-101219000D01*
D11*
X145796000Y-125349000D02*
X145796000Y-108839000D01*
D10*
X144526000Y-106299000D02*
X144526000Y-101219000D01*
D11*
X161036000Y-125349000D02*
X145796000Y-125349000D01*
D10*
X149606000Y-147289000D02*
X157206000Y-147289000D01*
X162306000Y-106299000D02*
X144526000Y-106299000D01*
X166116000Y-99949000D02*
X140716000Y-99949000D01*
X150886000Y-152019000D02*
X140716000Y-152019000D01*
X167386000Y-101219000D02*
G75*
G03*
X166116000Y-99949000I-1269999J1D01*
G01*
X140716000Y-99949000D02*
G75*
G03*
X139446000Y-101219000I-1J-1269999D01*
G01*
X166116000Y-152019000D02*
G75*
G03*
X167386000Y-150749000I1J1269999D01*
G01*
X139446000Y-150749000D02*
G75*
G03*
X140716000Y-152019000I1269999J-1D01*
G01*
X166642051Y-102489000D02*
G75*
G03*
X166642051Y-102489000I-1796051J0D01*
G01*
X166642051Y-149479000D02*
G75*
G03*
X166642051Y-149479000I-1796051J0D01*
G01*
X143782051Y-149479000D02*
G75*
G03*
X143782051Y-149479000I-1796051J0D01*
G01*
X143782051Y-102489000D02*
G75*
G03*
X143782051Y-102489000I-1796051J0D01*
G01*
D11*
%TO.C,D4*%
X137607000Y-99685000D02*
X137607000Y-99505000D01*
X137607000Y-97345000D02*
X137607000Y-97165000D01*
X134307000Y-97330000D02*
X134307000Y-97165000D01*
X137727000Y-99685000D02*
X137727000Y-99505000D01*
X137487000Y-99685000D02*
X137487000Y-99505000D01*
X137487000Y-97345000D02*
X137487000Y-97165000D01*
X134307000Y-99685000D02*
X134307000Y-99520000D01*
X137727000Y-99685000D02*
X134307000Y-99685000D01*
X137727000Y-97345000D02*
X137727000Y-97165000D01*
X137727000Y-97165000D02*
X134307000Y-97165000D01*
%TO.C,D2*%
X127567000Y-99685000D02*
X124147000Y-99685000D01*
X127567000Y-97345000D02*
X127567000Y-97165000D01*
X127567000Y-99685000D02*
X127567000Y-99505000D01*
X127327000Y-97345000D02*
X127327000Y-97165000D01*
X127327000Y-99685000D02*
X127327000Y-99505000D01*
X124147000Y-99685000D02*
X124147000Y-99520000D01*
X124147000Y-97330000D02*
X124147000Y-97165000D01*
X127567000Y-97165000D02*
X124147000Y-97165000D01*
X127447000Y-97345000D02*
X127447000Y-97165000D01*
X127447000Y-99685000D02*
X127447000Y-99505000D01*
%TO.C,D4*%
X137607000Y-89525000D02*
X137607000Y-89345000D01*
X137487000Y-89525000D02*
X137487000Y-89345000D01*
X137727000Y-89525000D02*
X134307000Y-89525000D01*
X134307000Y-87170000D02*
X134307000Y-87005000D01*
X137727000Y-87005000D02*
X134307000Y-87005000D01*
X134307000Y-89525000D02*
X134307000Y-89360000D01*
X137727000Y-87185000D02*
X137727000Y-87005000D01*
X137607000Y-87185000D02*
X137607000Y-87005000D01*
X137487000Y-87185000D02*
X137487000Y-87005000D01*
X137727000Y-89525000D02*
X137727000Y-89345000D01*
%TO.C,D2*%
X127447000Y-87185000D02*
X127447000Y-87005000D01*
X124147000Y-87170000D02*
X124147000Y-87005000D01*
X127327000Y-87185000D02*
X127327000Y-87005000D01*
X127567000Y-89525000D02*
X127567000Y-89345000D01*
X127567000Y-89525000D02*
X124147000Y-89525000D01*
X127447000Y-89525000D02*
X127447000Y-89345000D01*
X124147000Y-89525000D02*
X124147000Y-89360000D01*
X127567000Y-87005000D02*
X124147000Y-87005000D01*
X127567000Y-87185000D02*
X127567000Y-87005000D01*
X127327000Y-89525000D02*
X127327000Y-89345000D01*
%TO.C,D1*%
X127567000Y-106505000D02*
X127567000Y-106670000D01*
X127567000Y-104150000D02*
X127567000Y-104315000D01*
X124267000Y-106490000D02*
X124267000Y-106670000D01*
X124147000Y-106670000D02*
X127567000Y-106670000D01*
X124147000Y-104150000D02*
X124147000Y-104330000D01*
X124147000Y-104150000D02*
X127567000Y-104150000D01*
X124387000Y-104150000D02*
X124387000Y-104330000D01*
X124387000Y-106490000D02*
X124387000Y-106670000D01*
X124267000Y-104150000D02*
X124267000Y-104330000D01*
X124147000Y-106490000D02*
X124147000Y-106670000D01*
%TO.C,D3*%
X134427000Y-104150000D02*
X134427000Y-104330000D01*
X134307000Y-106670000D02*
X137727000Y-106670000D01*
X134307000Y-104150000D02*
X134307000Y-104330000D01*
X134307000Y-106490000D02*
X134307000Y-106670000D01*
X134427000Y-106490000D02*
X134427000Y-106670000D01*
X137727000Y-104150000D02*
X137727000Y-104315000D01*
X137727000Y-106505000D02*
X137727000Y-106670000D01*
X134547000Y-106490000D02*
X134547000Y-106670000D01*
X134307000Y-104150000D02*
X137727000Y-104150000D01*
X134547000Y-104150000D02*
X134547000Y-104330000D01*
%TO.C,TP2*%
X134172000Y-106680000D02*
X134172000Y-106740000D01*
X131512000Y-106680000D02*
X131512000Y-106740000D01*
X131512000Y-106740000D02*
X134172000Y-106740000D01*
X131512000Y-106680000D02*
X134172000Y-106680000D01*
X131512000Y-105410000D02*
X131512000Y-104080000D01*
X131512000Y-104080000D02*
X132842000Y-104080000D01*
%TO.C,D3*%
X134427000Y-93990000D02*
X134427000Y-94170000D01*
X134307000Y-93990000D02*
X137727000Y-93990000D01*
X134307000Y-96510000D02*
X137727000Y-96510000D01*
X134307000Y-96330000D02*
X134307000Y-96510000D01*
X137727000Y-93990000D02*
X137727000Y-94155000D01*
X137727000Y-96345000D02*
X137727000Y-96510000D01*
X134547000Y-93990000D02*
X134547000Y-94170000D01*
X134427000Y-96330000D02*
X134427000Y-96510000D01*
X134307000Y-93990000D02*
X134307000Y-94170000D01*
X134547000Y-96330000D02*
X134547000Y-96510000D01*
%TO.C,TP2*%
X131512000Y-93920000D02*
X132842000Y-93920000D01*
X131512000Y-95250000D02*
X131512000Y-93920000D01*
X131512000Y-96520000D02*
X134172000Y-96520000D01*
X131512000Y-96520000D02*
X131512000Y-96580000D01*
X131512000Y-96580000D02*
X134172000Y-96580000D01*
X134172000Y-96520000D02*
X134172000Y-96580000D01*
%TO.C,J3*%
X164786000Y-148269000D02*
X167446000Y-148269000D01*
X167446000Y-145669000D02*
X167446000Y-148269000D01*
X164786000Y-143069000D02*
X166116000Y-143069000D01*
X164786000Y-144399000D02*
X164786000Y-143069000D01*
X164786000Y-145669000D02*
X164786000Y-148269000D01*
X164786000Y-145669000D02*
X167446000Y-145669000D01*
%TO.C,J4*%
X139513000Y-145605500D02*
X142173000Y-145605500D01*
X139513000Y-148205500D02*
X142173000Y-148205500D01*
X142173000Y-145605500D02*
X142173000Y-148205500D01*
X139513000Y-144335500D02*
X139513000Y-143005500D01*
X139513000Y-145605500D02*
X139513000Y-148205500D01*
X139513000Y-143005500D02*
X140843000Y-143005500D01*
%TO.C,C1*%
X162811000Y-101372800D02*
X162811000Y-100548800D01*
X163531000Y-101372800D02*
X163531000Y-100064800D01*
X162211000Y-103423800D02*
X162211000Y-101401800D01*
X164092000Y-104940800D02*
X164092000Y-103452800D01*
X164092000Y-101372800D02*
X164092000Y-99884800D01*
X163051000Y-101372800D02*
X163051000Y-100347800D01*
X163651000Y-104810800D02*
X163651000Y-103452800D01*
X164172000Y-104955800D02*
X164172000Y-103452800D01*
X163491000Y-104741800D02*
X163491000Y-103452800D01*
X163571000Y-101372800D02*
X163571000Y-100047800D01*
X163611000Y-104794800D02*
X163611000Y-103452800D01*
X164292000Y-104973800D02*
X164292000Y-103452800D01*
X164612000Y-104992800D02*
X164612000Y-99832800D01*
X162731000Y-104197800D02*
X162731000Y-103452800D01*
X164372000Y-101372800D02*
X164372000Y-99843800D01*
X163051000Y-104477800D02*
X163051000Y-103452800D01*
X164132000Y-104948800D02*
X164132000Y-103452800D01*
X163691000Y-104826800D02*
X163691000Y-103452800D01*
X162651000Y-101372800D02*
X162651000Y-100713800D01*
X163011000Y-104447800D02*
X163011000Y-103452800D01*
X162851000Y-104313800D02*
X162851000Y-103452800D01*
X162451000Y-101372800D02*
X162451000Y-100969800D01*
X162891000Y-104349800D02*
X162891000Y-103452800D01*
X164212000Y-101372800D02*
X164212000Y-99862800D01*
X162491000Y-101372800D02*
X162491000Y-100912800D01*
X163771000Y-101372800D02*
X163771000Y-99970800D01*
X163932000Y-104903800D02*
X163932000Y-103452800D01*
X162651000Y-104111800D02*
X162651000Y-103452800D01*
X162371000Y-103731800D02*
X162371000Y-103452800D01*
X163731000Y-104840800D02*
X163731000Y-103452800D01*
X162571000Y-104017800D02*
X162571000Y-103452800D01*
X162971000Y-101372800D02*
X162971000Y-100408800D01*
X162531000Y-103966800D02*
X162531000Y-103452800D01*
X164052000Y-101372800D02*
X164052000Y-99892800D01*
X163972000Y-101372800D02*
X163972000Y-99911800D01*
X163411000Y-104702800D02*
X163411000Y-103452800D01*
X162971000Y-104416800D02*
X162971000Y-103452800D01*
X163211000Y-104587800D02*
X163211000Y-103452800D01*
X164532000Y-104991800D02*
X164532000Y-99833800D01*
X163331000Y-101372800D02*
X163331000Y-100165800D01*
X164572000Y-104992800D02*
X164572000Y-99832800D01*
X163611000Y-101372800D02*
X163611000Y-100030800D01*
X164252000Y-104968800D02*
X164252000Y-103452800D01*
X163851000Y-104880800D02*
X163851000Y-103452800D01*
X164252000Y-101372800D02*
X164252000Y-99856800D01*
X164172000Y-101372800D02*
X164172000Y-99869800D01*
X163972000Y-104913800D02*
X163972000Y-103452800D01*
X163091000Y-104507800D02*
X163091000Y-103452800D01*
X162051000Y-102930800D02*
X162051000Y-101894800D01*
X162371000Y-101372800D02*
X162371000Y-101093800D01*
X162411000Y-101372800D02*
X162411000Y-101029800D01*
X163091000Y-101372800D02*
X163091000Y-100317800D01*
X163891000Y-101372800D02*
X163891000Y-99932800D01*
X162331000Y-101372800D02*
X162331000Y-101161800D01*
X163291000Y-104636800D02*
X163291000Y-103452800D01*
X163211000Y-101372800D02*
X163211000Y-100237800D01*
X164012000Y-104923800D02*
X164012000Y-103452800D01*
X162251000Y-103510800D02*
X162251000Y-101314800D01*
X163651000Y-101372800D02*
X163651000Y-100014800D01*
X164412000Y-104985800D02*
X164412000Y-99839800D01*
X162771000Y-104238800D02*
X162771000Y-103452800D01*
X163811000Y-101372800D02*
X163811000Y-99957800D01*
X163291000Y-101372800D02*
X163291000Y-100188800D01*
X162011000Y-102696800D02*
X162011000Y-102128800D01*
X162811000Y-104276800D02*
X162811000Y-103452800D01*
X162731000Y-101372800D02*
X162731000Y-100627800D01*
X163491000Y-101372800D02*
X163491000Y-100083800D01*
X162611000Y-104065800D02*
X162611000Y-103452800D01*
X164292000Y-101372800D02*
X164292000Y-99851800D01*
X163251000Y-104612800D02*
X163251000Y-103452800D01*
X163131000Y-101372800D02*
X163131000Y-100290800D01*
X163851000Y-101372800D02*
X163851000Y-99944800D01*
X162131000Y-103217800D02*
X162131000Y-101607800D01*
X164332000Y-104977800D02*
X164332000Y-103452800D01*
X164372000Y-104981800D02*
X164372000Y-103452800D01*
X163691000Y-101372800D02*
X163691000Y-99998800D01*
X164492000Y-104990800D02*
X164492000Y-99834800D01*
X163011000Y-101372800D02*
X163011000Y-100377800D01*
X164012000Y-101372800D02*
X164012000Y-99901800D01*
X162891000Y-101372800D02*
X162891000Y-100475800D01*
X163932000Y-101372800D02*
X163932000Y-99921800D01*
X163771000Y-104854800D02*
X163771000Y-103452800D01*
X162091000Y-103089800D02*
X162091000Y-101735800D01*
X163251000Y-101372800D02*
X163251000Y-100212800D01*
X163811000Y-104867800D02*
X163811000Y-103452800D01*
X162851000Y-101372800D02*
X162851000Y-100511800D01*
X163371000Y-101372800D02*
X163371000Y-100144800D01*
X163171000Y-101372800D02*
X163171000Y-100263800D01*
X162611000Y-101372800D02*
X162611000Y-100759800D01*
X162691000Y-101372800D02*
X162691000Y-100669800D01*
X163731000Y-101372800D02*
X163731000Y-99984800D01*
X163131000Y-104534800D02*
X163131000Y-103452800D01*
X162491000Y-103912800D02*
X162491000Y-103452800D01*
X163571000Y-104777800D02*
X163571000Y-103452800D01*
X163451000Y-104722800D02*
X163451000Y-103452800D01*
X162451000Y-103855800D02*
X162451000Y-103452800D01*
X162691000Y-104155800D02*
X162691000Y-103452800D01*
X164132000Y-101372800D02*
X164132000Y-99876800D01*
X163531000Y-104760800D02*
X163531000Y-103452800D01*
X162771000Y-101372800D02*
X162771000Y-100586800D01*
X162411000Y-103795800D02*
X162411000Y-103452800D01*
X162571000Y-101372800D02*
X162571000Y-100807800D01*
X163451000Y-101372800D02*
X163451000Y-100102800D01*
X162531000Y-101372800D02*
X162531000Y-100858800D01*
X162931000Y-104383800D02*
X162931000Y-103452800D01*
X164452000Y-104988800D02*
X164452000Y-99836800D01*
X162331000Y-103663800D02*
X162331000Y-103452800D01*
X163371000Y-104680800D02*
X163371000Y-103452800D01*
X162931000Y-101372800D02*
X162931000Y-100441800D01*
X164332000Y-101372800D02*
X164332000Y-99847800D01*
X162291000Y-103590800D02*
X162291000Y-101234800D01*
X164212000Y-104962800D02*
X164212000Y-103452800D01*
X163891000Y-104892800D02*
X163891000Y-103452800D01*
X167166775Y-104137800D02*
X167166775Y-103637800D01*
X163411000Y-101372800D02*
X163411000Y-100122800D01*
X162171000Y-103327800D02*
X162171000Y-101497800D01*
X167416775Y-103887800D02*
X166916775Y-103887800D01*
X164052000Y-104932800D02*
X164052000Y-103452800D01*
X163171000Y-104561800D02*
X163171000Y-103452800D01*
X163331000Y-104659800D02*
X163331000Y-103452800D01*
X167232000Y-102412800D02*
G75*
G03*
X167232000Y-102412800I-2620000J0D01*
G01*
%TO.C,D1*%
X124147000Y-83830000D02*
X127567000Y-83830000D01*
X124147000Y-86350000D02*
X127567000Y-86350000D01*
X127567000Y-83830000D02*
X127567000Y-83995000D01*
X124267000Y-86170000D02*
X124267000Y-86350000D01*
X124147000Y-86170000D02*
X124147000Y-86350000D01*
X124147000Y-83830000D02*
X124147000Y-84010000D01*
X124267000Y-83830000D02*
X124267000Y-84010000D01*
X124387000Y-86170000D02*
X124387000Y-86350000D01*
X127567000Y-86185000D02*
X127567000Y-86350000D01*
X124387000Y-83830000D02*
X124387000Y-84010000D01*
X124267000Y-96330000D02*
X124267000Y-96510000D01*
X124387000Y-96330000D02*
X124387000Y-96510000D01*
X127567000Y-96345000D02*
X127567000Y-96510000D01*
X127567000Y-93990000D02*
X127567000Y-94155000D01*
X124267000Y-93990000D02*
X124267000Y-94170000D01*
X124147000Y-93990000D02*
X124147000Y-94170000D01*
X124147000Y-96330000D02*
X124147000Y-96510000D01*
X124387000Y-93990000D02*
X124387000Y-94170000D01*
X124147000Y-93990000D02*
X127567000Y-93990000D01*
X124147000Y-96510000D02*
X127567000Y-96510000D01*
%TO.C,D3*%
X134307000Y-86170000D02*
X134307000Y-86350000D01*
X134547000Y-83830000D02*
X134547000Y-84010000D01*
X134307000Y-86350000D02*
X137727000Y-86350000D01*
X137727000Y-86185000D02*
X137727000Y-86350000D01*
X134307000Y-83830000D02*
X134307000Y-84010000D01*
X134547000Y-86170000D02*
X134547000Y-86350000D01*
X134427000Y-83830000D02*
X134427000Y-84010000D01*
X134427000Y-86170000D02*
X134427000Y-86350000D01*
X137727000Y-83830000D02*
X137727000Y-83995000D01*
X134307000Y-83830000D02*
X137727000Y-83830000D01*
%TO.C,D4*%
X137727000Y-77025000D02*
X137727000Y-76845000D01*
X137487000Y-79365000D02*
X137487000Y-79185000D01*
X134307000Y-79365000D02*
X134307000Y-79200000D01*
X137607000Y-77025000D02*
X137607000Y-76845000D01*
X137727000Y-79365000D02*
X137727000Y-79185000D01*
X137727000Y-79365000D02*
X134307000Y-79365000D01*
X137487000Y-77025000D02*
X137487000Y-76845000D01*
X134307000Y-77010000D02*
X134307000Y-76845000D01*
X137727000Y-76845000D02*
X134307000Y-76845000D01*
X137607000Y-79365000D02*
X137607000Y-79185000D01*
%TO.C,TP2*%
X131512000Y-86420000D02*
X134172000Y-86420000D01*
X131512000Y-86360000D02*
X131512000Y-86420000D01*
X131512000Y-83760000D02*
X132842000Y-83760000D01*
X131512000Y-86360000D02*
X134172000Y-86360000D01*
X131512000Y-85090000D02*
X131512000Y-83760000D01*
X134172000Y-86360000D02*
X134172000Y-86420000D01*
%TO.C,D2*%
X127327000Y-79365000D02*
X127327000Y-79185000D01*
X127447000Y-79365000D02*
X127447000Y-79185000D01*
X124147000Y-77010000D02*
X124147000Y-76845000D01*
X127567000Y-79365000D02*
X124147000Y-79365000D01*
X127567000Y-79365000D02*
X127567000Y-79185000D01*
X127567000Y-76845000D02*
X124147000Y-76845000D01*
X127447000Y-77025000D02*
X127447000Y-76845000D01*
X127327000Y-77025000D02*
X127327000Y-76845000D01*
X127567000Y-77025000D02*
X127567000Y-76845000D01*
X124147000Y-79365000D02*
X124147000Y-79200000D01*
X124147000Y-109845000D02*
X124147000Y-109680000D01*
X127327000Y-109845000D02*
X127327000Y-109665000D01*
X124147000Y-107490000D02*
X124147000Y-107325000D01*
X127567000Y-107325000D02*
X124147000Y-107325000D01*
X127567000Y-107505000D02*
X127567000Y-107325000D01*
X127447000Y-107505000D02*
X127447000Y-107325000D01*
X127567000Y-109845000D02*
X124147000Y-109845000D01*
X127447000Y-109845000D02*
X127447000Y-109665000D01*
X127567000Y-109845000D02*
X127567000Y-109665000D01*
X127327000Y-107505000D02*
X127327000Y-107325000D01*
%TO.C,D1*%
X124267000Y-114310000D02*
X124267000Y-114490000D01*
X124147000Y-114310000D02*
X124147000Y-114490000D01*
X124387000Y-114310000D02*
X124387000Y-114490000D01*
X124267000Y-116650000D02*
X124267000Y-116830000D01*
X127567000Y-114310000D02*
X127567000Y-114475000D01*
X127567000Y-116665000D02*
X127567000Y-116830000D01*
X124147000Y-116650000D02*
X124147000Y-116830000D01*
X124387000Y-116650000D02*
X124387000Y-116830000D01*
X124147000Y-116830000D02*
X127567000Y-116830000D01*
X124147000Y-114310000D02*
X127567000Y-114310000D01*
%TO.C,TP2*%
X131512000Y-116840000D02*
X134172000Y-116840000D01*
X131512000Y-115570000D02*
X131512000Y-114240000D01*
X131512000Y-116900000D02*
X134172000Y-116900000D01*
X131512000Y-114240000D02*
X132842000Y-114240000D01*
X131512000Y-116840000D02*
X131512000Y-116900000D01*
X134172000Y-116840000D02*
X134172000Y-116900000D01*
%TO.C,D3*%
X137727000Y-114310000D02*
X137727000Y-114475000D01*
X134307000Y-114310000D02*
X137727000Y-114310000D01*
X134427000Y-116650000D02*
X134427000Y-116830000D01*
X134307000Y-116830000D02*
X137727000Y-116830000D01*
X134547000Y-114310000D02*
X134547000Y-114490000D01*
X134427000Y-114310000D02*
X134427000Y-114490000D01*
X134307000Y-116650000D02*
X134307000Y-116830000D01*
X137727000Y-116665000D02*
X137727000Y-116830000D01*
X134307000Y-114310000D02*
X134307000Y-114490000D01*
X134547000Y-116650000D02*
X134547000Y-116830000D01*
%TO.C,D4*%
X137727000Y-107505000D02*
X137727000Y-107325000D01*
X137487000Y-109845000D02*
X137487000Y-109665000D01*
X134307000Y-109845000D02*
X134307000Y-109680000D01*
X137607000Y-107505000D02*
X137607000Y-107325000D01*
X137487000Y-107505000D02*
X137487000Y-107325000D01*
X137727000Y-107325000D02*
X134307000Y-107325000D01*
X134307000Y-107490000D02*
X134307000Y-107325000D01*
X137607000Y-109845000D02*
X137607000Y-109665000D01*
X137727000Y-109845000D02*
X137727000Y-109665000D01*
X137727000Y-109845000D02*
X134307000Y-109845000D01*
X137607000Y-117665000D02*
X137607000Y-117485000D01*
X137727000Y-120005000D02*
X134307000Y-120005000D01*
X134307000Y-117650000D02*
X134307000Y-117485000D01*
X137487000Y-117665000D02*
X137487000Y-117485000D01*
X137607000Y-120005000D02*
X137607000Y-119825000D01*
X134307000Y-120005000D02*
X134307000Y-119840000D01*
X137727000Y-117665000D02*
X137727000Y-117485000D01*
X137727000Y-117485000D02*
X134307000Y-117485000D01*
X137487000Y-120005000D02*
X137487000Y-119825000D01*
X137727000Y-120005000D02*
X137727000Y-119825000D01*
%TO.C,D2*%
X124147000Y-120005000D02*
X124147000Y-119840000D01*
X127447000Y-120005000D02*
X127447000Y-119825000D01*
X127567000Y-117485000D02*
X124147000Y-117485000D01*
X127327000Y-120005000D02*
X127327000Y-119825000D01*
X127567000Y-120005000D02*
X127567000Y-119825000D01*
X127447000Y-117665000D02*
X127447000Y-117485000D01*
X127567000Y-117665000D02*
X127567000Y-117485000D01*
X127327000Y-117665000D02*
X127327000Y-117485000D01*
X127567000Y-120005000D02*
X124147000Y-120005000D01*
X124147000Y-117650000D02*
X124147000Y-117485000D01*
%TO.C,D1*%
X124267000Y-126810000D02*
X124267000Y-126990000D01*
X124147000Y-124470000D02*
X124147000Y-124650000D01*
X124387000Y-126810000D02*
X124387000Y-126990000D01*
X124147000Y-126990000D02*
X127567000Y-126990000D01*
X124267000Y-124470000D02*
X124267000Y-124650000D01*
X124147000Y-124470000D02*
X127567000Y-124470000D01*
X124387000Y-124470000D02*
X124387000Y-124650000D01*
X127567000Y-126825000D02*
X127567000Y-126990000D01*
X127567000Y-124470000D02*
X127567000Y-124635000D01*
X124147000Y-126810000D02*
X124147000Y-126990000D01*
%TO.C,D3*%
X134307000Y-126810000D02*
X134307000Y-126990000D01*
X134307000Y-124470000D02*
X134307000Y-124650000D01*
X134547000Y-124470000D02*
X134547000Y-124650000D01*
X134427000Y-124470000D02*
X134427000Y-124650000D01*
X134307000Y-124470000D02*
X137727000Y-124470000D01*
X134547000Y-126810000D02*
X134547000Y-126990000D01*
X134307000Y-126990000D02*
X137727000Y-126990000D01*
X137727000Y-124470000D02*
X137727000Y-124635000D01*
X137727000Y-126825000D02*
X137727000Y-126990000D01*
X134427000Y-126810000D02*
X134427000Y-126990000D01*
%TO.C,TP2*%
X134172000Y-127000000D02*
X134172000Y-127060000D01*
X131512000Y-127000000D02*
X134172000Y-127000000D01*
X131512000Y-127060000D02*
X134172000Y-127060000D01*
X131512000Y-127000000D02*
X131512000Y-127060000D01*
X131512000Y-125730000D02*
X131512000Y-124400000D01*
X131512000Y-124400000D02*
X132842000Y-124400000D01*
%TO.C,J1*%
X182041800Y-122351800D02*
X179441800Y-122351800D01*
X184641800Y-124951800D02*
X182041800Y-124951800D01*
X180771800Y-124951800D02*
X179441800Y-124951800D01*
X184641800Y-124951800D02*
X184641800Y-104511800D01*
X184641800Y-104511800D02*
X179441800Y-104511800D01*
X179441800Y-122351800D02*
X179441800Y-104511800D01*
X182041800Y-124951800D02*
X182041800Y-122351800D01*
X179441800Y-124951800D02*
X179441800Y-123621800D01*
X142688000Y-82610000D02*
X142688000Y-80010000D01*
X145288000Y-80010000D02*
X145288000Y-77410000D01*
X142688000Y-78740000D02*
X142688000Y-77410000D01*
X163128000Y-82610000D02*
X163128000Y-77410000D01*
X145288000Y-77410000D02*
X163128000Y-77410000D01*
X142688000Y-80010000D02*
X145288000Y-80010000D01*
X142688000Y-82610000D02*
X163128000Y-82610000D01*
X142688000Y-77410000D02*
X144018000Y-77410000D01*
%TO.C,U6*%
X164211000Y-84014000D02*
X165541000Y-84014000D01*
X144526000Y-94869000D02*
X143891000Y-95504000D01*
X142621000Y-96774000D02*
X141986000Y-97409000D01*
X155956000Y-96774000D02*
X155956000Y-92329000D01*
X165541000Y-85344000D02*
X165481000Y-99568000D01*
X144526000Y-94869000D02*
X141986000Y-94869000D01*
X140021000Y-99568000D02*
X140021000Y-86674000D01*
X155956000Y-92329000D02*
X151511000Y-92329000D01*
X140021000Y-84014000D02*
X140021000Y-86674000D01*
X151511000Y-96774000D02*
X155956000Y-96774000D01*
X141986000Y-97409000D02*
X141351000Y-96774000D01*
X165481000Y-99568000D02*
X162814000Y-99568000D01*
X165541000Y-84014000D02*
X165541000Y-85344000D01*
X162941000Y-99568000D02*
X140021000Y-99568000D01*
X162941000Y-84014000D02*
X140021000Y-84014000D01*
X143891000Y-94234000D02*
X144526000Y-94869000D01*
X151511000Y-92329000D02*
X151511000Y-96774000D01*
X141986000Y-94869000D02*
X141986000Y-97409000D01*
X144526000Y-94869000D02*
X143891000Y-94234000D01*
X141986000Y-97409000D02*
X142621000Y-96774000D01*
%TO.C,R1*%
X152622000Y-107786300D02*
X152622000Y-107456300D01*
X152622000Y-109866300D02*
X152622000Y-110196300D01*
X146082000Y-110196300D02*
X146082000Y-109866300D01*
X146082000Y-107456300D02*
X146082000Y-107786300D01*
X152622000Y-107456300D02*
X146082000Y-107456300D01*
X152622000Y-110196300D02*
X146082000Y-110196300D01*
%TO.C,R2*%
X146082000Y-110009000D02*
X152622000Y-110009000D01*
X152622000Y-110009000D02*
X152622000Y-110339000D01*
X146082000Y-112749000D02*
X152622000Y-112749000D01*
X152622000Y-112749000D02*
X152622000Y-112419000D01*
X146082000Y-110339000D02*
X146082000Y-110009000D01*
X146082000Y-112419000D02*
X146082000Y-112749000D01*
%TO.C,R4*%
X146082000Y-117499000D02*
X146082000Y-117829000D01*
X146082000Y-117829000D02*
X152622000Y-117829000D01*
X146082000Y-115419000D02*
X146082000Y-115089000D01*
X146082000Y-115089000D02*
X152622000Y-115089000D01*
X152622000Y-115089000D02*
X152622000Y-115419000D01*
X152622000Y-117829000D02*
X152622000Y-117499000D01*
%TO.C,R5*%
X146082000Y-117629000D02*
X152622000Y-117629000D01*
X146082000Y-120039000D02*
X146082000Y-120369000D01*
X146082000Y-117959000D02*
X146082000Y-117629000D01*
X152622000Y-117629000D02*
X152622000Y-117959000D01*
X146082000Y-120369000D02*
X152622000Y-120369000D01*
X152622000Y-120369000D02*
X152622000Y-120039000D01*
%TO.C,R6*%
X146082000Y-120169000D02*
X152622000Y-120169000D01*
X152622000Y-122909000D02*
X152622000Y-122579000D01*
X146082000Y-120499000D02*
X146082000Y-120169000D01*
X146082000Y-122909000D02*
X152622000Y-122909000D01*
X152622000Y-120169000D02*
X152622000Y-120499000D01*
X146082000Y-122579000D02*
X146082000Y-122909000D01*
%TO.C,R7*%
X146082000Y-125119000D02*
X146082000Y-125449000D01*
X152622000Y-125449000D02*
X152622000Y-125119000D01*
X152622000Y-122709000D02*
X152622000Y-123039000D01*
X146082000Y-125449000D02*
X152622000Y-125449000D01*
X146082000Y-123039000D02*
X146082000Y-122709000D01*
X146082000Y-122709000D02*
X152622000Y-122709000D01*
%TO.C,R9*%
X146082000Y-128119000D02*
X146082000Y-127789000D01*
X152622000Y-127789000D02*
X152622000Y-128119000D01*
X146082000Y-130199000D02*
X146082000Y-130529000D01*
X152622000Y-130529000D02*
X152622000Y-130199000D01*
X146082000Y-127789000D02*
X152622000Y-127789000D01*
X146082000Y-130529000D02*
X152622000Y-130529000D01*
%TO.C,R10*%
X146082000Y-130329000D02*
X152622000Y-130329000D01*
X152622000Y-133069000D02*
X152622000Y-132739000D01*
X146082000Y-132739000D02*
X146082000Y-133069000D01*
X146082000Y-130659000D02*
X146082000Y-130329000D01*
X152622000Y-130329000D02*
X152622000Y-130659000D01*
X146082000Y-133069000D02*
X152622000Y-133069000D01*
%TO.C,R11*%
X157913200Y-123996700D02*
X157583200Y-123996700D01*
X160323200Y-123996700D02*
X160323200Y-130536700D01*
X157583200Y-130536700D02*
X157913200Y-130536700D01*
X157583200Y-123996700D02*
X157583200Y-130536700D01*
X159993200Y-123996700D02*
X160323200Y-123996700D01*
X160323200Y-130536700D02*
X159993200Y-130536700D01*
%TO.C,R16*%
X131926000Y-84804000D02*
X131596000Y-84804000D01*
X131926000Y-78264000D02*
X131926000Y-84804000D01*
X129516000Y-78264000D02*
X129186000Y-78264000D01*
X129186000Y-84804000D02*
X129516000Y-84804000D01*
X131596000Y-78264000D02*
X131926000Y-78264000D01*
X129186000Y-78264000D02*
X129186000Y-84804000D01*
X131926000Y-125596000D02*
X131596000Y-125596000D01*
X129186000Y-119056000D02*
X129186000Y-125596000D01*
X131596000Y-119056000D02*
X131926000Y-119056000D01*
X129186000Y-125596000D02*
X129516000Y-125596000D01*
X129516000Y-119056000D02*
X129186000Y-119056000D01*
X131926000Y-119056000D02*
X131926000Y-125596000D01*
%TO.C,BZ1*%
X167711734Y-94758935D02*
G75*
G03*
X167711734Y-94758935I-6099999J0D01*
G01*
%TO.C,J5*%
X175200000Y-96901000D02*
X177860000Y-96901000D01*
X177860000Y-96901000D02*
X177860000Y-135061000D01*
X175200000Y-96901000D02*
X175200000Y-135061000D01*
X177860000Y-94301000D02*
X177860000Y-95631000D01*
X176530000Y-94301000D02*
X177860000Y-94301000D01*
X175200000Y-135061000D02*
X177860000Y-135061000D01*
%TO.C,C2*%
X185811000Y-97343000D02*
X185811000Y-98274000D01*
X185731000Y-97279000D02*
X185731000Y-98274000D01*
X184370000Y-100354000D02*
X184370000Y-101883000D01*
X185371000Y-100354000D02*
X185371000Y-101582000D01*
X186091000Y-97615000D02*
X186091000Y-98274000D01*
X184971000Y-100354000D02*
X184971000Y-101756000D01*
X185531000Y-97139000D02*
X185531000Y-98274000D01*
X186291000Y-97871000D02*
X186291000Y-98274000D01*
X185251000Y-100354000D02*
X185251000Y-101643000D01*
X184770000Y-96813000D02*
X184770000Y-98274000D01*
X185331000Y-100354000D02*
X185331000Y-101604000D01*
X185171000Y-100354000D02*
X185171000Y-101679000D01*
X186211000Y-100354000D02*
X186211000Y-100868000D01*
X184410000Y-100354000D02*
X184410000Y-101879000D01*
X185251000Y-96985000D02*
X185251000Y-98274000D01*
X184851000Y-100354000D02*
X184851000Y-101794000D01*
X181325225Y-97839000D02*
X181825225Y-97839000D01*
X185131000Y-100354000D02*
X185131000Y-101696000D01*
X185451000Y-100354000D02*
X185451000Y-101538000D01*
X185011000Y-96886000D02*
X185011000Y-98274000D01*
X185571000Y-100354000D02*
X185571000Y-101463000D01*
X185131000Y-96932000D02*
X185131000Y-98274000D01*
X184650000Y-100354000D02*
X184650000Y-101842000D01*
X186331000Y-97931000D02*
X186331000Y-98274000D01*
X185411000Y-100354000D02*
X185411000Y-101561000D01*
X184650000Y-96786000D02*
X184650000Y-98274000D01*
X185771000Y-100354000D02*
X185771000Y-101318000D01*
X185971000Y-100354000D02*
X185971000Y-101140000D01*
X184570000Y-96771000D02*
X184570000Y-98274000D01*
X184530000Y-100354000D02*
X184530000Y-101864000D01*
X184370000Y-96745000D02*
X184370000Y-98274000D01*
X186131000Y-100354000D02*
X186131000Y-100967000D01*
X185971000Y-97488000D02*
X185971000Y-98274000D01*
X185771000Y-97310000D02*
X185771000Y-98274000D01*
X186411000Y-98063000D02*
X186411000Y-98274000D01*
X186651000Y-98637000D02*
X186651000Y-99991000D01*
X184490000Y-100354000D02*
X184490000Y-101870000D01*
X184851000Y-96834000D02*
X184851000Y-98274000D01*
X185731000Y-100354000D02*
X185731000Y-101349000D01*
X184610000Y-96778000D02*
X184610000Y-98274000D01*
X186691000Y-98796000D02*
X186691000Y-99832000D01*
X185931000Y-100354000D02*
X185931000Y-101178000D01*
X184810000Y-100354000D02*
X184810000Y-101805000D01*
X184931000Y-96859000D02*
X184931000Y-98274000D01*
X184570000Y-100354000D02*
X184570000Y-101857000D01*
X185531000Y-100354000D02*
X185531000Y-101489000D01*
X186291000Y-100354000D02*
X186291000Y-100757000D01*
X185371000Y-97046000D02*
X185371000Y-98274000D01*
X184330000Y-96741000D02*
X184330000Y-101887000D01*
X185811000Y-100354000D02*
X185811000Y-101285000D01*
X184891000Y-100354000D02*
X184891000Y-101782000D01*
X186091000Y-100354000D02*
X186091000Y-101013000D01*
X186371000Y-97995000D02*
X186371000Y-98274000D01*
X185091000Y-100354000D02*
X185091000Y-101712000D01*
X185891000Y-100354000D02*
X185891000Y-101215000D01*
X185491000Y-97114000D02*
X185491000Y-98274000D01*
X184690000Y-96794000D02*
X184690000Y-98274000D01*
X184530000Y-96764000D02*
X184530000Y-98274000D01*
X184730000Y-96803000D02*
X184730000Y-98274000D01*
X185051000Y-96900000D02*
X185051000Y-98274000D01*
X186011000Y-97529000D02*
X186011000Y-98274000D01*
X184290000Y-96738000D02*
X184290000Y-101890000D01*
X184250000Y-96736000D02*
X184250000Y-101892000D01*
X186731000Y-99030000D02*
X186731000Y-99598000D01*
X185651000Y-100354000D02*
X185651000Y-101409000D01*
X185611000Y-97192000D02*
X185611000Y-98274000D01*
X186211000Y-97760000D02*
X186211000Y-98274000D01*
X185611000Y-100354000D02*
X185611000Y-101436000D01*
X185571000Y-97165000D02*
X185571000Y-98274000D01*
X184130000Y-96734000D02*
X184130000Y-101894000D01*
X185891000Y-97413000D02*
X185891000Y-98274000D01*
X186051000Y-97571000D02*
X186051000Y-98274000D01*
X186371000Y-100354000D02*
X186371000Y-100633000D01*
X184770000Y-100354000D02*
X184770000Y-101815000D01*
X185211000Y-96966000D02*
X185211000Y-98274000D01*
X185091000Y-96916000D02*
X185091000Y-98274000D01*
X184170000Y-96734000D02*
X184170000Y-101894000D01*
X184931000Y-100354000D02*
X184931000Y-101769000D01*
X184450000Y-100354000D02*
X184450000Y-101875000D01*
X186611000Y-98509000D02*
X186611000Y-100119000D01*
X185691000Y-100354000D02*
X185691000Y-101379000D01*
X186491000Y-98216000D02*
X186491000Y-100412000D01*
X185331000Y-97024000D02*
X185331000Y-98274000D01*
X185051000Y-100354000D02*
X185051000Y-101728000D01*
X184210000Y-96735000D02*
X184210000Y-101893000D01*
X185171000Y-96949000D02*
X185171000Y-98274000D01*
X185411000Y-97067000D02*
X185411000Y-98274000D01*
X186011000Y-100354000D02*
X186011000Y-101099000D01*
X185851000Y-97377000D02*
X185851000Y-98274000D01*
X185691000Y-97249000D02*
X185691000Y-98274000D01*
X186531000Y-98303000D02*
X186531000Y-100325000D01*
X184490000Y-96758000D02*
X184490000Y-98274000D01*
X186051000Y-100354000D02*
X186051000Y-101057000D01*
X185851000Y-100354000D02*
X185851000Y-101251000D01*
X185011000Y-100354000D02*
X185011000Y-101742000D01*
X184450000Y-96753000D02*
X184450000Y-98274000D01*
X186571000Y-98399000D02*
X186571000Y-100229000D01*
X185651000Y-97219000D02*
X185651000Y-98274000D01*
X184810000Y-96823000D02*
X184810000Y-98274000D01*
X185291000Y-97004000D02*
X185291000Y-98274000D01*
X186171000Y-100354000D02*
X186171000Y-100919000D01*
X185451000Y-97090000D02*
X185451000Y-98274000D01*
X184410000Y-96749000D02*
X184410000Y-98274000D01*
X186411000Y-100354000D02*
X186411000Y-100565000D01*
X185211000Y-100354000D02*
X185211000Y-101662000D01*
X184610000Y-100354000D02*
X184610000Y-101850000D01*
X186131000Y-97661000D02*
X186131000Y-98274000D01*
X186251000Y-100354000D02*
X186251000Y-100814000D01*
X185931000Y-97450000D02*
X185931000Y-98274000D01*
X184730000Y-100354000D02*
X184730000Y-101825000D01*
X186171000Y-97709000D02*
X186171000Y-98274000D01*
X185291000Y-100354000D02*
X185291000Y-101624000D01*
X184971000Y-96872000D02*
X184971000Y-98274000D01*
X186451000Y-98136000D02*
X186451000Y-100492000D01*
X181575225Y-97589000D02*
X181575225Y-98089000D01*
X185491000Y-100354000D02*
X185491000Y-101514000D01*
X186331000Y-100354000D02*
X186331000Y-100697000D01*
X186251000Y-97814000D02*
X186251000Y-98274000D01*
X184891000Y-96846000D02*
X184891000Y-98274000D01*
X184690000Y-100354000D02*
X184690000Y-101834000D01*
X186750000Y-99314000D02*
G75*
G03*
X186750000Y-99314000I-2620000J0D01*
G01*
%TO.C,U7*%
X164338000Y-105410000D02*
X163703000Y-106045000D01*
X166243000Y-117475000D02*
X166243000Y-113030000D01*
X174558000Y-125730000D02*
X174558000Y-127060000D01*
X174558000Y-101540000D02*
X171898000Y-101540000D01*
X166243000Y-113030000D02*
X161798000Y-113030000D01*
X163703000Y-106045000D02*
X163703000Y-103505000D01*
X173228000Y-127060000D02*
X159004000Y-127000000D01*
X161163000Y-103505000D02*
X161798000Y-102870000D01*
X174558000Y-127060000D02*
X173228000Y-127060000D01*
X163703000Y-106045000D02*
X164338000Y-105410000D01*
X163703000Y-106045000D02*
X163068000Y-105410000D01*
X161798000Y-104140000D02*
X161163000Y-103505000D01*
X161798000Y-113030000D02*
X161798000Y-117475000D01*
X159004000Y-101540000D02*
X171898000Y-101540000D01*
X159004000Y-124460000D02*
X159004000Y-101540000D01*
X161163000Y-103505000D02*
X161798000Y-104140000D01*
X161798000Y-117475000D02*
X166243000Y-117475000D01*
X163703000Y-103505000D02*
X161163000Y-103505000D01*
X159004000Y-127000000D02*
X159004000Y-124333000D01*
X174558000Y-124460000D02*
X174558000Y-101540000D01*
%TO.C,J6*%
X148530000Y-148530000D02*
X148530000Y-151190000D01*
X158810000Y-151190000D02*
X157480000Y-151190000D01*
X156210000Y-148530000D02*
X148530000Y-148530000D01*
X158810000Y-149860000D02*
X158810000Y-151190000D01*
X156210000Y-151190000D02*
X148530000Y-151190000D01*
X156210000Y-148530000D02*
X156210000Y-151190000D01*
%TO.C,M6*%
X148530000Y-136652000D02*
X148530000Y-135322000D01*
X148530000Y-137922000D02*
X148530000Y-140522000D01*
X148530000Y-140522000D02*
X151190000Y-140522000D01*
X151190000Y-137922000D02*
X151190000Y-140522000D01*
X148530000Y-137922000D02*
X151190000Y-137922000D01*
X148530000Y-135322000D02*
X149860000Y-135322000D01*
%TO.C,Q1*%
X160346700Y-135648700D02*
X160346700Y-140788700D01*
X157686700Y-135648700D02*
X157686700Y-140788700D01*
X157686700Y-135648700D02*
X160346700Y-135648700D01*
X157686700Y-140788700D02*
X160346700Y-140788700D01*
X157686700Y-133048700D02*
X159016700Y-133048700D01*
X157686700Y-134378700D02*
X157686700Y-133048700D01*
%TO.C,R3*%
X146082000Y-112879000D02*
X146082000Y-112549000D01*
X146082000Y-115289000D02*
X152622000Y-115289000D01*
X146082000Y-112549000D02*
X152622000Y-112549000D01*
X146082000Y-114959000D02*
X146082000Y-115289000D01*
X152622000Y-112549000D02*
X152622000Y-112879000D01*
X152622000Y-115289000D02*
X152622000Y-114959000D01*
%TO.C,R8*%
X146082000Y-127659000D02*
X146082000Y-127989000D01*
X146082000Y-127989000D02*
X152622000Y-127989000D01*
X146082000Y-125249000D02*
X152622000Y-125249000D01*
X152622000Y-125249000D02*
X152622000Y-125579000D01*
X152622000Y-127989000D02*
X152622000Y-127659000D01*
X146082000Y-125579000D02*
X146082000Y-125249000D01*
%TO.C,R16*%
X129516000Y-98736000D02*
X129186000Y-98736000D01*
X131596000Y-98736000D02*
X131926000Y-98736000D01*
X129186000Y-105276000D02*
X129516000Y-105276000D01*
X131926000Y-98736000D02*
X131926000Y-105276000D01*
X131926000Y-105276000D02*
X131596000Y-105276000D01*
X129186000Y-98736000D02*
X129186000Y-105276000D01*
X129186000Y-108896000D02*
X129186000Y-115436000D01*
X129516000Y-108896000D02*
X129186000Y-108896000D01*
X131596000Y-108896000D02*
X131926000Y-108896000D01*
X129186000Y-115436000D02*
X129516000Y-115436000D01*
X131926000Y-115436000D02*
X131596000Y-115436000D01*
X131926000Y-108896000D02*
X131926000Y-115436000D01*
X129186000Y-95116000D02*
X129516000Y-95116000D01*
X129186000Y-88576000D02*
X129186000Y-95116000D01*
X131926000Y-88576000D02*
X131926000Y-95116000D01*
X131926000Y-95116000D02*
X131596000Y-95116000D01*
X129516000Y-88576000D02*
X129186000Y-88576000D01*
X131596000Y-88576000D02*
X131926000Y-88576000D01*
%TD*%
D12*
%TO.C,U2*%
X140716000Y-106299000D03*
X140716000Y-108839000D03*
X140716000Y-111379000D03*
X140716000Y-113919000D03*
X140716000Y-116459000D03*
X140716000Y-118999000D03*
X140716000Y-121539000D03*
X140716000Y-124079000D03*
X140716000Y-126619000D03*
X140716000Y-129159000D03*
X140716000Y-131699000D03*
X140716000Y-134239000D03*
X140716000Y-136779000D03*
X140716000Y-139319000D03*
X140716000Y-141859000D03*
X166116000Y-141859000D03*
X166116000Y-139319000D03*
X166116000Y-136779000D03*
X166116000Y-134239000D03*
X166116000Y-131699000D03*
X166116000Y-129159000D03*
X166116000Y-126619000D03*
X166116000Y-124079000D03*
X166116000Y-121539000D03*
X166116000Y-118999000D03*
X166116000Y-116459000D03*
X166116000Y-113919000D03*
X166116000Y-111379000D03*
X166116000Y-108839000D03*
X166116000Y-106299000D03*
%TD*%
M02*
