%TF.GenerationSoftware,KiCad,Pcbnew,6.0.2+dfsg-1*%
%TF.CreationDate,2022-04-07T05:00:03+00:00*%
%TF.ProjectId,guante metaversal,6775616e-7465-4206-9d65-746176657273,rev?*%
%TF.SameCoordinates,Original*%
%TF.FileFunction,Profile,NP*%
%FSLAX46Y46*%
G04 Gerber Fmt 4.6, Leading zero omitted, Abs format (unit mm)*
G04 Created by KiCad (PCBNEW 6.0.2+dfsg-1) date 2022-04-07 05:00:03*
%MOMM*%
%LPD*%
G01*
G04 APERTURE LIST*
%TA.AperFunction,Profile*%
%ADD10C,0.500000*%
%TD*%
G04 APERTURE END LIST*
D10*
X140462000Y-76835000D02*
G75*
G03*
X139192000Y-78105000I-1J-1269999D01*
G01*
X139192000Y-113030000D02*
X139192000Y-121285000D01*
X138557000Y-102870000D02*
X138557000Y-105410000D01*
X138557000Y-98425000D02*
G75*
G03*
X137287000Y-97155000I-1269999J1D01*
G01*
X139192000Y-102870000D02*
X138557000Y-102870000D01*
X138557000Y-100965000D02*
X138557000Y-98425000D01*
X124587000Y-97155000D02*
G75*
G03*
X123317000Y-98425000I-1J-1269999D01*
G01*
X137287000Y-106680000D02*
G75*
G03*
X138557000Y-105410000I1J1269999D01*
G01*
X123317000Y-105410000D02*
G75*
G03*
X124587000Y-106680000I1269999J-1D01*
G01*
X123317000Y-98425000D02*
X123317000Y-105410000D01*
X139192000Y-100965000D02*
X138557000Y-100965000D01*
X123317000Y-95250000D02*
G75*
G03*
X124587000Y-96520000I1269999J-1D01*
G01*
X123317000Y-88265000D02*
X123317000Y-95250000D01*
X124587000Y-86995000D02*
G75*
G03*
X123317000Y-88265000I-1J-1269999D01*
G01*
X139192000Y-90805000D02*
X138557000Y-90805000D01*
X137287000Y-96520000D02*
G75*
G03*
X138557000Y-95250000I1J1269999D01*
G01*
X138557000Y-90805000D02*
X138557000Y-88265000D01*
X138557000Y-92710000D02*
X138557000Y-95250000D01*
X139192000Y-92710000D02*
X138557000Y-92710000D01*
X138557000Y-88265000D02*
G75*
G03*
X137287000Y-86995000I-1269999J1D01*
G01*
X139065000Y-151130000D02*
G75*
G03*
X140335000Y-152400000I1269999J-1D01*
G01*
X124587000Y-76835000D02*
G75*
G03*
X123317000Y-78105000I-1J-1269999D01*
G01*
X123317000Y-78105000D02*
X123317000Y-85090000D01*
X123317000Y-85090000D02*
G75*
G03*
X124587000Y-86360000I1269999J-1D01*
G01*
X137287000Y-86360000D02*
G75*
G03*
X138557000Y-85090000I1J1269999D01*
G01*
X138557000Y-78105000D02*
G75*
G03*
X137287000Y-76835000I-1269999J1D01*
G01*
X139192000Y-80645000D02*
X138557000Y-80645000D01*
X138557000Y-80645000D02*
X138557000Y-78105000D01*
X137287000Y-76835000D02*
X124587000Y-76835000D01*
X138557000Y-82550000D02*
X138557000Y-85090000D01*
X139192000Y-82550000D02*
X138557000Y-82550000D01*
X138557000Y-108585000D02*
G75*
G03*
X137287000Y-107315000I-1269999J1D01*
G01*
X139192000Y-113030000D02*
X138557000Y-113030000D01*
X138557000Y-113030000D02*
X138557000Y-115570000D01*
X138557000Y-111125000D02*
X138557000Y-108585000D01*
X137287000Y-116840000D02*
G75*
G03*
X138557000Y-115570000I1J1269999D01*
G01*
X139192000Y-111125000D02*
X138557000Y-111125000D01*
X124587000Y-107315000D02*
G75*
G03*
X123317000Y-108585000I-1J-1269999D01*
G01*
X123317000Y-108585000D02*
X123317000Y-115570000D01*
X123317000Y-115570000D02*
G75*
G03*
X124587000Y-116840000I1269999J-1D01*
G01*
X124587000Y-116840000D02*
X128270000Y-116840000D01*
X139192000Y-121285000D02*
X138557000Y-121285000D01*
X123317000Y-118745000D02*
X123317000Y-125730000D01*
X123317000Y-125730000D02*
G75*
G03*
X124587000Y-127000000I1269999J-1D01*
G01*
X124587000Y-127000000D02*
X137287000Y-127000000D01*
X137287000Y-127000000D02*
G75*
G03*
X138557000Y-125730000I1J1269999D01*
G01*
X124587000Y-117475000D02*
G75*
G03*
X123317000Y-118745000I-1J-1269999D01*
G01*
X138557000Y-121285000D02*
X138557000Y-118745000D01*
X128270000Y-117475000D02*
X124587000Y-117475000D01*
X139192000Y-123190000D02*
X138557000Y-123190000D01*
X138557000Y-118745000D02*
G75*
G03*
X137287000Y-117475000I-1269999J1D01*
G01*
X138557000Y-123190000D02*
X138557000Y-125730000D01*
X128270000Y-117475000D02*
X128270000Y-116840000D01*
X130365500Y-117475000D02*
X130365500Y-116840000D01*
X130429000Y-86995000D02*
X130429000Y-86360000D01*
X137160000Y-86995000D02*
X130429000Y-86995000D01*
X137287000Y-86360000D02*
X130429000Y-86360000D01*
X128270000Y-86995000D02*
X128270000Y-86360000D01*
X128270000Y-86995000D02*
X124587000Y-86995000D01*
X124587000Y-86360000D02*
X128270000Y-86360000D01*
X140335000Y-152400000D02*
X166624000Y-152400000D01*
X139192000Y-123190000D02*
X139065000Y-151130000D01*
X167894000Y-88762840D02*
X167894000Y-103632000D01*
X168605200Y-103632000D02*
X167894000Y-103632000D01*
X167906700Y-125031500D02*
X167906700Y-142697200D01*
X168656000Y-105664000D02*
X167894000Y-105664000D01*
X143446500Y-102489000D02*
G75*
G03*
X143446500Y-102489000I-1460500J0D01*
G01*
X182321000Y-93450000D02*
G75*
G03*
X182321000Y-93450000I-1600000J0D01*
G01*
X168605200Y-103632000D02*
X168656000Y-100457000D01*
X182321000Y-136398000D02*
G75*
G03*
X182321000Y-136398000I-1600000J0D01*
G01*
X167894000Y-88773000D02*
X167906700Y-78092300D01*
X168656000Y-129285999D02*
G75*
G03*
X189233135Y-129540001I10287000J-254001D01*
G01*
X168656000Y-112585500D02*
X167894000Y-112585500D01*
X168656000Y-114617500D02*
X168656000Y-122936000D01*
X167894000Y-122936000D02*
X167894000Y-114617500D01*
X128270000Y-97155000D02*
X124587000Y-97155000D01*
X189230000Y-100838000D02*
X189233135Y-129540001D01*
X139192000Y-82550000D02*
X139192000Y-90805000D01*
X137287000Y-116840000D02*
X130365500Y-116840000D01*
X139192000Y-92710000D02*
X139192000Y-100965000D01*
X137287000Y-107315000D02*
X130429000Y-107315000D01*
X124587000Y-96520000D02*
X128270000Y-96520000D01*
X137160000Y-97155000D02*
X130365500Y-97155000D01*
X130365500Y-97155000D02*
X130365500Y-96520000D01*
X137160000Y-117475000D02*
X130365500Y-117475000D01*
X139192000Y-102870000D02*
X139192000Y-111125000D01*
X167906700Y-151079200D02*
X167906700Y-142697200D01*
X137287000Y-96520000D02*
X130365500Y-96520000D01*
X189230000Y-100838000D02*
G75*
G03*
X168652865Y-100584000I-10287000J254000D01*
G01*
X128397000Y-107315000D02*
X124587000Y-107315000D01*
X166306500Y-149479000D02*
G75*
G03*
X166306500Y-149479000I-1460500J0D01*
G01*
X137414000Y-106680000D02*
X130429000Y-106680000D01*
X168656000Y-105664000D02*
X168656000Y-112585500D01*
X124587000Y-106680000D02*
X128397000Y-106680000D01*
X166649400Y-76822300D02*
X140462000Y-76835000D01*
X139192000Y-78105000D02*
X139192000Y-80645000D01*
X128270000Y-97155000D02*
X128270000Y-96520000D01*
X130429000Y-107315000D02*
X130429000Y-106680000D01*
X166624000Y-152400000D02*
G75*
G03*
X167894000Y-151130000I1J1269999D01*
G01*
X168656000Y-114617500D02*
X167894000Y-114617500D01*
X168529000Y-125031500D02*
X168656000Y-129285999D01*
X168529000Y-125031500D02*
X167894000Y-125031500D01*
X143446500Y-149479000D02*
G75*
G03*
X143446500Y-149479000I-1460500J0D01*
G01*
X168656000Y-122936000D02*
X167894000Y-122936000D01*
X128397000Y-107315000D02*
X128397000Y-106680000D01*
X167906700Y-105664000D02*
X167894000Y-112585500D01*
X167906700Y-78092300D02*
G75*
G03*
X166636700Y-76822300I-1269999J1D01*
G01*
M02*
